<?xml version="1.0" encoding="UTF-8"?> <svg xmlns="http://www.w3.org/2000/svg" xmlns:xlink="http://www.w3.org/1999/xlink" id="MinEx_CRC_Logo_-_Reverse" data-name="MinEx CRC Logo - Reverse" width="150.425" height="37.916" viewBox="0 0 150.425 37.916"><defs><clipPath id="clip-path"><rect id="Rectangle_343" data-name="Rectangle 343" width="150.425" height="37.916" transform="translate(0 0)" fill="none"></rect></clipPath></defs><g id="Group_1816" data-name="Group 1816" transform="translate(0 0)" clip-path="url(#clip-path)"><path id="Path_471" data-name="Path 471" d="M63.692,11.777H59.956l-5.423,7.639-5.421-7.639H45.376V28.164h4.856v-7.35l3.025,4.554v.073h2.554v-.024l3.013-4.555v7.3h4.868Zm4.9,3.085a2.556,2.556,0,1,0-2.651-2.555A2.577,2.577,0,0,0,68.6,14.862m2.338,1.445H66.257V28.164h4.676Zm10.017-.361a4.936,4.936,0,0,0-3.085,1.06v-.7h-4.65V28.164h4.65V20.91a2.3,2.3,0,0,1,1.639-.8c.892,0,1.663.53,1.663,1.976v6.073h4.675V21.079c0-3.277-2.024-5.133-4.892-5.133m12.167-.1H101V11.777H88.274V28.164H101V24.091h-7.88V21.947h6.747v-3.9H93.117Zm18.713,6.483-.024-.024,3.952-6.024H110.7l-1.881,2.771-1.831-2.771h-5.06l3.927,6.024-3.927,5.856h4.819l2.1-3.085,2.072,3.085h4.844Z" fill="#fff"></path><path id="Path_472" data-name="Path 472" d="M128.795,28.164c.271,0,.39-.136.39-.407v-1a.343.343,0,0,0-.39-.39H125a1,1,0,0,1-.831-.355l-.66-.66a1.1,1.1,0,0,1-.355-.915v-4.4a1.1,1.1,0,0,1,.355-.915l.66-.661A1,1,0,0,1,125,18.1h3.794a.343.343,0,0,0,.39-.39v-1c0-.271-.119-.407-.39-.407h-4.15a2.16,2.16,0,0,0-1.778.745l-1.034,1.033a2.117,2.117,0,0,0-.694,1.728v4.845a2.117,2.117,0,0,0,.694,1.728l1.034,1.032a2.158,2.158,0,0,0,1.778.746Zm4.658-5.979c-.119,0-.169-.051-.169-.17v-3.76c0-.119.05-.17.169-.17h3.524a1.066,1.066,0,0,1,.846.339l.356.356a.916.916,0,0,1,.3.813v.677a.913.913,0,0,1-.3.813l-.762.762a1.065,1.065,0,0,1-.848.34Zm-.559,5.979c.271,0,.39-.136.39-.407V24.133c0-.119.05-.169.169-.169h2.914a.578.578,0,0,1,.643.406l1.694,3.472a.465.465,0,0,0,.474.322h1.372c.289,0,.424-.169.289-.44l-2.033-4.168c-.085-.185-.1-.287.033-.423l.983-.982a1.99,1.99,0,0,0,.695-1.593V19.305a1.989,1.989,0,0,0-.695-1.592l-.661-.661a2.162,2.162,0,0,0-1.778-.745h-5.725c-.271,0-.39.136-.39.407V27.757c0,.271.119.407.39.407Zm17.142,0c.271,0,.389-.136.389-.407v-1a.342.342,0,0,0-.389-.39h-3.794a1,1,0,0,1-.83-.355l-.661-.66a1.1,1.1,0,0,1-.355-.915v-4.4a1.1,1.1,0,0,1,.355-.915l.661-.661a1,1,0,0,1,.83-.355h3.794a.342.342,0,0,0,.389-.39v-1c0-.271-.118-.407-.389-.407h-4.15a2.162,2.162,0,0,0-1.778.745l-1.034,1.033a2.12,2.12,0,0,0-.694,1.728v4.845a2.12,2.12,0,0,0,.694,1.728l1.034,1.032a2.16,2.16,0,0,0,1.778.746Z" fill="#fff"></path><path id="Path_473" data-name="Path 473" d="M.106,20.9C-1.447,14.719,14.41,1.135,21.9.066c8.727-1.248,6.44,15.571,10.061,18.165,10.045,7.193,9.8,13.045-3.025,18.7C20.923,40.468,3.473,34.305.106,20.9" fill="#ffd600"></path><path id="Path_474" data-name="Path 474" d="M3.246,23.381C1.91,18.1,15.55,6.495,21.987,5.582c7.507-1.066,5.6,13.192,8.677,15.519,8.37,6.321,8.123,11.263-2.624,15.976-6.891,3.012-21.9-2.247-24.794-13.7" fill="#faa41f"></path><path id="Path_475" data-name="Path 475" d="M6.385,25.86C5.266,21.479,16.688,11.855,22.077,11.1c6.286-.883,4.752,10.812,7.291,12.875,6.7,5.441,6.444,9.481-2.222,13.247C21.372,39.711,8.809,35.356,6.385,25.86" fill="#f47424"></path><path id="Path_476" data-name="Path 476" d="M9.52,28.337c-.9-3.48,8.3-11.124,12.647-11.726,5.065-.7,3.908,8.427,5.9,10.229,5.036,4.547,4.77,7.712-1.821,10.519C21.6,39.34,11.475,35.88,9.52,28.337" fill="#dc2327"></path><path id="Path_477" data-name="Path 477" d="M12.653,30.816c-.685-2.578,6.3-8.243,9.6-8.688,3.845-.521,3.073,6.032,4.519,7.582,3.39,3.632,3.09,5.929-1.418,7.792-3.535,1.46-11.215-1.1-12.7-6.686" fill="#951b1e"></path><path id="Path_478" data-name="Path 478" d="M15.774,33.3c-.467-1.677,4.3-5.362,6.552-5.652,2.623-.339,2.257,3.624,3.133,4.938,1.789,2.682,1.4,4.133-1.018,5.063s-7.655-.713-8.667-4.349" fill="#5d0d0d"></path></g></svg> 