<?xml version="1.0" encoding="UTF-8"?>
<svg id="Layer_1" data-name="Layer 1" xmlns="http://www.w3.org/2000/svg" xmlns:xlink="http://www.w3.org/1999/xlink" version="1.1" viewBox="0 0 64 64">
  <defs>
    <style>
      .cls-1 {
        fill: #f8bd00;
      }

      .cls-1, .cls-2, .cls-3, .cls-4, .cls-5, .cls-6, .cls-7, .cls-8, .cls-9, .cls-10, .cls-11, .cls-12, .cls-13, .cls-14, .cls-15 {
        stroke-width: 0px;
      }

      .cls-2 {
        fill: #fdd901;
      }

      .cls-3 {
        fill: #ffea0d;
      }

      .cls-4 {
        fill: #871701;
      }

      .cls-5 {
        fill: #f9c300;
      }

      .cls-6 {
        fill: url(#radial-gradient);
      }

      .cls-7 {
        fill: #a32202;
      }

      .cls-8 {
        fill: #fcec13;
      }

      .cls-9 {
        fill: #ffef1c;
      }

      .cls-10 {
        fill: #b52c00;
      }

      .cls-11 {
        fill: #b72d00;
      }

      .cls-12 {
        fill: #ffe303;
      }

      .cls-13 {
        fill: #991c00;
      }

      .cls-14 {
        fill: #ffe804;
      }

      .cls-15 {
        fill: #a82403;
      }
    </style>
    <radialGradient id="radial-gradient" cx="32" cy="32" fx="32" fy="32" r="32" gradientUnits="userSpaceOnUse">
      <stop offset=".2" stop-color="#e75c01"/>
      <stop offset=".4" stop-color="#e76000"/>
      <stop offset=".5" stop-color="#ea6d00"/>
      <stop offset=".6" stop-color="#ef8300"/>
      <stop offset=".8" stop-color="#f5a100"/>
      <stop offset=".9" stop-color="#fdc300"/>
      <stop offset=".9" stop-color="#fbc000"/>
      <stop offset=".9" stop-color="#f7b800"/>
      <stop offset=".9" stop-color="#f0aa00"/>
      <stop offset="1" stop-color="#e69700"/>
      <stop offset="1" stop-color="#da7e00"/>
      <stop offset="1" stop-color="#ca5e00"/>
      <stop offset="1" stop-color="#b73a00"/>
      <stop offset="1" stop-color="#ae2700"/>
    </radialGradient>
  </defs>
  <circle class="cls-6" cx="32" cy="32" r="32"/>
  <path class="cls-7" d="M31.2,17.7c-1.7.9-4.2,3.1-5.8.8s-.7-1.6-1-2.4c-.4-1-1.1-1.9-2-2.6-1.5,2.6-3.7,4.7-6.2,6.3-.5.3-1,.6-1.1,1.2.3,0,.6.2.9.3-1.2,2.7-1.9,5.6-2,8.6,0,.2,0,.3,0,.5.2.5,1,.4,1.3.8.2.2.1.5.2.8s.4.5.6.3c-.2-.8-.6-1.5-1.1-2.1.5-.7.9-1.5,1-2.4,0-.6,0-1.4-.5-1.7.2-1.4.8-2.6,1.8-3.6.4-.4,1.1-.8,1.5-.3.1.1.2.4.4.4.1,0,.2-.1.3-.2.6-.7,1.2-1.5,1.9-2.2.1-.1.3-.3.5-.3.4,0,.5.4.6.8.1.8-.2,2,0,2.7,1.2-.2,2.4.2,3.5.8s2.8,2,2.4,2.7c.7-1.2,1.1-2.5,1.1-3.9,1.1-.8,2.8.5,2.9,1.9s-.9,2.6-1.8,3.7c1.8-1,3.4-2.5,4.4-4.3.8.6.7,1.9,0,2.6s-1.5,1.2-2.3,1.7-1.7,1.2-1.9,2.1c.3.2.6.4,1,.7-.4,1.1-2.1,1.4-2.9.5.3.4-.7,1.9-1,2.1-.7.5-2.2.9-3,1.1s-2.1.5-3.1.2c-1.6-.5-2.5-2.2-3.9-3-.3,1-1.6,1.4-2.5.9-.3-.2-.5-.4-.8-.4s-.7.2-.6.5c0,.2.3.3.5.3,1.3.2,2.7.4,4,.5,0,.5,0,1,0,1.5-.8,0-1.7,0-2.1.6-.4.5-.4,1.2,0,1.8s.8,1,1.3,1.3c1.1.8,2.3,1.4,3.7,1.4.9,0,1.6-.4,2.4-.7,1.7-.5,2.3-.8,3.8.2.1-.6.8-.9,1.4-.8.1,0,.3,0,.4,0,.3,0,.4-.4.6-.5.4-.3.9,0,1.3-.1.4-.1.5-.5.7-.9.4-.9,1.2-1.5,1.7-2.3s.5-1.7,1.4-1.7c1.2,0,1.7,2.5,2.8,2,.2-.1.4-.4.6-.5.6-.4,1.5,0,2.2-.2.6-.3.8-1,.8-1.6s0-1.3.3-1.8,1.3-.7,1.5-.2c.6-1.4-1.1-2.6-1.5-4.1-.5-1.9,1.4-3.7.8-5.6-.6-2-3.1-2.2-4.6-3.1s-1.4-1.4-2.3-1.7c-1.4-.5-3.6.2-4.9.8Z"/>
  <path class="cls-4" d="M23.7,5.4c-.6-.3-.8-1.2-.3-1.7.2-.1.4-.2.5-.3,1.4-.6,2.8-1.2,4.3-.9.9.2,1.7.7,2.5,1.1s1.7.8,2.6.7,1.8-.9,1.8-1.8c.8.2,1.9-.4,2.3.4.2.4,0,.9,0,1.3,0,.8,1.1,1.2,1.8,1s1.3-.8,1.8-1.4c.7.7,1.6,1.2,2.6,1.4.4,0,.9.2.9.5,0,.2-.2.4-.4.6-.8.5-1.7.9-2.6.9-.4,0-.7,0-1.1.2s-.6.5-.5.9c.2.4.8.4,1.3.5s.9.8.5,1c-.5.4-1,.9-1.7,1s-1.4,0-1.7-.7c-.1-.3-.1-.5-.2-.8-.3-1.3-1.6-2-2.9-2.2s-2.6,0-3.8,0c-.2,0-.4,0-.6-.2-.2-.2-.3-.5-.4-.7-.3-.5-.8-.8-1.2-1-.6-.3-1.3-.7-2-.8-1.3-.1-2.3,1.9-3.6,1.2Z"/>
  <path class="cls-11" d="M51.7,42.6c.1,0,.2,0,.3.1.2.2,0,.6-.1.8s-.5.3-.7.6c-.4.7.7,1.5.3,2.2-.1.2-.3.4-.4.6,0,.4.5.6.9.6s.9-.2,1.2,0,.4.8.5,1.3.3,1.1.8,1.1c.5,0,.7-.7.7-1.2,0-.5,0-1.1-.1-1.6s-.5-1-1.1-1.1c-.3,0-.5,0-.8,0-.7-.3-.7-1.3-.5-2,.2-.8.4-1.7.6-2.5,0-.3.1-.6.4-.8.2-.2.4-.2.6-.3.2-.2.4-.5.6-.7.4-.4,1.1-.4,1.7-.6,1.3-.4,1.8-2.3.9-3.4-.2-.3-.5-.5-.6-.8,0-.1,0-.3-.1-.4-.3-.5-1-.2-1.3.3s-.3,1-.6,1.5c-.2.3-.5.5-.6.8,0,.2,0,.5,0,.8-.2,1.6-2,.8-2.7,1.7s-.7,2.7.2,3.1Z"/>
  <path class="cls-11" d="M44.1,43.7c.8.6,1.7,1.1,2.6.7,1-.5,1-1.9,1.7-2.7-1.2-.5-2.6-.3-3.6.3,0-.4.3-.6.6-.8s.7-.2.9-.5c0-.2.1-.4.1-.5,0-.5-.2-1.3-.7-1.2-.3,0-.5.3-.6.6-.6,1-1.7,1.7-2.9,1.8-.5,0-1.1,0-1.6.2s-.9.7-.8,1.2c0-.4,3.9.8,4.2,1Z"/>
  <path class="cls-13" d="M43.5,45.8c-.8-.3-1.5-.8-2.1-1.4-1,.8-2.2.6-3.2,0-.2-.1-.5-.2-.7-.1-.1,0-.2.2-.2.3-.2.4-.4.9-.3,1.4.3,1.3,2.2,1.4,2.4,3.2,0,.4,0,.9.2,1.3.3.5,1.1.5,1.7.5-.2-.7-.4-1.4-.7-2.1,0-.2-.2-.5,0-.8.1-.4.7-.6,1.1-.6s.9.2,1.4,0c.7-.2,1.1-1.1.7-1.7"/>
  <path class="cls-10" d="M27.1,48.6c-1.1-1.1-.6-3-1.4-4.4-.9,0-1.5.9-2.3,1-.5,0-1.1-.1-1.6,0-.7.2-1.1.9-1.2,1.6,0,1.4,1.1,2.6,2.3,3.4.5.3.9.5,1.3.9.7.7,2.2,3.4,3.4,2.3s0-4.2-.6-4.8Z"/>
  <path class="cls-15" d="M15.7,16c-.1.1-.3.2-.4.1,0,0,0-.2,0-.3,0-.2-.2-.3-.3-.4-.6-.4-1.2-.9-1.8-1.3-.2-.2-.5-.4-.8-.3-.3.1-.4.4-.5.7s-.6.4-.7.1c0-.1,0-.3.1-.5.6-1,1.2-2.1,1.8-3.1,0-.1.1-.2.2-.3.3-.2.7.3.7.7s0,.9.2,1.1c.2.2.5.2.6.5,0,.1,0,.2.1.3.2.4.7.3,1.1.1s.6-.6,1-.7c1-.4.9.5.7,1s-1.5,1.7-2,2.2Z"/>
  <path class="cls-5" d="M46.7,17c-.3.9,0,2,.7,2.7,1.4.3,2.9-1.4,4.1-.6,1,.7.7,2.6,1.8,3.1.5.2,1,.2,1.5.3,1,.2,1.8,1,2.2,1.9s.6,1.9.8,2.9c.3,1.3,1.4.4,1.6-.4,0-.2,0-.4.2-.5,0,0,.2,0,.3,0,1,0,1.9.7,2.9.9-.8-2.7-2.4-5.3-4.3-7.4-.2-.2-.4-.4-.7-.6-.2,0-.5,0-.7-.2-.8-.4-.7-1.5-.5-2.4-.4,0-.9.1-1.3,0-.8-.2-.5-.7-.7-1.2s0-.5-.7-.9-1.6-.4-2.4-.2c-1.7.3-4.1.5-4.7,2.5Z"/>
  <path class="cls-1" d="M60.4,30l-1.3.3c0,.5,0,1.1,0,1.6,0,0,0,.2,0,.2,0,0,.1.1.2.1.5.2,1,.4,1.6.6-.3-.6-.5-1.3-1-1.5.4,0,.9,0,1.3-.3-.2-.3-.5-.6-.7-.8"/>
  <path class="cls-14" d="M58.7,42.9c1.7.7,3.4,1.4,5.1,2.1-1.2-1.4-3.5-1.5-4.5-3,.2,0,.5,0,.7-.1.1,0-1.6-1.4-1.8-1.5-.6-.4-1-.6-1.8-.5-1,.2-1.8.9-2.3,1.8-.1.3-.2.6-.2.9,0,.4.3.8.6,1.1,1.2,1.4,2.1,3.1,3,4.7-.1-.9-.3-1.8-.4-2.8,1,.6.9,2.1,1.9,2.6-.2-.5-.3-1.1-.4-1.6.5.3,1.2.5,1.8.4-.2,0-.7-1.1-.8-1.3-.1-.5.2-.9-.3-1.3.2,0,.4,0,.5.2s.3.3.5.3c-.3-.4-.4-.8-.7-1.1-.2-.2-.6-.7-.9-.9Z"/>
  <path class="cls-9" d="M39.4,40.1c.2,0,.4.2.4.4s-.2.4-.3.3c.3.2.8,0,1.1-.2.2-.1.4-.2.6-.4s.2-.5.1-.7c-.3-.5-1.1-.2-1.4-.6.5-.3,1-.5,1.6-.5s1.1.3,1.4.8c.2.4.2.9,0,1.4.4-.4.8-.9.9-1.5s0-1.2-.6-1.6c-.2-.1-.4-.2-.6-.3-.5-.2-.9-.3-1.4-.4-1-.1-2.1.2-2.9,1,.4-.9,1.3-1.4,2.2-1.8-1.2.1-2.3.7-3.1,1.7,0-.1,0-.2,0-.4-.5.4-.7,1.2-.3,1.7-.3,0-.7.1-.8.4.3.1.6.2.9.3,0,0-.2,0-.2.2.4,0,.7,0,1.1.1,0,0,.2,0,.2,0,0,0,0,.1.1.2.2.2.3,0,.4-.1.2,0,.2-.2.5-.2Z"/>
  <path class="cls-12" d="M28.5,29.9c0,.6,0,1.2.4,1.6-.2-.1-.4-.3-.5-.6,0,.7-.2,1.3-.6,1.9,0-.8,0-1.7.1-2.5-.1.4-.2.7-.5,1-.1.1-.3.2-.4.3-.2.1-.3.3-.4.5-.4.5-.9,1.1-1.4,1.6-.3.3-.6.7-1.1.8-.5.2-1.2,0-1.6-.3.5-.2,1-.4,1.5-.5-.4,0-.8,0-1.3,0,0,0-.1,0-.2,0-.1,0-.1-.3,0-.4s.3-.1.4-.2c.6-.1,1.3-.2,1.9-.4-.2,0-.4,0-.6,0,0,0,0-.2.1-.3.7-.4,1.7-.6,2-1.4,0-.1.1-.3.2-.4s.2-.1.4-.2c.3-.1.6-.5.7-.8s.1-.7,0-1.1c0-.6,0-1.2-.2-1.8.1,0,.2,0,.3.2.1.4.2.8.3,1.2.3,0,.5-.3.5-.6,0-.2,0-.4,0-.6s.2-.5.4-.4c.2.2.3.6.3.9,0-.5.5-.9.5-1.4,0-.2,0-.3-.1-.4s0-.3.1-.4c.2-.1.4,0,.6.3s.4.3.6.2c.3.2.4.7.2,1s-.6.5-1,.5c-.2.2-.4.4-.3.7,0,0,0,.1.1.2,0,.1-.1.3-.2.4-.3.3-.7.5-1,.8.5,0,1,0,1.5,0,.4-.6,1.2-.6,1.7-1.1.4-.3.6-.9,1-1.1-.3,0-.7,1-.9,1.2-.3.4-.7.7-1.2.9s-1.1,0-1.3.5.5.7.7,1c-.6-.1-1.2-.5-1.7-.8Z"/>
  <path class="cls-3" d="M21.6,24.1c-.1,0-.3,0-.4,0-.5-.5-.8-1.3-.7-2-.2.3-.3.6-.3.9-.5.2-1.2,0-1.7-.3,0,0-.2-.2-.3-.2-.2,0-.5.2-.5.4-.2,0-.4.3-.2.5s.3.3.5.4c.3.2.6.5.6.9-.1,0-.3,0-.4,0,0,.3.2.5.5.5-.4.4-.8.9-1.1,1.4s-.4,1.2-.2,1.7c.2-.3.4-.6.7-.8l.3.9c0-.3,0-.6.3-.7,0,.6.2,1.2.6,1.8.5.9,1.2,1.5,2.1,2.1.3.2.7.4,1.1.5.2,0,.5,0,.7,0,.5,0,1.1-.1,1.6-.4s.9-.6,1-1.1c-.3.2-.7.3-1,.4-.7.2-1.5.2-2.2.2-.5,0-1,0-1.5-.2-.5-.2-.9-.7-1.2-1.1-.2-.2-.3-.4-.4-.7s.2-.6.4-.5c-.1,0,0,.3,0,.4s.3,0,.5,0c-.1,0-.2-.1-.4-.2.3-.4.6-.8,1-1.2,0,.2,0,.5,0,.7,0,.1-.1.2,0,.3,0,0,.1,0,.2,0,.3,0,.6,0,.9,0,0-.4.3-.7.7-.7,0,.5.2.9.4,1.3.2,0,.5,0,.7.2.2-.1.4-.2.7-.3h.1c.4,0,.7-.3.8-.7,0-.1,0-.3.1-.4.1-.3.5-.6.3-.9-.1-.2-.6-.2-.6-.5,0-.1.1-.2.2-.3,0-.2,0-.4-.2-.6.2,0,.3-.3.2-.4s-.4-.2-.6-.1-.3.2-.5.3c-.2.1-.3.2-.5.3-.2,0-.4.1-.6,0s-.2-.5,0-.5c-.1-.3-.3-.7-.6-.7-.5,0-.7,1-1.1.8-.7-.2.2-1.6,0-1.7Z"/>
  <path class="cls-8" d="M35.6,38.8c0-.2,0-.4-.2-.4,0-.7,0-1.5,0-2.2-.3.2-.6.5-.6.9-.1-.6-.1-1.2,0-1.8-.3,0-.6.3-.7.6s-.1.6-.2,1c0,.3,0,.6,0,.9,0,.1.1.2.1.3,0,.2-.1.3-.3.4s-.3,0-.5.1c0,0-.1,0-.2,0-.2.1,0,.4,0,.6-.3,0-.5.2-.7.4-.8-.3-1.8-.2-2.5.4.7,0,1.4,0,2,.4-.5,0-1,0-1.4,0s-1,0-1.4.2-.8.6-.9,1c.7-.3,1.6-.5,2.4-.5s1.6.2,2.3,0l-.3-.4c.2-.3.6-.2.8-.4.1,0,.2-.3.3-.4.2-.3.6-.4,1-.3.5.1.6-.2.6-.6Z"/>
  <path class="cls-2" d="M35.7,42.4c0-.1.1-.2,0-.4,0,0,0-.1-.1-.2-.3-.3-.8-.2-1,0-.1.1-.2.3-.4.4s-.4,0-.5-.1c-.1.2-.1.4,0,.6,0,0,.1.2.2.2s0,.2,0,.3-.2,0-.2,0c0,.2-.4.3-.7.2s-.3-.4-.4-.7c0-.1,0-.3,0-.4s-.1-.3-.3-.3c0,0-.2,0-.3,0-.2,0-.4.1-.6.2-.4,0-.8.2-1,.5,0,0,0,0,0,.2,0,.1,0,.2.2.2s.2,0,.3,0c.3.1.4.5.2.7,0,0,0,0-.1.1-.3.3-.6.5-.9.6.4,0,.9.1,1.3.2.2,0,.4,0,.6,0-.2.3-.3.7-.4,1.1,0,0,0,.2.1.2,0,0,0,0,0,0,.1-.1.3-.3.4-.4,0,.2,0,.4,0,.6,0,0,0,.2.1.2,0,0,0,0,0,0,.4-.3.7-.7.9-1.2,0,.2.2.3.2.5.1.6-.2,1.2-.7,1.5-.2,0-.4.1-.4.3.2.1.5,0,.7,0s.4-.3.5-.5c.4-.4.7-.8.7-1.4,0,0,.2.1.3.1,0-.3,0-.6.1-.9s.3-.6.6-.7l-.4,3.5c.4-.8.3-1.8.6-2.6.3,0,.4.3.6.5.2.3.4.6.6.9-.4-.7-.9-1.5-.7-2.4.1.2.3.3.5.4v-.3c.3,0,.5-.3.4-.5.3.1.7.3,1,.5-.2-.3-.3-.6-.4-.9.4,0,.6.4.9.6.2.2.5.2.8.3.4.2.8.5,1.1.8-.3-.9-1.2-1.3-1.7-2l2.8,1.1c0-.4-.5-.7-.9-.8s-.8-.2-1.2-.5c-.2-.2-.4-.4-.6-.6-.4-.4-1.1-.7-1.7-.6s-.3.2-.4.4c-.2.3-.5.4-.8.5Z"/>
</svg>