<?xml version="1.0" encoding="UTF-8"?>
<svg id="Layer_1" data-name="Layer 1" xmlns="http://www.w3.org/2000/svg" version="1.1" viewBox="0 0 64 64">
  <defs>
    <style>
      .cls-1 {
        fill: #e6e7e8;
        stroke-width: 0px;
      }

      .cls-2 {
        fill: none;
        stroke: #e6e7e8;
        stroke-miterlimit: 10;
        stroke-width: 6px;
      }
    </style>
  </defs>
  <line class="cls-2" x1="21" y1="13.1" x2="63.9" y2="13.1"/>
  <line class="cls-2" x1="21" y1="32.6" x2="63.9" y2="32.6"/>
  <line class="cls-2" x1="21" y1="50.7" x2="63.9" y2="50.7"/>
  <g>
    <path class="cls-1" d="M3.8,9.5h0l-2.4,1.1-.5-2.2,3.3-1.6h2.4v12.6h-2.9v-10h.1Z"/>
    <path class="cls-1" d="M10.9,17.9c0-1.1.7-1.8,1.7-1.8s1.7.7,1.7,1.8-.7,1.8-1.7,1.8-1.7-.8-1.7-1.8Z"/>
  </g>
  <g>
    <path class="cls-1" d="M0,38.4v-1.8l1.6-1.5c2.8-2.5,4.1-3.9,4.1-5.4s-.6-1.8-2.1-1.8-2,.5-2.7,1l-.8-2.1c1-.7,2.4-1.3,4.1-1.3,2.9,0,4.4,1.7,4.4,4s-1.5,3.8-3.4,5.4l-1.2,1h4.8v2.4H0Z"/>
    <path class="cls-1" d="M10.9,36.8c0-1,.7-1.8,1.7-1.8s1.7.7,1.7,1.8-.7,1.8-1.7,1.8-1.7-.8-1.7-1.8Z"/>
  </g>
  <g>
    <path class="cls-1" d="M.5,54.4c.5.3,1.7.8,2.9.8s2.3-.7,2.3-1.7-1.2-1.8-2.5-1.8h-1.2v-2.1h1.1c1,0,2.3-.4,2.3-1.5s-.6-1.3-1.9-1.3-2.1.4-2.6.8l-.6-2.1c.8-.5,2.3-1,3.9-1,2.7,0,4.2,1.4,4.2,3.1s-.8,2.4-2.3,2.9h0c1.5.3,2.7,1.5,2.7,3.1s-2,3.9-5.2,3.9-3-.4-3.8-.9l.6-2.2h.1Z"/>
    <path class="cls-1" d="M10.9,55.7c0-1,.7-1.8,1.7-1.8s1.7.7,1.7,1.8-.7,1.8-1.7,1.8-1.7-.8-1.7-1.8Z"/>
  </g>
</svg>