<?xml version="1.0" encoding="UTF-8"?>
<svg id="Layer_1" data-name="Layer 1" xmlns="http://www.w3.org/2000/svg" version="1.1" viewBox="0 0 64 64">
  <defs>
    <style>
      .cls-1 {
        fill: #74c044;
      }

      .cls-1, .cls-2, .cls-3, .cls-4, .cls-5, .cls-6 {
        stroke-width: 0px;
      }

      .cls-2 {
        fill: #a659a3;
      }

      .cls-7 {
        fill: #fff;
        stroke: #4d4d4f;
        stroke-miterlimit: 10;
        stroke-width: 3px;
      }

      .cls-3 {
        fill: #ffcd72;
      }

      .cls-4 {
        fill: #e86e5d;
      }

      .cls-5 {
        fill: #538dca;
      }

      .cls-6 {
        fill: #faa652;
      }
    </style>
  </defs>
  <circle class="cls-7" cx="53.3" cy="20.8" r="6.3"/>
  <circle class="cls-7" cx="36.2" cy="8.8" r="6.3"/>
  <circle class="cls-7" cx="20.8" cy="25.2" r="6.3"/>
  <circle class="cls-7" cx="12.7" cy="51.4" r="10.1"/>
  <circle class="cls-7" cx="39.5" cy="53.9" r="6.3"/>
  <circle class="cls-7" cx="44.6" cy="34.1" r="4.7"/>
  <circle class="cls-3" cx="21.4" cy="39.2" r="1.4"/>
  <circle class="cls-3" cx="26.3" cy="50.2" r="1.4"/>
  <circle class="cls-3" cx="24.2" cy="57.5" r="1.4"/>
  <circle class="cls-3" cx="20.7" cy="58.9" r="1.4"/>
  <circle class="cls-3" cx="20" cy="51.6" r="1.4"/>
  <circle class="cls-3" cx="17.9" cy="53" r="1.4"/>
  <circle class="cls-3" cx="17.2" cy="49.5" r="1.4"/>
  <circle class="cls-3" cx="15.8" cy="50.9" r="1.4"/>
  <circle class="cls-3" cx="16.5" cy="46" r="1.4"/>
  <circle class="cls-3" cx="13.7" cy="43.2" r="1.4"/>
  <circle class="cls-3" cx="13" cy="47.4" r="1.4"/>
  <circle class="cls-3" cx="3" cy="43.2" r="1.4"/>
  <circle class="cls-3" cx="5.1" cy="60.9" r="1.4"/>
  <circle class="cls-3" cx="15.1" cy="58.6" r="1.4"/>
  <circle class="cls-3" cx="13" cy="54.4" r="1.4"/>
  <circle class="cls-3" cx="11.6" cy="56.1" r="1.4"/>
  <circle class="cls-3" cx="7.9" cy="54.7" r="1.4"/>
  <circle class="cls-3" cx="6.5" cy="51.6" r="1.4"/>
  <circle class="cls-3" cx="13" cy="51.6" r="1.4"/>
  <circle class="cls-3" cx="11.1" cy="50.9" r="1.4"/>
  <circle class="cls-3" cx="8.7" cy="48.8" r="1.4"/>
  <circle class="cls-3" cx="8.3" cy="44.6" r="1.4"/>
  <circle class="cls-3" cx="4.4" cy="48.1" r="1.4"/>
  <circle class="cls-4" cx="48.6" cy="39.2" r="1.4"/>
  <circle class="cls-2" cx="37.6" cy="46.7" r="1.4"/>
  <circle class="cls-2" cx="36.2" cy="50.9" r="1.4"/>
  <circle class="cls-2" cx="40.4" cy="50.9" r="1.4"/>
  <circle class="cls-2" cx="44.1" cy="51.6" r="1.4"/>
  <circle class="cls-2" cx="37.6" cy="53.3" r="1.4"/>
  <circle class="cls-2" cx="40.4" cy="54.7" r="1.4"/>
  <circle class="cls-2" cx="41.8" cy="57.2" r="1.4"/>
  <circle class="cls-2" cx="44.6" cy="54.7" r="1.4"/>
  <circle class="cls-2" cx="32.5" cy="56.1" r="1.4"/>
  <circle class="cls-2" cx="37.6" cy="57.2" r="1.4"/>
  <circle class="cls-2" cx="37" cy="61.2" r="1.4"/>
  <circle class="cls-2" cx="48.6" cy="60" r="1.4"/>
  <circle class="cls-4" cx="39.8" cy="30.6" r="1.4"/>
  <circle class="cls-4" cx="43.2" cy="32" r="1.4"/>
  <circle class="cls-4" cx="46" cy="27.8" r="1.4"/>
  <circle class="cls-4" cx="44.6" cy="33.4" r="1.4"/>
  <circle class="cls-4" cx="37.9" cy="35.8" r="1.4"/>
  <circle class="cls-4" cx="44.1" cy="36.4" r="1.4"/>
  <circle class="cls-4" cx="42.6" cy="37.2" r="1.4"/>
  <circle class="cls-4" cx="48.6" cy="33" r="1.4"/>
  <circle class="cls-5" cx="18.6" cy="35.8" r="1.4"/>
  <circle class="cls-5" cx="22.1" cy="29.2" r="1.4"/>
  <circle class="cls-5" cx="22.8" cy="26.8" r="1.4"/>
  <circle class="cls-5" cx="20" cy="25.4" r="1.4"/>
  <circle class="cls-5" cx="17.9" cy="27.8" r="1.4"/>
  <circle class="cls-5" cx="26.3" cy="25.4" r="1.4"/>
  <circle class="cls-5" cx="23.5" cy="22.5" r="1.4"/>
  <circle class="cls-5" cx="25.6" cy="19.7" r="1.4"/>
  <circle class="cls-5" cx="15.1" cy="15.8" r="1.4"/>
  <circle class="cls-5" cx="21.4" cy="21.5" r="1.4"/>
  <circle class="cls-5" cx="13.7" cy="26.4" r="1.4"/>
  <circle class="cls-5" cx="16.5" cy="22.5" r="1.4"/>
  <circle class="cls-1" cx="45.5" cy="19.2" r="1.4"/>
  <circle class="cls-1" cx="48.6" cy="22.1" r="1.4"/>
  <circle class="cls-1" cx="52.7" cy="26.8" r="1.4"/>
  <circle class="cls-1" cx="51.3" cy="21.5" r="1.4"/>
  <circle class="cls-1" cx="55.5" cy="22.5" r="1.4"/>
  <circle class="cls-1" cx="59.1" cy="25" r="1.4"/>
  <circle class="cls-1" cx="49.9" cy="17.8" r="1.4"/>
  <circle class="cls-1" cx="51.3" cy="14.4" r="1.4"/>
  <circle class="cls-1" cx="54.1" cy="17.8" r="1.4"/>
  <circle class="cls-1" cx="57.7" cy="18.3" r="1.4"/>
  <circle class="cls-1" cx="61.6" cy="9.7" r="1.4"/>
  <circle class="cls-1" cx="55.5" cy="16.4" r="1.4"/>
  <circle class="cls-6" cx="41.8" cy="18.3" r="1.4"/>
  <circle class="cls-6" cx="32" cy="16.9" r="1.4"/>
  <circle class="cls-6" cx="30.6" cy="11.1" r="1.4"/>
  <circle class="cls-6" cx="25.6" cy="8.3" r="1.4"/>
  <circle class="cls-6" cx="36.2" cy="13" r="1.4"/>
  <circle class="cls-6" cx="35.6" cy="11.1" r="1.4"/>
  <circle class="cls-6" cx="37.9" cy="9.7" r="1.4"/>
  <circle class="cls-6" cx="39.8" cy="11.1" r="1.4"/>
  <circle class="cls-6" cx="33.4" cy="7.5" r="1.4"/>
  <circle class="cls-6" cx="36.2" cy="6.3" r="1.4"/>
  <circle class="cls-6" cx="39.8" cy="6.9" r="1.4"/>
  <circle class="cls-6" cx="34.8" cy="2.3" r="1.4"/>
</svg>