<?xml version="1.0" encoding="UTF-8"?>
<svg id="Layer_1" data-name="Layer 1" xmlns="http://www.w3.org/2000/svg" version="1.1" viewBox="0 0 64 64">
  <defs>
    <style>
      .cls-1 {
        fill: #662d91;
      }

      .cls-1, .cls-2, .cls-3 {
        stroke-width: 0px;
      }

      .cls-2 {
        fill: #92278f;
      }

      .cls-3 {
        fill: #2b3990;
      }
    </style>
  </defs>
  <rect class="cls-3" x="2" y="2" width="5" height="5"/>
  <rect class="cls-1" x="7" y="2" width="5" height="5"/>
  <rect class="cls-2" x="12" y="2" width="5" height="5"/>
  <rect class="cls-1" x="17" y="2" width="5" height="5"/>
  <rect class="cls-1" x="22" y="2" width="5" height="5"/>
  <rect class="cls-3" x="27" y="2" width="5" height="5"/>
  <rect class="cls-2" x="32" y="2" width="5" height="5"/>
  <rect class="cls-3" x="37" y="2" width="5" height="5"/>
  <rect class="cls-2" x="42" y="2" width="5" height="5"/>
  <rect class="cls-1" x="47" y="2" width="5" height="5"/>
  <rect class="cls-2" x="52" y="2" width="5" height="5"/>
  <rect class="cls-1" x="57" y="2" width="5" height="5"/>
  <rect class="cls-1" x="2" y="7" width="5" height="5"/>
  <rect class="cls-1" x="7" y="7" width="5" height="5"/>
  <rect class="cls-2" x="12" y="7" width="5" height="5"/>
  <rect class="cls-1" x="17" y="7" width="5" height="5"/>
  <rect class="cls-1" x="22" y="7" width="5" height="5"/>
  <rect class="cls-1" x="27" y="7" width="5" height="5"/>
  <rect class="cls-3" x="32" y="7" width="5" height="5"/>
  <rect class="cls-1" x="37" y="7" width="5" height="5"/>
  <rect class="cls-3" x="42" y="7" width="5" height="5"/>
  <rect class="cls-2" x="47" y="7" width="5" height="5"/>
  <rect class="cls-2" x="52" y="7" width="5" height="5"/>
  <rect class="cls-3" x="57" y="7" width="5" height="5"/>
  <rect class="cls-3" x="2" y="12" width="5" height="5"/>
  <rect class="cls-2" x="7" y="12" width="5" height="5"/>
  <rect class="cls-1" x="12" y="12" width="5" height="5"/>
  <rect class="cls-3" x="17" y="12" width="5" height="5"/>
  <rect class="cls-1" x="22" y="12" width="5" height="5"/>
  <rect class="cls-1" x="27" y="12" width="5" height="5"/>
  <rect class="cls-1" x="32" y="12" width="5" height="5"/>
  <rect class="cls-2" x="37" y="12" width="5" height="5"/>
  <rect class="cls-2" x="42" y="12" width="5" height="5"/>
  <rect class="cls-1" x="47" y="12" width="5" height="5"/>
  <rect class="cls-2" x="52" y="12" width="5" height="5"/>
  <rect class="cls-1" x="57" y="12" width="5" height="5"/>
  <rect class="cls-1" x="2" y="17" width="5" height="5"/>
  <rect class="cls-2" x="7" y="17" width="5" height="5"/>
  <rect class="cls-1" x="12" y="17" width="5" height="5"/>
  <rect class="cls-2" x="17" y="17" width="5" height="5"/>
  <rect class="cls-1" x="22" y="17" width="5" height="5"/>
  <rect class="cls-1" x="27" y="17" width="5" height="5"/>
  <rect class="cls-3" x="32" y="17" width="5" height="5"/>
  <rect class="cls-2" x="37" y="17" width="5" height="5"/>
  <rect class="cls-1" x="42" y="17" width="5" height="5"/>
  <rect class="cls-2" x="47" y="17" width="5" height="5"/>
  <rect class="cls-1" x="52" y="17" width="5" height="5"/>
  <rect class="cls-2" x="57" y="17" width="5" height="5"/>
  <rect class="cls-3" x="2" y="22" width="5" height="5"/>
  <rect class="cls-2" x="7" y="22" width="5" height="5"/>
  <rect class="cls-1" x="12" y="22" width="5" height="5"/>
  <rect class="cls-1" x="17" y="22" width="5" height="5"/>
  <rect class="cls-1" x="22" y="22" width="5" height="5"/>
  <rect class="cls-1" x="27" y="22" width="5" height="5"/>
  <rect class="cls-3" x="32" y="22" width="5" height="5"/>
  <rect class="cls-1" x="37" y="22" width="5" height="5"/>
  <rect class="cls-1" x="42" y="22" width="5" height="5"/>
  <rect class="cls-1" x="47" y="22" width="5" height="5"/>
  <rect class="cls-2" x="52" y="22" width="5" height="5"/>
  <rect class="cls-3" x="57" y="22" width="5" height="5"/>
  <rect class="cls-2" x="2" y="27" width="5" height="5"/>
  <rect class="cls-1" x="7" y="27" width="5" height="5"/>
  <rect class="cls-3" x="12" y="27" width="5" height="5"/>
  <rect class="cls-2" x="17" y="27" width="5" height="5"/>
  <rect class="cls-2" x="22" y="27" width="5" height="5"/>
  <rect class="cls-1" x="27" y="27" width="5" height="5"/>
  <rect class="cls-2" x="32" y="27" width="5" height="5"/>
  <rect class="cls-1" x="37" y="27" width="5" height="5"/>
  <rect class="cls-1" x="42" y="27" width="5" height="5"/>
  <rect class="cls-3" x="47" y="27" width="5" height="5"/>
  <rect class="cls-3" x="52" y="27" width="5" height="5"/>
  <rect class="cls-1" x="57" y="27" width="5" height="5"/>
  <rect class="cls-2" x="2" y="32" width="5" height="5"/>
  <rect class="cls-1" x="7" y="32" width="5" height="5"/>
  <rect class="cls-2" x="12" y="32" width="5" height="5"/>
  <rect class="cls-1" x="17" y="32" width="5" height="5"/>
  <rect class="cls-1" x="22" y="32" width="5" height="5"/>
  <rect class="cls-1" x="27" y="32" width="5" height="5"/>
  <rect class="cls-1" x="32" y="32" width="5" height="5"/>
  <rect class="cls-2" x="37" y="32" width="5" height="5"/>
  <rect class="cls-1" x="42" y="32" width="5" height="5"/>
  <rect class="cls-2" x="47" y="32" width="5" height="5"/>
  <rect class="cls-3" x="52" y="32" width="5" height="5"/>
  <rect class="cls-1" x="57" y="32" width="5" height="5"/>
  <rect class="cls-1" x="2" y="37" width="5" height="5"/>
  <rect class="cls-2" x="7" y="37" width="5" height="5"/>
  <rect class="cls-1" x="12" y="37" width="5" height="5"/>
  <rect class="cls-3" x="17" y="37" width="5" height="5"/>
  <rect class="cls-1" x="22" y="37" width="5" height="5"/>
  <rect class="cls-1" x="27" y="37" width="5" height="5"/>
  <rect class="cls-1" x="32" y="37" width="5" height="5"/>
  <rect class="cls-1" x="37" y="37" width="5" height="5"/>
  <rect class="cls-3" x="42" y="37" width="5" height="5"/>
  <rect class="cls-3" x="47" y="37" width="5" height="5"/>
  <rect class="cls-3" x="52" y="37" width="5" height="5"/>
  <rect class="cls-2" x="57" y="37" width="5" height="5"/>
  <rect class="cls-1" x="2" y="42" width="5" height="5"/>
  <rect class="cls-3" x="7" y="42" width="5" height="5"/>
  <rect class="cls-2" x="12" y="42" width="5" height="5"/>
  <rect class="cls-2" x="17" y="42" width="5" height="5"/>
  <rect class="cls-1" x="22" y="42" width="5" height="5"/>
  <rect class="cls-3" x="27" y="42" width="5" height="5"/>
  <rect class="cls-1" x="32" y="42" width="5" height="5"/>
  <rect class="cls-1" x="37" y="42" width="5" height="5"/>
  <rect class="cls-2" x="42" y="42" width="5" height="5"/>
  <rect class="cls-2" x="47" y="42" width="5" height="5"/>
  <rect class="cls-2" x="52" y="42" width="5" height="5"/>
  <rect class="cls-2" x="57" y="42" width="5" height="5"/>
  <rect class="cls-3" x="2" y="47" width="5" height="5"/>
  <rect class="cls-1" x="7" y="47" width="5" height="5"/>
  <rect class="cls-1" x="12" y="47" width="5" height="5"/>
  <rect class="cls-2" x="17" y="47" width="5" height="5"/>
  <rect class="cls-1" x="22" y="47" width="5" height="5"/>
  <rect class="cls-1" x="27" y="47" width="5" height="5"/>
  <rect class="cls-1" x="32" y="47" width="5" height="5"/>
  <rect class="cls-2" x="37" y="47" width="5" height="5"/>
  <rect class="cls-1" x="42" y="47" width="5" height="5"/>
  <rect class="cls-2" x="47" y="47" width="5" height="5"/>
  <rect class="cls-2" x="52" y="47" width="5" height="5"/>
  <rect class="cls-1" x="57" y="47" width="5" height="5"/>
  <rect class="cls-2" x="2" y="52" width="5" height="5"/>
  <rect class="cls-3" x="7" y="52" width="5" height="5"/>
  <rect class="cls-1" x="12" y="52" width="5" height="5"/>
  <rect class="cls-3" x="17" y="52" width="5" height="5"/>
  <rect class="cls-1" x="22" y="52" width="5" height="5"/>
  <rect class="cls-1" x="27" y="52" width="5" height="5"/>
  <rect class="cls-1" x="32" y="52" width="5" height="5"/>
  <rect class="cls-1" x="37" y="52" width="5" height="5"/>
  <rect class="cls-3" x="42" y="52" width="5" height="5"/>
  <rect class="cls-1" x="47" y="52" width="5" height="5"/>
  <rect class="cls-1" x="52" y="52" width="5" height="5"/>
  <rect class="cls-2" x="57" y="52" width="5" height="5"/>
  <rect class="cls-1" x="2" y="57" width="5" height="5"/>
  <rect class="cls-2" x="7" y="57" width="5" height="5"/>
  <rect class="cls-2" x="12" y="57" width="5" height="5"/>
  <rect class="cls-3" x="17" y="57" width="5" height="5"/>
  <rect class="cls-2" x="22" y="57" width="5" height="5"/>
  <rect class="cls-1" x="27" y="57" width="5" height="5"/>
  <rect class="cls-1" x="32" y="57" width="5" height="5"/>
  <rect class="cls-3" x="37" y="57" width="5" height="5"/>
  <rect class="cls-2" x="42" y="57" width="5" height="5"/>
  <rect class="cls-2" x="47" y="57" width="5" height="5"/>
  <rect class="cls-1" x="52" y="57" width="5" height="5"/>
  <rect class="cls-2" x="57" y="57" width="5" height="5"/>
</svg>