<?xml version="1.0" encoding="UTF-8"?>
<svg id="Layer_1" data-name="Layer 1" xmlns="http://www.w3.org/2000/svg" xmlns:xlink="http://www.w3.org/1999/xlink" version="1.1" viewBox="0 0 64 64">
  <defs>
    <style>
      .cls-1 {
        fill: #6a6561;
      }

      .cls-1, .cls-2, .cls-3, .cls-4, .cls-5, .cls-6, .cls-7, .cls-8, .cls-9, .cls-10, .cls-11, .cls-12, .cls-13, .cls-14, .cls-15, .cls-16, .cls-17, .cls-18, .cls-19, .cls-20, .cls-21, .cls-22, .cls-23, .cls-24, .cls-25, .cls-26 {
        stroke-width: 0px;
      }

      .cls-2 {
        fill: #7bc18f;
      }

      .cls-27, .cls-4, .cls-28, .cls-29 {
        fill: none;
      }

      .cls-27, .cls-28 {
        stroke: #101316;
        stroke-linecap: round;
      }

      .cls-27, .cls-28, .cls-29 {
        stroke-miterlimit: 10;
      }

      .cls-3 {
        fill: #98d2da;
      }

      .cls-30 {
        clip-path: url(#clippath);
      }

      .cls-5 {
        fill: #faa43a;
      }

      .cls-6 {
        fill: #524d4b;
      }

      .cls-7 {
        fill: url(#linear-gradient);
      }

      .cls-8 {
        fill: #0f0c10;
      }

      .cls-9 {
        fill: #00ad86;
      }

      .cls-10 {
        fill: url(#radial-gradient);
      }

      .cls-11 {
        fill: #21b280;
      }

      .cls-12 {
        fill: #4e1a18;
      }

      .cls-28 {
        stroke-width: .5px;
      }

      .cls-13 {
        fill: #2a4322;
      }

      .cls-14 {
        fill: #004238;
      }

      .cls-31 {
        clip-path: url(#clippath-1);
      }

      .cls-32 {
        clip-path: url(#clippath-3);
      }

      .cls-33 {
        clip-path: url(#clippath-2);
      }

      .cls-15 {
        fill: #353624;
      }

      .cls-16 {
        fill: #37414b;
      }

      .cls-17 {
        fill: #2d333f;
      }

      .cls-18 {
        fill: url(#radial-gradient-2);
      }

      .cls-19 {
        fill: url(#radial-gradient-3);
      }

      .cls-20 {
        fill: url(#radial-gradient-4);
      }

      .cls-21 {
        fill: #725959;
      }

      .cls-22 {
        fill: #005672;
      }

      .cls-23 {
        fill: #1e3c3a;
      }

      .cls-24 {
        fill: #403320;
      }

      .cls-25 {
        fill: #eb7726;
      }

      .cls-26 {
        fill: #999363;
      }

      .cls-29 {
        stroke: #14313f;
      }
    </style>
    <linearGradient id="linear-gradient" x1="32.4" y1="64.9" x2="32.4" y2="60.1" gradientTransform="translate(0 66) scale(1 -1)" gradientUnits="userSpaceOnUse">
      <stop offset="0" stop-color="#30ad96"/>
      <stop offset="1" stop-color="#70bf44"/>
    </linearGradient>
    <radialGradient id="radial-gradient" cx="32.3" cy="-38.6" fx="32.3" fy="-38.6" r="11.5" gradientTransform="translate(0 -17) scale(1 -.8)" gradientUnits="userSpaceOnUse">
      <stop offset="0" stop-color="#11181a"/>
      <stop offset=".2" stop-color="#13191a"/>
      <stop offset=".2" stop-color="#1b1d1a"/>
      <stop offset=".3" stop-color="#29231b"/>
      <stop offset=".4" stop-color="#3d2d1c"/>
      <stop offset=".4" stop-color="#57391e"/>
      <stop offset=".5" stop-color="#76491f"/>
      <stop offset=".5" stop-color="#9c5b22"/>
      <stop offset=".6" stop-color="#c66f24"/>
      <stop offset=".6" stop-color="#e07c26"/>
      <stop offset=".6" stop-color="#c08e2e"/>
      <stop offset=".7" stop-color="#a3a036"/>
      <stop offset=".8" stop-color="#8cad3c"/>
      <stop offset=".8" stop-color="#7cb740"/>
      <stop offset=".9" stop-color="#73bd43"/>
      <stop offset="1" stop-color="#70bf44"/>
    </radialGradient>
    <radialGradient id="radial-gradient-2" cx="32" cy="6.6" fx="32" fy="6.6" r="1.2" gradientTransform="translate(0 25) scale(1 -.9)" gradientUnits="userSpaceOnUse">
      <stop offset=".4" stop-color="#14181c"/>
      <stop offset=".6" stop-color="#643d1e"/>
      <stop offset="1" stop-color="#f28023"/>
    </radialGradient>
    <clipPath id="clippath">
      <path class="cls-4" d="M31.8,63c-.4,0-1.6-.8-2-.9-.2,0-.4-.2-.6-.2-.3-.1-.5-.3-.8-.5-.9-.7-1.6-1.8-2.3-2.7-.3-.3-.6-.7-.8-1s-.2-.5-.5-.9c-.3-.4-.5-.7-.8-1.1-.6-.7-1.1-1.4-1.6-2.2-.2-.4-.5-.8-.7-1.2-.2-.4-.3-.7-.5-1.1-.3-.6-.6-1.2-.9-1.8-.2-.6-.4-1.1-.6-1.7-.2-.5-.4-1.1-.6-1.7s-.2-1-.2-1.6c0-1.1-.8-2.1-.8-3.2v-3.4c0-.9.1-1.8,0-2.7-.2-1-.3-2-.2-3,.1-1.8.1-3.5.1-5.3s.1-2.8,0-4,.1-2.3.1-3.5v-.8c.1-.2.1-.4.1-.6.1-.3.2-.7.2-1,.2-1,1.4-1,2.2-1s1,.3,1.6.3h2.8c.2,0,.5.3.7.3h.7c.6,0,1,0,1.6.2v.2c.6.3,1.3.5,1.9.7.2,0,.4,0,.6.3.5.5.2,1.3.6,1.8.3.2.5.4.8.6h.1c0,.1,0,.2.1.1.3-.2.5-.4.8-.6.4-.5,0-1.3.6-1.8.2-.2.4-.2.6-.3.6-.2,1.3-.4,1.9-.7h0c.6-.3,1-.3,1.6-.3h.7c.2,0,.5-.3.7-.3h2.8c.6,0,1.1-.3,1.6-.3.8,0,2,0,2.2,1,0,.3,0,.7.2,1,0,.2,0,.4,0,.6v.8c0,1.2.2,2.3,0,3.5s0,2.7,0,4,0,3.5,0,5.3c0,1,0,2-.2,3,0,.9,0,1.8,0,2.7v3.4c0,1.1-.7,2.1-.8,3.2,0,.6,0,1-.2,1.6-.2.6-.4,1.2-.6,1.7-.2.6-.4,1.1-.6,1.7-.3.6-.6,1.2-.9,1.8-.2.4-.3.7-.5,1.1s-.5.8-.7,1.2c-.5.8-1,1.5-1.6,2.2-.3.4-.5.7-.8,1.1s-.3.6-.5.9c-.2.3-.5.7-.8,1-.3.4-.6.7-.9,1-.3.3-.6.7-.9,1-.2.2-.4.4-.6.6-.3.2-.6.2-.9.3-.8.3-1.6.6-2.3,1.1h-.5Z"/>
    </clipPath>
    <clipPath id="clippath-1">
      <path class="cls-4" d="M31.8,63c-.4,0-1.6-.8-2-.9-.2,0-.4-.2-.6-.2-.3-.1-.5-.3-.8-.5-.9-.7-1.6-1.8-2.3-2.7-.3-.3-.6-.7-.8-1s-.2-.5-.5-.9c-.3-.4-.5-.7-.8-1.1-.6-.7-1.1-1.4-1.6-2.2-.2-.4-.5-.8-.7-1.2-.2-.4-.3-.7-.5-1.1-.3-.6-.6-1.2-.9-1.8-.2-.6-.4-1.1-.6-1.7-.2-.5-.4-1.1-.6-1.7s-.2-1-.2-1.6c0-1.1-.8-2.1-.8-3.2v-3.4c0-.9.1-1.8,0-2.7-.2-1-.3-2-.2-3,.1-1.8.1-3.5.1-5.3s.1-2.8,0-4,.1-2.3.1-3.5v-.8c.1-.2.1-.4.1-.6.1-.3.2-.7.2-1,.2-1,1.4-1,2.2-1s1,.3,1.6.3h2.8c.2,0,.5.3.7.3h.7c.6,0,1,0,1.6.2v.2c.6.3,1.3.5,1.9.7.2,0,.4,0,.6.3.5.5.2,1.3.6,1.8.3.2.5.4.8.6h.1c0,.1,0,.2.1.1.3-.2.5-.4.8-.6.4-.5,0-1.3.6-1.8.2-.2.4-.2.6-.3.6-.2,1.3-.4,1.9-.7h0c.6-.3,1-.3,1.6-.3h.7c.2,0,.5-.3.7-.3h2.8c.6,0,1.1-.3,1.6-.3.8,0,2,0,2.2,1,0,.3,0,.7.2,1,0,.2,0,.4,0,.6v.8c0,1.2.2,2.3,0,3.5s0,2.7,0,4,0,3.5,0,5.3c0,1,0,2-.2,3,0,.9,0,1.8,0,2.7v3.4c0,1.1-.7,2.1-.8,3.2,0,.6,0,1-.2,1.6-.2.6-.4,1.2-.6,1.7-.2.6-.4,1.1-.6,1.7-.3.6-.6,1.2-.9,1.8-.2.4-.3.7-.5,1.1s-.5.8-.7,1.2c-.5.8-1,1.5-1.6,2.2-.3.4-.5.7-.8,1.1s-.3.6-.5.9c-.2.3-.5.7-.8,1-.3.4-.6.7-.9,1-.3.3-.6.7-.9,1-.2.2-.4.4-.6.6-.3.2-.6.2-.9.3-.8.3-1.6.6-2.3,1.1h-.5Z"/>
    </clipPath>
    <radialGradient id="radial-gradient-3" cx="32" cy="278.9" fx="32" fy="278.9" r="13.8" gradientTransform="translate(0 865.9) scale(1 -3)" gradientUnits="userSpaceOnUse">
      <stop offset="0" stop-color="#97cb58"/>
      <stop offset=".2" stop-color="#91c45b"/>
      <stop offset=".5" stop-color="#82b363"/>
      <stop offset=".6" stop-color="#7dae67"/>
      <stop offset=".6" stop-color="#74a868"/>
      <stop offset=".7" stop-color="#5d996c"/>
      <stop offset=".8" stop-color="#388072"/>
      <stop offset=".9" stop-color="#045e7b"/>
      <stop offset=".9" stop-color="#025d7c"/>
    </radialGradient>
    <clipPath id="clippath-2">
      <path class="cls-4" d="M31.8,63c-.4,0-1.6-.8-2-.9-.2,0-.4-.2-.6-.2-.3-.1-.5-.3-.8-.5-.9-.7-1.6-1.8-2.3-2.7-.3-.3-.6-.7-.8-1s-.2-.5-.5-.9c-.3-.4-.5-.7-.8-1.1-.6-.7-1.1-1.4-1.6-2.2-.2-.4-.5-.8-.7-1.2-.2-.4-.3-.7-.5-1.1-.3-.6-.6-1.2-.9-1.8-.2-.6-.4-1.1-.6-1.7-.2-.5-.4-1.1-.6-1.7s-.2-1-.2-1.6c0-1.1-.8-2.1-.8-3.2v-3.4c0-.9.1-1.8,0-2.7-.2-1-.3-2-.2-3,.1-1.8.1-3.5.1-5.3s.1-2.8,0-4,.1-2.3.1-3.5v-.8c.1-.2.1-.4.1-.6.1-.3.2-.7.2-1,.2-1,1.4-1,2.2-1s1,.3,1.6.3h2.8c.2,0,.5.3.7.3h.7c.6,0,1,0,1.6.2v.2c.6.3,1.3.5,1.9.7.2,0,.4,0,.6.3.5.5.2,1.3.6,1.8.3.2.5.4.8.6h.1c0,.1,0,.2.1.1.3-.2.5-.4.8-.6.4-.5,0-1.3.6-1.8.2-.2.4-.2.6-.3.6-.2,1.3-.4,1.9-.7h0c.6-.3,1-.3,1.6-.3h.7c.2,0,.5-.3.7-.3h2.8c.6,0,1.1-.3,1.6-.3.8,0,2,0,2.2,1,0,.3,0,.7.2,1,0,.2,0,.4,0,.6v.8c0,1.2.2,2.3,0,3.5s0,2.7,0,4,0,3.5,0,5.3c0,1,0,2-.2,3,0,.9,0,1.8,0,2.7v3.4c0,1.1-.7,2.1-.8,3.2,0,.6,0,1-.2,1.6-.2.6-.4,1.2-.6,1.7-.2.6-.4,1.1-.6,1.7-.3.6-.6,1.2-.9,1.8-.2.4-.3.7-.5,1.1s-.5.8-.7,1.2c-.5.8-1,1.5-1.6,2.2-.3.4-.5.7-.8,1.1s-.3.6-.5.9c-.2.3-.5.7-.8,1-.3.4-.6.7-.9,1-.3.3-.6.7-.9,1-.2.2-.4.4-.6.6-.3.2-.6.2-.9.3-.8.3-1.6.6-2.3,1.1h-.5Z"/>
    </clipPath>
    <radialGradient id="radial-gradient-4" cx="32" cy="287.9" fx="32" fy="287.9" r="9.4" gradientTransform="translate(0 883.9) scale(1 -3)" gradientUnits="userSpaceOnUse">
      <stop offset=".6" stop-color="#393839"/>
      <stop offset=".7" stop-color="#4c573f"/>
      <stop offset=".7" stop-color="#637a47"/>
      <stop offset=".8" stop-color="#76974d"/>
      <stop offset=".8" stop-color="#84ae51"/>
      <stop offset=".9" stop-color="#8fbe55"/>
      <stop offset=".9" stop-color="#95c857"/>
      <stop offset="1" stop-color="#97cb58"/>
    </radialGradient>
    <clipPath id="clippath-3">
      <path class="cls-4" d="M31.8,63c-.4,0-1.6-.8-2-.9-.2,0-.4-.2-.6-.2-.3-.1-.5-.3-.8-.5-.9-.7-1.6-1.8-2.3-2.7-.3-.3-.6-.7-.8-1s-.2-.5-.5-.9c-.3-.4-.5-.7-.8-1.1-.6-.7-1.1-1.4-1.6-2.2-.2-.4-.5-.8-.7-1.2-.2-.4-.3-.7-.5-1.1-.3-.6-.6-1.2-.9-1.8-.2-.6-.4-1.1-.6-1.7-.2-.5-.4-1.1-.6-1.7s-.2-1-.2-1.6c0-1.1-.8-2.1-.8-3.2v-3.4c0-.9.1-1.8,0-2.7-.2-1-.3-2-.2-3,.1-1.8.1-3.5.1-5.3s.1-2.8,0-4,.1-2.3.1-3.5v-.8c.1-.2.1-.4.1-.6.1-.3.2-.7.2-1,.2-1,1.4-1,2.2-1s1,.3,1.6.3h2.8c.2,0,.5.3.7.3h.7c.6,0,1,0,1.6.2v.2c.6.3,1.3.5,1.9.7.2,0,.4,0,.6.3.5.5.2,1.3.6,1.8.3.2.5.4.8.6h.1c0,.1,0,.2.1.1.3-.2.5-.4.8-.6.4-.5,0-1.3.6-1.8.2-.2.4-.2.6-.3.6-.2,1.3-.4,1.9-.7h0c.6-.3,1-.3,1.6-.3h.7c.2,0,.5-.3.7-.3h2.8c.6,0,1.1-.3,1.6-.3.8,0,2,0,2.2,1,0,.3,0,.7.2,1,0,.2,0,.4,0,.6v.8c0,1.2.2,2.3,0,3.5s0,2.7,0,4,0,3.5,0,5.3c0,1,0,2-.2,3,0,.9,0,1.8,0,2.7v3.4c0,1.1-.7,2.1-.8,3.2,0,.6,0,1-.2,1.6-.2.6-.4,1.2-.6,1.7-.2.6-.4,1.1-.6,1.7-.3.6-.6,1.2-.9,1.8-.2.4-.3.7-.5,1.1s-.5.8-.7,1.2c-.5.8-1,1.5-1.6,2.2-.3.4-.5.7-.8,1.1s-.3.6-.5.9c-.2.3-.5.7-.8,1-.3.4-.6.7-.9,1-.3.3-.6.7-.9,1-.2.2-.4.4-.6.6-.3.2-.6.2-.9.3-.8.3-1.6.6-2.3,1.1h-.5Z"/>
    </clipPath>
  </defs>
  <path class="cls-11" d="M47.5,40c0,.3.2.6.3.8.9,2.3.2,5.1,1.3,7.3,0,.2.3.4.5.4,0-.3.3-.5.6-.6-.3,0-.4-.5-.4-.8-.2-.8-.3-1.6-.4-2.4v-1.6c0-1.5-.9-2.7-1.7-4h-.2v.8h0Z"/>
  <path class="cls-23" d="M45.4,36.2c0,.3,0,.6.3.9.3.7.8,1.3,1,2,0,.2,0,.4.2.6s.4.2.5,0c0,0,0-.2.2-.4s.2-.2.3,0c0-.5,0-.9-.3-1.3-.4-.8-.4-2.2-1-2.8s-1.4.2-1.3,1h0Z"/>
  <path class="cls-17" d="M56.7,51.5c.2,0,.4.2.5.4s.2.4.5.4c0-.4-.5-.8-.9-.9"/>
  <path class="cls-17" d="M58,51c-.3,0-.6,0-.9,0,.5.2,1,.3,1.5,0-.2,0-.5-.2-.8-.2"/>
  <path class="cls-1" d="M49.6,48.3c0,.2.3.4.5.5s.5,0,.7.3c.3.2.5.6.9.6,0-.2,0-.3-.2-.4,1,0,1.5,1.5,2.5,1.5,0-.3-.3-.5-.4-.7.6.4,1.1.8,1.7,1.2,0,0,.2,0,.3,0s.2,0,.2-.2h0c0,0-.2-.3-.4-.3.3,0,.6.2.8.5s.7.3,1,.2.7-.4.6-.8c-.7,0-1.4-.2-2-.3.2,0,.4,0,.6-.2-.8-.4-1.7-.6-2.6-.8h.7c0-.2-.2-.4-.3-.4-.7-.2-1.3-.3-2-.5h.5s0-.2-.2-.2c-.7,0-1.4.2-2-.2,0,0-.3-.2-.4-.2s-.3.2-.3.4h-.2Z"/>
  <path class="cls-11" d="M16.5,40.2c0,.3-.2.6-.3.8-.9,2.3-.2,5.1-1.3,7.3,0,.2-.3.4-.5.4,0-.3-.3-.5-.6-.6.3,0,.4-.5.4-.8.2-.8.3-1.6.4-2.4v-1.6c.1-1.5.9-2.7,1.7-4h.2v.8h0Z"/>
  <path class="cls-23" d="M18.6,36.4c0,.3-.1.6-.3.9-.3.7-.8,1.3-1,2,0,.2,0,.4-.2.6s-.4.2-.5,0c-.1,0-.1-.2-.2-.4s-.2-.2-.3,0c-.1-.5.1-.9.3-1.3.4-.8.4-2.2,1-2.8s1.4.2,1.3,1h0Z"/>
  <path class="cls-17" d="M7.3,51.7c-.2,0-.4.2-.5.4s-.2.4-.5.4c0-.4.5-.8.9-.9"/>
  <path class="cls-17" d="M6,51.2c.3,0,.6,0,.9,0-.5.2-1,.3-1.5,0,.2,0,.5-.2.8-.2"/>
  <path class="cls-1" d="M14.4,48.6c0,.2-.3.4-.5.5s-.5,0-.7.3c-.3.2-.5.6-.9.6,0-.2.1-.3.2-.4-1,0-1.5,1.5-2.5,1.5,0-.3.3-.5.4-.7-.6.4-1.1.8-1.7,1.2,0,0-.2,0-.3,0s-.2,0-.2-.2h0c.1,0,.2-.3.4-.3-.3,0-.6.2-.8.5s-.7.3-1,.2-.7-.4-.6-.8c.7,0,1.4-.2,2-.3-.2,0-.4,0-.6-.2.8-.4,1.7-.6,2.6-.8h-.7c0-.2.2-.4.3-.4.7-.2,1.3-.3,2-.5h-.5s.1-.2.2-.2c.7,0,1.4.2,2-.2.1,0,.3-.2.4-.2s.3.2.3.4h.2Z"/>
  <path class="cls-16" d="M54.8,31.9c.3,0,.4-.3.5-.6s0-.5.3-.7c0,.1.2.3,0,.5s0,.3-.2.5c-.2.4-.5.7-.9.7h0c0,0,.3,0,.3-.3"/>
  <path class="cls-16" d="M55.1,32.6h1c.3,0,.5,0,.7-.3h-.9c0,0-.3,0-.4.2h-.6c0,0,.2,0,.3,0"/>
  <path class="cls-6" d="M50.9,33.3c.8,0,1.6,0,2.4,0,0,0,0-.2-.2-.2h1.8c0-.2-.2-.3-.4-.4.4,0,.8,0,1-.2-.3,0-.6-.4-.5-.8v-.3h-.3c-.3.1-.5.2-.8.3.2,0,.2-.4,0-.4h-.2c-.4.3-.9.4-1.4.5,0-.1,0-.3.2-.3-.6,0-1.1.3-1.6.5,0-.1,0-.2-.2-.2s-.2,0-.3.1c-.2.1-.4.1-.7.1s-.5,0-.6.2c-.8.9,1.5.8,1.8.7v.3Z"/>
  <path class="cls-2" d="M46.8,25.1c-.2.5-.3,1-.3,1.5,0,1.1-.2,2.2,0,3.3.3,1.1,1.1,2.2,1.8,3.1,0,.2.3.3.5.4s.4,0,.5-.2v-.3c0-.3.2-.5.4-.7-.5-.6-1.1-1.1-1.6-1.7-.8-1-.6-2.3-.4-3.5.2-1.1.3-2.1.5-3.2v-.9c0-.3-.2-.6-.4-.7-.7-.5-1,.4-.8.9.3.8,0,1.2-.2,2h0Z"/>
  <path class="cls-9" d="M47,21.5c-.4-.2-.8-.2-1,0-.3.4,0,1.3,0,1.8h1.3c0-.3-.2-.5,0-.8,0-.2.2-.3.3-.4,0-.2,0-.5-.4-.6h-.2Z"/>
  <path class="cls-16" d="M9.1,30.8c-.3,0-.4-.3-.5-.6s-.1-.5-.3-.7c-.1.1-.2.3-.1.5s.1.3.2.5c.2.4.5.7.9.7h0c-.1-.1-.3-.1-.3-.3"/>
  <path class="cls-16" d="M8.9,31.5h-1c-.3,0-.5,0-.7-.3h.9c.1,0,.3.1.4.2h.6c0,.1-.2.1-.3.1"/>
  <path class="cls-6" d="M13.1,32.2c-.8,0-1.6,0-2.4,0,0,0,.1-.2.2-.2h-1.8c0-.2.2-.3.4-.4-.4,0-.8,0-1-.2.3,0,.6-.4.5-.8v-.3h.3c.3.1.5.2.8.3-.2,0-.2-.4,0-.4h.2c.4.3.9.4,1.4.5,0-.1-.1-.3-.2-.3.6,0,1.1.3,1.6.5,0-.1,0-.2.2-.2s.2,0,.3.1c.2.1.4.1.7.1s.5,0,.6.2c.8.9-1.5.8-1.8.7v.3Z"/>
  <path class="cls-2" d="M17.2,24c.2.5.3,1,.3,1.5.1,1.1.2,2.2-.1,3.3-.3,1.1-1.1,2.2-1.8,3.1-.1.2-.3.3-.5.4s-.4,0-.5-.2v-.3c0-.3-.2-.5-.4-.7.5-.6,1.1-1.1,1.6-1.7.8-1,.6-2.3.4-3.5-.2-1.1-.3-2.1-.5-3.2v-.9c0-.3.2-.6.4-.7.7-.5,1,.4.8.9-.3.8-.1,1.2.2,2h.1Z"/>
  <path class="cls-9" d="M17,20.4c.4-.2.8-.2,1,0,.3.4,0,1.3,0,1.8h-1.3c0-.3.2-.5,0-.8,0-.2-.2-.3-.3-.4,0-.2,0-.5.4-.6h.2Z"/>
  <path class="cls-12" d="M36.9,3.2c-.2-.2-.4-.3-.7-.4s-.7-.2-1-.2h-.3c-.6.2-1.2.2-1.8.2s-1.1,0-1.6,0c-.5,0-.9,0-1.4-.2s-.9-.4-1.4-.3-.9.3-1.3.5c-1.2.7-1.9,2.1-1.5,3.4.3.8,1.1,1.3,1.9,1.6s1.7.3,2.6.3h3.8c1.4,0,3.7,0,4.4-1.6.5-1.1-.3-2.4-1.1-3.1-.2-.2-.4-.3-.6-.5v.2Z"/>
  <path class="cls-27" d="M34.9,2.6c1-1,2.8-1.5,4.2-1.6s2.9.1,4.3.3c1.2.2,2.6.4,3.4,1.4"/>
  <path class="cls-27" d="M29.9,2.7c-1-1.1-2.6-1.6-4.1-1.9-1.3-.2-2.5-.4-3.8-.4s-2.6.3-3.6.9"/>
  <path class="cls-7" d="M34.4,4.8c0,.2,0,.3,0,.4,0,.2-.3.2-.5.3-1.1.3-2.3.5-3.3,0-.1,0-.2,0-.3-.2,0,0,0-.2-.1-.3-.1-.5-.3-.9-.4-1.4,0-.3-.1-.5-.1-.8,0-1.1.9-.4,1.5-.6.7-.2,0-.7.4-1s1.8-.2,2.2-.3c.8,0,0,.7.5,1s.8,0,1,.6c0,.4-.6,1.7-.7,2.2h-.1Z"/>
  <g>
    <path class="cls-28" d="M32.2,4.4c0-.7,0-1.4.3-2.1"/>
    <path class="cls-28" d="M31.2,2.3c1,0,2,0,2.9,0"/>
  </g>
  <path class="cls-10" d="M42.6,19.9c.5-1.3,1-2.7,1.9-3.8.2-.2.5-.5.6-.8,0-.2,0-.4.2-.7.2-1.6-.3-3.3-1.2-4.7s-2-2.6-3.3-3.7c-.3-.2-.6-.5-.9-.6h-1c-1.1,0-2.1-.5-3.1-.8s-2.1-.5-3.1-.6h-2.2c-.8,0-1.6.2-2.4.5-.4.2-.7.5-1.2.6-.3,0-.7,0-1.1,0-.6,0-1.2.3-1.7.6-.7.4-1.1,1.1-1.6,1.6-1,1.1-2.2,2-2.6,3.5s-.4,1.7-.5,2.5v1.1c0,.3.1.5.1.7v1.8c0,.6.3,1.1.6,1.6.6.9,1.3,1.8,2,2.7,2.4.3,4.7.8,7,1.4.5.1,1,.3,1.6.3s1.1,0,1.6-.2c1.3-.3,2.5-.8,3.8-1.1s2.6-.4,3.9,0c.2,0,.4.2.6.1.2,0,.3-.1.4-.2.9-.8,1.3-1.3,1.7-2.4v.5Z"/>
  <path class="cls-21" d="M36.6,4.2c.5.3.8.8,1.4,1v-.6c0-.2-.2-.3-.3-.4-.4-.3-1.2-1.4-1.8-1.2-.9.3.5,1,.8,1.2h-.1Z"/>
  <path class="cls-21" d="M27.4,3.5c-.2.2-.5.3-.6.5-.1.2-.3.5-.3.8h.4c.2-.2.3-.4.6-.6s.8-.4,1.2-.6.4-.3.4-.5-.2-.3-.4-.3c-.4,0-1,.5-1.3.8h0Z"/>
  <path class="cls-14" d="M22.8,14.6c.2-.1,0-.6-.2-.8-.7-1.1-.8-2.5-.2-3.7.6-1.3,1.9-2.2,3.1-2.9.4-.2.8-.5,1.3-.7s1-.3,1.6-.4c.4,0,.7-.2,1.1-.3s.7,0,1-.2c0,0,.1,0,.1,0s0-.2-.1-.3-.2,0-.4,0c-.4,0-.9.2-1.3.3-.6,0-1.1.3-1.7.4-2.1.5-3.5,1.9-4.7,3.6-.3.4-.5.8-.7,1.2-.1.3-.1.7-.1,1,0,.7.1,1.6.5,2.3s.3.5.6.5.1,0,.2,0h0Z"/>
  <path class="cls-13" d="M41.4,14.2h.6c.6-.3,1-.8,1.2-1.4s0-1.3-.2-1.8c-.3-.5-.7-.9-1.2-1.3-.2-.2-.5-.4-.7-.6,0,.1,0,.3,0,.4.4.4.6,1,.8,1.5.2.6.5,1.3.3,1.9s-.7.9-.9,1.5v-.2Z"/>
  <path class="cls-3" d="M42.8,10.7c-.4-.7-.9-1.4-1.3-2.1-.5-.8-1.1-1.7-2-2.1-.4-.2-.9-.2-1.3-.3-.9,0-1.8-.2-2.7-.3.2.2.5.2.7.3.5,0,.9.2,1.4.4,1,.4,1.9.8,2.7,1.5s1.7,1.7,2.5,2.5h0Z"/>
  <path class="cls-24" d="M46.5,7.2c.4,0,.7-.2,1-.4l.7-.4c.3,0,.6-.3.6-.6s-.4-.8-.2-1.1h-.6c-.2,0-.3.2-.5.3-.5.3-1.2.4-1.8.6s-1.2.3-1.7.8c0,0,0,0,0,.2.2.7,2.1.7,2.6.6h0Z"/>
  <path class="cls-8" d="M48.7,5.6l.4.4s0,0,.2.2.2,0,.2,0c-.3-.3-.7-.6-1-.9v.3"/>
  <path class="cls-26" d="M46.4,11.7c-.2-.3-.4-.5-.6-.7-.8-.8-1.4-1.8-2.2-2.6,0-.1-.3-.2-.4-.4-.3-.4-.4-1.1,0-1.5,0-.2.3-.3.4-.3h.2c.2.2,1,.7.9,1s0,0,0,.2c-.2.2,0,.5,0,.7,1.4,1.5,3.4,3.3,2.5,5.6,0,.3,0,.7-.4.7s0,0-.2,0h0c-.2-.5-.4-.9-.2-1.3s.3-.6.2-1,0-.2-.2-.4h0Z"/>
  <path class="cls-8" d="M49.2,4h0c0,0,.2.2.3.2v-.4h-.8s0,0-.2.2c-.2.3-.6.7-.4,1,.4-.2.5-.8,1-.9h0Z"/>
  <path class="cls-15" d="M46.9,14.9s.2-.1.2-.2v-.3s-.2,0-.2-.1c0,0-.2-.2-.3-.4,0-.2-.2-.4-.2-.6,0,0,0-.2,0-.2h-.3c-.3,0-.7,0-.9.4,0,.2-.2.3-.2.5,0,.4-.2.9-.2,1.3,0,1.4,1.8,0,2.3-.3h0Z"/>
  <path class="cls-24" d="M18,6.6c-.4,0-.7-.2-1-.4l-.7-.4c-.3,0-.6-.3-.6-.6s.4-.8.2-1.1h.6c.2,0,.3.2.5.3.5.3,1.2.4,1.8.6s1.2.3,1.7.8c0,0,.1,0,0,.2-.2.7-2.1.7-2.6.6h.1Z"/>
  <path class="cls-8" d="M15.8,5l-.4.4s-.1,0-.2.2-.2,0-.2,0c.3-.3.7-.6,1-.9v.3"/>
  <path class="cls-26" d="M18.1,11.1c.2-.3.4-.5.6-.7.8-.8,1.4-1.8,2.2-2.6.1,0,.3-.2.4-.4.3-.4.4-1.1.1-1.5-.1-.2-.3-.3-.4-.3h-.2c-.2.2-1,.7-.9,1s0,0,.1.2c.2.2,0,.5-.1.7-1.4,1.5-3.4,3.3-2.5,5.6.1.3,0,.7.4.7s.1,0,.2,0h0c.2-.5.4-.9.2-1.3s-.3-.6-.2-1,0-.2.2-.4h-.1Z"/>
  <path class="cls-8" d="M15.3,3.4h-.1c-.1,0-.2.2-.3.2v-.4h.8s.1,0,.2.2c.2.3.6.7.4,1-.4-.2-.5-.8-1-.9h0Z"/>
  <path class="cls-15" d="M17.7,14.3s-.2-.1-.2-.2v-.3s.2,0,.2-.1c.1,0,.2-.2.3-.4,0-.2.2-.4.2-.6,0,0,0-.2.1-.2h.3c.3,0,.7,0,.9.4.1.2.2.3.2.5.1.4.2.9.2,1.3,0,1.4-1.8,0-2.3-.3h0Z"/>
  <path class="cls-25" d="M33.9,62.9c-.2.4-.5.7-.9.7s-.7,0-1,0c-.1,0-.3.2-.4,0v-.2c0-.3,0-.6.1-1v-.2c-.6.3-.5,1-.6,1.5h-.3c-.1,0,0-.2,0-.3,0-.3-1-.3-1.3-.4-.8-.5-.6-1.4-.7-2.2h0c0,0,.1-.2.2-.2.3,0,.6,0,.9.2,1,.4,2.1.2,3.1.4.9,0,1.3.6.9,1.5h0Z"/>
  <path class="cls-5" d="M29.7,62.6s.2,0,.3.2c.1,0,.2.2.4.2.4,0,.3-.4.5-.5s.4-.2.6-.2c1-.2.5.3.8.7.6.6,2-1,1.3-1.6s-.2,0-.4,0c-.3,0-4.2-.2-4.2,0,0,.8.2,1,.7,1.4h0Z"/>
  <path class="cls-29" d="M31.6,62.5c.3-1.8,0-3.7,0-5.6s-.2-4.2.2-6.2c.4-2-.2-4.7-.3-7v-3.1c.1-3.6.2-7.1.2-10.7v-5.3c0-1.7-.3-3.1,0-4.7v.4"/>
  <path class="cls-18" d="M30.7,18.8c0,.4.3.7.6.9.3.2.7.5,1,.5s.7-.3.8-.6.2-.7.2-1,0-.5-.3-.6h-1.3c-.7,0-1,.1-1,.9h0Z"/>
  <g>
    <g class="cls-30">
      <ellipse class="cls-22" cx="32" cy="24.1" rx="15.7" ry="38.8"/>
    </g>
    <g class="cls-31">
      <ellipse class="cls-19" cx="32" cy="29.1" rx="12" ry="29.6"/>
    </g>
    <g class="cls-33">
      <ellipse class="cls-20" cx="32" cy="20.1" rx="7.8" ry="19.4"/>
    </g>
    <g class="cls-32">
      <ellipse class="cls-22" cx="31.9" cy="16.6" rx="16.4" ry="4.2"/>
    </g>
  </g>
</svg>