<?xml version="1.0" encoding="UTF-8"?>
<svg id="Layer_1" data-name="Layer 1" xmlns="http://www.w3.org/2000/svg" version="1.1" viewBox="0 0 64 64">
  <defs>
    <style>
      .cls-1 {
        fill: #fbb040;
        stroke: #e6e7e8;
      }

      .cls-1, .cls-2 {
        stroke-miterlimit: 10;
        stroke-width: 1px;
      }

      .cls-3 {
        fill: #e6e7e8;
        stroke-width: 0px;
      }

      .cls-2 {
        fill: #ef4136;
        stroke: #f1f2f2;
      }
    </style>
  </defs>
  <path class="cls-3" d="M32.5,1.6c2.6,0,5.4,3.1,7.5,8.4,2.3,5.9,3.6,13.7,3.6,22.1s-1.3,16.2-3.6,22.1c-2.1,5.3-4.8,8.4-7.5,8.4s-5.4-3.1-7.5-8.4c-2.3-5.9-3.6-13.7-3.6-22.1s1.3-16.2,3.6-22.1c2.1-5.3,4.8-8.4,7.5-8.4M32.5,0c-7,0-12.6,14.3-12.6,32s5.6,32,12.6,32,12.6-14.3,12.6-32S39.4,0,32.5,0h0Z"/>
  <path class="cls-3" d="M51.8,14.2h0c3.6,0,6,.9,7,2.6,1.3,2.3,0,6.2-3.5,10.7-3.9,4.9-10.1,10-17.3,14.1-8.9,5.2-18.2,8.2-24.9,8.2s-6-.9-7-2.6c-1.3-2.3,0-6.2,3.5-10.7,3.9-4.9,10.1-10,17.3-14.1,8.9-5.2,18.2-8.2,24.9-8.2M51.8,12.6c-6.7,0-16.1,3-25.7,8.5C10.9,29.9,1.3,42,4.7,48c1.3,2.3,4.3,3.4,8.3,3.4,6.7,0,16.1-3,25.7-8.5,15.3-8.8,24.9-20.9,21.4-26.9-1.3-2.3-4.3-3.4-8.3-3.4h0Z"/>
  <path class="cls-3" d="M13.1,12.6v1.6h0c6.6,0,15.9,3.1,24.9,8.2,7.2,4.2,13.4,9.2,17.3,14.1,3.6,4.5,4.9,8.4,3.5,10.7-1,1.7-3.5,2.6-7,2.6-6.6,0-15.9-3.1-24.9-8.2-7.2-4.2-13.4-9.2-17.3-14.1-3.6-4.5-4.9-8.4-3.5-10.7,1-1.7,3.5-2.6,7-2.6v-1.6M13.1,12.6c-4,0-7,1.1-8.3,3.4-3.5,6,6.1,18.1,21.4,26.9,9.5,5.5,19,8.5,25.7,8.5s7-1.1,8.3-3.4c3.5-6-6.1-18.1-21.4-26.9-9.5-5.5-19-8.5-25.7-8.5h0Z"/>
  <circle class="cls-2" cx="32.5" cy="32" r="6.6"/>
  <circle class="cls-1" cx="49.7" cy="13.7" r="3.8"/>
  <circle class="cls-1" cx="8" cy="26.4" r="3.8"/>
  <circle class="cls-1" cx="39.8" cy="56.4" r="3.8"/>
</svg>