<?xml version="1.0" encoding="UTF-8"?>
<svg id="Layer_1" data-name="Layer 1" xmlns="http://www.w3.org/2000/svg" xmlns:xlink="http://www.w3.org/1999/xlink" version="1.1" viewBox="0 0 64 64">
  <defs>
    <style>
      .cls-1 {
        fill: #414042;
      }

      .cls-1, .cls-2, .cls-3, .cls-4, .cls-5, .cls-6, .cls-7 {
        stroke-width: 0px;
      }

      .cls-2 {
        fill: url(#radial-gradient);
      }

      .cls-3 {
        fill: url(#radial-gradient-2);
      }

      .cls-4 {
        fill: url(#radial-gradient-3);
      }

      .cls-5 {
        fill: url(#radial-gradient-4);
      }

      .cls-6 {
        fill: #e6e7e8;
      }

      .cls-7 {
        fill: #fff;
      }
    </style>
    <radialGradient id="radial-gradient" cx="32" cy="949.6" fx="32" fy="949.6" r="11.2" gradientTransform="translate(0 -717.6) scale(1 .8)" gradientUnits="userSpaceOnUse">
      <stop offset="0" stop-color="#f3796b"/>
      <stop offset="0" stop-color="#f4877b"/>
      <stop offset="0" stop-color="#f7aca3"/>
      <stop offset=".2" stop-color="#facac4"/>
      <stop offset=".3" stop-color="#fce1de"/>
      <stop offset=".4" stop-color="#fdf1f0"/>
      <stop offset=".6" stop-color="#fefbfb"/>
      <stop offset=".7" stop-color="#fff"/>
    </radialGradient>
    <radialGradient id="radial-gradient-2" cx="49.1" cy="548.3" fx="49.1" fy="548.3" r="3" gradientTransform="translate(0 -739.3) scale(1 1.4)" gradientUnits="userSpaceOnUse">
      <stop offset="0" stop-color="#f3796b"/>
      <stop offset="1" stop-color="#fff"/>
    </radialGradient>
    <radialGradient id="radial-gradient-3" cx="14.9" cy="-74" fx="14.9" fy="-74" r="3" gradientTransform="translate(0 66) scale(1 -1)" gradientUnits="userSpaceOnUse">
      <stop offset="0" stop-color="#f3796b"/>
      <stop offset="1" stop-color="#fff"/>
    </radialGradient>
    <radialGradient id="radial-gradient-4" cx="14.6" cy="547.9" fx="14.6" fy="547.9" r="3" gradientTransform="translate(0 -739.3) scale(1 1.4)" gradientUnits="userSpaceOnUse">
      <stop offset="0" stop-color="#f3796b"/>
      <stop offset="1" stop-color="#fff"/>
    </radialGradient>
  </defs>
  <path class="cls-7" d="M32,58.2c-6.7-3.8-22.5-14.2-22.5-21.6s1.2-26,1.4-28.6c1.1-1.2,7-6.9,21.1-6.9s20,5.7,21.1,6.9c.2,2.7,1.5,20.2,1.4,28.6,0,9.9-19.1,19.9-22.4,21.6h0Z"/>
  <path class="cls-1" d="M32,2.2c12.8,0,18.6,4.8,20,6.2.3,3.7,1.5,20.1,1.4,28.1s-14.6,16.9-21.3,20.3c-8.7-5-21.4-14.3-21.4-20.3,0-8.5,1.1-24.5,1.4-28.2,1.5-1.5,7.2-6.2,20-6.2M32,0C15.5,0,9.8,7.5,9.8,7.5c0,0-1.4,19.2-1.4,29.1s23.6,22.8,23.6,22.8c0,0,23.4-11.2,23.6-22.8,0-9.3-1.4-29.1-1.4-29.1C54.2,7.5,48.5,0,32,0h0Z"/>
  <path class="cls-1" d="M36.6,58.4l-1.7-7,1.4-4.7h-8.6l1.4,4.3-1.6,7.3c0,2.4,4.5,5.7,4.5,5.7,0,0,4.6-2.8,4.6-5.6Z"/>
  <path class="cls-1" d="M32,36.4c.5.5,1.5,2.1,2.8,2.6,1.9.9,4.2.6,5.9.6,2.7,0,7.6-8.7,6.4-7.6s-8.3,7.8-12.6,2.1h-5.1c-4.3,5.7-11.5-1-12.6-2.1s3.7,7.6,6.4,7.6,3.6.4,5.3-.4,2.8-2.3,3.3-2.9"/>
  <path class="cls-1" d="M25.9,41.4c.9.2,4.2.8,6.2.8s5.5-.6,6-.8c0,0-12.2,0-12.2,0Z"/>
  <path class="cls-1" d="M25.9,41.4c.9-.2,4.2-.5,6.2-.5s5.5.4,6,.6h-12.2,0Z"/>
  <path class="cls-2" d="M16.8,37.7c2.2,3.6,7.9,8.4,10.9,9h8.7c3-.6,8.7-5.4,10.9-9,0,0-5.5,2.6-8,3.4s-6.1,1.1-7.2,1.1h0c-1.1,0-4.4-.3-7.2-1.1s-8-3.4-8-3.4h0Z"/>
  <ellipse class="cls-1" cx="40.6" cy="20.6" rx="4.3" ry="2.2"/>
  <path class="cls-1" d="M49.3,13.7c-2.4-2.4-14-1-15.2.9-1.2,1.9-.8,2.8.6,2.8s3.6-2.4,5.6-2.8c2-.5,6.3-.3,7-.5l2-.3h0Z"/>
  <ellipse class="cls-3" cx="49.1" cy="28.7" rx="3" ry="4.2"/>
  <ellipse class="cls-4" cx="14.9" cy="28.7" rx="3" ry="4.2"/>
  <path class="cls-6" d="M35.3,29.5c1.1,1.1,8.2,3.7,11.2,3.2,0,0-2.4.8-6.9-.3s-4.3-2.9-4.3-2.9Z"/>
  <path class="cls-6" d="M34.5,34.2c1.3.3,1.7-.5,1.7-.9s-.7-2.9-.9-3.9c.9,2.1,1.3,3.4,1.3,4s-.2,1-.8,1-1.3-.2-1.3-.2Z"/>
  <path class="cls-6" d="M33.7,13.9c1.8-1.8,7.8-2.9,11.6-2.5,0,0-4-1-7.7,0s-4,2.5-4,2.5h0Z"/>
  <ellipse class="cls-1" cx="23.3" cy="20.6" rx="4.3" ry="2.2"/>
  <path class="cls-1" d="M14.5,13.7c2.4-2.4,14-1,15.2.9,1.2,1.9.8,2.8-.6,2.8s-3.6-2.4-5.6-2.8c-2-.5-6.3-.3-7-.5l-2-.3h0Z"/>
  <path class="cls-6" d="M20.4,39.3s-4-2.6-4.8-4-1,6.9,8.8,11.9c0,0-7.4-5-7.4-8.2s3.4.3,3.4.3Z"/>
  <path class="cls-6" d="M47,39c0,3.2-7.4,8.2-7.4,8.2,9.8-5,9.6-13.3,8.8-11.9s-4.8,4-4.8,4c0,0,3.4-1.6,3.4-.3Z"/>
  <path class="cls-6" d="M28.7,29.5c-1.1,1.1-8.2,3.7-11.2,3.2,0,0,2.4.8,6.9-.3,2.2-.5,4.3-2.9,4.3-2.9Z"/>
  <path class="cls-6" d="M29.5,34.2c-1.3.3-1.7-.5-1.7-.9s.7-2.9.9-3.9c-.9,2.1-1.3,3.4-1.3,4s.2,1,.8,1,1.3-.2,1.3-.2Z"/>
  <path class="cls-6" d="M29.9,13.9c-1.8-1.8-7.8-2.9-11.6-2.5,0,0,4-1,7.7,0s4,2.5,4,2.5h-.1Z"/>
  <ellipse class="cls-5" cx="14.6" cy="28.1" rx="3" ry="4.3"/>
</svg>