<?xml version="1.0" encoding="UTF-8"?>
<svg id="Layer_1" data-name="Layer 1" xmlns="http://www.w3.org/2000/svg" version="1.1" viewBox="0 0 64 64">
  <defs>
    <style>
      .cls-1 {
        fill: #1c75bc;
        opacity: .3;
        stroke-width: 0px;
      }

      .cls-2, .cls-3 {
        stroke-width: 2px;
      }

      .cls-2, .cls-3, .cls-4, .cls-5, .cls-6 {
        stroke-miterlimit: 10;
      }

      .cls-2, .cls-3, .cls-6 {
        stroke: #4d4d4f;
      }

      .cls-2, .cls-4, .cls-5 {
        fill: none;
      }

      .cls-3 {
        fill: #d6eef2;
      }

      .cls-4 {
        stroke: #fff;
        stroke-width: 3px;
      }

      .cls-5 {
        stroke: #2d2d84;
        stroke-width: 4px;
      }

      .cls-6 {
        fill: #fff;
        stroke-width: 8px;
      }
    </style>
  </defs>
  <circle class="cls-3" cx="24" cy="24.5" r="20.5"/>
  <polyline class="cls-5" points="4.9 32 17.1 14.8 24 25.3 28.4 18.8 37.1 32 44.2 28.4 58.4 28.4"/>
  <line class="cls-4" x1="44" y1="43.8" x2="57.2" y2="57"/>
  <line class="cls-6" x1="60.5" y1="60" x2="39" y2="38.6"/>
  <path class="cls-1" d="M19.4,39.3c-.6.7-.3,1.9.4,2.4s1.7.7,2.6.7c7,.3,13.9-3.6,17.5-9.5.6-1,3.2-6.9,1.3-7.6-2-.7-5.3,5.2-6.3,6.2-1.3,1.3-2.7,2.6-4.3,3.6s-3.4,2.1-5.3,2.8-5.3.6-5.9,1.2Z"/>
  <circle class="cls-2" cx="24" cy="24.5" r="20.5"/>
</svg>