<?xml version="1.0" encoding="UTF-8"?>
<svg id="Layer_1" data-name="Layer 1" xmlns="http://www.w3.org/2000/svg" xmlns:xlink="http://www.w3.org/1999/xlink" version="1.1" viewBox="0 0 64 64">
  <defs>
    <style>
      .cls-1 {
        clip-path: url(#clippath);
      }

      .cls-2 {
        fill: none;
      }

      .cls-2, .cls-3, .cls-4, .cls-5 {
        stroke-width: 0px;
      }

      .cls-3 {
        fill: #6d6e71;
      }

      .cls-4 {
        fill: #e6e7e8;
      }

      .cls-5 {
        fill: #414042;
      }
    </style>
    <clipPath id="clippath">
      <rect class="cls-2" width="64" height="64"/>
    </clipPath>
  </defs>
  <g class="cls-1">
    <g>
      <rect class="cls-5" x="23.2" y="25.2" width="33.7" height="33.7"/>
      <path class="cls-3" d="M55.4,26.7v30.7h-30.7v-30.7h30.7M58.4,23.7H21.7v36.7h36.7V23.7h0Z"/>
    </g>
    <g>
      <rect class="cls-5" x="15.3" y="16.9" width="33.7" height="33.7"/>
      <path class="cls-3" d="M47.4,18.4v30.7h-30.7v-30.7h30.7M50.4,15.4H13.8v36.7h36.7V15.4h0Z"/>
    </g>
    <g>
      <rect class="cls-5" x="7.1" y="9" width="33.7" height="33.7"/>
      <path class="cls-4" d="M39.3,10.5v30.7H8.6V10.5h30.7M42.3,7.5H5.6v36.7h36.7V7.5h0Z"/>
    </g>
    <g>
      <path class="cls-4" d="M21.2,39.1l-.4-.8c-2.6-5.2-6.4-7.4-13.7-8h-1.8c0-.1,1.5-5.6,1.5-5.6h8.6l.4.3c3,2.2,6.8,4.6,8.4,5.1,2.2-8.6,9.8-28.1,10.2-28.9l1.2-3.1,5.5,10.6-.8.8c-6.6,6.6-10.7,28.3-10.7,28.5l-.2,1.2h-8.2Z"/>
      <path class="cls-5" d="M35.8,1.6l3.5,6.7c-7,7-11.1,29.3-11.1,29.3h-6c-3.1-6.1-7.7-8.3-14.9-8.8l.7-2.6h7s7.3,5.5,9.8,5.5.7-.2.8-.5c1.9-8.2,10.3-29.4,10.3-29.4M35.4-5.6l-2.4,6.1c-.3.8-7.1,18.1-9.8,27.4-1.7-.9-4.2-2.5-6.5-4.2l-.8-.6h-1s-7,0-7,0h-2.3l-.6,2.2-.7,2.6-1,3.5,3.6.3c6.7.5,10.1,2.5,12.4,7.2l.8,1.7h10.4l.5-2.5c1.1-5.9,5.1-22.5,10.3-27.7l1.6-1.6-1-2L38.5.2l-3-5.8h0Z"/>
    </g>
  </g>
</svg>