<?xml version="1.0" encoding="UTF-8"?>
<svg id="Layer_1" data-name="Layer 1" xmlns="http://www.w3.org/2000/svg" version="1.1" viewBox="0 0 64 64">
  <defs>
    <style>
      .cls-1 {
        fill: none;
      }

      .cls-1, .cls-2 {
        stroke-width: 0px;
      }

      .cls-2 {
        fill: #4d4d4f;
      }
    </style>
  </defs>
  <path class="cls-2" d="M57.4,64h-14.5l-1-3.8c3.6,0,4.6-1.3,4.6-4.9v-21.7h-28.8v21.7c0,3.5,1,4.9,4.6,4.9l-1,3.8H6.6l-1-3.8c3.6,0,4.6-1.3,4.6-4.9V8.7c0-3.6-.9-4.9-4.6-4.9l1-3.8h14.5l1,3.8c-3.5,0-4.6,1.2-4.6,4.9v18.8h28.8V8.7c0-3.6-.9-4.9-4.6-4.9l1-3.8h14.5l1,3.8c-3.5,0-4.6,1.2-4.6,4.9v46.5c0,3.5,1,4.9,4.6,4.9l-1,3.8Z"/>
  <rect class="cls-1" width="64" height="64"/>
</svg>