<?xml version="1.0" encoding="UTF-8"?>
<svg id="Layer_1" data-name="Layer 1" xmlns="http://www.w3.org/2000/svg" version="1.1" viewBox="0 0 64 64">
  <defs>
    <style>
      .cls-1 {
        fill: none;
        stroke: #fff;
        stroke-miterlimit: 10;
        stroke-width: 3.2px;
      }

      .cls-2 {
        fill: #7d8e3f;
      }

      .cls-2, .cls-3, .cls-4 {
        stroke-width: 0px;
      }

      .cls-3 {
        fill: #e6e7e8;
      }

      .cls-4 {
        fill: #a8b078;
      }
    </style>
  </defs>
  <path class="cls-3" d="M24.2,31.1c-6-3.2-11.3.6-16.7,6-6.5,6.5-11.3,12.3-3,20.5,8.2,8.2,14,3.5,20.5-3,5.3-5.3,9.1-10.4,6.2-16.3l-4.5,4.3c.7,3.6-1.3,4.2-4.8,7.8-4.9,4.9-7.1,9.4-13.3,3.2-6.2-6.2-1.7-8.4,3.2-13.3,3.6-3.6,4.3-5.7,8-4.7l4.4-4.4Z"/>
  <path class="cls-3" d="M35.8,19.7c-1.4-3.9,2.2-5.7,5.9-9.4,4.9-4.9,6.4-7.9,12.2-2.1,5.8,5.8,2.8,7.3-2.1,12.2s-5.3,7-9,6l-4.3,4.4c6.2,3.4,11.1-.8,16.4-6.2,6.5-6.5,10.8-12.8,3-20.5-7.7-7.7-14-3.5-20.5,3-5.5,5.5-9.7,10.4-6,16.7l4.4-4.2Z"/>
  <path class="cls-3" d="M33.4,33.3c-10.5,10.5-11.9,13.3-14.7,10.4-2.8-2.8-.3-4,10.4-14.7,11.2-11.2,11.8-13.4,14.7-10.4s1.3,3-2.5,6.8c-1.8,1.9-4.5,4.4-8,7.9Z"/>
  <g>
    <g>
      <path class="cls-4" d="M50.4,63.5c-7.1,0-12.9-5.8-12.9-12.9s5.8-12.9,12.9-12.9,12.9,5.8,12.9,12.9-5.8,12.9-12.9,12.9Z"/>
      <path class="cls-2" d="M50.4,38.2c6.8,0,12.4,5.6,12.4,12.4s-5.6,12.4-12.4,12.4-12.4-5.6-12.4-12.4,5.6-12.4,12.4-12.4M50.4,37.1c-7.4,0-13.5,6-13.5,13.5s6,13.5,13.5,13.5,13.5-6,13.5-13.5-6-13.5-13.5-13.5h0Z"/>
    </g>
    <line class="cls-1" x1="50.4" y1="43.2" x2="50.4" y2="57.9"/>
    <line class="cls-1" x1="43.1" y1="50.5" x2="57.7" y2="50.5"/>
  </g>
</svg>