<?xml version="1.0" encoding="UTF-8"?>
<svg id="Layer_1" data-name="Layer 1" xmlns="http://www.w3.org/2000/svg" xmlns:xlink="http://www.w3.org/1999/xlink" version="1.1" viewBox="0 0 64 64">
  <defs>
    <style>
      .cls-1 {
        fill: #5f5254;
      }

      .cls-1, .cls-2, .cls-3, .cls-4, .cls-5, .cls-6, .cls-7, .cls-8, .cls-9, .cls-10, .cls-11, .cls-12, .cls-13, .cls-14, .cls-15, .cls-16, .cls-17, .cls-18, .cls-19, .cls-20, .cls-21 {
        stroke-width: 0px;
      }

      .cls-2 {
        fill: #451b27;
      }

      .cls-3 {
        fill: url(#radial-gradient);
      }

      .cls-4 {
        fill: #8e7b7f;
      }

      .cls-5 {
        fill: #5f4e54;
      }

      .cls-6 {
        fill: #c3c5c4;
      }

      .cls-7 {
        fill: #414342;
      }

      .cls-8 {
        fill: #fef8c4;
      }

      .cls-9 {
        fill: #8f747d;
      }

      .cls-10 {
        fill: url(#radial-gradient-2);
      }

      .cls-11 {
        fill: #a5a4a4;
      }

      .cls-12 {
        fill: #4db748;
      }

      .cls-13 {
        fill: #262a2b;
      }

      .cls-14 {
        fill: #986f7f;
      }

      .cls-15 {
        fill: #645d5d;
      }

      .cls-16 {
        fill: #868583;
      }

      .cls-17 {
        fill: #9ba0a6;
      }

      .cls-18 {
        fill: #cec5c8;
      }

      .cls-19 {
        fill: #95717e;
      }

      .cls-20 {
        fill: #b094a3;
      }

      .cls-21 {
        fill: #9c8c8f;
      }
    </style>
    <radialGradient id="radial-gradient" cx="18.1" cy="748.3" fx="18.1" fy="748.3" r="8.7" gradientTransform="translate(0 -726)" gradientUnits="userSpaceOnUse">
      <stop offset="0" stop-color="#fff"/>
      <stop offset="0" stop-color="#d8edd1"/>
      <stop offset=".3" stop-color="#b6dda9"/>
      <stop offset=".4" stop-color="#9bd189"/>
      <stop offset=".6" stop-color="#88c973"/>
      <stop offset=".7" stop-color="#7cc365"/>
      <stop offset=".8" stop-color="#79c261"/>
    </radialGradient>
    <radialGradient id="radial-gradient-2" cx="20.4" cy="749.2" fx="20.4" fy="749.2" r="1.9" gradientTransform="translate(0 -726)" gradientUnits="userSpaceOnUse">
      <stop offset="0" stop-color="#fff"/>
      <stop offset=".2" stop-color="#fafdfb"/>
      <stop offset=".4" stop-color="#eef7f0"/>
      <stop offset=".6" stop-color="#daeedd"/>
      <stop offset=".8" stop-color="#bde1c3"/>
      <stop offset="1" stop-color="#a0d4a9"/>
    </radialGradient>
  </defs>
  <rect class="cls-8" x="5.8" y="6" width="52" height="52" rx="9.7" ry="9.7"/>
  <path class="cls-12" d="M.6,8.1C-.6,10,0,12,0,12l18.8,12,1.8-3L.6,8.1Z"/>
  <path class="cls-3" d="M22.1,22.2h0v1.9h0l-1.6,1h0l-5.5,6.7-2.5-3,6.4-4.7h0l-8.7,1v-4l8.6,1.1h0l-5.6-7.2,3.6-2,3.6,8.2h0l2-8.2,3.5,1.2"/>
  <polygon class="cls-6" points="26.9 18.3 25.6 19.1 36.4 18.3 40 17.5 38.9 17 32.1 17.5 26.9 18.3"/>
  <polygon class="cls-7" points="36.4 18.3 42.2 21 45.1 20.3 40 17.5 36.4 18.3"/>
  <polygon class="cls-14" points="42.2 21 42.2 27.9 47.5 33.6 52.9 32 54.7 25.9 45.1 20.3 42.2 21"/>
  <polygon class="cls-20" points="52.9 32 51.7 41.4 52.3 45.1 54.4 42.1 55.9 35.1 55.9 32 55.5 28.4 54.7 25.9 52.9 32"/>
  <polygon class="cls-19" points="51.7 41.4 45.7 43.3 39.4 48.8 38.6 50.8 39.8 52 49 49.3 52.3 45.1 51.7 41.4"/>
  <polygon class="cls-11" points="36.4 55 39.8 52 49 49.3 45.1 52.9 36.4 55"/>
  <polygon class="cls-16" points="36.7 50.1 38.6 50.8 39.8 52 36.4 55 33.5 55.3 28 53.3 29.2 51 36.7 50.1"/>
  <polygon class="cls-5" points="47.5 33.6 45.7 43.3 51.7 41.4 52.9 32 47.5 33.6"/>
  <polygon class="cls-15" points="39.4 48.8 36.8 49.3 36.7 50.1 38.6 50.8 39.4 48.8"/>
  <polygon class="cls-13" points="36.8 49.3 30.9 38.8 32.9 32 42.2 27.9 47.5 33.6 45.7 43.3 39.4 48.8 36.8 49.3"/>
  <polygon class="cls-4" points="29.2 51 21.1 45.7 19.1 47.7 28 53.3 29.2 51"/>
  <polygon class="cls-21" points="19.8 38.6 21.1 45.7 19.1 47.7 17.5 46.7 15.6 42.5 15.6 37.7 16.9 35.7 19.8 38.6"/>
  <polygon class="cls-10" points="22.1 24.2 22.1 22.3 20.5 21.1 18.8 22.2 18.8 24 20.4 25.2 22.1 24.2"/>
  <polygon class="cls-18" points="18.4 28.8 16.9 35.7 15.6 37.7 17.2 30.4 18.4 28.8"/>
  <polygon class="cls-1" points="19.8 38.6 25.6 36.1 30.9 38.8 36.8 49.3 36.7 50.1 29.2 51 21.1 45.7 19.8 38.6"/>
  <polygon class="cls-9" points="26.9 27.9 24.4 20.3 18.4 28.8 16.9 35.7 19.8 38.6 25.6 36.1 26.9 27.9"/>
  <polygon class="cls-2" points="26.9 27.9 24.4 20.3 25.6 19.1 36.4 18.3 42.2 21 42.2 27.9 32.9 32 26.9 27.9"/>
  <polygon class="cls-17" points="26.9 27.9 25.6 36.1 30.9 38.8 32.9 32 26.9 27.9"/>
</svg>