<?xml version="1.0" encoding="UTF-8"?>
<svg id="Layer_1" xmlns="http://www.w3.org/2000/svg" xmlns:xlink="http://www.w3.org/1999/xlink" version="1.1" viewBox="0 0 64 64">
  <!-- Generator: Adobe Illustrator 29.1.0, SVG Export Plug-In . SVG Version: 2.1.0 Build 142)  -->
  <defs>
    <style>
      .st0, .st1, .st2 {
        fill: none;
      }

      .st3 {
        fill: #e5f5fd;
        stroke-width: 2px;
      }

      .st3, .st1, .st2 {
        stroke-miterlimit: 10;
      }

      .st3, .st2 {
        stroke: #4d4d4f;
      }

      .st4 {
        fill: #1c75bc;
        isolation: isolate;
        opacity: .3;
      }

      .st5, .st6, .st7 {
        fill: #4d4d4f;
      }

      .st1 {
        stroke: #fff;
        stroke-width: 3px;
      }

      .st6 {
        font-size: 24px;
      }

      .st6, .st7 {
        font-family: MyriadPro-Regular, 'Myriad Pro';
      }

      .st7 {
        font-size: 12px;
      }

      .st2 {
        stroke-width: 8px;
      }

      .st8 {
        clip-path: url(#clippath);
      }
    </style>
    <clipPath id="clippath">
      <circle class="st0" cx="24" cy="24.5" r="20.5"/>
    </clipPath>
  </defs>
  <text class="st7" transform="translate(29.7 32.1)"><tspan x="0" y="0">Search</tspan></text>
  <circle class="st3" cx="24" cy="24.5" r="20.5"/>
  <line class="st1" x1="44" y1="43.8" x2="57.2" y2="57"/>
  <line class="st2" x1="60.5" y1="60" x2="39" y2="38.6"/>
  <g class="st8">
    <text class="st6" transform="translate(12.4 30)"><tspan x="0" y="0">Sea</tspan></text>
  </g>
  <rect class="st5" x="44.9" y="37.8" width="11.4" height="24.7" transform="translate(-20.6 50.5) rotate(-45)"/>
  <path class="st4" d="M19.4,39.3c-.6.7-.3,1.9.4,2.4s1.7.7,2.6.7c7,.3,13.9-3.6,17.5-9.5.6-1,3.2-6.9,1.3-7.6-2-.7-5.3,5.2-6.3,6.2s-2.7,2.6-4.3,3.6-3.4,2.1-5.3,2.8-5.3.6-5.9,1.2v.2Z"/>
</svg>