<?xml version="1.0" encoding="UTF-8"?>
<svg id="Layer_1" data-name="Layer 1" xmlns="http://www.w3.org/2000/svg" viewBox="0 0 64 64">
  <defs>
    <style>
      .cls-1 {
        fill: none;
      }

      .cls-2 {
        fill: #4d4d4f;
      }
    </style>
  </defs>
  <rect class="cls-1" width="64" height="64"/>
  <g>
    <path class="cls-2" d="M14.09,25.46c.85-3.19,1.77-5.43,3.51-7.13,1.38-1.35,2.8-1.91,4.4-1.91,1.95,0,3.19,1.03,3.19,2.52,0,1.24-.96,1.77-1.67,1.77-.74,0-1.21-.39-1.1-.96.07-.36.18-.75.18-.99,0-.75-.25-1.28-1.21-1.28-1.1,0-1.95,1.1-2.66,2.84-.53,1.38-1.06,3.19-1.56,5.14h3.51l-.39,1.03-3.44.25c-1.42,5.82-3.09,12.09-4.19,15.11-1.13,2.98-2.52,4.89-4.89,6.31-1.1.67-2.09.85-3.16.85-1.35,0-2.62-.99-2.62-2.09,0-.74.57-1.49,1.24-1.7.5-.21.85-.07,1.13.43.6,1.06,1.28,1.7,2.16,1.7,1.31,0,2.06-1.21,2.87-3.87.92-2.84,2.8-10.18,4.36-16.74l-2.66-.25.39-1.03h2.59Z"/>
    <path class="cls-2" d="M29.16,18.54c1.14-1.45,2.7-2.73,4.22-3.55l.5.92c-1.45.82-3.69,2.62-4.61,6.99-.53,2.7-.71,5.6-.71,8.37,0,3.12.21,6.06.71,8.37.92,4.4,3.16,6.14,4.61,6.92l-.5.99c-1.52-.85-3.12-2.09-4.26-3.58-2.77-3.4-3.83-7.7-3.83-12.8,0-5.39,1.35-9.47,3.87-12.63Z"/>
    <path class="cls-2" d="M51.54,36.74c-1.7,3.37-3.69,4.26-5.07,4.26-1.49,0-2.06-1.13-2.62-3.72-.21-.96-.39-1.91-.57-2.87-1.35,2.06-2.45,3.72-3.62,5.04-1.14,1.28-2.06,1.77-3.19,1.77s-1.88-.78-1.88-1.88.85-1.77,1.63-1.77c.43,0,.71.25.89.6.18.43.43.67.74.67,1.1,0,2.98-2.52,5.11-5.85-.39-1.77-.89-4.15-1.31-5.43-.25-.75-.39-.89-.92-.89-.5,0-1.59.11-2.27.18l.18-.92c1.56-.25,4.29-.67,5.5-1.1.32,1.63.78,3.8,1.21,5.6,1.91-2.66,4.04-5.6,6.38-5.6.67,0,1.14.14,1.45.43l-.25.82c-2.48-.07-4.82,2.31-7.27,5.6.43,2.59.78,3.97,1.1,5.14.39,1.35.71,2.13,1.31,2.13.64,0,1.63-.71,2.84-2.91l.64.71Z"/>
    <path class="cls-2" d="M58.17,44.01c-1.14,1.49-2.7,2.73-4.22,3.55l-.53-.96c1.45-.78,3.69-2.59,4.65-6.99.5-2.27.71-5.21.71-8.33,0-2.7-.14-5.71-.74-8.37-.92-4.4-3.16-6.14-4.61-6.95l.53-.96c1.52.82,3.09,2.09,4.25,3.55,2.66,3.33,3.8,7.52,3.8,12.77s-1.17,9.36-3.83,12.7Z"/>
  </g>
</svg>