<?xml version="1.0" encoding="UTF-8"?>
<svg id="Layer_1" data-name="Layer 1" xmlns="http://www.w3.org/2000/svg" viewBox="0 0 64 64">
  <defs>
    <style>
      .cls-1, .cls-2, .cls-3 {
        fill: none;
      }

      .cls-2 {
        stroke-width: 4px;
      }

      .cls-2, .cls-3 {
        stroke: #4d4d4f;
        stroke-miterlimit: 10;
      }

      .cls-3 {
        stroke-width: 2px;
      }

      .cls-4 {
        fill: #4d4d4f;
      }
    </style>
  </defs>
  <rect class="cls-1" width="64" height="64"/>
  <g>
    <path class="cls-4" d="M18.95,28.39h3.91v1.36c1.06-1.02,2.26-1.53,3.59-1.53,1.64,0,2.89.69,3.76,2.07.88-1.4,2.13-2.1,3.76-2.1.52,0,1.01.08,1.47.23.46.15.86.39,1.19.71.33.32.59.74.79,1.26.2.52.29,1.14.29,1.88v7.2h-3.91v-5.47c0-.56-.04-1.02-.12-1.38-.08-.36-.19-.64-.35-.84-.15-.2-.33-.34-.53-.41-.2-.07-.42-.11-.65-.11-1.25,0-1.88.92-1.88,2.74v5.47h-3.91v-5.47c0-.56-.04-1.03-.11-1.39s-.18-.66-.31-.88c-.14-.22-.31-.36-.53-.44-.22-.08-.47-.12-.76-.12-.25,0-.48.04-.69.11-.22.07-.41.21-.57.42-.17.21-.3.5-.39.87s-.14.85-.14,1.44v5.47h-3.91v-11.08Z"/>
    <path class="cls-4" d="M47.05,32.28h-7.65l2.36-2.44c.62-.65,1.11-1.2,1.46-1.64s.62-.83.79-1.14.28-.56.32-.76c.04-.19.06-.36.06-.49,0-.14-.02-.28-.07-.42-.04-.13-.12-.25-.21-.36-.09-.11-.2-.19-.33-.25-.13-.06-.28-.1-.46-.1-.34,0-.6.11-.79.33-.19.22-.29.49-.29.82,0,.09.01.23.04.4h-2.7c0-.55.09-1.06.27-1.51.18-.46.44-.85.76-1.17s.72-.58,1.17-.76c.45-.18.94-.27,1.48-.27s1.02.08,1.47.25.84.4,1.17.71c.33.3.58.66.77,1.08.19.42.28.87.28,1.35,0,.52-.11,1-.33,1.44-.22.44-.58.89-1.06,1.35l-1.57,1.47h3.07v2.09Z"/>
  </g>
  <g>
    <path class="cls-2" d="M48.45,57.34H14.94c-4.42,0-8-3.58-8-8V17.27"/>
    <polygon class="cls-4" points="46.7 51.35 57.06 57.34 46.7 63.32 46.7 51.35"/>
    <polygon class="cls-4" points="12.92 19.03 6.94 8.66 .95 19.03 12.92 19.03"/>
  </g>
  <path class="cls-3" d="M12.94,8.66h37.13c4.42,0,8,3.58,8,8v34.67"/>
</svg>