<?xml version="1.0" encoding="UTF-8"?>
<svg id="Layer_1" data-name="Layer 1" xmlns="http://www.w3.org/2000/svg" version="1.1" viewBox="0 0 64 64">
  <defs>
    <style>
      .cls-1 {
        fill: #92278f;
      }

      .cls-1, .cls-2, .cls-3, .cls-4, .cls-5, .cls-6 {
        stroke-miterlimit: 10;
      }

      .cls-1, .cls-2, .cls-4, .cls-5 {
        stroke: #e6e7e8;
      }

      .cls-1, .cls-2, .cls-4, .cls-5, .cls-6 {
        stroke-width: 3px;
      }

      .cls-2 {
        fill: #262262;
      }

      .cls-3 {
        fill: #a8b078;
        stroke: #7d8e3f;
      }

      .cls-4 {
        fill: #9e1f63;
      }

      .cls-5 {
        fill: #662d91;
      }

      .cls-6 {
        fill: none;
        stroke: #fff;
      }

      .cls-7 {
        fill: #e6e7e8;
        stroke-width: 0px;
      }
    </style>
  </defs>
  <path class="cls-1" d="M47.4,21.9v-10h0c0,4.3-9.4,7.7-21,7.7s-21-3.4-21-7.7h0c0,0,0,10,0,10h0c0,4.3,9.4,7.7,21,7.7s21-3.4,21-7.7h0Z"/>
  <ellipse class="cls-4" cx="26.4" cy="11.9" rx="21" ry="7.7"/>
  <path class="cls-2" d="M5.4,31.9v10c0,4.2,9.4,7.7,21,7.7s21-3.4,21-7.7v-10c0,4.2-9.4,7.7-21,7.7s-21-3.4-21-7.7h0Z"/>
  <path class="cls-5" d="M5.4,21.9v10h0c0,4.2,9.4,7.7,21,7.7s21-3.4,21-7.7v-10c0,4.2-9.4,7.7-21,7.7s-21-3.4-21-7.7Z"/>
  <circle class="cls-7" cx="10.6" cy="21.7" r="1.5"/>
  <circle class="cls-7" cx="10.6" cy="31.9" r="1.5"/>
  <circle class="cls-7" cx="10.6" cy="42.1" r="1.5"/>
  <g>
    <circle class="cls-3" cx="46" cy="47.2" r="12.6"/>
    <line class="cls-6" x1="46" y1="40.3" x2="46" y2="54"/>
    <line class="cls-6" x1="39.2" y1="47.2" x2="52.9" y2="47.2"/>
  </g>
</svg>