<?xml version="1.0" encoding="UTF-8"?>
<svg id="Layer_1" data-name="Layer 1" xmlns="http://www.w3.org/2000/svg" viewBox="0 0 64 64">
  <defs>
    <style>
      .cls-1 {
        fill: none;
      }

      .cls-2 {
        fill: #4d4d4f;
      }
    </style>
  </defs>
  <rect class="cls-1" width="64" height="64"/>
  <g>
    <path class="cls-2" d="M13.37,25.84c.84-3,1.75-4.96,3.44-6.54,1.32-1.25,2.87-1.92,4.69-1.92,2.06,0,3.37,1.05,3.37,2.63,0,1.45-1.25,1.96-1.99,1.96-.91,0-1.42-.44-1.28-1.05.07-.4.17-.91.17-1.25,0-.71-.2-1.21-.94-1.21-.84,0-1.48.98-1.99,2.33-.51,1.42-.94,3.04-1.45,5.06h3.24l-.4,1.08-3.14.2c-1.45,5.97-2.93,11.37-3.91,13.8-1.25,2.9-3,4.89-5.4,6.31-1.15.68-2.16.88-3.24.88-1.25,0-2.53-.88-2.53-1.99,0-.81.71-1.69,1.45-2.02.61-.3,1.01-.1,1.35.4.67,1.08,1.38,1.75,2.09,1.75.91,0,1.42-.78,1.99-2.56.74-2.29,2.63-10.05,4.15-16.56l-2.53-.2.44-1.08h2.43Z"/>
    <path class="cls-2" d="M30.23,19.27c1.08-1.38,2.56-2.6,4.01-3.37l.47.88c-1.38.78-3.51,2.5-4.39,6.65-.51,2.56-.67,5.33-.67,7.96,0,2.97.2,5.77.67,7.96.88,4.18,3,5.84,4.39,6.58l-.47.94c-1.45-.81-2.97-1.99-4.05-3.41-2.63-3.24-3.64-7.32-3.64-12.18,0-5.13,1.28-9.01,3.68-12.01Z"/>
    <path class="cls-2" d="M52.12,36.4c-1.72,3.24-3.74,4.22-5.46,4.22-1.55,0-2.13-1.11-2.7-3.54-.17-.81-.3-1.58-.44-2.29-1.15,1.72-1.99,3.1-3.07,4.35s-1.99,1.69-3.07,1.69c-1.15,0-1.99-.74-1.96-1.99,0-1.25,1.01-1.99,1.86-1.99.47,0,.74.27.94.61.17.41.4.68.71.68.88,0,2.36-1.72,4.25-4.72-.4-1.92-.88-4.08-1.28-5.33-.27-.74-.44-.88-.94-.88-.4,0-1.42.07-1.99.14l.2-.98c1.65-.24,4.72-.67,6.04-1.11.3,1.59.71,3.37,1.08,5.03,1.82-2.6,3.68-5.03,5.87-5.03.68,0,1.21.17,1.52.44l-.27.88c-2.43-.03-4.42,1.82-6.78,4.96.44,2.46.78,3.74,1.08,4.89.3,1.01.61,1.86,1.18,1.86.51,0,1.45-.64,2.56-2.56l.67.71Z"/>
    <path class="cls-2" d="M58.36,43.49c-1.08,1.42-2.56,2.6-4.01,3.37l-.51-.91c1.38-.74,3.51-2.46,4.42-6.65.47-2.16.67-4.96.67-7.93,0-2.56-.14-5.43-.71-7.96-.88-4.18-3-5.84-4.38-6.61l.51-.91c1.45.78,2.93,1.99,4.05,3.37,2.53,3.17,3.61,7.15,3.61,12.14s-1.11,8.91-3.64,12.08Z"/>
  </g>
</svg>