<?xml version="1.0" encoding="UTF-8"?>
<svg id="Layer_1" data-name="Layer 1" xmlns="http://www.w3.org/2000/svg" version="1.1" viewBox="0 0 64 64">
  <defs>
    <style>
      .cls-1 {
        fill: #7d8e3f;
      }

      .cls-1, .cls-2 {
        stroke-width: 0px;
      }

      .cls-2 {
        fill: #a8b078;
      }
    </style>
  </defs>
  <path class="cls-2" d="M7.8,62.5c-1.2,0-2.5-1-2.5-2.5V4c0-1.5,1.3-2.5,2.5-2.5s.9.1,1.2.3l48.5,28c.8.5,1.2,1.3,1.2,2.2s-.5,1.7-1.2,2.2L9,62.2c-.4.2-.8.3-1.2.3h0Z"/>
  <path class="cls-1" d="M7.8,3c.2,0,.3,0,.5.1l48.5,28c.4.3.5.7.5.9s0,.6-.5.9L8.3,60.9c-.2,0-.3.1-.5.1-.4,0-1-.3-1-1V4c0-.7.6-1,1-1M7.8,0C5.7,0,3.8,1.7,3.8,4v56c0,2.3,1.9,4,4,4s1.3-.2,2-.5l48.5-28c2.7-1.5,2.7-5.4,0-6.9L9.8.5C9.1.2,8.4,0,7.8,0h0Z"/>
</svg>