<?xml version="1.0" encoding="utf-8"?>
<svg x="0pt" y="0pt" width="64pt" height="64pt" viewBox="0 0 64 64" xmlns="http://www.w3.org/2000/svg" xmlns:xlink="http://www.w3.org/1999/xlink">
  <g id="Layer 1">
    <linearGradient x1="20.0486" y1="4.54351" x2="20.0486" y2="18.8897" gradientUnits="userSpaceOnUse" id="am2">
      <stop style="stop-color:#176be4;stop-opacity:1;"/>
      <stop offset="1" style="stop-color:#80ace4;stop-opacity:1;"/>
    </linearGradient>
    <g id="Path">
      <path style="fill:url(#am2);fill-opacity:1;fill-rule:evenodd;opacity:1;stroke:none;" d="M1.03442,7.5506 C1.03442,5.88983,2.38074,4.54352,4.04151,4.54352 C4.04151,4.54352,36.0557,4.54352,36.0557,4.54352 C37.7164,4.54352,39.0627,5.88984,39.0627,7.5506 C39.0627,7.5506,39.0627,15.8826,39.0627,15.8826 C39.0627,17.5434,37.7164,18.8897,36.0557,18.8897 C36.0557,18.8897,13.3601,18.8897,13.3601,18.8897 C13.3601,18.8897,10.2869,16.9615,10.2869,16.9615 C10.2869,16.9615,7.19898,18.8897,7.19898,18.8897 C7.19898,18.8897,4.0415,18.8897,4.0415,18.8897 C2.38074,18.8897,1.03442,17.5434,1.03442,15.8826 C1.03442,15.8826,1.03442,7.5506,1.03442,7.5506 z"/>
      <path style="fill:none;opacity:1;stroke:#505050;stroke-linecap:round;stroke-linejoin:round;stroke-miterlimit:10;stroke-opacity:1;stroke-width:1;" d="M1.03442,7.5506 C1.03442,5.88983,2.38074,4.54352,4.04151,4.54352 C4.04151,4.54352,36.0557,4.54352,36.0557,4.54352 C37.7164,4.54352,39.0627,5.88984,39.0627,7.5506 C39.0627,7.5506,39.0627,15.8826,39.0627,15.8826 C39.0627,17.5434,37.7164,18.8897,36.0557,18.8897 C36.0557,18.8897,13.3601,18.8897,13.3601,18.8897 C13.3601,18.8897,10.2869,16.9615,10.2869,16.9615 C10.2869,16.9615,7.19898,18.8897,7.19898,18.8897 C7.19898,18.8897,4.0415,18.8897,4.0415,18.8897 C2.38074,18.8897,1.03442,17.5434,1.03442,15.8826 C1.03442,15.8826,1.03442,7.5506,1.03442,7.5506 z"/>
    </g>
    <linearGradient x1="28.886" y1="41.2341" x2="28.886" y2="57.4565" gradientUnits="userSpaceOnUse" id="am4">
      <stop style="stop-color:#54d169;stop-opacity:1;"/>
      <stop offset="1" style="stop-color:#aff479;stop-opacity:1;"/>
    </linearGradient>
    <g id="Path">
      <path style="fill:url(#am4);fill-opacity:1;fill-rule:evenodd;opacity:1;stroke:none;" d="M9.87183,46.1174 C9.87183,44.4566,11.2181,43.1103,12.8789,43.1103 C12.8789,43.1103,16.0613,43.1103,16.0613,43.1103 C16.0613,43.1103,19.2664,41.2341,19.2664,41.2341 C19.2664,41.2341,22.1907,43.1103,22.1907,43.1103 C22.1907,43.1103,44.8931,43.1103,44.8931,43.1103 C46.5538,43.1103,47.9001,44.4566,47.9001,46.1174 C47.9001,46.1174,47.9001,54.4494,47.9001,54.4494 C47.9001,56.1102,46.5538,57.4565,44.8931,57.4565 C44.8931,57.4565,22.1975,57.4565,22.1975,57.4565 C22.1975,57.4565,19.1243,55.5283,19.1243,55.5283 C19.1243,55.5283,16.0364,57.4565,16.0364,57.4565 C16.0364,57.4565,12.8789,57.4565,12.8789,57.4565 C11.2181,57.4565,9.87183,56.1102,9.87183,54.4494 C9.87183,54.4494,9.87183,46.1174,9.87183,46.1174 z"/>
      <path style="fill:none;opacity:1;stroke:#505050;stroke-linecap:round;stroke-linejoin:round;stroke-miterlimit:10;stroke-opacity:1;stroke-width:1;" d="M9.87183,46.1174 C9.87183,44.4566,11.2181,43.1103,12.8789,43.1103 C12.8789,43.1103,16.0613,43.1103,16.0613,43.1103 C16.0613,43.1103,19.2664,41.2341,19.2664,41.2341 C19.2664,41.2341,22.1907,43.1103,22.1907,43.1103 C22.1907,43.1103,44.8931,43.1103,44.8931,43.1103 C46.5538,43.1103,47.9001,44.4566,47.9001,46.1174 C47.9001,46.1174,47.9001,54.4494,47.9001,54.4494 C47.9001,56.1102,46.5538,57.4565,44.8931,57.4565 C44.8931,57.4565,22.1975,57.4565,22.1975,57.4565 C22.1975,57.4565,19.1243,55.5283,19.1243,55.5283 C19.1243,55.5283,16.0364,57.4565,16.0364,57.4565 C16.0364,57.4565,12.8789,57.4565,12.8789,57.4565 C11.2181,57.4565,9.87183,56.1102,9.87183,54.4494 C9.87183,54.4494,9.87183,46.1174,9.87183,46.1174 z"/>
    </g>
    <linearGradient x1="20.0486" y1="33.2773" x2="20.0486" y2="17.0549" gradientUnits="userSpaceOnUse" id="am6">
      <stop style="stop-color:#ffdf3f;stop-opacity:1;"/>
      <stop offset="1" style="stop-color:#ff6e4b;stop-opacity:1;"/>
    </linearGradient>
    <g id="Path">
      <path style="fill:url(#am6);fill-opacity:1;fill-rule:evenodd;opacity:1;stroke:none;" d="M1.03442,21.9382 C1.03442,20.2774,2.38074,18.9311,4.0415,18.9311 C4.0415,18.9311,7.22388,18.9311,7.22388,18.9311 C7.22388,18.9311,10.429,17.0549,10.429,17.0549 C10.429,17.0549,13.3533,18.9311,13.3533,18.9311 C13.3533,18.9311,36.0557,18.9311,36.0557,18.9311 C37.7164,18.9311,39.0627,20.2774,39.0627,21.9382 C39.0627,21.9382,39.0627,30.2702,39.0627,30.2702 C39.0627,31.931,37.7164,33.2773,36.0557,33.2773 C36.0557,33.2773,13.3601,33.2773,13.3601,33.2773 C13.3601,33.2773,10.2869,31.3491,10.2869,31.3491 C10.2869,31.3491,7.19897,33.2773,7.19897,33.2773 C7.19897,33.2773,4.0415,33.2773,4.0415,33.2773 C2.38074,33.2773,1.03442,31.931,1.03442,30.2702 C1.03442,30.2702,1.03442,21.9382,1.03442,21.9382 z"/>
      <path style="fill:none;opacity:1;stroke:#505050;stroke-linecap:round;stroke-linejoin:round;stroke-miterlimit:10;stroke-opacity:1;stroke-width:1;" d="M1.03442,21.9382 C1.03442,20.2774,2.38074,18.9311,4.0415,18.9311 C4.0415,18.9311,7.22388,18.9311,7.22388,18.9311 C7.22388,18.9311,10.429,17.0549,10.429,17.0549 C10.429,17.0549,13.3533,18.9311,13.3533,18.9311 C13.3533,18.9311,36.0557,18.9311,36.0557,18.9311 C37.7164,18.9311,39.0627,20.2774,39.0627,21.9382 C39.0627,21.9382,39.0627,30.2702,39.0627,30.2702 C39.0627,31.931,37.7164,33.2773,36.0557,33.2773 C36.0557,33.2773,13.3601,33.2773,13.3601,33.2773 C13.3601,33.2773,10.2869,31.3491,10.2869,31.3491 C10.2869,31.3491,7.19897,33.2773,7.19897,33.2773 C7.19897,33.2773,4.0415,33.2773,4.0415,33.2773 C2.38074,33.2773,1.03442,31.931,1.03442,30.2702 C1.03442,30.2702,1.03442,21.9382,1.03442,21.9382 z"/>
    </g>
    <linearGradient x1="48.1968" y1="33.3013" x2="48.1968" y2="18.9551" gradientUnits="userSpaceOnUse" id="am8">
      <stop style="stop-color:#ff7c6e;stop-opacity:1;"/>
      <stop offset="1" style="stop-color:#f4317e;stop-opacity:1;"/>
    </linearGradient>
    <g id="Path 21">
      <path style="fill:url(#am8);fill-opacity:1;fill-rule:evenodd;opacity:1;stroke:none;" d="M38.9373,29.6221 C38.3537,30.3054,37.597,30.7178,36.77,30.7178 C34.9243,30.7178,33.428,28.663,33.428,26.1282 C33.428,23.5935,34.9243,21.5386,36.77,21.5386 C37.597,21.5386,38.3537,21.9511,38.9373,22.6344 C38.9373,22.6344,38.9373,21.9622,38.9373,21.9622 C38.9373,20.3015,40.2836,18.9551,41.9443,18.9551 C41.9443,18.9551,59.9585,18.9551,59.9585,18.9551 C61.6193,18.9551,62.9656,20.3015,62.9656,21.9622 C62.9656,21.9622,62.9656,30.2943,62.9656,30.2943 C62.9656,31.955,61.6193,33.3013,59.9585,33.3013 C59.9585,33.3013,41.9443,33.3013,41.9443,33.3013 C40.2836,33.3013,38.9373,31.955,38.9373,30.2943 C38.9373,30.2943,38.9373,29.6221,38.9373,29.6221 z"/>
      <path style="fill:none;opacity:1;stroke:#505050;stroke-linecap:round;stroke-linejoin:round;stroke-miterlimit:10;stroke-opacity:1;stroke-width:1;" d="M38.9373,29.6221 C38.3537,30.3054,37.597,30.7178,36.77,30.7178 C34.9243,30.7178,33.428,28.663,33.428,26.1282 C33.428,23.5935,34.9243,21.5386,36.77,21.5386 C37.597,21.5386,38.3537,21.9511,38.9373,22.6344 C38.9373,22.6344,38.9373,21.9622,38.9373,21.9622 C38.9373,20.3015,40.2836,18.9551,41.9443,18.9551 C41.9443,18.9551,59.9585,18.9551,59.9585,18.9551 C61.6193,18.9551,62.9656,20.3015,62.9656,21.9622 C62.9656,21.9622,62.9656,30.2943,62.9656,30.2943 C62.9656,31.955,61.6193,33.3013,59.9585,33.3013 C59.9585,33.3013,41.9443,33.3013,41.9443,33.3013 C40.2836,33.3013,38.9373,31.955,38.9373,30.2943 C38.9373,30.2943,38.9373,29.6221,38.9373,29.6221 z"/>
    </g>
  </g>
</svg>
