<?xml version="1.0" encoding="UTF-8"?>
<svg id="Layer_1" data-name="Layer 1" xmlns="http://www.w3.org/2000/svg" viewBox="0 0 60 58.18">
  <defs>
    <style>
      .cls-1 {
        fill: none;
      }

      .cls-2 {
        fill: #4d4d4f;
      }
    </style>
  </defs>
  <rect class="cls-1" width="58.18" height="58.18"/>
  <g>
    <path class="cls-2" d="M15.17,40.76c0,2.44.25,3.89.75,4.35.37.37.86.6,1.47.68.6.08,1.97.12,4.09.12h5.49c2.87,0,4.78-.38,5.74-1.14.96-.76,1.44-2.29,1.44-4.59,0-.61-.02-1.33-.06-2.15-.08-1.6-.12-2.56-.12-2.89,0-1.81.73-2.71,2.18-2.71,1.75,0,2.62.83,2.62,2.5,0,.5-.02.89-.06,1.19l-.44,3.18c-.12.92-.19,1.87-.19,2.87,0,.58.05,1.45.16,2.59.1,1.14.16,2.01.16,2.59,0,1.87-1.06,2.81-3.18,2.81-.42,0-1.37-.07-2.87-.22-1-.07-2.54-.15-4.62-.22h-14.67c-1,0-2.66.08-4.99.25-.33,0-.91.03-1.72.09-.81.06-1.45.09-1.9.09-1.75,0-2.62-.75-2.62-2.25,0-1.33.64-2,1.93-2,.33,0,.83.06,1.5.19.67.12,1.16.19,1.5.19,2.12,0,3.18-1.56,3.18-4.68v-25.03c0-3.08-1.06-4.62-3.18-4.62-.58,0-1.02.04-1.31.12-.67.12-1.23.19-1.69.19-.54,0-1-.2-1.37-.59-.37-.4-.56-.88-.56-1.47,0-1.46.89-2.18,2.68-2.18.25,0,.56.02.94.06l3.31.37c1.83.21,3.18.31,4.06.31,1.08,0,2.41-.1,3.99-.31l2.87-.37c.33-.04.6-.06.81-.06,1.87,0,2.81.73,2.81,2.18,0,.58-.19,1.07-.56,1.47-.37.4-.83.59-1.37.59-.42,0-.98-.06-1.69-.19-.29-.08-.73-.12-1.31-.12-2.12,0-3.18,1.53-3.18,4.59v24.21Z"/>
    <path class="cls-2" d="M53.38,31.81v8.11c0,2.08.02,3.31.06,3.68.21,1.87.77,2.81,1.69,2.81.21,0,.73-.1,1.56-.31.21-.08.52-.12.94-.12,1.58,0,2.37.69,2.37,2.06,0,.58-.26,1.08-.78,1.5-.52.42-1.18.62-1.97.62-.67,0-1.68-.09-3.04-.28-1.36-.19-2.37-.28-3.04-.28-1.09,0-2.3.08-3.63.25-1.63.21-2.71.31-3.26.31-1.67,0-2.5-.71-2.5-2.12s.71-2.06,2.14-2.06c.34,0,.83.06,1.48.19.65.12,1.14.19,1.48.19,1.01,0,1.62-1.33,1.83-3.99v-15.98c-.21-2.62-.84-3.93-1.89-3.93-.34,0-.81.07-1.42.22-.61.15-1.06.22-1.35.22-1.51,0-2.27-.67-2.27-2,0-1.41.91-2.12,2.75-2.12.79,0,1.35.02,1.69.06,1.33.17,2.18.25,2.56.25.33,0,.84-.05,1.53-.16.69-.1,1.2-.16,1.53-.16,1.21,0,1.81.81,1.81,2.43,0,.17-.02.42-.05.75-.03.33-.05.58-.05.75-.03.33-.07,1.62-.1,3.87-.03,1.71-.05,3.45-.05,5.24ZM50.14,15.45c-.96,0-1.78-.34-2.47-1.03-.69-.69-1.03-1.51-1.03-2.47s.34-1.77,1.03-2.43c.69-.67,1.51-1,2.47-1s1.78.33,2.46,1c.69.67,1.03,1.48,1.03,2.43s-.34,1.78-1.03,2.47-1.51,1.03-2.46,1.03Z"/>
  </g>
</svg>