<?xml version="1.0" encoding="UTF-8"?>
<svg id="Layer_1" xmlns="http://www.w3.org/2000/svg" version="1.1" viewBox="0 0 64 64">
  <!-- Generator: Adobe Illustrator 29.1.0, SVG Export Plug-In . SVG Version: 2.1.0 Build 142)  -->
  <defs>
    <style>
      .st0 {
        fill: none;
      }

      .st1 {
        fill: #e6e7e8;
      }
    </style>
  </defs>
  <rect class="st0" y="0" width="64" height="64"/>
  <g>
    <path class="st1" d="M13.4,25.8c.8-3,1.8-5,3.4-6.5,1.3-1.2,2.9-1.9,4.7-1.9s3.4,1,3.4,2.6-1.2,2-2,2-1.4-.4-1.3-1c0-.4.2-.9.2-1.2,0-.7-.2-1.2-.9-1.2s-1.5,1-2,2.3c-.5,1.4-.9,3-1.5,5.1h3.2l-.4,1.1-3.1.2c-1.4,6-2.9,11.4-3.9,13.8-1.2,2.9-3,4.9-5.4,6.3-1.2.7-2.2.9-3.2.9s-2.5-.9-2.5-2,.7-1.7,1.5-2c.6-.3,1,0,1.3.4.7,1.1,1.4,1.8,2.1,1.8s1.4-.8,2-2.6c.7-2.3,2.6-10,4.1-16.6l-2.5-.2.4-1.1h2.4,0Z"/>
    <path class="st1" d="M30.2,19.3c1.1-1.4,2.6-2.6,4-3.4l.5.9c-1.4.8-3.5,2.5-4.4,6.6-.5,2.6-.7,5.3-.7,8s.2,5.8.7,8c.9,4.2,3,5.8,4.4,6.6l-.5.9c-1.5-.8-3-2-4-3.4-2.6-3.2-3.6-7.3-3.6-12.2s1.3-9,3.7-12Z"/>
    <path class="st1" d="M52.1,36.4c-1.7,3.2-3.7,4.2-5.5,4.2s-2.1-1.1-2.7-3.5c-.2-.8-.3-1.6-.4-2.3-1.2,1.7-2,3.1-3.1,4.3s-2,1.7-3.1,1.7-2-.7-2-2c0-1.2,1-2,1.9-2s.7.3.9.6c.2.4.4.7.7.7.9,0,2.4-1.7,4.2-4.7-.4-1.9-.9-4.1-1.3-5.3-.3-.7-.4-.9-.9-.9s-1.4,0-2,.1l.2-1c1.7-.2,4.7-.7,6-1.1.3,1.6.7,3.4,1.1,5,1.8-2.6,3.7-5,5.9-5s1.2.2,1.5.4l-.3.9c-2.4,0-4.4,1.8-6.8,5,.4,2.5.8,3.7,1.1,4.9.3,1,.6,1.9,1.2,1.9s1.5-.6,2.6-2.6l.7.7h0Z"/>
    <path class="st1" d="M58.4,43.5c-1.1,1.4-2.6,2.6-4,3.4l-.5-.9c1.4-.7,3.5-2.5,4.4-6.7.5-2.2.7-5,.7-7.9s-.1-5.4-.7-8c-.9-4.2-3-5.8-4.4-6.6l.5-.9c1.5.8,2.9,2,4,3.4,2.5,3.2,3.6,7.1,3.6,12.1s-1.1,8.9-3.6,12.1h0Z"/>
  </g>
</svg>