<?xml version="1.0" encoding="UTF-8"?>
<svg id="Layer_1" data-name="Layer 1" xmlns="http://www.w3.org/2000/svg" xmlns:xlink="http://www.w3.org/1999/xlink" viewBox="0 0 57.81 58.77">
  <defs>
    <style>
      .cls-1 {
        fill: #f8a069;
      }

      .cls-1, .cls-2, .cls-3, .cls-4, .cls-5, .cls-6, .cls-7, .cls-8 {
        stroke-miterlimit: 10;
      }

      .cls-1, .cls-3, .cls-4, .cls-5, .cls-8 {
        stroke: #4d4d4f;
      }

      .cls-1, .cls-4, .cls-5, .cls-8 {
        stroke-width: 3.2px;
      }

      .cls-2 {
        fill: #bdbec0;
      }

      .cls-2, .cls-6, .cls-7, .cls-9 {
        stroke: #4e4e50;
        stroke-width: .9px;
      }

      .cls-3 {
        stroke-width: 2.14px;
      }

      .cls-3, .cls-10, .cls-7 {
        fill: #fff;
      }

      .cls-4 {
        fill: #f8f189;
      }

      .cls-5 {
        fill: #b4d77b;
      }

      .cls-11 {
        fill: #4e4e50;
      }

      .cls-6 {
        fill: none;
      }

      .cls-8 {
        fill: #9cabd7;
      }

      .cls-9 {
        fill: url(#linear-gradient);
        stroke-linejoin: bevel;
      }
    </style>
    <linearGradient id="linear-gradient" x1="50.35" y1="-1.89" x2="38.25" y2="-14.09" gradientTransform="translate(0 28.04) scale(1 -1)" gradientUnits="userSpaceOnUse">
      <stop offset="0" stop-color="#fff"/>
      <stop offset="1" stop-color="#939598"/>
    </linearGradient>
  </defs>
  <g>
    <rect class="cls-8" x="5.75" y="1.6" width="37.13" height="50.83" rx="3" ry="3"/>
    <rect class="cls-3" x="1.07" y="9.29" width="9.36" height="4.66" rx="2.33" ry="2.33"/>
    <rect class="cls-3" x="1.07" y="40.08" width="9.36" height="4.66" rx="2.33" ry="2.33"/>
    <rect class="cls-3" x="1.07" y="24.68" width="9.36" height="4.66" rx="2.33" ry="2.33"/>
    <path class="cls-4" d="M42.88,5.64h3.72c1.1,0,2,.9,2,2v5.84c0,1.1-.9,2-2,2h-3.72V5.64h0Z"/>
    <path class="cls-1" d="M42.88,18.77h3.72c1.1,0,2,.9,2,2v5.84c0,1.1-.9,2-2,2h-3.72v-9.84h0Z"/>
    <path class="cls-5" d="M42.88,31.9h3.72c1.1,0,2,.9,2,2v5.84c0,1.1-.9,2-2,2h-3.72v-9.84h0Z"/>
    <g>
      <path class="cls-10" d="M19.33,17.57l-.18.24.29-.26.02.11-.29.55c.22-.29.46-.62.55-.71l-.24.55.24-.33v.2l-.62,1.08-.31.42s-.11.13-.11.13c0-.02.07-.11.07-.2,0-.02-.15.18-.15.22s.04.02.04.04-.02.07-.07.13c-.09.15-.22.18-.22.18,0,.04,0,.07-.02.07,0,.02-.15.22-.11.22-.02,0,.18-.2.2-.2-.46.68-.95,1.37-1.48,2.01-.64.82-1.15,1.15-1.52,1.21-.07,0-.18-.02-.22-.02-.2,0-.29-.11-.35-.13-.55-.33-.64-.66-.66-1.08v-.38s0-.11.02-.15v-.13c0-.15.02-.26.04-.37,0-.09.22-.88.26-1.04.29-.9.82-2.42.88-2.95l.02-.35s0-.07-.02-.07c-.37.15-1.57,1.57-2.71,3.73-.27.46-.27.79-.57,1.3,0,.07-.04.13-.07.2-.11.26-.33.29-.57.29-.29-.07-.51-.49-.57-.46-.07,0-.13-.02-.15-.09-.02-.04-.11-.07-.11-.11s.02-.09.04-.15c.6-2.18,1.23-4.67,1.48-5.75.02-.07.07-.2.2-.2.11,0,.38.13.44.18.11.09.35.31.37.44.02.15,0,.2.04.4v.11c0,.31-.09.77-.24,1.34.51-.86,1.32-1.83,1.92-2.09.2-.13.35-.18.57-.18.55.22,1.1.44,1.21,1.06.07.2.07.42.07.66,0,.55-.37,1.79-.53,2.27-.27.86-.75,2.14-.79,2.87,0,.11,0,.13.02.13.4,0,3.66-4.79,4.01-5.27,0,.02-.04.15-.13.35ZM15.14,22.02s.07.11.07.11c0,.04-.07.15-.07.26l.07-.04s.02-.07.02-.07c0-.07,0-.15.02-.24,0-.04.02-.07.02-.09.02,0,.02-.07.02-.11.02-.07.02-.15.09-.22v-.11s-.07.02-.09.09c0,.04,0,.11-.02.11,0,0-.07.07-.07.04,0-.07.07-.24.07-.26s.02-.04.02-.11c0,0,.04,0,.04-.09.04,0,.04-.09.04-.11,0,.02.04-.04.04-.07,0,0,.09-.07.07-.07,0-.04-.04-.04-.07-.04l-.04-.13v.11h-.09s0,.04.02.07c-.02,0-.09.07-.09.09l.09-.02s-.09.07-.09.13c0,.04,0,.07-.04.09,0,.02.02.09.02.09,0,.04-.07.04-.07.07v.31s.07.07.07.09-.07.09-.07.13ZM15.38,21.42s.02,0,.02-.04l.02-.11c-.04.07-.04.11-.04.15ZM15.51,20.45l-.07-.04s.04.09.09.09c.02,0,.04-.02.07-.04,0-.07.02-.18.02-.18-.02,0-.04.02-.04.04-.02.02-.07.07-.07.13ZM15.69,19.06c-.02.07-.07.13-.07.2.02-.09.15-.29.2-.33-.09.02-.11.09-.13.13ZM16.04,18.73s-.09.22-.11.26c0,.02.11-.15.11-.15.02,0,.04-.02.04-.11v-.09s-.04.07-.04.09ZM17.1,21.58s-.04.07-.04.11l-.18.18s.15-.13.2-.15c0-.04.09-.13.13-.18-.02,0-.04.02-.11.04ZM17.61,20.92s.02-.02.02-.07-.04.07-.09.09l.07-.02c-.09.11-.07.11-.07.11.07,0,.2-.24.22-.29-.07.02-.11.13-.15.18ZM18.01,20.48s.07-.11.13-.18c-.18.18-.31.15-.31.38,0,0,.02-.02.18-.2ZM18.56,19.15c.09-.04.15-.11.15-.18,0-.02-.04-.07-.04-.07-.02,0-.04.2-.11.24ZM18.89,18.69c-.18.15-.24.18-.22.18.04,0,.11-.02.13-.07,0-.04.09-.04.09-.11ZM19.04,18.91l-.09.11.11-.04.07-.2s-.09.11-.09.13Z"/>
      <path class="cls-10" d="M22.48,16.24c1.17-.02,2.51-.24,3.31-.35.07,0-.42.66-.46.68-.31.11-.66.18-1.08.24-.04,0-.09.02-.13.02-.49.09-.9.18-1.34.22.02.15.04.35.04.53,0,1.5-1.32,4.1-2.91,4.7-.15.07-.22.07-.31.07h-.24c-.24,0-.35-.09-.62-.2-.11,0-.29-.15-.31-.24-.13-.18-.22-.4-.22-.68.02-.79.15-1.48.27-1.9,0-.04.02-.07.02-.11,0-.02.11-.29.11-.31.68-2.07,1.92-3.84,3.33-3.95h.24c.07,0,.09,0,.13.07.07,0,.18.04.18.04,0,.04,0,.13-.11.2-.18.09-.38.22-.57.42.29.13.53.31.68.55ZM21.6,17.1h-.18c-.18,0-.35-.04-.49-.13l-.33.77c-.51,1.24-1.01,2.49-1.15,3.62,0,.02.09-.02.11-.02s.04-.04.07-.04c.84-.77,1.87-2.62,1.96-4.08v-.11ZM21.62,20.01s-.09.04-.09.07.04.02.04.09c.02-.02.04-.09.04-.15ZM22,19.55l-.07.15c-.02.07-.11.27-.18.31-.02.02.11-.04.11-.04.04-.11.13-.2.18-.38,0-.02,0-.09.02-.11-.02,0-.04.02-.07.07ZM21.91,19.42s.02.04.04.07c-.09.11-.13.2-.15.29.02,0,.07-.02.07-.07.04-.04.07-.13.11-.15l-.02-.27-.04.13ZM22.42,18.65s-.04,0-.04-.04c.02-.07.07-.13.11-.18-.13.04-.2.29-.2.42-.09.04-.13.29-.13.31.02,0,.11-.04.11-.04,0-.02.02-.07.02-.11,0-.02.02-.09.02-.11.09-.04.07-.15.11-.24ZM22.44,18.01c0,.09-.02.15-.02.29.04-.07.07-.13.09-.2l-.07-.09ZM22.44,18.49s.02.04.02.07c.04-.02.04-.09.04-.09-.04,0-.07.02-.07.02ZM22.64,17.74v.24c.04-.09.07-.15.07-.22,0-.04-.02-.07-.02-.11l-.04.09Z"/>
      <path class="cls-10" d="M28.85,13.07c-.49,0-.97.02-1.46.07-.29.9-.64,1.87-.97,2.69l-.02-.09.6-1.59c-.09.13-1.37,3.13-1.85,5.6-.09.44-.22.97-.22,1.41l-.02.46.09-.75c.2-1.39.84-3.57,1.04-4.03.02-.13.09-.38.18-.51l.07-.09v-.2s.11-.07.13-.07c-.71,1.96-1.34,3.99-1.39,5.84,0,.11.02.2.11.2.02,0,.07,0,.11-.02.97-.53,3.02-3.2,4.06-4.54l.24-.31c.07-.07.09-.15.13-.2.07-.04.09-.09.09-.09.11,0,.22.33.22.48v.11s-.04.11-.13.13v.27c-.09.18-.11.09-.24.33l-.11.11c-.02.07-.18.22-.24.29-.07.07-.13.13-.18.24-.07.02-.13.04-.2.11.07,0,.07-.04.09-.04v.11l-.07.07c-.07,0-.15.02-.15.09.09,0,.09.02.09.02,0,.04-.07.09-.11.09s-.07.02-.07.04.02.04.02.07c-.04,0-.13.18-.18.22-.07.04-.11.24-.2.24-.02-.02-.02.04-.02.07-.09,0-.11.07-.11.11-.04.07-.11.11-.18.18-.02.07-.11.11-.13.2,0,.07-.11.07-.11.09s-.02.07-.04.07c-.02.07.02.15-.09.15-.02.02-.13.04-.13.11-.02,0-.04.02-.09.09-.02,0-.15.15-.15.2l-.09.11c-.11.11-.18.24-.31.37.11-.07.15-.22.27-.22.02,0,.09-.13.13-.15.07-.07.15-.15.2-.24,0-.04.22-.2.22-.18.07-.07.07-.13.09-.2.04-.02.13-.07.13-.09,0-.04.02-.07.02-.07.04-.07.09-.11.13-.2.02.04.02.07.02.09.04-.15.02-.15.15-.24l.68-.93s.09-.22.2-.22c0-.02.07-.18.09-.2.07-.02.04-.09.09-.13.04-.07.15-.11.22-.15l-1.12,1.52c-.22.29-1.34,1.72-1.68,1.87-.11.2-.22.26-.38.4,0,.07-.07.07-.07.07-.15.13-.33.22-.48.33-.15.07-.18.13-.35.18-.09.02-.2.11-.35.11-.09,0-.35-.04-.42-.11-.04,0-.24-.04-.27-.07,0,0-.15-.09-.18-.11-.09-.04-.22-.15-.24-.18-.09-.04-.09-.13-.13-.15l-.09-.2s-.02-.07-.02-.09c-.02-.13-.04-.18-.04-.33v-.13c0-.07-.04-.13-.04-.2,0-.02,0-.04.02-.07,0,0-.02-.07-.02-.09,0,0,.02-.11.04-.13v-.11s0-.09.02-.13c-.04-.04-.07-.07-.07-.09.02-.11.07-.18.07-.24l.02-.29s-.02-.04-.02-.07c0,0,0-.02.02-.09,0-.15.04-.37.11-.51.02-.04.02-.07.09-.11l-.04-.09c0-.11.02-.18.04-.24.04-.07.07-.2.07-.31v-.11c.02-.11.11-.24.13-.35.4-1.68,1.08-3.4,1.74-5.05-1.12.15-2.16.33-2.91.38h-.42c-.46,0-1.21-.09-1.39-.62-.02-.07-.04-.15-.04-.29,0-.07.02-.13.07-.2,0-.04.11-.07.15-.07,0,0,0,.02.07.04.11.02.31.04.57.04.64,0,1.63-.07,2.27-.13.9-.11,1.54-.15,2.07-.2.24-.6.46-1.17.66-1.72l.15-.33s.09-.07.13-.07c.44,0,.55.2.57.62.02.09.13.2.13.22v.11c-.04.33-.11.71-.22.93l-.04.18h.97c1.04.02,1.81.29,2.01.51-.02.13-.13.09-.13.13,0,.02,0,.11.04.13-.02.02-.26.09-.31.18-.09,0-.22-.02-.68-.04-.24-.02-.46-.02-.73-.02Z"/>
      <path class="cls-10" d="M34.87,17.59l-.07.11c0,.15.02.38.04.35-.02.02-.04.07-.07.11,0,.04-.04.04-.04.11.09-.09.29-.53.4-.53.04,0-.35.64-.4.68l-.53.75c-.66.93-2.69,3.84-4.28,3.84-1.19,0-1.72-1.08-1.72-2.25,0-.13.02-.29.02-.42.13-1.79,1.48-4.65,3.26-5.09.44.04,1.5.37,1.5.95v.11c-.04,1.48-1.43,2.4-2.51,2.4h-.27s-.07.09-.09.11c-.13.31-.51,1.63-.51,2.49v.24c.02.35.2.71.42.71.57,0,1.9-1.46,2.32-1.96.84-.99,1.83-2.4,2.45-3.13v.2l.09-.11s-.02.07-.02.13c0,0-.07.07-.11.13.04.02.11.07.11.07ZM29.38,20.89v.18s.09-.02.09-.02c0-.04,0-.09-.09-.15ZM29.4,20.72c.04.13.04.15.04.15.02,0,.02-.15.02-.24-.02.04-.07.07-.07.09ZM29.56,20.76c.07-.64.31-1.5.48-2.03-.04.09-.11.24-.13.33l-.11.29s.04-.04.04-.04c0,0-.02.11-.04.13-.02,0-.09.18-.09.24,0,0-.02.07-.04.07s-.04,0-.07.04l.07-.29c.04-.18.24-.77.24-.77-.02,0-.07.07-.07.07-.13.42-.29.86-.31,1.35l.07-.35s.04.04.04.11c0,.04-.02.15-.02.15,0,0-.07.44-.07.71ZM30.53,17.61s-.13-.04-.13-.04c-.02,0-.07.07-.09.07l.07.11s.02-.13.15-.13ZM30.64,17.65l-.13.2c.66-.15,1.46-.99,1.46-1.61,0-.07-.07-.04-.09-.09-.46.35-.71.71-1.23,1.5ZM30.64,17.41s-.07-.04-.07-.04v.11s.07-.04.07-.07ZM33.92,19.35s-.04.02-.04.04.15-.07.15-.13c-.09,0-.09.02-.09.02,0,.04-.02.07-.02.07Z"/>
      <path class="cls-10" d="M33.66,21.93c0-.13.48-.57.57-.64-.09.13-.4.42-.4.51.09-.11.35-.38.37-.4.07,0,.02-.02.07-.02,0-.02.02-.09.02-.09,0-.02,0-.04.02-.07l.07-.09c.15-.15.79-.66.95-.77l-.09-.18c-.46-.95-.9-1.9-.9-2.89,0-1.61,1.83-2.87,3.15-2.87.04,0,.24.13.24.13h.22c.48,0,.9.99.9,1.32,0,.4-.29.82-.51,1.01-.02,0-.07-.04-.09-.04s-.11.22-.29.22-.22-.13-.24-.13c-.04,0-.02.09-.04.09-.11-.04-.24-.11-.24-.18,0-.11.31-.9.31-1.32-.02-.15-.07-.15-.11-.15h-.09c-.84,0-1.85.73-1.85,1.72,0,.73.64,1.94.88,2.45,1.12-.68,2.87-1.48,3.55-2.27,0,0,.04,0,.04-.04,0,.4-.75.79-.84.82.22,0,.4-.24.75-.46l-.15.13s-.07.07-.07.09l-.09.04c.15-.07.22-.09.24-.09s.04,0,.07.02c-.2.09-.26.26-.51.46.2,0,.55-.27.6-.33-.02.31-.9.57-.86.64-.13,0-.35.2-.44.35.31,0,.33-.29.4-.29.24,0,.42-.15.57-.22,0,.11-.51.42-.9.66l-2.07,1.19c.09.24.13.37.18.77.02.11.02.2.02.31,0,1.52-1.39,2.56-2.58,2.56h-.13c-.6-.04-1.1-.4-1.1-.84,0-.29.02-.46.15-.71.07-.11.24-.31.24-.42ZM34.39,23.06c.75-.04,1.28-.77,1.28-1.52,0-.13,0-.27-.04-.4-.57.4-1.59,1.52-1.59,1.72,0,.04,0,.09.02.13.09.07.22.07.33.07ZM35.18,17.5s-.07.07-.07.11c0,.02.04.04.07.07v-.18ZM36.08,19.42s.02.13.04.22l.11.11-.15-.33ZM36.2,22.57s-.04.09-.04.11c0,0,.02.02.04.09v-.2ZM36.5,19.57c-.07-.11-.22-.4-.26-.51.04.13.13.46.2.55l.07-.04ZM36.26,21.71s.07.07.09.07c.02-.02.04-.13.04-.15l-.13.09ZM36.42,22.28c-.04.07-.11.2-.11.29.07-.11.07-.15.07-.18l.04-.11ZM36.59,22.64s.04-.02.07-.09c.04-.04.04-.13.04-.15-.04.09-.13.24-.11.24ZM36.77,20.32c.18.55.2,1.01.15,1.32-.02.2-.07.4-.13.53l-.02.11c.11-.2.22-.57.22-.97,0-.27-.04-.64-.18-1.01l-.04.02Z"/>
    </g>
  </g>
  <g>
    <polygon class="cls-2" points="52.26 31.92 57.36 37.02 57.36 58.32 30.96 58.32 30.96 31.92 52.26 31.92"/>
    <path class="cls-7" d="M40.16,48.22h8.1c2.2,0,4,1.8,4,4v6.1h-16.1v-6.1c0-2.2,1.8-4,4-4Z"/>
    <rect class="cls-9" x="36.26" y="31.92" width="16.1" height="8.2"/>
    <rect class="cls-11" x="47.86" y="33.52" width="1.5" height="4.6"/>
    <rect class="cls-11" x="32.86" y="55.02" width="1.7" height="1.7"/>
    <line class="cls-6" x1="38.76" y1="50.82" x2="49.56" y2="50.82"/>
    <line class="cls-6" x1="38.76" y1="55.52" x2="49.56" y2="55.52"/>
    <line class="cls-6" x1="38.76" y1="53.22" x2="49.56" y2="53.22"/>
  </g>
</svg>