<?xml version="1.0" encoding="UTF-8"?>
<svg id="Layer_1" xmlns="http://www.w3.org/2000/svg" version="1.1" viewBox="0 0 60 58.2">
  <!-- Generator: Adobe Illustrator 29.1.0, SVG Export Plug-In . SVG Version: 2.1.0 Build 142)  -->
  <defs>
    <style>
      .st0 {
        fill: none;
      }

      .st1 {
        fill: #e6e7e8;
      }
    </style>
  </defs>
  <rect class="st0" y="0" width="58.2" height="58.2"/>
  <g>
    <path class="st1" d="M15.2,40.8c0,2.4.2,3.9.8,4.3.4.4.9.6,1.5.7.6,0,2,.1,4.1.1h5.5c2.9,0,4.8-.4,5.7-1.1s1.4-2.3,1.4-4.6,0-1.3,0-2.2c0-1.6-.1-2.6-.1-2.9,0-1.8.7-2.7,2.2-2.7s2.6.8,2.6,2.5,0,.9,0,1.2l-.4,3.2c-.1.9-.2,1.9-.2,2.9s0,1.5.2,2.6c0,1.1.2,2,.2,2.6,0,1.9-1.1,2.8-3.2,2.8s-1.4,0-2.9-.2c-1,0-2.5-.2-4.6-.2h-14.7c-1,0-2.7,0-5,.2-.3,0-.9,0-1.7,0-.8,0-1.4,0-1.9,0-1.8,0-2.6-.8-2.6-2.2s.6-2,1.9-2,.8,0,1.5.2c.7.1,1.2.2,1.5.2,2.1,0,3.2-1.6,3.2-4.7v-25c0-3.1-1.1-4.6-3.2-4.6s-1,0-1.3.1c-.7.1-1.2.2-1.7.2s-1-.2-1.4-.6c-.4-.4-.6-.9-.6-1.5,0-1.5.9-2.2,2.7-2.2s.6,0,.9,0l3.3.4c1.8.2,3.2.3,4.1.3s2.4-.1,4-.3l2.9-.4c.3,0,.6,0,.8,0,1.9,0,2.8.7,2.8,2.2s-.2,1.1-.6,1.5c-.4.4-.8.6-1.4.6s-1,0-1.7-.2c-.3,0-.7-.1-1.3-.1-2.1,0-3.2,1.5-3.2,4.6v24.2h0Z"/>
    <path class="st1" d="M53.4,31.8v8.1c0,2.1,0,3.3,0,3.7.2,1.9.8,2.8,1.7,2.8s.7,0,1.6-.3c.2,0,.5-.1.9-.1,1.6,0,2.4.7,2.4,2.1s-.3,1.1-.8,1.5-1.2.6-2,.6-1.7,0-3-.3-2.4-.3-3-.3c-1.1,0-2.3,0-3.6.2-1.6.2-2.7.3-3.3.3-1.7,0-2.5-.7-2.5-2.1s.7-2.1,2.1-2.1.8,0,1.5.2c.7.1,1.1.2,1.5.2,1,0,1.6-1.3,1.8-4v-16c-.2-2.6-.8-3.9-1.9-3.9s-.8,0-1.4.2c-.6.1-1.1.2-1.3.2-1.5,0-2.3-.7-2.3-2s.9-2.1,2.8-2.1,1.3,0,1.7,0c1.3.2,2.2.2,2.6.2s.8,0,1.5-.2c.7-.1,1.2-.2,1.5-.2,1.2,0,1.8.8,1.8,2.4s0,.4,0,.8,0,.6,0,.8c0,.3,0,1.6,0,3.9,0,1.7,0,3.5,0,5.2h0ZM50.1,15.4c-1,0-1.8-.3-2.5-1-.7-.7-1-1.5-1-2.5s.3-1.8,1-2.4c.7-.7,1.5-1,2.5-1s1.8.3,2.5,1c.7.7,1,1.5,1,2.4s-.3,1.8-1,2.5-1.5,1-2.5,1Z"/>
  </g>
</svg>