<?xml version="1.0" encoding="UTF-8"?>
<svg id="Layer_1" xmlns="http://www.w3.org/2000/svg" xmlns:xlink="http://www.w3.org/1999/xlink" version="1.1" viewBox="0 0 64 64">
  <!-- Generator: Adobe Illustrator 29.1.0, SVG Export Plug-In . SVG Version: 2.1.0 Build 142)  -->
  <defs>
    <style>
      .st0 {
        fill: none;
      }

      .st1 {
        fill: #fff;
        stroke: #e6e7e8;
        stroke-miterlimit: 10;
        stroke-width: 3px;
      }

      .st2 {
        fill: #4e4e4f;
      }

      .st3 {
        fill: #e6e7e8;
      }

      .st4 {
        clip-path: url(#clippath);
      }
    </style>
    <clipPath id="clippath">
      <rect class="st0" x="17.8" y="20" width="28.8" height="34.3"/>
    </clipPath>
  </defs>
  <circle class="st3" cx="32" cy="32" r="32"/>
  <path class="st2" d="M16.6,9.3h30.9c1.1,0,2,.9,2,2v2.3H14.6v-2.3c0-1.1.9-2,2-2Z"/>
  <path class="st2" d="M29.3,5.9h5.4c1.1,0,2,.9,2,2v1.5h-9.4v-1.5c0-1.1.9-2,2-2Z"/>
  <path class="st2" d="M43.5,58.1h-23c-1.4,0-2.5-1.1-2.5-2.5l-3.4-39.6h34.9l-3.4,39.6c0,1.4-1.1,2.5-2.5,2.5Z"/>
  <g class="st4">
    <line class="st1" x1="19.9" y1="19.6" x2="22.8" y2="54.6"/>
    <line class="st1" x1="44.1" y1="19.6" x2="41.2" y2="54.6"/>
    <line class="st1" x1="28.1" y1="19.6" x2="28.8" y2="54.6"/>
    <line class="st1" x1="35.9" y1="19.6" x2="35.2" y2="54.6"/>
  </g>
</svg>