<?xml version="1.0" encoding="UTF-8"?>
<svg id="Layer_1" xmlns="http://www.w3.org/2000/svg" version="1.1" viewBox="0 0 64 64">
  <!-- Generator: Adobe Illustrator 29.1.0, SVG Export Plug-In . SVG Version: 2.1.0 Build 142)  -->
  <defs>
    <style>
      .st0 {
        fill: #606060;
      }

      .st1 {
        fill: #891200;
      }
    </style>
  </defs>
  <path class="st0" d="M2.7,60.3c-1.5-3.7,1.3-7.9,4.3-10,3.3-2.3,6.7-3.3,9.3-4.7,2.7-1.4,4.5-3.1,6.6-5.3,3.3-3.5,6.9-8.1,11.1-11.2,3.3-2.3,6-5.5,9.2-7.8.5-.4,1.6-1.3,2.1-1.7,1.9-1.7,3.7-4.1,5.1-6.8.8-1.4,1.6-3.4,3.3-4.9.8-.7,1.6-1.1,2.5-1.6.9-.4,1.7-.7,2.6-1,0,0,.8,1.2.8,1.2-.9,1.2-1.7,2.4-2.5,3.6-.6,1.3-.7,2.6-1.1,4.6-.4,1.8-1.1,3.7-2,5.4-1.8,3.5-4.9,7-9,7.9-3.2.7-6.8,1.1-9.4,3.3-5.9,4-6.5,11.9-11.6,16.9-6,6.6-18.1,3.3-21.4,12.1h0Z"/>
  <path class="st0" d="M22.1,61.9c.1-6.1,5.7-12.1,12.1-12.6,1.2,0,2.3.4,3.4-.2,3.9-2.6,2.9-7.9,4.9-11.8.6-1.3,1.6-2.7,2.8-3.6,4-3.6,11.5-3.1,11.4-9.5-.3-1.6,1.6-2.5,2.1-3.6.3-1,0-1.5.4-3,0,0,3.6,2.6,3.6,2.6-.8,0-1.6,1.5-2.4,2-.6.5-2,1-2.3,1.5-.3.4,0,1-.1,1.6-.2,2.9-2,5.3-4,7.2-2,1.9-4.2,3.3-5.6,4.7-1.6,1.5-2.5,3.4-3.6,5.4-1.8,3.5-4.3,7.3-8,9.4-1.2.7-2.4,1-3.6,1.3-4.2,1.1-8,4.4-9.7,9,0,0-1.3-.2-1.3-.2h0Z"/>
  <path class="st0" d="M42.9,4c-1.9.9-3.5,2.3-4.8,4-1.3,1.6-2.1,3.6-3.7,5.4-1.9,2.1-4.4,3.9-7,5.2-1.9,1.2-3.5,2.9-5.5,3.9-1.4.7-3.1,1-4.4.8-1,0-2-.1-2.9.2-1.8.9-3.5,2.3-4.4,4-.8,1.7-1.7,4.2-3,5.7-.7.9-1.6,1.8-2.8,2.2l-1.3-1.5c.8-1.9,2-3.5,3.1-5.1,1.5-2.9,4.4-5.2,6.8-7.5,1.9-1.9,4.3-3.8,6.6-4.8,2.4-1.3,5.3-2.4,8.2-2.3,5-.2,7-2.8,9.3-7,1.2-1.8,2.5-3.6,3.9-5.5l2,2.3h0Z"/>
  <path class="st0" d="M61.3,49.9c-2.6.4-4.4,2.7-5.8,4.8-1.5,2.4-2.8,4.8-4.7,7.1,0,0-2.1-3-2.1-3,2.5-.7,4.3-2.9,5.8-4.9,1.8-2.3,3.1-4.5,5.2-6.8,0,0,1.6,2.6,1.6,2.6h0Z"/>
  <path class="st1" d="M18.2,28c-.8,0-1.6.2-2.3.6-1.4.9-2.7,3.9-2.9,5.5-.3,3.3-.6,5.9-3,8.5.6-.6,1.4-.3,2.1-.5s1.3-.7,1.9-1.5c1.2-1.5,2.2-.6,3.6-1.2s1.9-1.6,2.5-2.7c1.1-2.4,1.2-5.2,2.4-7.5.5-.9,1.2-1.6,2-2.3,0,0-1.8-.1-2.1-.1-.9.1-1.6.7-2.5.9s-1.2.2-1.8.3Z"/>
  <path class="st1" d="M49.8,50.2c1.1-1.8,3-3,4.8-4.2s3.5-2.7,4.1-4.8c.3-1.1.3-2.3.5-3.4.2-1.5.8-2.9,1.4-4.3-.4,1-4,2.5-5,3-1.6.8-2.3,1.3-2.6,3.1s-.2,4-1.4,5.6c-.3.5-.7.9-1,1.4-.7,1.1,0,2.6-.7,3.7Z"/>
  <path class="st1" d="M23.5,5.8c-.9,1.8-1.5,3.8-2.3,5.2-.3.4-.6.9-.6,1.4.1,1.8,4.1-.9,4.7-1.3,1.4-1.2,2.5-2.8,3-4.5.2-.6.2-1.2.5-1.8s1-1.3,1-1.6c0-.7.1-.5-.7-.6-2.9-.5-4.4,1.2-5.5,3.3Z"/>
  <path class="st0" d="M19.8,2.7c-1.6.9-2.5,2.7-3.2,4.5-.3.9-.3,2-.8,3-.9,2-3.3,2.9-5.2,3.5-2.5,1.2-5.8,1.7-7.3,4.1,0,0-1.4-1.8-1.4-1.8,3.1-1.2,5.9-.9,8.2-3.1,1.3-1.4,1.7-3.2,3-4.5.6-.6,1.6-1.2,2.2-1.9,1.3-1.5,2.4-3.1,3.9-4.5l.6.8h0Z"/>
</svg>