<?xml version="1.0" encoding="UTF-8"?><svg id="Layer_1" xmlns="http://www.w3.org/2000/svg" xmlns:xlink="http://www.w3.org/1999/xlink" viewBox="0 0 64 64"><defs><style>.cls-1{fill:#f8bd00;}.cls-1,.cls-2,.cls-3,.cls-4,.cls-5,.cls-6,.cls-7,.cls-8,.cls-9,.cls-10,.cls-11,.cls-12,.cls-13,.cls-14,.cls-15{stroke-width:0px;}.cls-2{fill:#fdd901;}.cls-3{fill:#871701;}.cls-4{fill:#f9c300;}.cls-5{fill:url(#radial-gradient);}.cls-6{fill:#a32202;}.cls-7{fill:#fcec13;}.cls-8{fill:#f1f2f2;}.cls-9{fill:#ffef1c;}.cls-10{fill:#b72d00;}.cls-16{fill:none;stroke:#414042;stroke-miterlimit:10;stroke-width:2px;}.cls-11{fill:#ffe303;}.cls-12{fill:#991c00;}.cls-13{fill:#939598;}.cls-14{fill:#ffe804;}.cls-15{fill:#d1d3d4;}</style><radialGradient id="radial-gradient" cx="32" cy="32" fx="32" fy="32" r="32" gradientUnits="userSpaceOnUse"><stop offset=".25" stop-color="#e75c01"/><stop offset=".36" stop-color="#e76000"/><stop offset=".49" stop-color="#ea6d00"/><stop offset=".62" stop-color="#ef8300"/><stop offset=".75" stop-color="#f5a100"/><stop offset=".87" stop-color="#fdc300"/><stop offset=".91" stop-color="#fbc000"/><stop offset=".93" stop-color="#f7b800"/><stop offset=".95" stop-color="#f0aa00"/><stop offset=".96" stop-color="#e69700"/><stop offset=".97" stop-color="#da7e00"/><stop offset=".98" stop-color="#ca5e00"/><stop offset=".99" stop-color="#b73a00"/><stop offset="1" stop-color="#ae2700"/></radialGradient></defs><circle class="cls-5" cx="32" cy="32" r="32"/><path class="cls-6" d="M32,23.39c.27.36.44.8.46,1.24.02.64-.16,1.24-.46,1.81l-.02,1.06c1.26-.93,2.32-2.12,3.1-3.47.76.61.66,1.86.08,2.64s-1.49,1.23-2.32,1.74c-.29.17-.57.37-.84.58v8.97c.06-.1.11-.21.16-.32.45-.9,1.21-1.51,1.74-2.34.37-.58.52-1.71,1.42-1.68,1.23.03,1.66,2.51,2.77,1.98.24-.11.39-.36.61-.5.63-.41,1.52.08,2.2-.23.57-.26.76-.97.8-1.59s0-1.29.33-1.82,1.25-.71,1.54-.16c.61-1.36-1.1-2.61-1.47-4.06-.47-1.85,1.35-3.74.83-5.58-.57-2-3.08-2.23-4.62-3.1-.83-.47-1.45-1.36-2.28-1.67-1.13-.42-2.77-.07-4.02.42v6.08Z"/><path class="cls-3" d="M32,4.12c.46.15.94.22,1.42.16.92-.11,1.82-.87,1.78-1.8.79.21,1.91-.36,2.29.37.2.39-.04.86,0,1.3.08.78,1.06,1.19,1.81.98s1.3-.84,1.81-1.43c.66.73,1.59,1.22,2.57,1.35.38.05.89.16.91.55,0,.23-.19.42-.38.55-.77.55-1.7.87-2.65.92-.36.02-.73,0-1.05.15s-.58.53-.45.86c.18.45.8.41,1.28.49s.91.79.45.96c-.5.43-1.02.87-1.66,1.03s-1.42-.06-1.69-.66c-.11-.26-.12-.55-.18-.82-.27-1.25-1.6-2.01-2.86-2.19-1.13-.17-2.27-.01-3.41-.06v-2.7Z"/><path class="cls-10" d="M51.73,42.63c.1.04.22.07.3.14.23.19.09.58-.13.78s-.52.33-.65.6c-.35.69.66,1.5.35,2.21-.1.23-.33.4-.36.65-.04.41.5.63.91.59s.87-.18,1.22.04c.42.26.42.84.46,1.33s.28,1.09.77,1.08c.52-.02.7-.7.73-1.22.03-.53.05-1.08-.11-1.58s-.55-.98-1.07-1.08c-.26-.05-.54,0-.79-.1-.73-.26-.68-1.29-.5-2.04.2-.84.41-1.69.61-2.53.07-.28.15-.58.37-.76.18-.15.44-.2.63-.34.25-.18.37-.49.59-.7.43-.41,1.11-.37,1.67-.56,1.3-.43,1.82-2.32.92-3.36-.23-.26-.53-.48-.65-.81-.05-.14-.07-.3-.14-.44-.27-.45-1.02-.17-1.27.3s-.27,1.04-.59,1.46c-.2.27-.52.46-.64.77-.1.24-.06.51-.09.77-.19,1.62-1.98.84-2.74,1.72-.54.62-.71,2.71.19,3.08Z"/><path class="cls-10" d="M44.14,43.71c.76.56,1.75,1.12,2.6.7.98-.47,1.04-1.86,1.72-2.7-1.17-.48-2.57-.35-3.63.34-.06-.35.29-.64.62-.77s.72-.24.9-.55c.1-.16.12-.36.13-.55.04-.54-.16-1.29-.69-1.21-.29.05-.46.34-.61.59-.63.99-1.73,1.67-2.89,1.79-.53.05-1.07,0-1.57.18s-.94.7-.78,1.2c0-.45,3.92.77,4.21.98Z"/><path class="cls-12" d="M43.46,45.83c-.78-.31-1.49-.8-2.05-1.42-1.04.81-2.18.62-3.21.01-.2-.12-.45-.24-.66-.13-.11.06-.18.17-.24.28-.24.43-.4.94-.28,1.42.31,1.25,2.2,1.36,2.38,3.15.05.44-.06.93.18,1.31.33.53,1.09.53,1.71.46-.22-.7-.44-1.4-.66-2.09-.08-.25-.16-.51-.08-.76.14-.43.68-.59,1.13-.56s.92.17,1.35.05c.7-.19,1.08-1.12.7-1.75"/><path class="cls-4" d="M46.71,17c-.26.92,0,1.98.68,2.66,1.42.26,2.93-1.38,4.13-.59,1.03.68.69,2.55,1.78,3.14.45.24,1,.16,1.51.25,1.01.17,1.79,1.01,2.22,1.93s.58,1.95.81,2.94c.29,1.26,1.39.44,1.58-.43.04-.17.06-.37.21-.45.09-.05.2-.05.31-.04,1.02.09,1.88.69,2.87.85-.78-2.75-2.36-5.33-4.3-7.4-.21-.22-.43-.44-.71-.55-.21-.08-.45-.09-.66-.19-.82-.36-.74-1.54-.51-2.4-.44.07-.9.13-1.32,0-.75-.24-.46-.69-.71-1.15-.27-.49-.03-.48-.71-.86-.78-.44-1.61-.4-2.44-.24-1.72.34-4.15.52-4.71,2.53Z"/><path class="cls-1" d="M60.43,29.96l-1.28.3c.01.54.03,1.08.04,1.63,0,.08,0,.16.05.23.05.08.14.11.23.15.52.2,1.04.39,1.56.59-.27-.56-.45-1.28-1.04-1.48.44.02.89-.09,1.27-.31-.22-.29-.47-.56-.74-.81"/><path class="cls-14" d="M58.67,42.86c1.69.71,3.38,1.42,5.07,2.13-1.17-1.41-3.48-1.5-4.54-3,.25.07.52.02.73-.13.12-.09-1.62-1.45-1.78-1.54-.64-.39-1.01-.62-1.84-.46-.99.2-1.83.92-2.3,1.81-.14.26-.25.56-.22.85.04.42.35.76.62,1.08,1.22,1.42,2.12,3.08,3.01,4.72-.14-.92-.28-1.85-.41-2.77.96.55.94,2.13,1.94,2.6-.21-.52-.33-1.08-.38-1.64.55.32,1.19.47,1.82.41-.17.01-.72-1.09-.77-1.26-.13-.5.23-.91-.34-1.27.18-.06.36.05.51.17s.3.26.48.26c-.28-.36-.43-.8-.74-1.13-.21-.22-.6-.74-.88-.85Z"/><path class="cls-9" d="M39.36,40.12c.19.04.36.18.39.37s-.16.39-.34.33c.34.2.77.01,1.11-.17.21-.11.42-.23.58-.41s.22-.45.11-.66c-.25-.46-1.08-.22-1.39-.65.49-.28,1.04-.48,1.61-.46s1.14.32,1.38.83c.2.42.15.92.1,1.39.45-.38.82-.89.92-1.47s-.09-1.24-.57-1.58c-.18-.13-.39-.21-.6-.29-.45-.16-.92-.31-1.4-.36-1.05-.11-2.13.25-2.91.96.4-.87,1.32-1.38,2.2-1.76-1.19.12-2.32.74-3.07,1.67-.01-.12-.02-.24-.03-.36-.54.36-.66,1.21-.25,1.71-.32-.07-.67.1-.82.39.27.13.56.22.85.27-.1,0-.18.08-.19.18.36.04.71.08,1.07.12.08,0,.17.02.23.08.04.05.06.11.1.16.17.21.29-.07.4-.12.19-.09.22-.24.54-.16Z"/><path class="cls-11" d="M32,27.97c.24-.32.44-.69.8-.82-.23.09-.58.79-.8,1.1v-.28Z"/><path class="cls-7" d="M32,40.2c.06.03.12.07.18.11-.06,0-.12.01-.18.02v.76c.37.02.75,0,1.12-.08l-.29-.44c.17-.26.58-.19.84-.36.15-.1.22-.27.34-.41.23-.28.61-.42.97-.35.55.11.55-.16.61-.64.02-.18-.06-.42-.24-.43.06-.72.08-1.45.07-2.18-.32.17-.55.49-.61.85-.13-.6-.11-1.24.06-1.83-.32.07-.56.34-.68.64s-.14.63-.15.95c-.02.31-.03.64.1.92.05.11.11.21.12.32,0,.16-.11.3-.25.38s-.3.09-.46.11c-.06,0-.12.01-.16.05-.18.11-.07.39.06.57-.28.02-.54.17-.71.38-.23-.1-.47-.15-.71-.17v.82Z"/><path class="cls-2" d="M32,45.68c.06-.06.12-.11.18-.17,0,.2-.01.39-.02.59,0,.08.03.2.11.19.03,0,.05-.02.08-.04.38-.32.68-.73.89-1.18.08.16.16.32.2.49.15.58-.15,1.24-.69,1.5-.16.08-.35.15-.4.31.21.12.48.08.69-.03s.38-.29.54-.47c.36-.4.73-.85.75-1.39.06.08.16.13.27.14,0-.31.02-.62.12-.92s.3-.56.58-.69l-.38,3.49c.41-.79.28-1.76.62-2.59.27-.06.44.26.56.5.16.33.37.63.63.88-.43-.73-.88-1.55-.69-2.37.13.16.29.29.47.4l.05-.32c.24-.02.44-.27.39-.51.35.14.68.31,1.01.49-.17-.28-.32-.57-.44-.87.35,0,.59.35.88.56.23.16.51.23.76.35.41.19.75.49,1.09.79-.26-.86-1.25-1.27-1.75-2.02l2.77,1.15c-.09-.41-.49-.67-.89-.81s-.82-.21-1.16-.46c-.24-.17-.42-.42-.64-.63-.38-.36-1.13-.74-1.67-.6-.24.06-.28.22-.41.4-.2.26-.46.4-.76.5.05-.12.1-.24.07-.36-.02-.08-.07-.14-.13-.19-.28-.26-.78-.25-1.05.03-.13.14-.22.32-.37.44s-.44.08-.47-.11c-.11.16-.12.39-.03.56.05.08.12.15.16.24s.07.19,0,.27-.2.08-.23-.01c-.09.24-.43.32-.66.19s-.34-.4-.36-.66c-.01-.15,0-.3-.03-.45s-.12-.29-.27-.33c-.1-.03-.2,0-.3.02-.03,0-.07.02-.1.03v3.67Z"/><path class="cls-15" d="M32,64C14.33,64,0,49.67,0,32S14.33,0,32,0"/><path class="cls-8" d="M31.98,42.97c-.55,1.3-.91,2.63-2.11,3.53v-.85c-1.71,1.28-3.84,1.71-5.55,0,0,0-.85-.43-1.28-.43-1.28,0-.43,2.56-1.71,2.99-.43-.85-1.28-1.71-2.13-2.56s-2.13-1.28-2.99-.85c.43,1.71,1.28,2.99,2.13,4.69-1.71,0-3.84.85-5.55,2.13,1.28,1.28,2.99,1.71,4.69,1.28l-2.99,1.71c1.71.85,3.84,1.28,5.97.85h.85s.43,0,.85.43c1.71,2.13,4.69,3.41,7.25,2.99-1.28-.85-2.56-2.13-2.99-3.41,1.71-.43,3.41-.43,5.55-.43v-3.02c-1.43.07-2.89.23-4.27.04,1.47-.24,2.94-.77,4.25-1.58v-2.13c-.6.24-1.21.48-1.69.72.55-.83,1.11-1.66,1.66-2.49l.02-3.6Z"/><path class="cls-13" d="M31.98,5.61c-3.53.26-7.22,3.01-10.65,1.64-.85-.85,0-2.56,1.28-2.56s2.99,0,3.41-1.28-8.96.85-9.81,1.28c-2.99,1.28-5.97,2.99-8.11,5.55-1.71,2.13-2.56,5.12-2.56,7.68v4.69c0,1.71-1.28,2.56-1.28,3.84s.85,1.71,1.28,2.56l1.28-.85v.43c.43,1.28.43,1.71,2.13,2.13,1.71,0,3.41.85,4.27,2.56,0,.43.43,2.13,0,2.56-.85.85-.85,0-1.71,0,0,0-.43.43-.85.85,0,.85-.85,1.71,0,2.56,0,0,.43,0,.85.43,0,0,0,.85.43.85s.43.85.85.85h.43c1.28-1.28,3.84-2.13,5.55-.85.85.43.85,1.71,1.28,2.13,1.71,2.13,5.55,1.28,6.83-.85.85-1.28,1.28-2.99,1.28-5.12s-.43-2.56-1.28-4.27c-.85-2.56,1.28-1.71,2.56-2.56s1.71-2.99,2.56-1.28l-.02-2.05c-.36-.38-.6-.79-.4-1.36,0-.19.17-.39.4-.54V5.61Z"/><path class="cls-15" d="M26.03,20.91h-2.13c-.85,0-1.28,1.28-.43,1.71h1.28c.43,0,1.28,0,1.71-.43v-1.28h-.43Z"/><path class="cls-13" d="M24.75,49.92c-.43-.43-1.28-.43-1.71,0v2.13c1.28,1.71,2.99,0,2.13-1.71l-.43-.43Z"/><path class="cls-8" d="M24.32,50.35h-1.28v1.71c.85,1.28,2.13,0,1.71-1.28h0l-.43-.43Z"/><path class="cls-15" d="M18.35,17.92v.43c0,1.28,0,2.13-.85,3.41,0,.85-.85,1.71-1.71,1.71v-4.27h.43s1.71-1.71,2.13-1.28Z"/><line class="cls-16" x1="32" x2="32" y2="64"/></svg>