<?xml version="1.0" encoding="UTF-8"?>
<svg id="Layer_1" data-name="Layer 1" xmlns="http://www.w3.org/2000/svg" version="1.1" viewBox="0 0 64 64">
  <defs>
    <style>
      .cls-1 {
        fill: #00572d;
      }

      .cls-1, .cls-2, .cls-3, .cls-4, .cls-5, .cls-6, .cls-7, .cls-8, .cls-9, .cls-10 {
        stroke-width: 0px;
      }

      .cls-2 {
        fill: #939598;
      }

      .cls-3 {
        fill: #8dc63f;
      }

      .cls-4 {
        fill: #008044;
      }

      .cls-11 {
        fill: #a8b078;
        stroke: #7d8e3f;
      }

      .cls-11, .cls-12 {
        stroke-miterlimit: 10;
      }

      .cls-5 {
        fill: #002f0c;
      }

      .cls-6 {
        fill: #58595b;
      }

      .cls-12 {
        fill: none;
        stroke: #fff;
        stroke-width: 3px;
      }

      .cls-7 {
        fill: #754c29;
      }

      .cls-8 {
        fill: #414042;
      }

      .cls-9 {
        fill: #c49a6c;
      }

      .cls-10 {
        fill: #3c2415;
      }
    </style>
  </defs>
  <path class="cls-7" d="M26.2,37.3h1.9s.3,16.4.9,18.4c.5,1.7,2.9,2.9,4.4,3.6s2.4,1.1,3.6,1.5,3.1.6,2.3,1.1c-.2.2-.5.1-.8,0-1.6-.3-3.2-.6-4.7-.9-.7-.1-1.5-.3-2.1-.7-.8-.5-1.7-1.3-2.5-.9.8.9,1.4,1.9,2,3-.9.3-1.6-.9-2.5-1.2-.4-.1-.8,0-1.2,0-1.4,0-2.7-.9-3.3-2.2-1.1.8-2.3,1.5-3.5,2s-2.4.4-3.7.4-2.8-.2-4,0c4.4-.7,9.8-3.7,10.4-5.7s.9-18.4.9-18.4h1.9Z"/>
  <path class="cls-10" d="M27.6,41.2c.3,4.1,0,8.4.5,12.4.1.9.3,1.9,1.1,2.4-.4-2.5-.8-5.1-.7-7.7,0-.7.1-1.5.1-2.2,0-2-.2-4-.5-6-.5,0-.6.6-.5,1.1Z"/>
  <path class="cls-1" d="M26.2,1.8c-3.1,7-8.8,14.6-15.1,17.8,0,0,6.8.8,8.8,0,0,3.6-10.3,13.5-16.2,15.9,0,0,8.6,2.9,12.1-1.3.5,3.3-3.6,7-8.8,12.2,0,0,14.7-2.3,19.3-6.9"/>
  <path class="cls-1" d="M26.2,1.8c0,.2.2.3.2.5.5,1.1,1.1,2.1,1.7,3.2.4.7.8,1.3,1.3,1.9.5.6.9,1.2,1.4,1.8.3.4.7.9.9,1.4s.2.9.6,1.3c.7.9,1.5,1.8,2.3,2.7.6.6,1.1,1.1,1.7,1.6s1.4,1.3,2.2,1.6c.5.4,1,1.1,1.6,1.3s.6.2.8.3c.2.1.5.4.4.6s-.3.2-.4.2-.3,0-.5,0c-.9-.2-2.1,0-3,.1-1.6.3-3.2-.4-4.8-.8-.1,0-.3,0-.4,0-.2.1-.1.5,0,.7.2.4.3.6.4,1s0,.8.3,1.1c.2.3.4.5.6.7.2.3.4.6.7.8.5.5,1.1.9,1.6,1.5s1,1.1,1.6,1.5c.5.5,1,.9,1.5,1.4s1.3,1,1.3,1.2c.4.4.9.8,1.3,1.2.5.5,1.1,1,1.7,1.4.9.7,1.8,1.3,2.7,2,.9.6,1.8,1.1,2.8,1.2,0,.2,0,.4.1.6-.5.2-1.1.3-1.7.3-1.5.1-2.9.2-4.4.3-1.4,0-2.9,0-4.1-.9-.4-.3-.6-.3-1.1-.5s-.8-.5-1-.9c-.2,1.1.2,2.2.7,3.2s.8,1.1,1.1,1.7.4.9.8,1.3c1.6,1.4,3.2,3,4.6,4.6.3.4.7.8,1.1,1,.3.2.7.3.8.6-.9,0-1.8,0-2.6-.2-.6-.1-1.2-.2-1.8-.3-1.5-.3-3.1-.6-4.5-1.3-.6-.3-1.1-.6-1.7-.8s-.8-.2-1.3-.3c-.6-.2-1.3-.6-2-.8-.1,0-.3,0-.4,0-.5,0-.8-.5-1.2-.7s-.9-.4-1.4-.6c-.9-.5-1.9-1.1-2.6-1.9"/>
  <path class="cls-9" d="M23.9,45.2c0,3.6-.5,7.1-1,10.6,0,.3-.1.7-.4.9-.1.1-.3.2-.4.3-.3.4.4,1,.8.8s.7-.8.8-1.3c.1-.4.2-.9.4-1.3.3-1,.6-2,.7-3,.2-1.3.2-2.6.1-3.9,0-1.8.2-4-.2-5.8s-.6-.7-.8.2-.2,1.6-.2,2.4Z"/>
  <path class="cls-6" d="M21.9,57.6c0-.3-.2-.6-.2-1-.2-1-.8-2-1.7-2.4s-2.3.1-2.4,1.1c0,.4,0,.7,0,1.1,0,.3-.3.5-.5.7-.5.5-.9.9-1.4,1.4-.2.2-.4.4-.6.5-.2.1-.5.2-.7.3-1,.5-1.5,1.5-2.3,2.2,0,0-.2.2-.1.3,0,0,.1,0,.2,0,1.8,0,3.6,0,5.4.2,1.1.1,2.3-.1,3.3-.3s1.8-.5,2.1-1.3c.3-1-.8-2-1.1-2.9Z"/>
  <path class="cls-2" d="M17.5,58.7c.3-.2.5-.5.7-.8.5-.8-.1-2,.4-2.7.2-.3.7-.3,1.1-.5.7-.4-.5-.7-.8-.7-.6,0-1.1.4-1.6.8-.6.4-.7.9-.9,1.6-.9,2.3-4.3,2.7-5.3,4.9,0,0,0,.1,0,.2,0,0,0,0,.1.1,1.6.9,1.5-.4,2.3-1.1s1.4-.4,2-.6,1.4-.7,1.9-1.1Z"/>
  <path class="cls-9" d="M27.9,60.3c.2.1.4.3.6.3s.5-.1.5-.3c0-.4-.3-.6-.6-.8-.5-.4-.6-1.1-1-1.6-.5-.6-2.7-1.4-2.4.1s2.2,1.9,2.8,2.3Z"/>
  <path class="cls-9" d="M28.5,56.9c.4.3.8.6,1.2,1,.1.1.2.3.2.5-.1.3-.5,0-.7-.1-.2-.2-.4-.4-.6-.6-.2-.2-.4-.5-.3-.7.1,0,.3,0,.4,0"/>
  <path class="cls-4" d="M22.1,8.8c-.3.5-.6,1.1-1,1.6-.4.4-.9.8-1.3,1.2-1.1,1-1.8,2.5-3,3.5-1,1-2.3,1.6-3.5,2.5s-2.6,2.1-2.6,2c0,.2,0,.3.1.5,1.4-.1,3.1-.2,4.3-.7.4-.2.8-.4,1.1-.6,2.1-1.3,4.3-2.7,5.8-4.7s.7-1,1-1.6.6-.7.9-1.1c.8-1.2,1.2-2.8,1.6-4.1.3-.7.2-1.4.4-2.1s.4-1.6.7-2.4c0-.2.1-.3,0-.5s-.2-.3-.4-.3c-.2,0-.6.4-.8.6-.3.2-.5.6-.7.9-.4.8-.9,1.5-1.3,2.3-.6,1.1-1.1,2.1-1.7,3.1Z"/>
  <path class="cls-4" d="M17.9,22.9c-2.6,4.8-7.4,7.9-12,10.7-.6.4-1.3.8-1.9,1.2-.2.1-.4.2-.4.4,0,.4.4.5.8.5,1.3.1,2.7.2,4,0s2.6-.8,3.4-1.8c.3-.3.5-.7.7-1,.2-.3.5-.5.8-.7,1.6-1.2,3-2.3,4.2-3.9,1.2-1.4,2.1-2.9,2.9-4.6.3-.7.6-1.5.9-2.3s.9-1.6,1.3-2.5c0,0-1.6.4-1.7.5-.5.3-.9.9-1.4,1.2-.8.6-1.1,1.2-1.6,2.1Z"/>
  <path class="cls-4" d="M17.9,36.1c.3-1.2.7-2.3,1.2-3.4,0-.1,0-.2,0-.3-.1-.2-.4,0-.6.1-.4.4-.9.8-1.5,1.1s-1,.1-1.2.3c-.7.7-1,3-1.4,4-.4.9-1.2,1.7-1.8,2.5-1.4,1.6-2.9,3.1-4.6,4.4-.6.5-1.3,1-1.3,1.8,1.2-.5,2.4-1,3.6-1.5,2.1-.9,4.3-1.8,5.7-3.6,1.2-1.5,1.6-3.5,2.1-5.4Z"/>
  <path class="cls-5" d="M29,13.9c-.2-.4-.6-.8-1-.7-.3,0-.4.4-.4.7s.2.6.4.8c1,1.7,2,3.4,2.8,5.2.6,1.3,1.3,2.9,2.8,3.2-.5-1.1-.9-2.3-.9-3.5.6-.3,2.3.6,2.5.2.4-.7-1.4-1.4-1.8-1.6-1.7-1.1-3.2-2.6-4.3-4.4Z"/>
  <path class="cls-5" d="M35.4,30.8c-.7-.8-1.5-1.7-2.6-1.8-.3,1,.4,2,.6,3,.2,1-.1,2,.2,2.9.2.6.6,1.1,1.1,1.6,1.3,1.5,2.7,3.1,4.5,3.9.2-.7-.4-1.3-.9-1.9-.8-1-1.5-2.4-1.4-3.7,1.3.1,2,1.3,3.5.8-1.7-1.6-3.5-3.1-5-4.9Z"/>
  <path class="cls-5" d="M20.7,32.2c-.4.4-.9.7-1.4,1-1.6.8-3.3,1.4-4.9,2.2-.2.1-.5.3-.8.3,0,0,0-.2.1-.2.6-.6,1.3-.9,1.9-1.5.2-.2.5-.3.8-.5s.5-.5.7-.7c.5-.5,1-1.1,1.5-1.6,1.6-1.4,3.1-3.1,4.8-4.2.5.5-2,4.5-2.7,5.3Z"/>
  <path class="cls-5" d="M18,19.3c-.2.1-.4.3-.3.3.7.5,2.1-.4,2,1,.2-.2.4-.4.7-.5.7-.3,1.2-.4,1.8-.9,1.2-1.1,1.9-2.8,2.5-4.4-.4,0-.6.5-.9.8-.2.2-.4.4-.6.6-1,.8-2.1,1.3-3.2,2,0,0-1.3.7-1.9,1.1Z"/>
  <path class="cls-1" d="M25.1,34.5c-.1,0-.2,0-.3.2-.8,1.3-1,2.9-1.7,4.3-.2.4-.5.7-.6,1.1s-.2.9-.4,1.3c-.4,1-1.1,1.8-1.7,2.7-1,1.5-1.9,3.1-3.3,4.3-.3.3-.7.6-.7,1s1.3,0,1.5,0c.6,0,1-.3,1.5-.5.9-.3,1.3-.8,2-1.4.3-.2.6-.4.8-.7.2-.2.4-.5.6-.8,1-1.5,1.8-3.2,2.5-4.8.2-.4.3-.8.3-1.2,0-.3,0-.6-.1-.9-.2-1.5,0-3.1-.4-4.6Z"/>
  <path class="cls-5" d="M33.2,42.7c-.3-.4-.7-.7-1.2-.9-.5-.2-1-.3-1.4-.4-1.2-.4-2.2-1.5-2.8-2.7s-.8-2.5-1.1-3.8c-1.2,0-1.8,1.5-1.8,2.6,0,.8-.3,1.6-.3,2.4s-.3,2-.6,2.9c0,.4-.2.7-.4,1.1-.3.7-1,1.2-.9,2,0,0,0,0,0,.1,0,.1.3,0,.3-.1,1-1.4,1.8-2.8,2.4-4.4.1-.3.3-.6.6-.6.5,0,1.1.5,1.6.6s1.2.5,1.8.7,1.2.4,1.8.5,1.9,0,1.9,0Z"/>
  <path class="cls-4" d="M21.6,41.1c-.3.7-.8,1.3-1.2,2s-.5,1.4-1,2c-.8,1.1-1.7,2.1-2.5,3.2-.3.4-.6.8-.5,1.3,1.1.2,2.3-.5,2.8-1.5.2-.4.4-.9.6-1.4,1-2.5,2.5-4.8,3.5-7.3.5-1.3,1.3-2.9,1.2-4.2,0,.1-1.4,1.7-1.6,2.1-.6,1.3-.9,2.7-1.4,4Z"/>
  <path class="cls-4" d="M35.7,36.5c.3.4.7.8,1,1.2.4.4.6.7.8,1.2s.5,1.5.5,1.5c-.7-.1-1.2-.8-1.8-1.2s-1.3-.7-1.8-1.3c-1.1-1.2-2.4-2.5-3.2-3.9s-1.2-3.9-.7-3.9.3.2.4.4c.3.8.8,1.4,1.4,1.9.8.8,1.4,1.7,2.1,2.5.3.4.7.9,1,1.3,0,0,.1.1.2.2Z"/>
  <path class="cls-2" d="M18.4,59.3c-.2.3-.2.7-.4,1,0,.1-.2.2-.2.3,0,0,0,0,0,.1,0,.1.2.2.3.2s.2-.2.3-.3.1-.3.2-.4c0,0,.2-.2.3-.2.2-.2.2-.5.5-.7.2-.2.7-.1.8-.4.2-.4-.4-.6-.6-.5-.4,0-.8.4-1,.8Z"/>
  <path class="cls-8" d="M21.8,58.4c.2.4.4.8.4,1.3s0,.9-.3,1.3c-.4.5-1,.6-1.5.6s-1.2.3-1.8.5c.9.1,2,.2,2.9,0,.8-.3,1.5-1,1.5-1.8,0-.3-.1-.6-.2-.9-.4-.9-.7-1.8-1.1-2.7,0-.2-.2-.8-.4-.8-.3,0-.3.4-.3.6,0,.7.5,1.5.8,2.1Z"/>
  <path class="cls-3" d="M6.3,34.5c.3-.2.7-.3,1-.5.4-.2.9-.5,1.3-.7.5-.3.9-.7,1.3-1.2.6-.5,1.1-1.1,1.7-1.6.3-.3.6-.7.6-1.1-1.1.1-1.8,1.1-2.6,1.8-1.6,1.5-3.7,2.3-5.7,3.2-.3.1-.6.4-.5.7.3.6,2.5-.4,2.9-.6Z"/>
  <path class="cls-3" d="M9.8,43.9c.5-.4,1.3-.9,1.3-1.6-.4-.1-.6.2-.8.5-.5.5-1.1.9-1.6,1.3-.6.5-1.3,1-1.9,1.6-.3.2-.1,1-.2,1,1.1-.9,2.1-1.9,3.3-2.8Z"/>
  <path class="cls-3" d="M16.8,49.4c0,0-.1.2-.2.2-.2,0-.3-.1-.3-.3s0-.3.2-.4c.7-1,1.4-2,2.1-2.9.3-.4.6-.7.8-1.1.3-.4.5-.9.7-1.4.2-.5.3-.9.6-1.4s.8-.9,1.2-1.3c0,.4-.3.7-.4,1s-.3.7-.4,1.1c-.3.6-.7,1.2-1.1,1.8-1,1.7-2,3.3-3.2,4.9Z"/>
  <path class="cls-3" d="M15.9,16.4c.6-.5,1.2-.9,1.7-1.5.3-.3.5-.7.8-1,.8-.7,1.7-1.3,2.5-2.2s1.4-1.9,2-2.8c.6-1,1.2-2.1,1.8-3.2s.6-1.1.8-1.6.3-.9.6-1.3c.1-.2.3-.3.4-.5.3-.4.2-.9-.3-.8s-.7.7-.9,1.1-.5,1.1-.8,1.6c-1,1.8-1.9,3.6-3,5.3s-1.2,1.6-1.9,2.3-1.5,1.2-2.1,2c-1.5,2-3.5,3.6-5.7,4.9-.6.3-1.2.7-1.3,1.3,2.5-.1,3.5-2.3,5.4-3.6Z"/>
  <path class="cls-5" d="M25.4,18.3c-.1.5-.2,1.1-.3,1.6-.1.7-.3,1.4-.1,2.1.2,0,.3-.2.3-.4.3-1.1.5-2.1.7-3.2.2-.8.3-1.7,0-2.4s-.3.8-.3.9c0,.5-.1.9-.2,1.4Z"/>
  <path class="cls-4" d="M35.9,26.7c.4.2.8.4,1.2.6.9.5,1.5,1.6,2.5,1.5,0-.6-.5-1-.9-1.3-1.3-1-2.6-2-3.8-3.1s-2.3-3.1-3.5-3.1c-.3,1.1.8,1.9,1.6,2.5,1.1.8,1.8,2.2,3,2.9Z"/>
  <path class="cls-4" d="M27.7,25.3c.1.9.3,1.9,1.1,2.4-.1-.8-.2-1.6-.4-2.4-.2-1.2-.3-2.5-.8-3.6-.7,1,0,2.5.1,3.6Z"/>
  <path class="cls-5" d="M24,31.1c.3.2.6,0,.8-.3s.2-.6.3-.9c0-.3,1.2-2.9.2-2.2s-1.4,3.4-1.3,3.4Z"/>
  <g>
    <circle class="cls-11" cx="48.1" cy="49.9" r="12.6"/>
    <line class="cls-12" x1="48.1" y1="43" x2="48.1" y2="56.7"/>
    <line class="cls-12" x1="41.2" y1="49.9" x2="54.9" y2="49.9"/>
  </g>
</svg>