<?xml version="1.0" encoding="UTF-8"?>
<svg id="Layer_1" xmlns="http://www.w3.org/2000/svg" version="1.1" viewBox="0 0 64 64">
  <!-- Generator: Adobe Illustrator 29.1.0, SVG Export Plug-In . SVG Version: 2.1.0 Build 142)  -->
  <defs>
    <style>
      .st0 {
        fill: #4d4d4f;
      }

      .st1, .st2, .st3, .st4 {
        stroke-miterlimit: 10;
      }

      .st1, .st3, .st4 {
        fill: none;
        stroke: #a57758;
      }

      .st2 {
        stroke: #4d4d4f;
      }

      .st2, .st5 {
        fill: #fff;
      }

      .st2, .st4 {
        stroke-width: 2px;
      }

      .st3 {
        stroke-width: 3px;
      }

      .st6 {
        fill: #a57758;
      }
    </style>
  </defs>
  <g>
    <path class="st2" d="M40.3,3H10.1v58h43.8V14.5c-3.9-4.5-8.5-8.6-13.6-11.5Z"/>
    <polyline class="st0" points="40.3 3 40.3 14.5 53.9 14.5"/>
  </g>
  <path class="st4" d="M30,18c-1.1-.2-2.2.2-3.3.6-1.7.7-3.4,1.5-5,2.4-.5.3-1,.6-1.2,1.1,0,.1-.2.3-.3.3-.1,0-.2,0-.3,0-.2,0-.4.2-.4.4s0,.4-.2.6c-.2.2-.5.3-.8.4-.6.3-.8,1.1-1.4,1.6-.2.1-.4.3-.5.4-.1.1-.2.3-.3.5-.2.5-.5,1-.7,1.5"/>
  <g>
    <path class="st3" d="M48.3,34.9c.4,9.1-6.8,15.5-15.2,16.8-9.1,1.4-18.1-7.7-18-16.8,0-9,9.3-15.5,18-15.8,9.5-.3,14.8,6.7,15.2,15.7Z"/>
    <path class="st1" d="M45.9,33.9c.8,6.9-8.8,8.3-13.3,12.2-5.9,5.2-13.6-4.4-13.8-11.9s7.4-12,13.9-12.1c7-.2,12.3,5,13.1,11.8Z"/>
    <path class="st4" d="M43.5,34.9c0,4.9-6.3,4.2-11.1,9.2-4.8,5-10.7-3.7-10.7-8.7,0-5,5.6-9.7,10.7-9.5,5.2.1,11.2,4.1,11.1,9Z"/>
    <path class="st1" d="M36.4,34.2c-.2,2.7-2.9,4.9-6,5.3s-5.9-2.5-5.9-5.7c0-3.2,3.3-5.5,6.5-5s5.5,2.6,5.4,5.3Z"/>
    <path class="st6" d="M33.5,34c-.1,1.4-1.3,2.6-3,2.7-1.7,0-3.1-1.3-3-2.8,0-1.5,1.7-2.7,3.3-2.6,1.7.1,2.7,1.3,2.6,2.7Z"/>
  </g>
  <path class="st1" d="M15.4,41.9c.3.3.5.7.7,1.1,1.2,2.3,3.2,4.2,5.5,5.3.6.3,1.3.6,1.7,1.1.3.4.5.9.8,1.2.4.6,1.2.9,1.8,1.1,1.4.5,2.8.8,4.3,1.1,1,.1,2,.3,2.7,1,.7-.6,1.7-.9,2.6-.8,1.4.1,3,.7,3.9-.4.3-.4.5-.8.8-1.2.5-.5,1.2-.6,1.6-1.1.3-.3.4-.7.8-.9.4-.3.8-.4,1.2-.6.5-.3.9-.8,1.3-1.3.6-.8,1.3-1.6,1.8-2.5.2-.4.4-.8.7-1.1.2-.2.5-.4.7-.7.5-.6.6-1.4.7-2.1,0-.5.2-1.3.4-2.4s.5-.6.5-1,0-1.3.1-1.6c.2-1.4,0-2.2.1-2.8,0-.4.1-.8,0-1.2,0-.2-.2-.5-.3-.7-.5-1-.8-2-.8-3.1,0-.9,0-1.9-.6-2.4-.2-.2-.4-.3-.6-.5s-.6-.9-.6-1.1c-1.1-.9-1.6-1.5-2.7-2.5s-1.6-1.4-2.5-2c-.2-.1-.4-.3-.6-.4-.3-.3-.7-.5-1.1-.4.1-.3-.3-.5-.6-.6-1.9-.5-3.8-.9-5.7-.3-1.8-.2-3-.7-4.9-.7-.4,0-.8,0-1.2,0-.7.1-1.4.5-2,.8-.8.4-1.6.7-2.4.9-.6.1-1.2.1-1.7.4-.4.2-.8.5-1.2.8-.7.5-1.4,1.1-1.8,1.8-.1.2-.2.4-.3.5-.2.2-.5.3-.7.4-1,.5-1.8,1.5-2.1,2.6-.5,1.9-1.4,3.2-1.6,4.6-.2-.2-.4.2-.5.4-.1.4-.3.8-.4,1.2,0,.2-.1.4-.1.6,0,.3.2.5.3.7.1.7-.6,1.2-.7,1.9,0,.5.4,1,.5,1.5.2.5.2,1.1.3,1.6.2.6.7,1.1,1.1,1.7s.9,1.1.6,1.8Z"/>
  <path class="st1" d="M36.1,52.3c.5-.1,1.7,0,2.2,0s1.3-.9,1.6-1.4"/>
  <path class="st1" d="M49.5,33.2c.3-.5,0-1.2-.3-1.7-.6-1.4-.3-3-1-4.4s-1.3-2.6-2.5-3.2"/>
  <path class="st1" d="M41.4,19.7c-.9,0-1.7-1-2.6-.9"/>
  <path class="st1" d="M22.9,19.8c-1,.3-1.9.7-2.7,1.3"/>
  <path class="st1" d="M14.6,31.1c-.4.5-.9,1.1-.8,1.7,0,.3.2.7.1,1,0,.2,0,.4-.2.6-.2.5-.4,1.1-.6,1.6"/>
  <path class="st5" d="M43.8,48.6c0-.1,0-.3-.1-.5,0-.2-.2-.4-.4-.6-.5-.7-1.1-1.3-1.6-2,0-.2.3-.2.5-.2s.3.2.4.3c1,1,2.7,1.2,3.4,2.5,0,.2.1.3.1.5,0,.3-.2.6-.5.8-.8.5-1.4-.2-1.7-1Z"/>
  <path class="st5" d="M47.9,30c-.5.2-1,.3-1.4.5-1.6.4-3.1.9-4.6,1.5,1.4-.8,2.8-1.7,4.2-2.5.5-.3,4.6-2.8,4.3-.7,0,.4-.5.6-.9.7-.5.2-1,.3-1.5.5Z"/>
  <path class="st5" d="M29.6,19.4c-.2-.8-.3-1.7-.5-2.5,0-.3-.1-.6-.4-.6-.1,0-.2,0-.4,0-.5.3-1,.5-1.6.8.3.7.5,1.4.8,2.1.2.4.3.8.6,1.2.2.3.6.5.7.8,0,.2.1.4.2.6.1.5.9,2.3,1.2,1.1s-.5-2.7-.7-3.6Z"/>
  <path class="st5" d="M18.9,25.6c1.4,1.6,2,3.9,3.5,5.4,1.2,1.2,2.9,1.8,4.5,2.4.8.3,1.6.5,2.3.8-.5-.5-1.1-.9-1.7-1.3-1-.6-2-1.3-3.1-1.9-.5-.3-1.1-.7-1.6-1-1-1.2-1.8-2.5-2.3-3.9-.2-.4-.3-.8-.5-1.2-.5-.7-1.4-1.1-1.8-1.9-.2-.4-.2-1-.6-1.2-.8-.3-2.8,1.4-2.3,2.2s1.3.5,1.7.6c.8.1,1.3.3,1.9,1Z"/>
  <path class="st5" d="M21.3,47.5c.4-.7.8-1.4,1-1.8.2-.2.3-.4.5-.6.5-.6.8-1.3,1.2-2,.1-.3,1.6-3.3,1.8-3.2-.3-.1-.2-.8-.4-.6-.7.7-.6.7-1.4,1.4-.2.2-.5.4-.6.7,0,.2-.1.4-.2.5-.2.3-.6.5-.9.7-.7.6-.8,1.6-1.5,2.2-.4.3-.9.4-1.2.8-.2.3-.2.7-.5,1-.1.1-.3.2-.4.3-.5.4-.7,2.8.2,2.9s1.8-1.2,2.5-2.4Z"/>
</svg>