<?xml version="1.0" encoding="UTF-8"?>
<svg id="Layer_1" xmlns="http://www.w3.org/2000/svg" version="1.1" viewBox="0 0 64 64">
  <!-- Generator: Adobe Illustrator 29.1.0, SVG Export Plug-In . SVG Version: 2.1.0 Build 142)  -->
  <defs>
    <style>
      .st0 {
        fill: none;
        stroke: #3b62ae;
        stroke-linecap: round;
        stroke-miterlimit: 10;
        stroke-width: 3px;
      }

      .st1 {
        fill: #e6e7e8;
      }
    </style>
  </defs>
  <g>
    <path class="st1" d="M35.7,25c0-1.4,1-2.4,2.3-2.4s2.2,1,2.2,2.4-.9,2.4-2.3,2.4-2.2-1-2.2-2.4Z"/>
    <path class="st1" d="M59.7,14.4c0,8.4-3.1,13-8.6,13s-8.1-4.5-8.2-12.7c0-8.3,3.6-12.8,8.6-12.8s8.2,4.6,8.2,12.5ZM46.3,14.7c0,6.4,2,10.1,5,10.1s5.1-4,5.1-10.3-1.6-10.1-5-10.1-5.1,3.6-5.1,10.3Z"/>
  </g>
  <g>
    <path class="st1" d="M16.2,59.1c0-1.4,1-2.4,2.3-2.4s2.2,1,2.2,2.4-.9,2.4-2.3,2.4-2.2-1-2.2-2.4Z"/>
    <path class="st1" d="M40.2,48.5c0,8.4-3.1,13-8.6,13s-8.1-4.5-8.2-12.7c0-8.3,3.6-12.8,8.6-12.8s8.2,4.6,8.2,12.5ZM26.8,48.9c0,6.4,2,10.1,5,10.1s5.1-4,5.1-10.3-1.6-10.1-5-10.1-5.1,3.6-5.1,10.3Z"/>
    <path class="st1" d="M59.7,48.5c0,8.4-3.1,13-8.6,13s-8.1-4.5-8.2-12.7c0-8.3,3.6-12.8,8.6-12.8s8.2,4.6,8.2,12.5ZM46.3,48.9c0,6.4,2,10.1,5,10.1s5.1-4,5.1-10.3-1.6-10.1-5-10.1-5.1,3.6-5.1,10.3Z"/>
  </g>
  <line class="st0" x1="32" y1="13.7" x2="7.4" y2="13.7"/>
  <polyline class="st0" points="14.4 7.5 6.8 13.7 14.4 20"/>
</svg>