<?xml version="1.0" encoding="UTF-8"?>
<svg id="Layer_1" data-name="Layer 1" xmlns="http://www.w3.org/2000/svg" xmlns:xlink="http://www.w3.org/1999/xlink" version="1.1" viewBox="0 0 64 64">
  <defs>
    <style>
      .cls-1 {
        fill: #2d333f;
      }

      .cls-1, .cls-2, .cls-3, .cls-4, .cls-5, .cls-6, .cls-7, .cls-8, .cls-9, .cls-10, .cls-11, .cls-12, .cls-13, .cls-14, .cls-15, .cls-16, .cls-17, .cls-18, .cls-19, .cls-20, .cls-21, .cls-22, .cls-23, .cls-24, .cls-25, .cls-26 {
        stroke-width: 0px;
      }

      .cls-2 {
        fill: #eb7726;
      }

      .cls-3 {
        fill: #00ad86;
      }

      .cls-27 {
        clip-path: url(#clippath);
      }

      .cls-4, .cls-28, .cls-29, .cls-30 {
        fill: none;
      }

      .cls-5 {
        fill: #4e1a18;
      }

      .cls-6 {
        fill: url(#linear-gradient);
      }

      .cls-7 {
        fill: url(#radial-gradient);
      }

      .cls-8 {
        fill: #37414b;
      }

      .cls-9 {
        fill: #0f0c10;
      }

      .cls-10 {
        fill: #403320;
      }

      .cls-28 {
        stroke-width: .5px;
      }

      .cls-28, .cls-29 {
        stroke: #101316;
        stroke-linecap: round;
      }

      .cls-28, .cls-29, .cls-30 {
        stroke-miterlimit: 10;
      }

      .cls-11 {
        fill: #999363;
      }

      .cls-29, .cls-30 {
        stroke-width: 1px;
      }

      .cls-12 {
        fill: #004238;
      }

      .cls-13 {
        fill: url(#radial-gradient-2);
      }

      .cls-14 {
        fill: url(#radial-gradient-3);
      }

      .cls-15 {
        fill: url(#radial-gradient-4);
      }

      .cls-16 {
        fill: #1e3c3a;
      }

      .cls-17 {
        fill: #725959;
      }

      .cls-18 {
        fill: #6a6561;
      }

      .cls-19 {
        fill: #524d4b;
      }

      .cls-20 {
        fill: #7bc18f;
      }

      .cls-21 {
        fill: #2a4322;
      }

      .cls-22 {
        fill: #faa43a;
      }

      .cls-30 {
        stroke: #14313f;
      }

      .cls-23 {
        fill: #005672;
      }

      .cls-24 {
        fill: #21b280;
      }

      .cls-25 {
        fill: #353624;
      }

      .cls-26 {
        fill: #98d2da;
      }
    </style>
    <linearGradient id="linear-gradient" x1="32.3" y1="1.1" x2="32.3" y2="5.9" gradientUnits="userSpaceOnUse">
      <stop offset="0" stop-color="#30ad96"/>
      <stop offset="1" stop-color="#70bf44"/>
    </linearGradient>
    <radialGradient id="radial-gradient" cx="32.3" cy="13.9" fx="32.3" fy="13.9" r="11.5" gradientTransform="translate(0 2.8) scale(1 .8)" gradientUnits="userSpaceOnUse">
      <stop offset="0" stop-color="#11181a"/>
      <stop offset=".2" stop-color="#13191a"/>
      <stop offset=".2" stop-color="#1b1d1a"/>
      <stop offset=".3" stop-color="#29231b"/>
      <stop offset=".4" stop-color="#3d2d1c"/>
      <stop offset=".4" stop-color="#57391e"/>
      <stop offset=".5" stop-color="#76491f"/>
      <stop offset=".5" stop-color="#9c5b22"/>
      <stop offset=".6" stop-color="#c66f24"/>
      <stop offset=".6" stop-color="#e07c26"/>
      <stop offset=".6" stop-color="#c08e2e"/>
      <stop offset=".7" stop-color="#a3a036"/>
      <stop offset=".8" stop-color="#8cad3c"/>
      <stop offset=".8" stop-color="#7cb740"/>
      <stop offset=".9" stop-color="#73bd43"/>
      <stop offset="1" stop-color="#70bf44"/>
    </radialGradient>
    <clipPath id="clippath">
      <path class="cls-4" d="M36,16.9c.6-.2,1-.2,1.6-.2.2,0,.5,0,.7,0,.2,0,.5-.3.7-.3s.6,0,.9,0c.6,0,1.3,0,1.9,0,.6,0,1.1-.3,1.6-.3.8,0,2,0,2.2,1,0,.3.1.7.2,1,0,.2,0,.4.1.6,0,.3,0,.5,0,.8,0,1.2.2,2.3.1,3.5s0,2.7,0,4c0,1.8,0,3.5.1,5.3.1,1,0,2-.2,3-.1.9,0,1.8,0,2.7,0,1.1,0,2.3,0,3.4s-.7,2.1-.8,3.2c0,.6,0,1-.2,1.6s-.4,1.2-.6,1.7c-.2.6-.4,1.1-.6,1.7-.3.6-.6,1.2-.9,1.8-.2.4-.3.7-.5,1.1s-.5.8-.7,1.2c-.5.8-1,1.5-1.6,2.2-.3.4-.5.7-.8,1.1s-.3.6-.5.9-.5.7-.8,1c-.3.4-.6.7-.9,1-.3.3-.6.7-.9,1-.2.2-.4.4-.6.6-.3.2-.6.2-.9.3-.8.3-1.6.6-2.3,1.1-.1,0-.3.2-.4,0,0,0,0,0,0-.1,0-.6,0-1.2,0-1.8s-.1-1.4-.1-2.2c0-3,0-6.1,0-9.2,0-1.2-.2-2.4,0-3.6.1-1.8,0-3.7,0-5.6,0-3.2,0-6.3,0-9.5,0-1.7,0-3.4,0-5,0-1.1.4-2.3.2-3.4,0-.6,0-1.2,0-1.8,0,0,0-.1,0-.2,0,0,0,0,.1-.1.3-.2.5-.4.8-.6.4-.5.1-1.3.6-1.8.2-.2.4-.2.6-.3.6-.2,1.3-.4,1.9-.7ZM28,16.7c-.6-.2-1-.2-1.6-.2-.2,0-.5,0-.7,0-.2,0-.5-.3-.7-.3s-.6,0-.9,0c-.6,0-1.3,0-1.9,0-.6,0-1.1-.3-1.6-.3-.8,0-2,0-2.2,1,0,.3-.1.7-.2,1,0,.2,0,.4-.1.6,0,.3,0,.5,0,.8,0,1.2-.2,2.3-.1,3.5s0,2.7,0,4c0,1.8,0,3.5-.1,5.3-.1,1,0,2,.2,3,.1.9,0,1.8,0,2.7,0,1.1,0,2.3,0,3.4s.7,2.1.8,3.2c0,.6,0,1,.2,1.6s.4,1.2.6,1.7c.2.6.4,1.1.6,1.7.3.6.6,1.2.9,1.8.2.4.3.7.5,1.1s.5.8.7,1.2c.5.8,1,1.5,1.6,2.2.3.4.5.7.8,1.1s.3.6.5.9.5.7.8,1c.7.9,1.4,2,2.3,2.7.3.2.5.4.8.5.2,0,.4.1.6.2.4.1,1.6,1,2,.9s.2-1.7.3-2.1c0-.7.1-1.4.1-2.2,0-3,0-6.1,0-9.2,0-1.2.2-2.4,0-3.6-.1-1.8,0-3.7,0-5.6,0-3.2,0-6.3,0-9.5,0-1.7,0-3.4,0-5,0-1.1-.4-2.3-.2-3.4,0-.6,0-1.2,0-1.8,0,0,0-.1,0-.2,0,0,0,0-.1-.1-.3-.2-.5-.4-.8-.6-.4-.5-.1-1.3-.6-1.8-.2-.2-.4-.2-.6-.3-.6-.2-1.3-.4-1.9-.7Z"/>
    </clipPath>
    <radialGradient id="radial-gradient-2" cx="32" cy="29.1" fx="32" fy="29.1" r="13.8" gradientTransform="translate(0 -58.1) scale(1 3)" gradientUnits="userSpaceOnUse">
      <stop offset="0" stop-color="#97cb58"/>
      <stop offset=".2" stop-color="#91c45b"/>
      <stop offset=".5" stop-color="#82b363"/>
      <stop offset=".6" stop-color="#7dae67"/>
      <stop offset=".6" stop-color="#74a868"/>
      <stop offset=".7" stop-color="#5d996c"/>
      <stop offset=".8" stop-color="#388072"/>
      <stop offset=".9" stop-color="#045e7b"/>
      <stop offset=".9" stop-color="#025d7c"/>
    </radialGradient>
    <radialGradient id="radial-gradient-3" cx="32" cy="20.1" fx="32" fy="20.1" r="9.4" gradientTransform="translate(0 -40.1) scale(1 3)" gradientUnits="userSpaceOnUse">
      <stop offset=".6" stop-color="#393839"/>
      <stop offset=".7" stop-color="#4c573f"/>
      <stop offset=".7" stop-color="#637a47"/>
      <stop offset=".8" stop-color="#76974d"/>
      <stop offset=".8" stop-color="#84ae51"/>
      <stop offset=".9" stop-color="#8fbe55"/>
      <stop offset=".9" stop-color="#95c857"/>
      <stop offset="1" stop-color="#97cb58"/>
    </radialGradient>
    <radialGradient id="radial-gradient-4" cx="32" cy="19.1" fx="32" fy="19.1" r="1.2" gradientTransform="translate(0 1.9) scale(1 .9)" gradientUnits="userSpaceOnUse">
      <stop offset=".4" stop-color="#14181c"/>
      <stop offset=".6" stop-color="#643d1e"/>
      <stop offset="1" stop-color="#f28023"/>
    </radialGradient>
  </defs>
  <path class="cls-24" d="M47.5,40c0,.3.2.6.3.8.9,2.3.2,5.1,1.3,7.3,0,.2.3.4.5.4,0-.3.3-.5.6-.6-.3-.1-.4-.5-.4-.8-.2-.8-.3-1.6-.4-2.4,0-.5,0-1,0-1.6-.1-1.5-.9-2.7-1.7-4,0,0-.2,0-.2,0s0,.2,0,.2c0,.2,0,.4,0,.6Z"/>
  <path class="cls-16" d="M45.4,36.2c0,.3.1.6.3.9.3.7.8,1.3,1,2,0,.2,0,.4.2.6s.4.2.5.1c.1,0,.1-.2.2-.4s.2-.2.3-.1c.1-.5-.1-.9-.3-1.3-.4-.8-.4-2.2-1-2.8s-1.4.2-1.3,1Z"/>
  <path class="cls-1" d="M56.7,51.5c.2,0,.4.2.5.4s.2.4.5.4c-.1-.4-.5-.8-.9-.9"/>
  <path class="cls-1" d="M58,51c-.3,0-.6,0-.9.1.5.2,1,.3,1.5.1-.2-.1-.5-.2-.8-.2"/>
  <path class="cls-18" d="M49.6,48.3c0,.2.3.4.5.5s.5.1.7.3c.3.2.5.6.9.6,0-.2-.1-.3-.2-.4,1,0,1.5,1.5,2.5,1.5,0-.3-.3-.5-.4-.7.6.4,1.1.8,1.7,1.2,0,0,.2.1.3.1s.2,0,.2-.2c0,0,0,0,0-.1-.1,0-.2-.2-.4-.2.3,0,.6.2.8.5s.7.3,1,.2.7-.4.6-.8c-.7,0-1.4-.2-2-.3.2,0,.4,0,.6-.2-.8-.4-1.7-.6-2.6-.8h.7c0-.2-.2-.4-.3-.4-.7-.2-1.3-.3-2-.5.2,0,.3,0,.5,0,0,0-.1-.2-.2-.2-.7-.1-1.4.2-2-.2-.1,0-.3-.2-.4-.2s-.3.2-.3.4Z"/>
  <path class="cls-24" d="M16.5,40.2c0,.3-.2.6-.3.8-.9,2.3-.2,5.1-1.3,7.3,0,.2-.3.4-.5.4,0-.3-.3-.5-.6-.6.3-.1.4-.5.4-.8.2-.8.3-1.6.4-2.4,0-.5,0-1,0-1.6.1-1.5.9-2.7,1.7-4,0,0,.2,0,.2,0s0,.2,0,.2c0,.2,0,.4,0,.6Z"/>
  <path class="cls-16" d="M18.6,36.4c0,.3-.1.6-.3.9-.3.7-.8,1.3-1,2,0,.2,0,.4-.2.6s-.4.2-.5.1c-.1,0-.1-.2-.2-.4s-.2-.2-.3-.1c-.1-.5.1-.9.3-1.3.4-.8.4-2.2,1-2.8s1.4.2,1.3,1Z"/>
  <path class="cls-1" d="M7.3,51.7c-.2,0-.4.2-.5.4s-.2.4-.5.4c.1-.4.5-.8.9-.9"/>
  <path class="cls-1" d="M6,51.2c.3,0,.6,0,.9.1-.5.2-1,.3-1.5.1.2-.1.5-.2.8-.2"/>
  <path class="cls-18" d="M14.4,48.6c0,.2-.3.4-.5.5s-.5.1-.7.3c-.3.2-.5.6-.9.6,0-.2.1-.3.2-.4-1,0-1.5,1.5-2.5,1.5,0-.3.3-.5.4-.7-.6.4-1.1.8-1.7,1.2,0,0-.2.1-.3.1s-.2,0-.2-.2c0,0,0,0,0-.1.1,0,.2-.2.4-.2-.3,0-.6.2-.8.5s-.7.3-1,.2-.7-.4-.6-.8c.7,0,1.4-.2,2-.3-.2,0-.4,0-.6-.2.8-.4,1.7-.6,2.6-.8h-.7c0-.2.2-.4.3-.4.7-.2,1.3-.3,2-.5-.2,0-.3,0-.5,0,0,0,.1-.2.2-.2.7-.1,1.4.2,2-.2.1,0,.3-.2.4-.2s.3.2.3.4Z"/>
  <path class="cls-8" d="M54.8,31.9c.3,0,.4-.3.5-.6s.1-.5.3-.7c.1.1.2.3.1.5s-.1.3-.2.5c-.2.4-.5.7-.9.7,0,0,0,0,0-.1.1,0,.3,0,.3-.2"/>
  <path class="cls-8" d="M55.1,32.6c.2,0,.4,0,.7,0,0,0,.2,0,.3,0,.3,0,.5,0,.7-.3-.3,0-.6,0-.9,0-.1,0-.3.1-.4.2-.2,0-.4,0-.6,0,0,0,0,0,0,.1,0,0,.2,0,.3,0"/>
  <path class="cls-19" d="M50.9,33.3c.8-.1,1.6,0,2.4.1,0,0-.1-.2-.2-.2.6,0,1.2,0,1.8,0,0-.2-.2-.3-.4-.4.4,0,.8,0,1-.2-.3,0-.6-.4-.5-.8,0,0,0-.2,0-.3,0,0-.2,0-.3,0-.3.1-.5.2-.8.3.2,0,.2-.4,0-.4,0,0-.2,0-.2,0-.4.3-.9.4-1.4.5,0-.1.1-.3.2-.3-.6,0-1.1.3-1.6.5,0-.1,0-.2-.2-.2s-.2,0-.3.1c-.2.1-.4.1-.7.1s-.5,0-.6.2c-.8.9,1.5.8,1.8.7Z"/>
  <path class="cls-20" d="M46.8,25.1c-.2.5-.3,1-.3,1.5-.1,1.1-.2,2.2.1,3.3.3,1.1,1.1,2.2,1.8,3.1.1.2.3.3.5.4s.4,0,.5-.2c0,0,0-.2,0-.3,0-.3.2-.5.4-.7-.5-.6-1.1-1.1-1.6-1.7-.8-1-.6-2.3-.4-3.5.2-1.1.3-2.1.5-3.2,0-.3,0-.6,0-.9s-.2-.6-.4-.7c-.7-.5-1,.4-.8.9.3.8.1,1.2-.2,2Z"/>
  <path class="cls-3" d="M47,21.5c-.4-.2-.8-.2-1,0-.3.4,0,1.3,0,1.8h1.3c0-.3-.2-.5,0-.8,0-.2.2-.3.3-.4,0-.2,0-.5-.4-.6Z"/>
  <path class="cls-8" d="M9.1,30.8c-.3,0-.4-.3-.5-.6s-.1-.5-.3-.7c-.1.1-.2.3-.1.5s.1.3.2.5c.2.4.5.7.9.7,0,0,0,0,0-.1-.1,0-.3,0-.3-.2"/>
  <path class="cls-8" d="M8.9,31.5c-.2,0-.4,0-.7,0,0,0-.2,0-.3,0-.3,0-.5,0-.7-.3.3,0,.6,0,.9,0,.1,0,.3.1.4.2.2,0,.4,0,.6,0,0,0,0,0,0,.1,0,0-.2,0-.3,0"/>
  <path class="cls-19" d="M13.1,32.2c-.8-.1-1.6,0-2.4.1,0,0,.1-.2.2-.2-.6,0-1.2,0-1.8,0,0-.2.2-.3.4-.4-.4,0-.8,0-1-.2.3,0,.6-.4.5-.8,0,0,0-.2,0-.3,0,0,.2,0,.3,0,.3.1.5.2.8.3-.2,0-.2-.4,0-.4,0,0,.2,0,.2,0,.4.3.9.4,1.4.5,0-.1-.1-.3-.2-.3.6,0,1.1.3,1.6.5,0-.1,0-.2.2-.2s.2,0,.3.1c.2.1.4.1.7.1s.5,0,.6.2c.8.9-1.5.8-1.8.7Z"/>
  <path class="cls-20" d="M17.2,24c.2.5.3,1,.3,1.5.1,1.1.2,2.2-.1,3.3-.3,1.1-1.1,2.2-1.8,3.1-.1.2-.3.3-.5.4s-.4,0-.5-.2c0,0,0-.2,0-.3,0-.3-.2-.5-.4-.7.5-.6,1.1-1.1,1.6-1.7.8-1,.6-2.3.4-3.5-.2-1.1-.3-2.1-.5-3.2,0-.3,0-.6,0-.9s.2-.6.4-.7c.7-.5,1,.4.8.9-.3.8-.1,1.2.2,2Z"/>
  <path class="cls-3" d="M17,20.4c.4-.2.8-.2,1,0,.3.4,0,1.3,0,1.8h-1.3c0-.3.2-.5,0-.8,0-.2-.2-.3-.3-.4,0-.2,0-.5.4-.6Z"/>
  <path class="cls-5" d="M36.9,3.2c-.2-.2-.4-.3-.7-.4s-.7-.2-1-.2c0,0-.2,0-.3,0-.6.2-1.2.2-1.8.2s-1.1,0-1.6.1c-.5,0-.9,0-1.4-.2-.5-.2-.9-.4-1.4-.3s-.9.3-1.3.5c-1.2.7-1.9,2.1-1.5,3.4.3.8,1.1,1.3,1.9,1.6s1.7.3,2.6.3c1.3,0,2.5,0,3.8,0,1.4,0,3.7,0,4.4-1.6.5-1.1-.3-2.4-1.1-3.1-.2-.2-.4-.3-.6-.5Z"/>
  <path class="cls-29" d="M34.9,2.6c1-1,2.8-1.5,4.2-1.6s2.9.1,4.3.3c1.2.2,2.6.4,3.4,1.4"/>
  <path class="cls-29" d="M29.9,2.7c-1-1.1-2.6-1.6-4.1-1.9-1.3-.2-2.5-.4-3.8-.4s-2.6.3-3.6.9"/>
  <path class="cls-6" d="M34.4,4.8c0,.2,0,.3-.1.4-.1.2-.3.2-.5.3-1.1.3-2.3.5-3.3.1-.1,0-.2,0-.3-.2,0,0,0-.2-.1-.3-.1-.5-.3-.9-.4-1.4,0-.3-.1-.5-.1-.8,0-1.1.9-.4,1.5-.6.7-.2,0-.7.4-1s1.8-.2,2.2-.3c.8,0,.1.7.5,1,.4.3.8,0,1,.6.1.4-.6,1.7-.7,2.2Z"/>
  <g>
    <path class="cls-28" d="M32.2,4.4c0-.7.1-1.4.3-2.1"/>
    <path class="cls-28" d="M31.2,2.3c1-.1,2-.1,2.9,0"/>
  </g>
  <path class="cls-7" d="M42.6,19.9c.5-1.3,1-2.7,1.9-3.8.2-.2.5-.5.6-.8,0-.2.1-.4.2-.7.2-1.6-.3-3.3-1.2-4.7s-2-2.6-3.3-3.7c-.3-.2-.6-.5-.9-.6-.3,0-.7,0-1,0-1.1,0-2.1-.5-3.1-.8-1-.3-2.1-.5-3.1-.6-.7,0-1.5,0-2.2,0-.8,0-1.6.2-2.4.5-.4.2-.7.5-1.2.6-.3.1-.7.1-1.1.1-.6,0-1.2.3-1.7.6-.7.4-1.1,1.1-1.6,1.6-1,1.1-2.2,2-2.6,3.5s-.4,1.7-.5,2.5c0,.4,0,.8,0,1.1,0,.3.1.5.1.7,0,.6,0,1.2,0,1.8s.3,1.1.6,1.6c.6.9,1.3,1.8,2,2.7,2.4.3,4.7.8,7,1.4.5.1,1,.3,1.6.3.5,0,1.1,0,1.6-.2,1.3-.3,2.5-.8,3.8-1.1s2.6-.4,3.9,0c.2,0,.4.2.6.1.2,0,.3-.1.4-.2.9-.8,1.3-1.3,1.7-2.4Z"/>
  <path class="cls-17" d="M36.6,4.2c.5.3.8.8,1.4,1,0-.2,0-.4,0-.6,0-.2-.2-.3-.3-.4-.4-.3-1.2-1.4-1.8-1.2-.9.3.5,1,.8,1.2Z"/>
  <path class="cls-17" d="M27.4,3.5c-.2.2-.5.3-.6.5s-.3.5-.3.8c.1,0,.3,0,.4,0,.2-.2.3-.4.6-.6s.8-.4,1.2-.6c.2-.1.4-.3.4-.5,0-.2-.2-.3-.4-.3-.4,0-1,.5-1.3.8Z"/>
  <path class="cls-12" d="M22.8,14.6c.2-.1,0-.6-.2-.8-.7-1.1-.8-2.5-.2-3.7.6-1.3,1.9-2.2,3.1-2.9.4-.2.8-.5,1.3-.7s1-.3,1.6-.4c.4,0,.7-.2,1.1-.3s.7,0,1-.2c0,0,.1,0,.1-.1,0-.1,0-.2-.1-.3s-.2,0-.4,0c-.4,0-.9.2-1.3.3-.6.1-1.1.3-1.7.4-2.1.5-3.5,1.9-4.7,3.6-.3.4-.5.8-.7,1.2-.1.3-.1.7-.1,1,0,.7.1,1.6.5,2.3s.3.5.6.5.1,0,.2,0Z"/>
  <path class="cls-21" d="M41.4,14.2c.2,0,.4,0,.6,0,.6-.3,1-.8,1.2-1.4s0-1.3-.2-1.8c-.3-.5-.7-.9-1.2-1.3-.2-.2-.5-.4-.7-.6-.1.1,0,.3.1.4.4.4.6,1,.8,1.5.2.6.5,1.3.3,1.9s-.7.9-.9,1.5Z"/>
  <path class="cls-26" d="M42.8,10.7c-.4-.7-.9-1.4-1.3-2.1-.5-.8-1.1-1.7-2-2.1-.4-.2-.9-.2-1.3-.3-.9,0-1.8-.2-2.7-.3.2.2.5.2.7.3.5,0,.9.2,1.4.4,1,.4,1.9.8,2.7,1.5s1.7,1.7,2.5,2.5Z"/>
  <path class="cls-10" d="M46.5,7.2c.4,0,.7-.2,1-.4l.7-.4c.3-.1.6-.3.6-.6,0-.4-.4-.8-.2-1.1-.2,0-.4,0-.6,0s-.3.2-.5.3c-.5.3-1.2.4-1.8.6s-1.2.3-1.7.8c0,0-.1.1,0,.2.2.7,2.1.7,2.6.6Z"/>
  <path class="cls-9" d="M48.7,5.6l.4.4c0,0,.1.1.2.2s.2,0,.2,0c-.3-.3-.7-.6-1-.9,0,.1,0,.2,0,.3"/>
  <path class="cls-11" d="M46.4,11.7c-.2-.3-.4-.5-.6-.7-.8-.8-1.4-1.8-2.2-2.6-.1-.1-.3-.2-.4-.4-.3-.4-.4-1.1-.1-1.5.1-.2.3-.3.4-.3,0,0,.1,0,.2,0,0,0,0,0,0,0,.2.2,1,.7.9,1s0,.1-.1.2c-.2.2,0,.5.1.7,1.4,1.5,3.4,3.3,2.5,5.6-.1.3,0,.7-.4.7s-.1,0-.2,0c0,0,0,0,0-.1-.2-.4-.4-.8-.2-1.2s.3-.6.2-1,0-.2-.2-.4Z"/>
  <path class="cls-9" d="M49.2,4s0,0,.1,0c.1,0,.2.2.3.2,0-.1,0-.3,0-.4,0,0-.1,0-.2,0-.2,0-.4,0-.6,0,0,0-.1.1-.2.2-.2.3-.6.7-.4,1,.4-.2.5-.8,1-.9Z"/>
  <path class="cls-25" d="M46.9,14.9c0,0,.2-.1.2-.2s0-.2,0-.3c0,0-.2,0-.2-.1-.1,0-.2-.2-.3-.4,0-.2-.2-.4-.2-.6,0,0,0-.2-.1-.2,0,0-.2,0-.3,0-.3,0-.7,0-.9.4-.1.2-.2.3-.2.5-.1.4-.2.9-.2,1.3,0,1.4,1.8,0,2.3-.3Z"/>
  <path class="cls-10" d="M18,6.6c-.4,0-.7-.2-1-.4l-.7-.4c-.3-.1-.6-.3-.6-.6,0-.4.4-.8.2-1.1.2,0,.4,0,.6,0s.3.2.5.3c.5.3,1.2.4,1.8.6s1.2.3,1.7.8c0,0,.1.1,0,.2-.2.7-2.1.7-2.6.6Z"/>
  <path class="cls-9" d="M15.8,5l-.4.4c0,0-.1.1-.2.2s-.2,0-.2,0c.3-.3.7-.6,1-.9,0,.1,0,.2,0,.3"/>
  <path class="cls-11" d="M18.1,11.1c.2-.3.4-.5.6-.7.8-.8,1.4-1.8,2.2-2.6.1-.1.3-.2.4-.4.3-.4.4-1.1.1-1.5-.1-.2-.3-.3-.4-.3,0,0-.1,0-.2,0,0,0,0,0,0,0-.2.2-1,.7-.9,1s0,.1.1.2c.2.2,0,.5-.1.7-1.4,1.5-3.4,3.3-2.5,5.6.1.3,0,.7.4.7s.1,0,.2,0c0,0,0,0,0-.1.2-.4.4-.8.2-1.2s-.3-.6-.2-1,0-.2.2-.4Z"/>
  <path class="cls-9" d="M15.3,3.4s0,0-.1,0c-.1,0-.2.2-.3.2,0-.1,0-.3,0-.4,0,0,.1,0,.2,0,.2,0,.4,0,.6,0,0,0,.1.1.2.2.2.3.6.7.4,1-.4-.2-.5-.8-1-.9Z"/>
  <path class="cls-25" d="M17.7,14.3c0,0-.2-.1-.2-.2s0-.2,0-.3c0,0,.2,0,.2-.1.1,0,.2-.2.3-.4,0-.2.2-.4.2-.6,0,0,0-.2.1-.2,0,0,.2,0,.3,0,.3,0,.7,0,.9.4.1.2.2.3.2.5.1.4.2.9.2,1.3,0,1.4-1.8,0-2.3-.3Z"/>
  <path class="cls-2" d="M33.9,62.9c-.2.4-.5.7-.9.7-.3,0-.7,0-1,.1-.1,0-.3.2-.4,0,0,0,0-.1,0-.2,0-.3,0-.6.1-1,0,0,0-.1,0-.2-.6.3-.5,1-.6,1.5,0,0-.2,0-.3,0-.1,0,0-.2,0-.3,0-.3-1-.3-1.3-.4-.8-.5-.6-1.4-.7-2.2,0,0,0,0,0-.1,0,0,.1-.1.2-.1.3,0,.6.1.9.2,1,.4,2.1.2,3.1.4.9.1,1.3.6.9,1.5Z"/>
  <path class="cls-22" d="M29.7,62.6c0,0,.2.1.3.2.1,0,.2.2.4.2.4,0,.3-.4.5-.5s.4-.2.6-.2c1-.2.5.3.8.7.6.6,2-1,1.3-1.6s-.2-.1-.4-.1c-.3,0-4.2-.2-4.2,0,0,.8.2,1,.7,1.4Z"/>
  <g class="cls-27">
    <ellipse class="cls-23" cx="32" cy="24.1" rx="15.7" ry="38.8"/>
    <ellipse class="cls-13" cx="32" cy="29.1" rx="12" ry="29.6"/>
    <ellipse class="cls-23" cx="31.9" cy="16.6" rx="16.4" ry="4.2"/>
    <ellipse class="cls-14" cx="32" cy="20.1" rx="7.8" ry="19.4"/>
  </g>
  <path class="cls-30" d="M31.6,62.5c.3-1.8,0-3.7,0-5.6,0-2.1-.2-4.2.2-6.2s-.2-4.7-.3-7c0-1,0-2.1,0-3.1.1-3.6.2-7.1.2-10.7s0-3.6,0-5.3-.3-3.1,0-4.7c0,.1,0,.3,0,.4"/>
  <path class="cls-15" d="M30.7,18.8c0,.4.3.7.6.9.3.2.7.5,1,.5.3,0,.7-.3.8-.6s.2-.7.2-1c0-.2,0-.5-.3-.6-.1,0-.3,0-.4,0-.3,0-.6,0-.9,0-.7,0-1,.1-1,.9Z"/>
</svg>