<?xml version="1.0" encoding="UTF-8"?>
<svg id="Layer_1" data-name="Layer 1" xmlns="http://www.w3.org/2000/svg" version="1.1" viewBox="0 0 64 64">
  <defs>
    <style>
      .cls-1 {
        fill: #d32149;
      }

      .cls-1, .cls-2, .cls-3, .cls-4, .cls-5 {
        stroke-width: 0px;
      }

      .cls-2 {
        fill: #92278f;
      }

      .cls-6 {
        fill: #e4cdb8;
        stroke: #4d4d4f;
        stroke-miterlimit: 10;
        stroke-width: 3.2px;
      }

      .cls-3 {
        fill: #2275a9;
      }

      .cls-4 {
        fill: #414042;
      }

      .cls-5 {
        fill: #f1f2f2;
      }
    </style>
  </defs>
  <path class="cls-6" d="M56.3,7.7C46.3-2.3,27.3.5,14,13.8.6,27.2-2.1,46.1,7.9,56.2c3.7,3.7,8.8,5.7,14,6,3.8.2,8.7,0,8.9-5,0-1.9-.6-3.7-1.4-5.4s-1.6-3.5-1.7-5.3c0-.7,0-1.5.4-2.2.6-1,1.9-1.3,3.1-1.1s2.1.9,3.1,1.5c2.3,1.5,3.4,3.3,4.5,5.8.5,1,1,2,1.6,2.9.7,1.1,1.7,2.2,3,2,.6-.1,2.2-.5,2.6-.9,2.4-2.1,4.2-4,6.4-6.3s3.6-4.8,5.1-7.5c2.1-3.7,3.7-7.8,4.4-12.1,1.3-7.3-.2-15.3-5.6-20.7ZM19.1,52.8c-1.9,0-3.5-1.6-3.5-3.5s1.6-3.5,3.5-3.5,3.5,1.6,3.5,3.5-1.6,3.5-3.5,3.5Z"/>
  <path class="cls-1" d="M12.9,33.2c-.6-.2-.6-1-.3-1.5s.6-1,.6-1.6c-.1-.8-1-1.2-1.2-2-.2-.6.1-1.3.4-1.9,0,0,.1-.2.2-.2.4-.1.5.6.9.6.8-.9-.2-2.4.3-3.5.4-.9,1.9-1,2.7-.3s.9,1.8.8,2.9c0,.1,0,.3,0,.4.1.2.5.2.7.1.6,0,1.2,0,1.7.3.4.2.8.6.8,1.1s-.5,1-.9.8c.8.3,2.7,1.6,3,2.3-.8.7-1.6.4-2.5.7s-.9.6-1.4,1.1c-1.3,1.1-2.5,1.4-3.4-.5-.9,0-1.6,1.5-2.4,1.2Z"/>
  <path class="cls-2" d="M27,9.7c.5-.3,1.1.2,1.4.8s.4,1.2.8,1.5c.6.4,1.6,0,2.3.4.6.3.9.9,1.2,1.6,0,.1,0,.2,0,.3-.1.4-.8,0-1,.2.1,1.2,1.9,1.5,2.4,2.6.4,1-.5,2.1-1.5,2.2s-2-.5-2.7-1.3c0-.1-.2-.2-.3-.3-.3,0-.4.2-.6.5-.3.5-.8.9-1.3,1.1-.5.2-1,.2-1.4-.1s-.4-1,0-1.2c-.7.4-2.9,1-3.7.7,0-1.1.8-1.4,1.1-2.3s.1-1.1.1-1.8c0-1.6.6-2.8,2.6-2.2.6-.7,0-2.2.7-2.6Z"/>
  <path class="cls-3" d="M37.7,11.2c-.3.5,0,1.1.6,1.4s1.1.5,1.4,1c.3.7-.1,1.6,0,2.3.2.6.8,1,1.4,1.3,0,0,.2.1.3,0,.4,0,0-.8.4-1,1.2.3,1.2,2.1,2.2,2.7.9.5,2.1-.2,2.4-1.2s-.2-2.1-1-2.8c0-.1-.2-.2-.2-.4,0-.3.3-.4.5-.5.5-.2,1-.7,1.2-1.2.2-.4.3-1,0-1.4s-1-.5-1.2-.1c.5-.7,1.3-2.8,1.2-3.6-1.1-.2-1.5.6-2.4.8s-1.1,0-1.8-.1c-1.6-.2-2.9.2-2.5,2.3-.8.5-2.1-.4-2.6.3Z"/>
  <path class="cls-4" d="M27.2,28.6c0-.6.7-.9,1.2-.9s1.2.1,1.7-.2c.7-.4.7-1.4,1.2-2,.5-.5,1.2-.5,1.9-.5.1,0,.2,0,.3,0,.3.3-.3.7-.2,1,1.2.4,2.1-1.2,3.3-1.2,1,0,1.7,1.3,1.4,2.3s-1.3,1.7-2.2,2c-.1,0-.3,0-.4.2-.1.2,0,.5.2.7.3.5.5,1.1.5,1.6,0,.5-.2,1-.6,1.2s-1.1,0-1.1-.5c0,.8-.2,3.1-.8,3.7-1-.4-1-1.3-1.7-1.9s-1-.5-1.6-.8c-1.5-.7-2.4-1.6-1-3.2-.4-.8-2-.7-2.1-1.6Z"/>
  <path class="cls-5" d="M50,21.2c-.4-.4-1.1-.2-1.5.2s-.8,1-1.3,1.1c-.8.2-1.5-.5-2.3-.5-.7,0-1.2.5-1.6,1,0,0-.2.2-.2.3,0,.4.7.2.9.6-.6,1.1-2.3.7-3.2,1.5-.7.7-.3,2.1.6,2.6s2.1.3,3-.2c.1,0,.3-.1.4-.1.3,0,.3.4.4.6.1.6.4,1.1.8,1.5.4.3.9.5,1.3.4s.7-.8.4-1.2c.6.6,2.4,2,3.2,2,.4-1-.2-1.6-.2-2.5s.3-1.1.5-1.7c.6-1.5.5-2.8-1.6-3-.3-.9.9-2,.3-2.6Z"/>
</svg>