<?xml version="1.0" encoding="UTF-8"?>
<svg id="Layer_1" xmlns="http://www.w3.org/2000/svg" version="1.1" viewBox="0 0 64 64">
  <!-- Generator: Adobe Illustrator 29.1.0, SVG Export Plug-In . SVG Version: 2.1.0 Build 142)  -->
  <defs>
    <style>
      .st0 {
        fill: none;
      }

      .st1 {
        fill: #4d4d4f;
      }
    </style>
  </defs>
  <path class="st1" d="M35.2,59.2H8.5l-1.6-7.1c3.6,0,4.3-1.2,4.3-4.2v-31.8c0-3.1-.8-4.2-4.3-4.2l1.6-7.1h24.9c13.4,0,21,4.8,21,14.4s-3.5,8.8-7.6,10.8c6.9,2.2,10.3,7.6,10.3,13.6,0,10.1-8.5,15.6-21.8,15.6ZM26,26.5h6.5c5.4,0,7.8-2.6,7.8-6.6s-2.2-6.4-7.7-6.4h-6.6s0,13,0,13ZM26,35.1v15.7h7.7c6,0,8.8-3.1,8.8-7.8s-3.1-7.8-9.3-7.8h-7.3Z"/>
  <rect class="st0" y="0" width="64" height="64"/>
</svg>