<?xml version="1.0" encoding="UTF-8"?>
<svg id="Layer_1" data-name="Layer 1" xmlns="http://www.w3.org/2000/svg" version="1.1" viewBox="0 0 64 64">
  <defs>
    <style>
      .cls-1 {
        fill: #27aae1;
        stroke: #1c75bc;
      }

      .cls-1, .cls-2, .cls-3 {
        stroke-miterlimit: 10;
      }

      .cls-2 {
        fill: #fed7a8;
      }

      .cls-2, .cls-3 {
        stroke: #9e7e68;
      }

      .cls-3 {
        fill: #cca285;
      }
    </style>
  </defs>
  <path class="cls-3" d="M50.5,60H4.7c-1.6,0-3-1.3-3-3V14.6c0-1.6,1.4-3,3-3h18.8c1.6,0,2.1.9,3,3l1.5,3.4c.8,1,2.5,1,2.5,1h15.2s2.7-.2,3.8.9.9,3.7.9,3.7c0,0,.7,36.4,0,36.4Z"/>
  <path class="cls-1" d="M31.9,17.5V2.9c0-.6.5-1,1-1h6.7c.5,0,1,.4,1,1v14.6h2.7c2.3,0,3.8,2.5,2.6,4.5l-7.1,10.2c-1.2,2-4,2-5.2,0l-7.1-10.2c-1.2-2,.3-4.5,2.6-4.5h2.7Z"/>
  <path class="cls-2" d="M15.7,40.1c-2.8,0-4,1.5-5,3l-8,14.6c-1,1.5.4,3,2,3h44.7c1.6,0,1.9-1.2,3-3l10-17.6c.9-1.6-.4-3-2-3h-24.2s-1.8,0-1.8,0c-1.6,0-2.7,1.1-3,1.7-.7,1.5-2.7,1.3-2.7,1.3h-12.9Z"/>
</svg>