<?xml version="1.0" encoding="UTF-8"?>
<svg id="Layer_1" data-name="Layer 1" xmlns="http://www.w3.org/2000/svg" viewBox="0 0 64 64">
  <defs>
    <style>
      .cls-1 {
        fill: none;
      }

      .cls-2 {
        fill: #4d4d4f;
      }
    </style>
  </defs>
  <rect class="cls-1" width="64" height="64"/>
  <g>
    <path class="cls-2" d="M7.63,19.12c0-3.69-.06-5.7-.13-7.83-.06-1.75-1.16-2.07-5.31-2.2v-1.81c1.68,0,5.31.19,8.41.19,2.2,0,6.15-.19,8.61-.19l-.07,1.81c-3.88.06-4.85.58-4.92,2.27-.19,1.62-.26,4.4-.26,7.31v7.18c1.75.06,5.31.06,9,.06s6.99,0,9.77-.06v-7.25c0-3.82-.07-5.89-.19-7.64-.07-1.36-1.29-1.75-5.11-1.88v-1.81c2.98.06,6.47.19,8.35.19,2.85,0,7.25-.19,8.61-.19v1.81c-3.95.13-5.05.52-5.11,2.27-.13,1.94-.19,4.34-.19,7.57v16.37c0,4.34.06,7.25.19,9.26.13,1.62,1.04,1.94,5.11,2.14l-.06,1.81c-2.27,0-5.89-.19-8.74-.19-2.65,0-6.21.13-8.28.19l.06-1.81c4.01-.13,5.05-.58,5.18-2.2.06-1.42.19-3.5.19-8.61v-7.77c-2.52-.06-6.08-.06-9.84-.06s-7.18,0-8.93.06v7.77c0,4.01.13,6.67.19,8.61.13,1.75,1.29,2.01,5.31,2.2v1.81c-2.27,0-5.89-.19-9.26-.19-2.72,0-6.02.19-8.22.19v-1.81c4.14-.13,5.24-.52,5.37-2.07.13-1.62.26-3.82.26-8.8v-16.7Z"/>
    <path class="cls-2" d="M62,49.35c-1.16,4.14-1.55,6.34-1.62,7.38-.97-.06-3.24-.19-12.75-.19-2.2,0-3.82,0-5.37.13l-.13-.39c.26-.71.71-1.75,1.1-2.52,5.57-3.24,9.58-6.8,10.81-9.84.58-1.36.78-2.46.78-4.14,0-2.27-.91-4.66-3.88-4.66s-3.95,1.75-3.95,4.27c0,.45.07,1.23.19,1.75.13.39-.07.78-.45,1.04-.32.32-.97.52-1.55.52-1.55,0-2.52-1.04-2.52-2.78,0-1.55,1.1-3.24,2.65-4.47,1.55-1.16,3.88-2.07,6.54-2.07,2.4,0,4.4.65,5.63,1.49,1.81,1.23,2.72,3.17,2.72,5.5,0,2.14-.78,3.82-2.52,5.44-1.49,1.36-5.05,3.95-9.77,7.12,6.54-.13,9.38-.32,10.23-.39.65,0,.97-.26,1.17-.71.26-.52.84-1.94,1.16-3.04l1.55.58Z"/>
  </g>
</svg>