<?xml version="1.0" encoding="UTF-8"?>
<svg id="Layer_1" xmlns="http://www.w3.org/2000/svg" version="1.1" viewBox="0 0 64 64">
  <!-- Generator: Adobe Illustrator 29.1.0, SVG Export Plug-In . SVG Version: 2.1.0 Build 142)  -->
  <defs>
    <style>
      .st0 {
        fill: #323232;
      }

      .st1 {
        fill: #e6e6e6;
      }
    </style>
  </defs>
  <g id="Layer_1-2">
    <g id="Smart_Rectangle">
      <path class="st1" d="M0,4C0,1.8,1.8,0,4,0h56C62.2,0,64,1.8,64,4v56c0,2.2-1.8,4-4,4H4c-2.2,0-4-1.8-4-4V4Z"/>
      <path class="st0" d="M1,4c0-1.7,1.3-3,3-3h56c1.7,0,3,1.3,3,3v56c0,1.7-1.3,3-3,3H4c-1.7,0-3-1.3-3-3V4h0ZM0,4v56c0,2.2,1.8,4,4,4h56c2.2,0,4-1.8,4-4V4C64,1.8,62.2,0,60,0H4C1.8,0,0,1.8,0,4h0Z"/>
    </g>
    <g id="Smart_Rectangle-2">
      <path class="st1" d="M64,20.1V4C64,1.8,62.2,0,60,0H4C1.8,0,0,1.8,0,4v16.1h64Z"/>
      <path class="st0" d="M63.5,19.1H.5l.5.5V4c0-1.7,1.3-3,3-3h56c1.7,0,3,1.4,3,3v15.6s.5-.5.5-.5ZM63.5,20.1c.3,0,.5-.2.5-.5V4C64,1.8,62.2,0,60,0H4C1.8,0,0,1.8,0,4v15.6c0,.3.2.5.5.5h63Z"/>
    </g>
  </g>
</svg>