<?xml version="1.0" encoding="UTF-8"?>
<svg id="Layer_1" data-name="Layer 1" xmlns="http://www.w3.org/2000/svg" viewBox="0 0 58.73 63.14">
  <defs>
    <style>
      .cls-1 {
        fill: #f8a069;
      }

      .cls-1, .cls-2, .cls-3, .cls-4, .cls-5 {
        stroke: #4d4d4f;
        stroke-miterlimit: 10;
      }

      .cls-1, .cls-3, .cls-4, .cls-5 {
        stroke-width: 3.2px;
      }

      .cls-2 {
        stroke-width: 2.14px;
      }

      .cls-2, .cls-6 {
        fill: #fff;
      }

      .cls-3 {
        fill: #f8f189;
      }

      .cls-4 {
        fill: #b4d77b;
      }

      .cls-5 {
        fill: #9cabd7;
      }
    </style>
  </defs>
  <rect class="cls-5" x="6.59" y="1.6" width="43.79" height="59.94" rx="3" ry="3"/>
  <rect class="cls-2" x="1.07" y="10.66" width="11.04" height="5.5" rx="2.5" ry="2.5"/>
  <rect class="cls-2" x="1.07" y="46.98" width="11.04" height="5.5" rx="2.5" ry="2.5"/>
  <rect class="cls-2" x="1.07" y="28.82" width="11.04" height="5.5" rx="2.5" ry="2.5"/>
  <path class="cls-3" d="M50.37,6.37h4.75c1.1,0,2,.9,2,2v7.6c0,1.1-.9,2-2,2h-4.75V6.37h0Z"/>
  <path class="cls-1" d="M50.37,21.85h4.75c1.1,0,2,.9,2,2v7.6c0,1.1-.9,2-2,2h-4.75v-11.6h0Z"/>
  <path class="cls-4" d="M50.37,37.33h4.75c1.1,0,2,.9,2,2v7.6c0,1.1-.9,2-2,2h-4.75v-11.6h0Z"/>
  <g>
    <path class="cls-6" d="M22.6,20.43l-.21.29.34-.31.03.13-.34.65c.26-.34.55-.73.65-.83l-.29.65.29-.39v.23l-.73,1.27-.36.49c-.03.05-.13.16-.13.16,0-.03.08-.13.08-.23,0-.03-.18.21-.18.26s.05.03.05.05-.03.08-.08.16c-.1.18-.26.21-.26.21,0,.05,0,.08-.03.08,0,.03-.18.26-.13.26-.03,0,.21-.23.23-.23-.55.81-1.12,1.61-1.74,2.37-.75.96-1.35,1.35-1.79,1.43-.08,0-.21-.03-.26-.03-.23,0-.34-.13-.42-.16-.65-.39-.75-.78-.78-1.27v-.44c0-.05,0-.13.03-.18v-.16c0-.18.03-.31.05-.44,0-.1.26-1.04.31-1.22.34-1.07.96-2.86,1.04-3.48l.03-.42c0-.05,0-.08-.03-.08-.44.18-1.85,1.85-3.2,4.39-.31.55-.31.94-.68,1.53,0,.08-.05.16-.08.23-.13.31-.39.34-.68.34-.34-.08-.6-.57-.68-.55-.08,0-.16-.03-.18-.1-.03-.05-.13-.08-.13-.13s.03-.1.05-.18c.7-2.57,1.46-5.51,1.74-6.79.03-.08.08-.23.23-.23.13,0,.44.16.52.21.13.1.42.36.44.52.03.18,0,.23.05.47v.13c0,.36-.1.91-.29,1.59.6-1.01,1.56-2.16,2.26-2.47.23-.16.42-.21.68-.21.65.26,1.3.52,1.43,1.25.08.23.08.49.08.78,0,.65-.44,2.11-.62,2.68-.31,1.01-.88,2.52-.94,3.38,0,.13,0,.16.03.16.47,0,4.32-5.64,4.73-6.21,0,.03-.05.18-.16.42ZM17.66,25.68s.08.13.08.13c0,.05-.08.18-.08.31l.08-.05s.03-.08.03-.08c0-.08,0-.18.03-.29,0-.05.03-.08.03-.1.03,0,.03-.08.03-.13.03-.08.03-.18.1-.26v-.13s-.08.03-.1.1c0,.05,0,.13-.03.13,0,0-.08.08-.08.05,0-.08.08-.29.08-.31s.03-.05.03-.13c0,0,.05,0,.05-.1.05,0,.05-.1.05-.13,0,.03.05-.05.05-.08,0,0,.1-.08.08-.08,0-.05-.05-.05-.08-.05l-.05-.16v.13h-.1s0,.05.03.08c-.03,0-.1.08-.1.1l.1-.03c0,.05-.1.08-.1.16,0,.05,0,.08-.05.1,0,.03.03.1.03.1,0,.05-.08.05-.08.08v.36s.08.08.08.1-.08.1-.08.16ZM17.95,24.98s.03,0,.03-.05l.03-.13c-.05.08-.05.13-.05.18ZM18.1,23.83l-.08-.05s.05.1.1.1c.03,0,.05-.03.08-.05,0-.08.03-.21.03-.21-.03,0-.05.03-.05.05-.03.03-.08.08-.08.16ZM18.31,22.19c-.03.08-.08.16-.08.23.03-.1.18-.34.23-.39-.1.03-.13.1-.16.16ZM18.73,21.8c0,.05-.1.26-.13.31,0,.03.13-.18.13-.18.03,0,.05-.03.05-.13v-.1s-.05.08-.05.1ZM19.97,25.16s-.05.08-.05.13l-.21.21c.05,0,.18-.16.23-.18,0-.05.1-.16.16-.21-.03,0-.05.03-.13.05ZM20.57,24.38s.03-.03.03-.08-.05.08-.1.1l.08-.03c-.1.13-.08.13-.08.13.08,0,.23-.29.26-.34-.08.03-.13.16-.18.21ZM21.04,23.86s.08-.13.16-.21c-.21.21-.36.18-.36.44,0,0,.03-.03.21-.23ZM21.69,22.3c.1-.05.18-.13.18-.21,0-.03-.05-.08-.05-.08-.03,0-.05.23-.13.29ZM22.08,21.75c-.21.18-.29.21-.26.21.05,0,.13-.03.16-.08,0-.05.1-.05.1-.13ZM22.26,22.01l-.1.13.13-.05.08-.23c-.03.05-.1.13-.1.16Z"/>
    <path class="cls-6" d="M26.32,18.87c1.38-.03,2.96-.29,3.9-.42.08,0-.49.78-.55.81-.36.13-.78.21-1.27.29-.05,0-.1.03-.16.03-.57.1-1.07.21-1.59.26.03.18.05.42.05.62,0,1.77-1.56,4.84-3.43,5.54-.18.08-.26.08-.36.08h-.29c-.29,0-.42-.1-.73-.23-.13,0-.34-.18-.36-.29-.16-.21-.26-.47-.26-.81.03-.94.18-1.74.31-2.24,0-.05.03-.08.03-.13,0-.03.13-.34.13-.36.81-2.44,2.26-4.52,3.93-4.65h.29c.08,0,.1,0,.16.08.08,0,.21.05.21.05,0,.05,0,.16-.13.23-.21.1-.44.26-.68.49.34.16.62.36.81.65ZM25.28,19.88h-.21c-.21,0-.42-.05-.57-.16l-.39.91c-.6,1.46-1.2,2.94-1.35,4.26,0,.03.1-.03.13-.03s.05-.05.08-.05c.99-.91,2.21-3.09,2.31-4.81v-.13ZM25.3,23.31c-.05.03-.1.05-.1.08s.05.03.05.1c.03-.03.05-.1.05-.18ZM25.75,22.77l-.08.18c-.03.08-.13.31-.21.36-.03.03.13-.05.13-.05.05-.13.16-.23.21-.44,0-.03,0-.1.03-.13-.03,0-.05.03-.08.08ZM25.64,22.61s.03.05.05.08c-.1.13-.16.23-.18.34.03,0,.08-.03.08-.08.05-.05.08-.16.13-.18l-.03-.31-.05.16ZM26.24,21.7s-.05,0-.05-.05c.03-.08.08-.16.13-.21-.16.05-.23.34-.23.49-.1.05-.16.34-.16.36.03,0,.13-.05.13-.05,0-.03.03-.08.03-.13,0-.03.03-.1.03-.13.1-.05.08-.18.13-.29ZM26.27,20.95c0,.1-.03.18-.03.34.05-.08.08-.16.1-.23l-.08-.1ZM26.27,21.52s.03.05.03.08c.05-.03.05-.1.05-.1-.05,0-.08.03-.08.03ZM26.5,20.63v.29c.05-.1.08-.18.08-.26,0-.05-.03-.08-.03-.13l-.05.1Z"/>
    <path class="cls-6" d="M33.83,15.12c-.57,0-1.14.03-1.72.08-.34,1.07-.75,2.21-1.14,3.17l-.03-.1.7-1.87c-.1.16-1.61,3.69-2.18,6.6-.1.52-.26,1.14-.26,1.66l-.03.55.1-.88c.23-1.64.99-4.21,1.22-4.76.03-.16.1-.44.21-.6l.08-.1v-.23c.05,0,.13-.08.16-.08-.83,2.31-1.59,4.71-1.64,6.89,0,.13.03.23.13.23.03,0,.08,0,.13-.03,1.14-.62,3.56-3.77,4.78-5.36l.29-.36c.08-.08.1-.18.16-.23.08-.05.1-.1.1-.1.13,0,.26.39.26.57v.13c-.03.05-.05.13-.16.16v.31c-.1.21-.13.1-.29.39l-.13.13c-.03.08-.21.26-.29.34-.08.08-.16.16-.21.29-.08.03-.16.05-.23.13.08,0,.08-.05.1-.05v.13l-.08.08c-.08,0-.18.03-.18.1.1,0,.1.03.1.03,0,.05-.08.1-.13.1s-.08.03-.08.05.03.05.03.08c-.05,0-.16.21-.21.26-.08.05-.13.29-.23.29-.03-.03-.03.05-.03.08-.1,0-.13.08-.13.13-.05.08-.13.13-.21.21-.03.08-.13.13-.16.23,0,.08-.13.08-.13.1s-.03.08-.05.08c-.03.08.03.18-.1.18-.03.03-.16.05-.16.13-.03,0-.05.03-.1.1-.03,0-.18.18-.18.23l-.1.13c-.13.13-.21.29-.36.44.13-.08.18-.26.31-.26.03,0,.1-.16.16-.18.08-.08.18-.18.23-.29,0-.05.26-.23.26-.21.08-.08.08-.16.1-.23.05-.03.16-.08.16-.1,0-.05.03-.08.03-.08.05-.08.1-.13.16-.23.03.05.03.08.03.1.05-.18.03-.18.18-.29l.81-1.09s.1-.26.23-.26c0-.03.08-.21.1-.23.08-.03.05-.1.1-.16.05-.08.18-.13.26-.18l-1.33,1.79c-.26.34-1.59,2.03-1.98,2.21-.13.23-.26.31-.44.47,0,.08-.08.08-.08.08-.18.16-.39.26-.57.39-.18.08-.21.16-.42.21-.1.03-.23.13-.42.13-.1,0-.42-.05-.49-.13-.05,0-.29-.05-.31-.08,0,0-.18-.1-.21-.13-.1-.05-.26-.18-.29-.21-.1-.05-.1-.16-.16-.18l-.1-.23s-.03-.08-.03-.1c-.03-.16-.05-.21-.05-.39v-.16c0-.08-.05-.16-.05-.23,0-.03,0-.05.03-.08,0,0-.03-.08-.03-.1,0,0,.03-.13.05-.16v-.13c0-.05,0-.1.03-.16-.05-.05-.08-.08-.08-.1.03-.13.08-.21.08-.29l.03-.34s-.03-.05-.03-.08c0,0,0-.03.03-.1,0-.18.05-.44.13-.6.03-.05.03-.08.1-.13l-.05-.1c0-.13.03-.21.05-.29.05-.08.08-.23.08-.36v-.13c.03-.13.13-.29.16-.42.47-1.98,1.27-4,2.05-5.95-1.33.18-2.55.39-3.43.44h-.49c-.55,0-1.43-.1-1.64-.73-.03-.08-.05-.18-.05-.34,0-.08.03-.16.08-.23,0-.05.13-.08.18-.08,0,0,0,.03.08.05.13.03.36.05.68.05.75,0,1.92-.08,2.68-.16,1.07-.13,1.82-.18,2.44-.23.29-.7.55-1.38.78-2.03l.18-.39c.05-.05.1-.08.16-.08.52,0,.65.23.68.73.03.1.16.23.16.26v.13c-.05.39-.13.83-.26,1.09l-.05.21h1.14c1.22.03,2.13.34,2.37.6-.03.16-.16.1-.16.16,0,.03,0,.13.05.16-.03.03-.31.1-.36.21-.1,0-.26-.03-.81-.05-.29-.03-.55-.03-.86-.03Z"/>
    <path class="cls-6" d="M40.93,20.45l-.08.13c0,.18.03.44.05.42-.03.03-.05.08-.08.13,0,.05-.05.05-.05.13.1-.1.34-.62.47-.62.05,0-.42.75-.47.81l-.62.88c-.78,1.09-3.17,4.52-5.04,4.52-1.4,0-2.03-1.27-2.03-2.65,0-.16.03-.34.03-.49.16-2.11,1.74-5.49,3.85-6.01.52.05,1.77.44,1.77,1.12v.13c-.05,1.74-1.69,2.83-2.96,2.83h-.31s-.08.1-.1.13c-.16.36-.6,1.92-.6,2.94v.29c.03.42.23.83.49.83.68,0,2.24-1.72,2.73-2.31.99-1.17,2.16-2.83,2.89-3.69v.23l.1-.13c.03-.05-.03.08-.03.16,0,0-.08.08-.13.16.05.03.13.08.13.08ZM34.45,24.35v.21s.1-.03.1-.03c0-.05,0-.1-.1-.18ZM34.48,24.14c.05.16.05.18.05.18.03,0,.03-.18.03-.29-.03.05-.08.08-.08.1ZM34.66,24.2c.08-.75.36-1.77.57-2.39-.05.1-.13.29-.16.39l-.13.34s.05-.05.05-.05c0,0-.03.13-.05.16-.03,0-.1.21-.1.29,0,0-.03.08-.05.08s-.05,0-.08.05l.08-.34c.05-.21.29-.91.29-.91-.03,0-.08.08-.08.08-.16.49-.34,1.01-.36,1.59l.08-.42s.05.05.05.13c0,.05-.03.18-.03.18,0,0-.08.52-.08.83ZM35.81,20.48s-.16-.05-.16-.05c-.03,0-.08.08-.1.08l.08.13c0-.05.03-.16.18-.16ZM35.94,20.53l-.16.23c.78-.18,1.72-1.17,1.72-1.9,0-.08-.08-.05-.1-.1-.55.42-.83.83-1.46,1.77ZM35.94,20.24c0-.05-.08-.05-.08-.05v.13c.05-.03.08-.05.08-.08ZM39.81,22.53s-.05.03-.05.05.18-.08.18-.16c-.1,0-.1.03-.1.03,0,.05-.03.08-.03.08Z"/>
    <path class="cls-6" d="M39.5,25.57c0-.16.57-.68.68-.75-.1.16-.47.49-.47.6.1-.13.42-.44.44-.47.08,0,.03-.03.08-.03,0-.03.03-.1.03-.1,0-.03,0-.05.03-.08l.08-.1c.18-.18.94-.78,1.12-.91l-.1-.21c-.55-1.12-1.07-2.24-1.07-3.41,0-1.9,2.16-3.38,3.72-3.38.05,0,.29.16.29.16h.26c.57,0,1.07,1.17,1.07,1.56,0,.47-.34.96-.6,1.2-.03,0-.08-.05-.1-.05s-.13.26-.34.26-.26-.16-.29-.16c-.05,0-.03.1-.05.1-.13-.05-.29-.13-.29-.21,0-.13.36-1.07.36-1.56-.03-.18-.08-.18-.13-.18h-.1c-.99,0-2.18.86-2.18,2.03,0,.86.75,2.29,1.04,2.89,1.33-.81,3.38-1.74,4.19-2.68,0,0,.05,0,.05-.05,0,.47-.88.94-.99.96.26,0,.47-.29.88-.55l-.18.16c-.05,0-.08.08-.08.1l-.1.05c.18-.08.26-.1.29-.1s.05,0,.08.03c-.23.1-.31.31-.6.55.23,0,.65-.31.7-.39-.03.36-1.07.68-1.01.75-.16,0-.42.23-.52.42.36,0,.39-.34.47-.34.29,0,.49-.18.68-.26,0,.13-.6.49-1.07.78l-2.44,1.4c.1.29.16.44.21.91.03.13.03.23.03.36,0,1.79-1.64,3.02-3.04,3.02h-.16c-.7-.05-1.3-.47-1.3-.99,0-.34.03-.55.18-.83.08-.13.29-.36.29-.49ZM40.36,26.9c.88-.05,1.51-.91,1.51-1.79,0-.16,0-.31-.05-.47-.68.47-1.87,1.79-1.87,2.03,0,.05,0,.1.03.16.1.08.26.08.39.08ZM41.29,20.35c-.03.05-.08.08-.08.13,0,.03.05.05.08.08v-.21ZM42.36,22.61c0,.05.03.16.05.26l.13.13-.18-.39ZM42.49,26.33c-.03.05-.05.1-.05.13,0,0,.03.03.05.1v-.23ZM42.85,22.79c-.08-.13-.26-.47-.31-.6.05.16.16.55.23.65l.08-.05ZM42.57,25.31s.08.08.1.08c.03-.03.05-.16.05-.18l-.16.1ZM42.75,25.99c-.05.08-.13.23-.13.34.08-.13.08-.18.08-.21l.05-.13ZM42.96,26.41s.05-.03.08-.1c.05-.05.05-.16.05-.18-.05.1-.16.29-.13.29ZM43.17,23.68c.21.65.23,1.2.18,1.56-.03.23-.08.47-.16.62l-.03.13c.13-.23.26-.68.26-1.14,0-.31-.05-.75-.21-1.2l-.05.03Z"/>
  </g>
</svg>