<?xml version="1.0" encoding="UTF-8"?>
<svg id="Layer_1" data-name="Layer 1" xmlns="http://www.w3.org/2000/svg" viewBox="0 0 62.66 42.45">
  <defs>
    <style>
      .cls-1 {
        fill: #576f7e;
      }

      .cls-1, .cls-2 {
        stroke-width: 2.11px;
      }

      .cls-1, .cls-2, .cls-3 {
        stroke: #4d4d4f;
        stroke-miterlimit: 10;
      }

      .cls-2, .cls-3 {
        fill: none;
      }

      .cls-3 {
        stroke-width: 2.03px;
      }
    </style>
  </defs>
  <path class="cls-3" d="M50.16,8.97c6.87,5.66,11.28,12.26,11.28,12.26,0,0-13.48,20.21-30.11,20.21-5.77,0-11.16-2.43-15.74-5.61l-3.55-2.72C5.43,27.54,1.22,21.23,1.22,21.23,1.22,21.23,14.7,1.01,31.33,1.01c5.77,0,11.16,2.43,15.74,5.61l3.09,2.34Z"/>
  <path class="cls-2" d="M20.96,31.6c-5.73-5.73-5.73-15.02,0-20.75s15.02-5.73,20.75,0"/>
  <path class="cls-1" d="M20.96,31.6c-5.73-5.73-5.73-15.02,0-20.75,5.73-5.73,15.02-5.73,20.75,0"/>
  <path class="cls-1" d="M41.7,10.85c5.73,5.73,5.73,15.02,0,20.75-5.73,5.73-15.02,5.73-20.75,0"/>
</svg>