<?xml version="1.0" encoding="utf-8"?>
<svg x="0pt" y="0pt" width="64pt" height="64pt" viewBox="0 0 64 64" xmlns="http://www.w3.org/2000/svg" xmlns:xlink="http://www.w3.org/1999/xlink">
  <g id="Layer 1">
    <path id="Path" style="fill:#4774ba;fill-opacity:1;fill-rule:nonzero;opacity:1;stroke:#8cc63e;stroke-linecap:butt;stroke-linejoin:miter;stroke-miterlimit:10;stroke-opacity:1;stroke-width:5;" d="M9.56348,54.3 C9.56348,54.3,60,6.56569,60,6.56569"/>
    <path id="Path 10" style="fill:none;opacity:1;stroke:#4d4d4f;stroke-linecap:butt;stroke-linejoin:miter;stroke-miterlimit:10;stroke-opacity:1;stroke-width:4;" d="M5,4 C5,4,5,59,5,59 C5,59,60,59,60,59"/>
    <path id="Path 12" style="fill:#4774ba;fill-opacity:1;fill-rule:nonzero;opacity:1;stroke:#4774ba;stroke-linecap:butt;stroke-linejoin:miter;stroke-miterlimit:10;stroke-opacity:1;stroke-width:1;" d="M20.5,49.6 C20.5,52.1957,18.3957,54.3,15.8,54.3 C13.2043,54.3,11.1,52.1957,11.1,49.6 C11.1,47.0043,13.2043,44.9,15.8,44.9 C18.3957,44.9,20.5,47.0043,20.5,49.6"/>
    <path id="Path 5" style="fill:#4774ba;fill-opacity:1;fill-rule:nonzero;opacity:1;stroke:#4774ba;stroke-linecap:butt;stroke-linejoin:miter;stroke-miterlimit:10;stroke-opacity:1;stroke-width:1;" d="M53.4,24.2 C53.4,26.7957,51.2957,28.9,48.7,28.9 C46.1043,28.9,44,26.7957,44,24.2 C44,21.6043,46.1043,19.5,48.7,19.5 C51.2957,19.5,53.4,21.6043,53.4,24.2"/>
    <path id="Path 6" style="fill:#4774ba;fill-opacity:1;fill-rule:nonzero;opacity:1;stroke:#4774ba;stroke-linecap:butt;stroke-linejoin:miter;stroke-miterlimit:10;stroke-opacity:1;stroke-width:1;" d="M39.8,22.2 C39.8,24.7957,37.6957,26.9,35.1,26.9 C32.5043,26.9,30.4,24.7957,30.4,22.2 C30.4,19.6043,32.5043,17.5,35.1,17.5 C37.6957,17.5,39.8,19.6043,39.8,22.2"/>
    <path id="Path 7" style="fill:#4774ba;fill-opacity:1;fill-rule:nonzero;opacity:1;stroke:#4774ba;stroke-linecap:butt;stroke-linejoin:miter;stroke-miterlimit:10;stroke-opacity:1;stroke-width:1;" d="M30.1,43.6 C30.1,46.1957,27.9957,48.3,25.4,48.3 C22.8043,48.3,20.7,46.1957,20.7,43.6 C20.7,41.0043,22.8043,38.9,25.4,38.9 C27.9957,38.9,30.1,41.0043,30.1,43.6"/>
    <path id="Path 8" style="fill:#4774ba;fill-opacity:1;fill-rule:nonzero;opacity:1;stroke:#4774ba;stroke-linecap:butt;stroke-linejoin:miter;stroke-miterlimit:10;stroke-opacity:1;stroke-width:1;" d="M28.2,32.4 C28.2,34.9957,26.0957,37.1,23.5,37.1 C20.9043,37.1,18.8,34.9957,18.8,32.4 C18.8,29.8043,20.9043,27.7,23.5,27.7 C26.0957,27.7,28.2,29.8043,28.2,32.4"/>
    <path id="Path 9" style="fill:#4774ba;fill-opacity:1;fill-rule:nonzero;opacity:1;stroke:#4774ba;stroke-linecap:butt;stroke-linejoin:miter;stroke-miterlimit:10;stroke-opacity:1;stroke-width:1;" d="M44.4,36.2 C44.4,38.7957,42.2957,40.9,39.7,40.9 C37.1043,40.9,35,38.7957,35,36.2 C35,33.6043,37.1043,31.5,39.7,31.5 C42.2957,31.5,44.4,33.6043,44.4,36.2"/>
    <path id="Path 11" style="fill:#4774ba;fill-opacity:1;fill-rule:nonzero;opacity:1;stroke:#4774ba;stroke-linecap:butt;stroke-linejoin:miter;stroke-miterlimit:10;stroke-opacity:1;stroke-width:1;" d="M56.6,11 C56.6,13.5957,54.4957,15.7,51.9,15.7 C49.3043,15.7,47.2,13.5957,47.2,11 C47.2,8.40426,49.3043,6.3,51.9,6.3 C54.4957,6.3,56.6,8.40426,56.6,11"/>
  </g>
</svg>
