<?xml version="1.0" encoding="UTF-8"?>
<svg id="Layer_1" data-name="Layer 1" xmlns="http://www.w3.org/2000/svg" version="1.1" viewBox="0 0 64 64">
  <defs>
    <style>
      .cls-1 {
        fill: #e6e7e8;
        stroke-width: 0px;
      }
    </style>
  </defs>
  <path class="cls-1" d="M30.6,43.4c-1.6,0-4.9,0-9.9-.2-4,10.4-6.4,17.3-7.3,20.8-5.4-.6-8.1-1.9-8.1-3.8s1.3-4.4,3.9-10.6c2.6-6.2,5.7-14.1,9.5-23.7C22.3,16.2,25.3,7.7,27.4.3c1.2-.2,2.8-.3,4.7-.3s2.8.3,3.7,1c.9.7,1.7,2,2.3,4,4.7,15,8.1,25.3,10.2,30.9,4.6,12.2,8,20.6,10.3,25.3-2.3,1.2-4.3,1.9-5.8,1.9-2.6,0-4.3-.8-5.3-2.5-.7-1.9-1.8-4.8-3.1-8.6-1.3-3.8-2.3-6.7-3.1-8.7-6,.1-9.6.2-10.9.2ZM39.1,36.4c-.9-2.6-1.8-5.2-2.7-8-.9-2.8-1.8-5.8-2.8-8.9s-1.6-5.4-2-6.5c-2.9,9.4-5.6,17.2-8,23.4,3.9.1,6.9.2,8.9.2,3.2,0,5.4,0,6.6,0Z"/>
</svg>