<?xml version="1.0" encoding="UTF-8"?>
<svg id="Layer_1" data-name="Layer 1" xmlns="http://www.w3.org/2000/svg" version="1.1" viewBox="0 0 64 64">
  <defs>
    <style>
      .cls-1 {
        fill: #e6e7e8;
        opacity: .3;
        stroke-width: 0px;
      }

      .cls-2 {
        fill: none;
        stroke: #e6e7e8;
        stroke-linecap: round;
        stroke-linejoin: round;
        stroke-width: 8px;
      }
    </style>
  </defs>
  <polyline class="cls-2" points="44.9 57.9 19.1 32 44.9 6.1"/>
  <path class="cls-1" d="M30,39c2.7,1.5,5.7,2.1,8.8,2.5,2.1.3,4.2.4,6.3-.2,3.4-1,6-4,9.4-4.9,1.7-.4,3.4-.4,5.1-.8s3.3-1.7,3.4-3.4c-5.2-2.2-11.2,1.2-16.8.3-3.1-.5-5.7-2.2-8.4-3.8s-5.7-2.9-8.8-2.4c-2.5.4-5.9,2.9-5.2,5.7s4,5.7,6.2,7Z"/>
  <path class="cls-1" d="M31.2,33c2.3,1.2,4.7,2.6,7.4,2.3,2.8-.3,4.8-2.2,6.4-4.1,2-2.4,4.1-4.3,7.8-5.2-1.5.4-2.3,3.2-2.7,4.2-.8,1.7-1.8,3.3-2.5,5.1-.3.7-.7,1.4-1.4,1.9-.9.6-2.1.7-3.2.8-2.3.2-4.6.4-7,.5-1.4,0-2.7.2-4.1,0-3.2-.5-6.1-2.9-7.5-5.2-2.3-3.8,5.1-1.2,6.8-.3Z"/>
  <path class="cls-1" d="M27.1,32.7c3.3,1.1,6.4,2.6,9.1,4.6,2.2,1.6,4.6,3.6,7.4,3.3,1.5-.2,2.8-1,4-1.8,1-.6,2-1.3,2.6-2.2.6-.9.7-2,1.1-3s1.1-2,2.2-2.1c-3.8-.2-8-.6-10.5-3.4-.9-1-1.5-2.1-2.3-3.1s-2-1.8-3.2-1.8c-1.2,0-2.3.9-3.3,1.5-3.1,1.7-6.7,1.1-9.9,2.4-4.6,1.9.3,4.7,2.9,5.5Z"/>
  <path class="cls-1" d="M23.8,33.2c0,.2.3.3.5.3,1.3.3,2.6.3,3.8,0,1.7-.4,3.5-1.3,5-.5.5.3.9.6,1.2,1,1.5,1.4,3.3,2.4,5.1,3.4,3.1,1.8,6.2,3.6,9.7,4.2.8.1,1.5.2,2.3,0s1.4-.7,1.6-1.5c-.7-.3-1.6,0-2.4-.4-.5-.2-.8-.6-1.1-.9-2.1-2.4-4.2-4.8-6.3-7.2-.9-1-1.7-2-2.9-2.5-1.5-.7-3.2-.6-4.8-1-.8-.2-1.6-.5-2.4-.4-1.4.2-2.3,1.4-3.7,1.7-.8.2-1.7,0-2.5,0-1.1.1-3.7,2.1-3.2,3.5Z"/>
  <path class="cls-1" d="M28.9,27c-.8.4-1.4,1-2.1,1.4-.7.4-1.6.6-2.4.8s-1.6.7-2,1.5-.2,1.8.5,2.2c.5.3,1.1.2,1.7.3.6.1,1.1.5,1.6.9,2.4,2,5.2,3.7,8.4,3.9.4,0,.8,0,1.1-.1.5-.2.8-.6,1.2-1,1.3-1.5,3.1-2.6,5-3.1-.4-.9-1.3-1.3-2.1-1.8-2.2-1.3-3.7-3-5.5-4.7s-3.8-1-5.4-.3Z"/>
  <path class="cls-1" d="M36.2,19.7c1.7-.2,3.4.1,5-.6.6-.3,1.1-.6,1.6-1,1.1-.7,2.3-1.1,3.5-1.4,0,.8-.4,1.6-.9,2.2s-1.2,1.2-1.7,1.8c-.9,1-1.6,2.2-2.4,3.2s-.6.8-.7,1.4.4,1.3.3,1.9-.2.4-.3.6c-1.2,1.5-2.5,3-2.9,4.8-.7,2.7.5,5.5,1.6,8,.8,1.9,1.8,3.8,3.5,4.9.8.5,1.9.8,2.5,1.6-1,0-1.8.7-2.8.9s-1.8-.3-2.8-.7-2.6,0-3.8-.5-2.7-2.2-4-3.2c-2.7-1.9-5.8-3.7-7.6-6.6-.7-1.2-1.2-2.6-1.7-3.9-.3-.7-.5-1.5-.4-2.2.2-1.4,1.6-2.2,2.8-2.9,3.1-2,5.6-4.8,8.5-7,.8-.6,1.7-1.2,2.7-1.3Z"/>
  <path class="cls-1" d="M41.4,27.3c-1.6.9-3.4,1.5-5.2,1.7-2.3.3-4.6,0-6.8.2s-4.7,1.2-5.7,3.2c-.3.5-.4,1.3.1,1.6.3.2.7,0,1,0,1.8,0,3,1.9,4.6,2.7.6.3,1.3.4,1.9.7.7.3,1.3.9,2,1.3,1.1.8,2.3,1.3,3.7,1.5.4,0,.8.1,1.2,0,.3-.1.6-.3.8-.6,1.1-1,2-2.1,2.9-3.3.7-.9,1.4-1.7,1.7-2.8.2-.8.2-1.7.4-2.6.4-1.5,1.6-2.6,2.7-3.6-.6.6-2.2-.4-2.7-.6-1-.4-1.5,0-2.4.5Z"/>
</svg>