<?xml version="1.0" encoding="utf-8"?>
<svg x="0pt" y="0pt" width="64pt" height="64pt" viewBox="0 0 64 64" xmlns="http://www.w3.org/2000/svg" xmlns:xlink="http://www.w3.org/1999/xlink">
  <g id="Layer 1">
    <g id="Smart Rectangle">
      <path style="fill:#e6e6e6;fill-opacity:1;fill-rule:nonzero;opacity:1;stroke:none;" d="M64,60.0042 C64,62.211,62.211,64,60.0042,64 C60.0042,64,3.99582,64,3.99582,64 C1.78898,64,-4.60015e-06,62.211,-3.88108e-06,60.0042 C-3.88108e-06,60.0042,-3.88108e-06,3.99582,-3.88108e-06,3.99582 C-3.54785e-06,1.78899,1.78899,2.99836e-06,3.99582,2.90189e-06 C3.99582,2.90189e-06,60.0042,2.90189e-06,60.0042,2.90189e-06 C62.211,2.54235e-06,64,1.78899,64,3.99582 C64,3.99582,64,60.0042,64,60.0042 z"/>
      <path style="fill:#323232;fill-opacity:1;fill-rule:nonzero;opacity:1;stroke:none;" d="M63,60.0046 C63.0013,61.6573,61.6573,63.0013,60.0046,63 C41.3347,63,22.6653,63,3.99582,63 C2.34274,63.0013,0.998737,61.6573,0.999996,60.0046 C0.999996,40.0901,0.999996,40.0901,0.999996,20.176 C0.999996,12.0859,0.999996,12.0859,0.999996,3.99582 C0.998737,2.34275,2.34274,0.998744,3.99544,1 C8.41753,1,8.41753,1,12.8392,1 C36.4217,1,36.4217,1,60.0042,1 C61.6573,0.998744,63.0013,2.34275,63,3.99544 C63,22.6653,63,41.3347,63,60.0042 z M64,60.0042 C64,41.3347,64,22.6653,64,3.99582 C64.0017,1.79063,62.2094,-0.00167738,60.0038,3.06575e-06 C36.4217,2.92063e-06,36.4217,2.92063e-06,12.8392,2.92063e-06 C8.41753,2.92063e-06,8.41753,2.92063e-06,3.99582,2.92063e-06 C1.79063,-0.0016769,-0.00168346,1.79063,-3.7293e-06,3.9962 C-3.8743e-06,12.0859,-3.8743e-06,12.0859,-3.8743e-06,20.176 C-3.8743e-06,40.0901,-3.8743e-06,40.0901,-3.8743e-06,60.0042 C-0.00168451,62.2094,1.79063,64.0017,3.9962,64 C22.6653,64,41.3347,64,60.0042,64 C62.2094,64.0017,64.0017,62.2094,64,60.0038 z"/>
    </g>
    <g id="Smart Rectangle">
      <path style="fill:#e6e6e6;fill-opacity:1;fill-rule:nonzero;opacity:1;stroke:none;" d="M20.0981,64 C20.0981,64,4.00987,64,4.00987,64 C1.79528,64,-1.42443e-07,62.2047,-4.76837e-07,59.9901 C-4.76837e-07,59.9901,0,4.00987,0,4.00987 C3.34394e-07,1.79528,1.79528,9.68028e-08,4.00987,0 C4.00987,0,20.0981,0,20.0981,0 C20.0981,0,20.0981,64,20.0981,64 z"/>
      <path style="fill:#323232;fill-opacity:1;fill-rule:nonzero;opacity:1;stroke:none;" d="M19.5981,63 C11.804,63,11.804,63,4.00987,63 C2.34904,63.0013,0.99874,61.651,0.999999,59.9905 C1,35.9986,1,35.9986,1,12.0071 C1,8.00846,1,8.00846,1,4.00987 C0.99874,2.34904,2.34904,0.99874,4.00949,1 C11.804,1,11.804,1,19.5981,1 C19.5981,1,19.0981,0.5,19.0981,0.5 C19.0981,21.5,19.0981,42.5,19.0981,63.5 C19.0981,63.5,19.5981,63,19.5981,63 z M19.5981,64 C19.8742,64,20.0981,63.7761,20.0981,63.5 C20.0981,42.5,20.0981,21.5,20.0981,0.5 C20.0981,0.223858,19.8742,0,19.5981,0 C11.804,0,11.804,0,4.00987,0 C1.79692,-0.00167887,-0.00167864,1.79692,1.43825e-07,4.01025 C-3.19311e-08,8.00846,-3.19311e-08,8.00846,-6.3949e-08,12.0071 C-2.57881e-07,35.9986,-2.57881e-07,35.9986,-4.76837e-07,59.9901 C-0.00167925,62.2031,1.79692,64.0017,4.01025,64 C11.804,64,11.804,64,19.5981,64 z"/>
    </g>
  </g>
</svg>
