<?xml version="1.0" encoding="UTF-8"?>
<svg id="Layer_1" data-name="Layer 1" xmlns="http://www.w3.org/2000/svg" version="1.1" viewBox="0 0 64 64">
  <defs>
    <style>
      .cls-1 {
        fill: #9cabd7;
      }

      .cls-1, .cls-2, .cls-3, .cls-4, .cls-5, .cls-6, .cls-7, .cls-8 {
        stroke-miterlimit: 10;
      }

      .cls-1, .cls-3, .cls-5, .cls-6, .cls-7, .cls-8 {
        stroke: #4d4d4f;
      }

      .cls-1, .cls-3, .cls-5, .cls-7, .cls-8 {
        stroke-width: 3.2px;
      }

      .cls-2 {
        stroke: #d8bf7f;
      }

      .cls-2, .cls-4 {
        fill: none;
      }

      .cls-2, .cls-4, .cls-6 {
        stroke-width: 2.1px;
      }

      .cls-9 {
        fill: #a0cf6c;
      }

      .cls-9, .cls-10, .cls-11 {
        stroke-width: 0px;
      }

      .cls-3, .cls-6 {
        fill: #fff;
      }

      .cls-4 {
        stroke: #ffefc4;
      }

      .cls-5 {
        fill: #f8a069;
      }

      .cls-10 {
        fill: #febe47;
      }

      .cls-11 {
        fill: #956728;
      }

      .cls-7 {
        fill: #b4d77b;
      }

      .cls-8 {
        fill: #f8f189;
      }
    </style>
  </defs>
  <rect class="cls-1" x="8.8" y="1.9" width="43.8" height="59.9" rx="3" ry="3"/>
  <path class="cls-3" d="M45.9,18.5c0,3.7-2.8,6.8-6.2,6.8v10h-14.4v-10c-3.4,0-6.2-3-6.2-6.8s2.8-6.8,6.2-6.8,1.8.2,2.6.6c1.1-1.4,2.8-2.2,4.6-2.2s3.5.9,4.6,2.2c.8-.4,1.7-.6,2.6-.6,3.4,0,6.2,3,6.2,6.8Z"/>
  <line class="cls-6" x1="29.7" y1="35.3" x2="29.7" y2="28"/>
  <line class="cls-6" x1="35" y1="35.3" x2="35" y2="28"/>
  <rect class="cls-6" x="3.3" y="11" width="11" height="5.5" rx="2.5" ry="2.5"/>
  <rect class="cls-6" x="3.3" y="47.3" width="11" height="5.5" rx="2.5" ry="2.5"/>
  <rect class="cls-6" x="3.3" y="29.2" width="11" height="5.5" rx="2.5" ry="2.5"/>
  <line class="cls-2" x1="27.3" y1="52.4" x2="50.2" y2="38.8"/>
  <line class="cls-4" x1="32.4" y1="54.7" x2="48" y2="35.3"/>
  <path class="cls-10" d="M22.3,46.7c-.3-.4-.6-.9-.7-1.4s0-1.1.5-1.4c.2-.2.5-.2.8-.4,1-.5,1.5-1.5,2.8-1.2,1.2.2,1.5,2.9,2,3.9s2,3.2,1.4,4.1c-1.4,2.1-6.1-2.5-6.8-3.6Z"/>
  <path class="cls-9" d="M28.7,46.8c0-.1.1-.3,0-.4,0-.2-.2-.3-.3-.4-.5-.6-.3-1.5.1-2.2s1.1-1.1,1.6-1.7c0,0,.1-.1.2-.2,0-.1,0-.2,0-.3-.1-.2-.2-.5-.3-.7.7,0,1.5,0,2.2-.2,0,.3.2.5.5.6s.6,0,.9,0c.6.2.8,1,.9,1.6.4,0,.6.5.8.9,0,.1.1.3.1.4,0,.3-.4.4-.6.6-.4.5.4,1.3.2,2,0,.2-.2.3-.3.4-.7.7-1.6,1.2-2.5,1.6-.4.2-.9.4-1.2.8-.2.2-.3.5-.4.8s-.4.5-.7.5c-.7,0-.9-.9-1.5-1.2-.3-.1-.5,0-.7-.3s0-.4.1-.7c.3-.6.7-1.2,1-1.8Z"/>
  <path class="cls-11" d="M46,45.7c0,7.4-6,13.5-13.5,13.5s-13.5-6-13.5-13.5"/>
  <path class="cls-8" d="M52.6,6.7h4.7c1.1,0,2,.9,2,2v7.6c0,1.1-.9,2-2,2h-4.7V6.7h0Z"/>
  <path class="cls-5" d="M52.6,22.2h4.7c1.1,0,2,.9,2,2v7.6c0,1.1-.9,2-2,2h-4.7v-11.6h0Z"/>
  <path class="cls-7" d="M52.6,37.7h4.7c1.1,0,2,.9,2,2v7.6c0,1.1-.9,2-2,2h-4.7v-11.6h0Z"/>
</svg>