<?xml version="1.0" encoding="UTF-8"?>
<svg id="Layer_1" data-name="Layer 1" xmlns="http://www.w3.org/2000/svg" version="1.1" viewBox="0 0 64 64">
  <defs>
    <style>
      .cls-1 {
        fill: #e6e7e8;
        stroke-width: 0px;
      }

      .cls-2 {
        fill: #a8b078;
        stroke: #7d8e3f;
        stroke-width: 1.1px;
      }

      .cls-2, .cls-3 {
        stroke-miterlimit: 10;
      }

      .cls-3 {
        fill: none;
        stroke: #fff;
        stroke-width: 3.4px;
      }
    </style>
  </defs>
  <path class="cls-1" d="M27.5,40.7c-1.5,0-4.6,0-9.3-.2-3.7,9.8-6,16.3-6.9,19.5-5.1-.6-7.6-1.8-7.6-3.6s1.2-4.1,3.6-10c2.4-5.8,5.4-13.2,8.9-22.3C19.7,15.2,22.5,7.2,24.5.3c1.1-.2,2.6-.3,4.5-.3s2.6.3,3.5.9c.8.6,1.6,1.9,2.2,3.7,4.4,14,7.6,23.7,9.6,29,4.3,11.4,7.5,19.3,9.7,23.7-2.2,1.2-4,1.8-5.5,1.8-2.4,0-4.1-.8-5-2.4-.7-1.8-1.6-4.5-2.9-8-1.2-3.5-2.2-6.2-2.9-8.1-5.6.1-9,.2-10.2.2ZM35.4,34.2c-.9-2.4-1.7-4.9-2.5-7.5-.8-2.6-1.7-5.4-2.6-8.4s-1.5-5-1.9-6.1c-2.7,8.8-5.3,16.2-7.5,22,3.7.1,6.5.2,8.4.2,3,0,5,0,6.2,0Z"/>
  <g>
    <circle class="cls-2" cx="48.4" cy="52.1" r="11.9"/>
    <line class="cls-3" x1="48.4" y1="45.6" x2="48.4" y2="58.6"/>
    <line class="cls-3" x1="41.9" y1="52.1" x2="54.8" y2="52.1"/>
  </g>
</svg>