<?xml version="1.0" encoding="UTF-8"?>
<svg id="Layer_1" data-name="Layer 1" xmlns="http://www.w3.org/2000/svg" xmlns:xlink="http://www.w3.org/1999/xlink" version="1.1" viewBox="0 0 64 64">
  <defs>
    <style>
      .cls-1 {
        clip-path: url(#clippath);
      }

      .cls-2 {
        fill: none;
      }

      .cls-2, .cls-3 {
        stroke-width: 0px;
      }

      .cls-4 {
        stroke: #fff;
        stroke-miterlimit: 10;
        stroke-width: 3px;
      }

      .cls-4, .cls-3 {
        fill: #4d4d4f;
      }
    </style>
    <clipPath id="clippath">
      <rect class="cls-2" x="15.3" y="17.8" width="33.9" height="40.4"/>
    </clipPath>
  </defs>
  <path class="cls-3" d="M13.5,5.3h37c1.1,0,2,.9,2,2v3.1H11.5v-3.1c0-1.1.9-2,2-2Z"/>
  <path class="cls-3" d="M28.5,1.2h7c1.1,0,2,.9,2,2v2.1h-11v-2.1c0-1.1.9-2,2-2Z"/>
  <path class="cls-3" d="M45.5,62.8h-27c-1.7,0-3-1.3-3-2.9L11.5,13.3h41l-4,46.6c0,1.6-1.3,2.9-3,2.9Z"/>
  <g class="cls-1">
    <line class="cls-4" x1="17.8" y1="17.4" x2="21.2" y2="58.6"/>
    <line class="cls-4" x1="46.2" y1="17.4" x2="42.8" y2="58.6"/>
    <line class="cls-4" x1="27.4" y1="17.4" x2="28.3" y2="58.6"/>
    <line class="cls-4" x1="36.6" y1="17.4" x2="35.7" y2="58.6"/>
  </g>
</svg>