<?xml version="1.0" encoding="UTF-8"?>
<svg id="Layer_1" xmlns="http://www.w3.org/2000/svg" version="1.1" viewBox="0 0 64 64">
  <!-- Generator: Adobe Illustrator 29.1.0, SVG Export Plug-In . SVG Version: 2.1.0 Build 142)  -->
  <defs>
    <style>
      .st0 {
        stroke-linecap: round;
        stroke-width: 8px;
      }

      .st0, .st1, .st2, .st3 {
        stroke: #4d4d4f;
        stroke-miterlimit: 10;
      }

      .st0, .st2, .st3 {
        fill: none;
      }

      .st1 {
        fill: #e5f5fd;
        stroke-width: 2px;
      }

      .st4 {
        fill: #1c75bc;
        isolation: isolate;
        opacity: .3;
      }

      .st2 {
        stroke-width: 5px;
      }

      .st3 {
        stroke-width: 11px;
      }
    </style>
  </defs>
  <line class="st0" x1="58.5" y1="58" x2="37" y2="36.6"/>
  <line class="st3" x1="58.5" y1="58" x2="43.1" y2="42.6"/>
  <circle class="st1" cx="24" cy="24.5" r="20.5"/>
  <line class="st2" x1="24" y1="11.8" x2="24" y2="37.5"/>
  <line class="st2" x1="11.2" y1="24.6" x2="36.9" y2="24.6"/>
  <path class="st4" d="M19.4,39.3c-.6.7-.3,1.9.4,2.4s1.7.7,2.6.7c7,.3,13.9-3.6,17.5-9.5.6-1,3.2-6.9,1.3-7.6-2-.7-5.3,5.2-6.3,6.2s-2.7,2.6-4.3,3.6-3.4,2.1-5.3,2.8-5.3.6-5.9,1.2v.2Z"/>
</svg>