<?xml version="1.0" encoding="UTF-8"?>
<svg id="Layer_1" xmlns="http://www.w3.org/2000/svg" xmlns:xlink="http://www.w3.org/1999/xlink" version="1.1" viewBox="0 0 64 64">
  <!-- Generator: Adobe Illustrator 29.1.0, SVG Export Plug-In . SVG Version: 2.1.0 Build 142)  -->
  <defs>
    <style>
      .st0 {
        fill: none;
      }

      .st1 {
        fill: #4d4d4f;
      }

      .st2 {
        fill: #efefef;
      }

      .st3 {
        clip-path: url(#clippath-1);
      }

      .st4 {
        clip-path: url(#clippath);
      }
    </style>
    <clipPath id="clippath">
      <circle class="st0" cx="32" cy="32" r="30"/>
    </clipPath>
    <clipPath id="clippath-1">
      <rect class="st0" x="-3" y="-3" width="70" height="70"/>
    </clipPath>
  </defs>
  <g>
    <g class="st4">
      <g class="st3">
        <image width="147" height="147" transform="translate(-3.4 -3.2) scale(.5)" xlink:href="icon-cmap-circular-64-1.png"/>
      </g>
    </g>
    <path class="st1" d="M32,4c15.4,0,28,12.6,28,28s-12.6,28-28,28S4,47.4,4,32,16.6,4,32,4M32,2C15.4,2,2,15.4,2,32s13.4,30,30,30,30-13.4,30-30S48.6,2,32,2h0Z"/>
  </g>
  <g>
    <path class="st2" d="M32,43c-6.1,0-11-4.9-11-11s4.9-11,11-11,11,4.9,11,11-4.9,11-11,11Z"/>
    <path class="st1" d="M32,22c5.5,0,10,4.5,10,10s-4.5,10-10,10-10-4.5-10-10,4.5-10,10-10M32,20c-6.6,0-12,5.4-12,12s5.4,12,12,12,12-5.4,12-12-5.4-12-12-12h0Z"/>
  </g>
</svg>