<?xml version="1.0" encoding="UTF-8"?>
<svg id="Layer_1" data-name="Layer 1" xmlns="http://www.w3.org/2000/svg" version="1.1" viewBox="0 0 64 64">
  <defs>
    <style>
      .cls-1 {
        fill: none;
      }

      .cls-1, .cls-2 {
        stroke: #1c75bc;
        stroke-miterlimit: 10;
        stroke-width: 2.3px;
      }

      .cls-2 {
        fill: #ffe2aa;
      }

      .cls-3 {
        fill: #4d4d4f;
        stroke-width: 0px;
      }
    </style>
  </defs>
  <path class="cls-3" d="M22.8,37.5c-1.3,0-4.1,0-8.2-.2-3.3,8.7-5.3,14.5-6.1,17.4-4.5-.5-6.8-1.6-6.8-3.2s1.1-3.7,3.2-8.9c2.2-5.2,4.8-11.8,7.9-19.8,3.1-8,5.5-15.1,7.3-21.3,1-.2,2.3-.2,4-.2s2.4.3,3.1.8c.7.5,1.4,1.7,1.9,3.3,3.9,12.5,6.8,21.1,8.5,25.8,3.8,10.2,6.7,17.2,8.6,21.1-1.9,1-3.6,1.6-4.9,1.6-2.1,0-3.6-.7-4.4-2.1-.6-1.6-1.5-4-2.6-7.2-1.1-3.2-1.9-5.6-2.6-7.2-5,.1-8,.2-9.1.2ZM29.9,31.7c-.8-2.1-1.5-4.4-2.3-6.7-.7-2.3-1.5-4.8-2.3-7.5s-1.4-4.5-1.7-5.5c-2.4,7.9-4.7,14.4-6.7,19.6,3.3.1,5.7.2,7.5.2,2.6,0,4.5,0,5.5,0Z"/>
  <g>
    <rect class="cls-2" x="18.1" y="41.7" width="42.6" height="13.7" transform="translate(-14 16) rotate(-19.6)"/>
    <line class="cls-1" x1="27.1" y1="45.6" x2="30.1" y2="54.1"/>
    <line class="cls-1" x1="37.1" y1="42.1" x2="40.1" y2="50.5"/>
    <line class="cls-1" x1="47.1" y1="38.5" x2="50.2" y2="47"/>
    <line class="cls-1" x1="22.1" y1="47.4" x2="23.7" y2="52.1"/>
    <line class="cls-1" x1="32.1" y1="43.8" x2="33.8" y2="48.5"/>
    <line class="cls-1" x1="42.1" y1="40.3" x2="43.8" y2="44.9"/>
    <line class="cls-1" x1="52.2" y1="36.7" x2="53.8" y2="41.4"/>
  </g>
</svg>