<?xml version="1.0" encoding="utf-8"?>
<svg x="0pt" y="0pt" width="64pt" height="64pt" viewBox="0 0 64 64" xmlns="http://www.w3.org/2000/svg" xmlns:xlink="http://www.w3.org/1999/xlink">
  <g id="Layer 1">
    <g id="Smart Rectangle">
      <path style="fill:#e6e6e6;fill-opacity:1;fill-rule:nonzero;opacity:1;stroke:none;" d="M64,60.0042 C64,62.211,62.211,64,60.0042,64 C60.0042,64,3.99582,64,3.99582,64 C1.78898,64,-4.60015e-06,62.211,-3.88108e-06,60.0042 C-3.88108e-06,60.0042,-3.88108e-06,3.99582,-3.88108e-06,3.99582 C-3.54785e-06,1.78899,1.78899,2.99836e-06,3.99582,2.90189e-06 C3.99582,2.90189e-06,60.0042,2.90189e-06,60.0042,2.90189e-06 C62.211,2.54235e-06,64,1.78899,64,3.99582 C64,3.99582,64,60.0042,64,60.0042 z"/>
      <path style="fill:#323232;fill-opacity:1;fill-rule:nonzero;opacity:1;stroke:none;" d="M63,60.0046 C63.0013,61.6573,61.6573,63.0013,60.0046,63 C41.3347,63,22.6653,63,3.99582,63 C2.34274,63.0013,0.998737,61.6573,0.999996,60.0046 C0.999996,40.0901,0.999996,40.0901,0.999996,20.176 C0.999996,12.0859,0.999996,12.0859,0.999996,3.99582 C0.998737,2.34275,2.34274,0.998744,3.99544,1 C8.41753,1,8.41753,1,12.8392,1 C36.4217,1,36.4217,1,60.0042,1 C61.6573,0.998744,63.0013,2.34275,63,3.99544 C63,22.6653,63,41.3347,63,60.0042 z M64,60.0042 C64,41.3347,64,22.6653,64,3.99582 C64.0017,1.79063,62.2094,-0.00167738,60.0038,3.06575e-06 C36.4217,2.92063e-06,36.4217,2.92063e-06,12.8392,2.92063e-06 C8.41753,2.92063e-06,8.41753,2.92063e-06,3.99582,2.92063e-06 C1.79063,-0.0016769,-0.00168346,1.79063,-3.7293e-06,3.9962 C-3.8743e-06,12.0859,-3.8743e-06,12.0859,-3.8743e-06,20.176 C-3.8743e-06,40.0901,-3.8743e-06,40.0901,-3.8743e-06,60.0042 C-0.00168451,62.2094,1.79063,64.0017,3.9962,64 C22.6653,64,41.3347,64,60.0042,64 C62.2094,64.0017,64.0017,62.2094,64,60.0038 z"/>
    </g>
    <g id="Smart Rectangle">
      <path style="fill:#e6e6e6;fill-opacity:1;fill-rule:nonzero;opacity:1;stroke:none;" d="M43.9019,64 C43.9019,64,59.9901,64,59.9901,64 C62.2047,64,64,62.2047,64,59.9901 C64,59.9901,64,4.00987,64,4.00987 C64,1.79528,62.2047,-1.67197e-07,59.9901,0 C59.9901,0,43.9019,0,43.9019,0 C43.9019,0,43.9019,64,43.9019,64 z"/>
      <path style="fill:#323232;fill-opacity:1;fill-rule:nonzero;opacity:1;stroke:none;" d="M44.9019,63.5 C44.9019,42.5,44.9019,21.5,44.9019,0.5 C44.9019,0.5,44.4019,1,44.4019,1 C52.196,1,52.196,1,59.9901,1 C61.651,0.99874,63.0013,2.34904,63,4.00949 C63,22.67,63,41.33,63,59.9901 C63.0013,61.651,61.651,63.0013,59.9905,63 C52.196,63,52.196,63,44.4019,63 C44.4019,63,44.9019,63.5,44.9019,63.5 z M43.9019,63.5 C43.9019,63.7761,44.1258,64,44.4019,64 C52.196,64,52.196,64,59.9901,64 C62.2031,64.0017,64.0017,62.2031,64,59.9897 C64,41.33,64,22.67,64,4.00987 C64.0017,1.79692,62.2031,-0.00167905,59.9897,1.43895e-07 C52.196,0,52.196,0,44.4019,0 C44.1258,0,43.9019,0.223858,43.9019,0.5 C43.9019,21.5,43.9019,42.5,43.9019,63.5 z"/>
    </g>
  </g>
</svg>
