<?xml version="1.0" encoding="UTF-8"?>
<svg id="Layer_1" xmlns="http://www.w3.org/2000/svg" version="1.1" viewBox="0 0 64 64">
  <!-- Generator: Adobe Illustrator 29.1.0, SVG Export Plug-In . SVG Version: 2.1.0 Build 142)  -->
  <defs>
    <style>
      .st0 {
        fill: none;
      }

      .st1 {
        fill: #e6e7e8;
      }
    </style>
  </defs>
  <rect class="st0" y="0" width="64" height="64"/>
  <g>
    <path class="st1" d="M13.6,31.2c.7.4,1.2.9,1.7,1.3.4.5.8,1,1.1,1.5.3.6.5,1.2.6,1.9s.1,1.5.1,2.5v8.5c0,.7,0,1.2.1,1.7,0,.4.2.8.5,1s.6.4,1,.5c.5,0,1.1.1,1.9.1h1.1v6.6h-4.4c-1.4,0-2.5-.1-3.4-.4s-1.7-.8-2.3-1.4c-.6-.7-1.1-1.5-1.3-2.6-.3-1-.4-2.3-.4-3.9v-9.6c0-1.6-.2-2.8-.7-3.5-.5-.7-1.3-1.2-2.4-1.5v-6.2c2.1-.4,3.1-1.9,3.1-4.4v-9.6c0-3,.6-5.1,1.8-6.4,1.2-1.3,3.1-1.9,6-1.9h4.2v6.6h-1c-.7,0-1.4,0-1.8.1-.5,0-.8.2-1.1.5s-.4.6-.5,1c0,.4-.1,1-.1,1.7v8.5c0,1.1,0,2-.1,2.7s-.3,1.3-.5,1.8c-.2.5-.6,1-1.1,1.4s-1,.9-1.7,1.3h0Z"/>
    <path class="st1" d="M51.5,31.2c-.7-.4-1.2-.9-1.7-1.3s-.8-1-1.1-1.5-.4-1.2-.5-1.9-.2-1.5-.2-2.5v-8.5c0-.7,0-1.3-.2-1.7,0-.4-.3-.8-.5-1-.2-.2-.6-.4-1.1-.5s-1-.1-1.8-.1h-1.1v-6.5h4.4c2.6,0,4.5.6,5.7,1.8,1.2,1.2,1.8,3.4,1.8,6.4v9.6c0,1.6.2,2.8.7,3.5.5.7,1.3,1.2,2.4,1.5v6.2c-2.1.5-3.2,1.9-3.2,4.4v9.6c0,3-.6,5.1-1.8,6.4s-3.1,1.9-5.9,1.9h-4.3v-6.6h1c.7,0,1.3,0,1.8,0,.5,0,.8-.2,1.1-.5.2-.2.4-.6.5-1s.1-1,.1-1.7v-8.5c0-1,0-1.9.2-2.6s.3-1.3.6-1.9c.2-.5.6-1,1-1.5s1-.9,1.7-1.3Z"/>
  </g>
</svg>