<?xml version="1.0" encoding="utf-8"?>
<svg x="0pt" y="0pt" width="64pt" height="64pt" viewBox="0 0 64 64" xmlns="http://www.w3.org/2000/svg" xmlns:xlink="http://www.w3.org/1999/xlink">
  <g id="Layer 1">
    <g id="Smart Rectangle">
      <path style="fill:#e6e6e6;fill-opacity:1;fill-rule:nonzero;opacity:1;stroke:none;" d="M64,60.0042 C64,62.211,62.211,64,60.0042,64 C60.0042,64,3.99582,64,3.99582,64 C1.78898,64,-4.60015e-06,62.211,-3.88108e-06,60.0042 C-3.88108e-06,60.0042,-3.88108e-06,3.99582,-3.88108e-06,3.99582 C-3.54785e-06,1.78899,1.78899,2.99836e-06,3.99582,2.90189e-06 C3.99582,2.90189e-06,60.0042,2.90189e-06,60.0042,2.90189e-06 C62.211,2.54235e-06,64,1.78899,64,3.99582 C64,3.99582,64,60.0042,64,60.0042 z"/>
      <path style="fill:#323232;fill-opacity:1;fill-rule:nonzero;opacity:1;stroke:none;" d="M63,60.0046 C63.0013,61.6573,61.6573,63.0013,60.0046,63 C41.3347,63,22.6653,63,3.99582,63 C2.34274,63.0013,0.998737,61.6573,0.999996,60.0046 C0.999996,40.0901,0.999996,40.0901,0.999996,20.176 C0.999996,12.0859,0.999996,12.0859,0.999996,3.99582 C0.998737,2.34275,2.34274,0.998744,3.99544,1 C8.41753,1,8.41753,1,12.8392,1 C36.4217,1,36.4217,1,60.0042,1 C61.6573,0.998744,63.0013,2.34275,63,3.99544 C63,22.6653,63,41.3347,63,60.0042 z M64,60.0042 C64,41.3347,64,22.6653,64,3.99582 C64.0017,1.79063,62.2094,-0.00167738,60.0038,3.06575e-06 C36.4217,2.92063e-06,36.4217,2.92063e-06,12.8392,2.92063e-06 C8.41753,2.92063e-06,8.41753,2.92063e-06,3.99582,2.92063e-06 C1.79063,-0.0016769,-0.00168346,1.79063,-3.7293e-06,3.9962 C-3.8743e-06,12.0859,-3.8743e-06,12.0859,-3.8743e-06,20.176 C-3.8743e-06,40.0901,-3.8743e-06,40.0901,-3.8743e-06,60.0042 C-0.00168451,62.2094,1.79063,64.0017,3.9962,64 C22.6653,64,41.3347,64,60.0042,64 C62.2094,64.0017,64.0017,62.2094,64,60.0038 z"/>
    </g>
    <g id="Smart Rectangle">
      <path style="fill:#e6e6e6;fill-opacity:1;fill-rule:nonzero;opacity:1;stroke:none;" d="M-1.94031e-07,43.9019 C-1.94031e-07,43.9019,1.16607e-07,59.9901,1.16607e-07,59.9901 C1.59367e-07,62.2047,1.79528,64,4.00987,64 C4.00987,64,59.9901,64,59.9901,64 C62.2047,64,64,62.2047,64,59.9901 C64,59.9901,64,43.9019,64,43.9019 C64,43.9019,-1.94031e-07,43.9019,-1.94031e-07,43.9019 z"/>
      <path style="fill:#323232;fill-opacity:1;fill-rule:nonzero;opacity:1;stroke:none;" d="M0.5,44.9019 C21.5,44.9019,42.5,44.9019,63.5,44.9019 C63.5,44.9019,63,44.4019,63,44.4019 C63,52.196,63,52.196,63,59.9901 C63.0013,61.651,61.651,63.0013,59.9905,63 C32,63,19.5599,63,4.00987,63 C2.34904,63.0013,0.998741,61.651,1,59.9905 C1,52.196,1,52.196,1,44.4019 C1,44.4019,0.5,44.9019,0.5,44.9019 z M0.5,43.9019 C0.223857,43.9019,-1.85149e-07,44.1258,-1.78814e-07,44.4019 C1.20274e-16,52.196,1.20274e-16,52.196,1.19209e-07,59.9901 C-0.00167838,62.2031,1.79692,64.0017,4.01025,64 C19.5599,64,32,64,59.9901,64 C62.2031,64.0017,64.0017,62.2031,64,59.9897 C64,52.196,64,52.196,64,44.4019 C64,44.1258,63.7761,43.9019,63.5,43.9019 C42.5,43.9019,21.5,43.9019,0.5,43.9019 z"/>
    </g>
  </g>
</svg>
