<?xml version="1.0" encoding="UTF-8"?>
<svg id="Layer_1" data-name="Layer 1" xmlns="http://www.w3.org/2000/svg" viewBox="0 0 64 64">
  <defs>
    <style>
      .cls-1 {
        fill: none;
      }

      .cls-2 {
        fill: #4d4d4f;
      }
    </style>
  </defs>
  <rect class="cls-1" width="64" height="64"/>
  <g>
    <path class="cls-2" d="M21.39,22.78c-1.14,4.04-1.52,6.19-1.58,7.2-.95-.06-3.16-.19-12.44-.19-2.15,0-3.73,0-5.24.13l-.13-.38c.25-.69.69-1.7,1.07-2.46,5.43-3.16,9.35-6.63,10.55-9.6.57-1.33.76-2.4.76-4.04,0-2.21-.88-4.55-3.79-4.55s-3.85,1.71-3.85,4.17c0,.44.06,1.2.19,1.71.13.38-.06.76-.44,1.01-.32.32-.95.51-1.52.51-1.52,0-2.46-1.01-2.46-2.72,0-1.52,1.07-3.16,2.59-4.36,1.52-1.14,3.79-2.02,6.38-2.02,2.34,0,4.29.63,5.49,1.45,1.77,1.2,2.65,3.09,2.65,5.37,0,2.08-.76,3.73-2.46,5.31-1.45,1.33-4.93,3.85-9.54,6.95,6.38-.13,9.16-.32,9.98-.38.63,0,.95-.25,1.14-.69.25-.51.82-1.89,1.14-2.97l1.52.57Z"/>
    <path class="cls-2" d="M26.13,28.15c0-3.6-.06-5.56-.13-7.64-.06-1.71-1.14-2.02-5.18-2.15v-1.77c1.64,0,5.18.19,8.21.19,2.15,0,6-.19,8.4-.19l-.06,1.77c-3.79.06-4.74.57-4.8,2.21-.19,1.58-.25,4.29-.25,7.14v7.01c1.71.06,5.18.06,8.78.06s6.82,0,9.54-.06v-7.07c0-3.73-.06-5.75-.19-7.45-.06-1.33-1.26-1.71-4.99-1.83v-1.77c2.91.06,6.32.19,8.15.19,2.78,0,7.07-.19,8.4-.19v1.77c-3.85.13-4.93.51-4.99,2.21-.13,1.89-.19,4.23-.19,7.39v15.98c0,4.23.06,7.07.19,9.03.13,1.58,1.01,1.89,4.99,2.08l-.06,1.77c-2.21,0-5.75-.19-8.53-.19-2.59,0-6.06.13-8.08.19l.06-1.77c3.92-.13,4.93-.57,5.05-2.15.06-1.39.19-3.41.19-8.4v-7.58c-2.46-.06-5.94-.06-9.6-.06s-7.01,0-8.72.06v7.58c0,3.92.13,6.5.19,8.4.13,1.7,1.26,1.96,5.18,2.15v1.77c-2.21,0-5.75-.19-9.03-.19-2.65,0-5.87.19-8.02.19v-1.77c4.04-.13,5.12-.51,5.24-2.02.13-1.58.25-3.73.25-8.59v-16.29Z"/>
  </g>
</svg>