<?xml version="1.0" encoding="UTF-8"?>
<svg id="Layer_1" data-name="Layer 1" xmlns="http://www.w3.org/2000/svg" viewBox="0 0 60 58.18">
  <defs>
    <style>
      .cls-1 {
        fill: none;
      }

      .cls-2 {
        fill: #4d4d4f;
      }
    </style>
  </defs>
  <rect class="cls-1" width="58.18" height="58.18"/>
  <g>
    <path class="cls-2" d="M5.51,45.27c-2.4-.06-4.56-.06-5.51.12,0-2.04.06-4.99.06-13.33C.06,25.49.03,20.71,0,18.88c.67.12,4.14.06,5.72,0l-.15.91c-1.03,0-2.28.15-2.65.21-.3.03-.46.18-.49.58-.18,1.07-.27,3.74-.27,11.47s.06,10.68.18,11.72c.03.3.3.46.88.46l2.5.09-.21.94Z"/>
    <path class="cls-2" d="M20.05,36.35c-.79,2.5-2.59,4.11-5.6,4.11-2.19,0-3.68-.64-4.81-1.95-.91-1.1-1.43-2.71-1.43-4.78,0-3.9,2.5-7.12,6.88-7.12,2.77,0,4.75,1.31,4.75,3.29,0,1.09-.76,1.61-1.58,1.61-.27,0-.61-.06-.76-.21-.18-.15-.3-.36-.24-.64.03-.3.12-.64.12-.94,0-1.37-.67-2.22-2.37-2.22-2.49,0-3.74,2.65-3.74,5.87,0,1.55.27,2.92.88,3.9.7,1.19,1.8,1.79,3.2,1.79,2.04,0,3.1-1,3.93-3.13l.79.43Z"/>
    <path class="cls-2" d="M28.3,40.13c-.91,0-2.07-.09-3.5-.09-1.52,0-2.4.09-3.32.09l.03-.85c1.77-.06,2.01-.27,2.04-.82.03-.58.12-1.83.12-3.59v-3.35c0-1.64-.06-2.65-.09-3.1-.03-.43-.33-.49-1.95-.43l.03-.82c1.43-.09,3.41-.21,4.81-.55-.03.73-.09,2.43-.09,4.72v3.53c0,1.92.03,2.92.06,3.56.03.67.36.79,1.89.85l-.03.85ZM26.41,22.38c0,.94-.76,1.58-1.7,1.58-.82,0-1.52-.58-1.52-1.55s.7-1.7,1.67-1.7,1.55.67,1.55,1.67Z"/>
    <path class="cls-2" d="M38.49,27.07l-.12.91-4.11.21c-.03,1.03-.09,2.34-.09,4.69,0,2.74.03,4.29.18,5.14.12.76.61,1.22,1.37,1.22,1.37,0,2.13-1.06,2.5-2.59h.4l.3,1.09c-.76,1.76-2.28,2.71-4.26,2.71-1.37,0-2.28-.43-2.74-1.07-.33-.49-.49-1.03-.52-1.95,0-2.4.09-6.91.12-9.25l-2.1-.21.15-.91h1.98v-3.41c1.13-.43,2.16-1,2.62-1.4l.27.09c-.06.79-.15,3.04-.15,4.72h4.2Z"/>
    <path class="cls-2" d="M51.91,36.53c-.91,2.74-2.86,3.93-5.45,3.93-2.34,0-3.83-.73-4.84-2.07-.82-1.07-1.28-2.8-1.28-4.56,0-3.8,2.16-7.21,6.39-7.21s5.23,3.47,5.2,5.26c0,.61-.18,1.03-.64,1.22-.52.21-2.01.37-3.99.4-1.06.03-2.68.03-3.99,0-.06,1.64.36,3.1.91,3.99.67,1.03,1.67,1.58,3.04,1.58,1.89,0,3.01-.88,3.83-2.95l.79.43ZM43.39,32.55h2.53c1.43,0,2.22-.09,2.71-.18.4-.09.61-.43.61-1.06,0-1.64-.67-3.8-2.68-3.8-2.13,0-3.07,2.59-3.16,5.05Z"/>
    <path class="cls-2" d="M54.46,18.95c2.44.06,4.56.06,5.54-.12-.03,2.01-.09,4.96-.09,13.33,0,6.57.03,11.32.09,13.18-.67-.15-4.14-.12-5.72,0l.15-.94c1.03,0,2.28-.12,2.65-.21.3-.03.46-.18.52-.58.15-1.06.24-3.74.24-11.44s-.06-10.74-.18-11.75c-.03-.3-.33-.46-.88-.46l-2.49-.06.18-.94Z"/>
  </g>
</svg>