<?xml version="1.0" encoding="UTF-8"?>
<svg id="Layer_1" xmlns="http://www.w3.org/2000/svg" xmlns:xlink="http://www.w3.org/1999/xlink" version="1.1" viewBox="0 0 64 64">
  <!-- Generator: Adobe Illustrator 29.1.0, SVG Export Plug-In . SVG Version: 2.1.0 Build 142)  -->
  <defs>
    <style>
      .st0, .st1, .st2 {
        fill: none;
      }

      .st3 {
        fill: url(#linear-gradient1);
      }

      .st3, .st1, .st4, .st2 {
        stroke: #414042;
        stroke-miterlimit: 10;
      }

      .st3, .st4 {
        stroke-width: 2px;
      }

      .st5 {
        fill: #34539a;
      }

      .st1, .st2 {
        stroke-width: 3px;
      }

      .st6 {
        fill: #6d6e71;
      }

      .st7 {
        fill: #414042;
      }

      .st8 {
        clip-path: url(#clippath-1);
      }

      .st4 {
        fill: url(#linear-gradient);
      }

      .st2 {
        stroke-linecap: round;
      }

      .st9 {
        clip-path: url(#clippath);
      }

      .st10 {
        fill: #a7a9ac;
      }
    </style>
    <clipPath id="clippath">
      <circle class="st0" cx="32" cy="32" r="31"/>
    </clipPath>
    <clipPath id="clippath-1">
      <circle class="st0" cx="32" cy="30.4" r="23.3"/>
    </clipPath>
    <linearGradient id="linear-gradient" x1="29.5" y1="22.1" x2="42.7" y2="31.4" gradientUnits="userSpaceOnUse">
      <stop offset="0" stop-color="#fff"/>
      <stop offset="1" stop-color="#3c60ac"/>
    </linearGradient>
    <linearGradient id="linear-gradient1" x1="8" y1="52.3" x2="14.8" y2="57.1" xlink:href="#linear-gradient"/>
  </defs>
  <g>
    <path class="st10" d="M32,5c-14.9,0-27,12.1-27,27s12.1,27,27,27,27-12.1,27-27S46.9,5,32,5ZM32,49.7c-9.8,0-17.7-7.9-17.7-17.7s7.9-17.7,17.7-17.7,17.7,7.9,17.7,17.7-7.9,17.7-17.7,17.7Z"/>
    <g class="st9">
      <path class="st10" d="M14.4,18.5L1.2,14.2l-3.6,8.6,12.3,6.3v5.8s-12.3,6.3-12.3,6.3l3.6,8.6,13.2-4.3,4.1,4.1-4.3,13.2,8.6,3.6,6.3-12.3h5.8s6.3,12.3,6.3,12.3l8.6-3.6-4.3-13.2,4.1-4.1,13.2,4.3,3.6-8.6-12.3-6.3v-5.8s12.3-6.3,12.3-6.3l-3.6-8.6-13.2,4.3-4.1-4.1,4.3-13.2-8.6-3.6-6.3,12.3h-5.8s-6.3-12.3-6.3-12.3L14.2,1.2l4.3,13.2-4.1,4.1ZM36.5,48.8c-9.3,2.5-18.8-3-21.3-12.3s3-18.8,12.3-21.3,18.8,3,21.3,12.3c2.5,9.3-3,18.8-12.3,21.3Z"/>
    </g>
    <g class="st8">
      <path class="st10" d="M40.6,32l-4.3-7.4L32-.2l-4.3,24.8-4.3,7.4L4.1,48.1l23.6-8.7h8.6l23.6,8.7-19.3-16.1ZM32,37.2c-2.9,0-5.2-2.3-5.2-5.2s2.3-5.2,5.2-5.2,5.2,2.3,5.2,5.2-2.3,5.2-5.2,5.2Z"/>
    </g>
    <path class="st6" d="M32,7.9c-13.3,0-24.1,10.8-24.1,24.1s10.8,24.1,24.1,24.1,24.1-10.8,24.1-24.1S45.3,7.9,32,7.9ZM32,52.1c-11.1,0-20.1-9-20.1-20.1s9-20.1,20.1-20.1,20.1,9,20.1,20.1-9,20.1-20.1,20.1Z"/>
    <path class="st1" d="M32,11.9"/>
    <path class="st1" d="M32,24.3"/>
    <path class="st7" d="M32,23.2c-4.8,0-8.8,3.9-8.8,8.8s3.9,8.8,8.8,8.8,8.8-3.9,8.8-8.8-3.9-8.8-8.8-8.8ZM32,39.3c-4,0-7.3-3.3-7.3-7.3s3.3-7.3,7.3-7.3,7.3,3.3,7.3,7.3-3.3,7.3-7.3,7.3Z"/>
  </g>
  <rect class="st5" x="14.6" y="42.2" width="5.7" height="9.7" transform="translate(-28.2 26.1) rotate(-45)"/>
  <path class="st4" d="M21.7,47.3l-4.5-4.5c-.9-.9-.6-2.6.6-3.8L50.5,6.2l5.2,5.2c.9.9-.2,1.8-1.4,3l-28.7,32.3c-1.2,1.2-2.9,1.5-3.8.6Z"/>
  <path class="st2" d="M51.2,6.2c4.8-4.8,9.8,1.1,8.5,4.6,2,2.1,3.1,5.1,1.2,7-3.9,3.9-10.7,8.6-14,12-3.3,3.3-3.9,6.7-3.9,6.7"/>
  <path class="st3" d="M18.4,52c-2.7,2.7-12.8,8-13.4,7.5s4.8-10.7,7.5-13.4l5.9,5.9Z"/>
</svg>