<?xml version="1.0" encoding="UTF-8"?>
<svg id="Layer_1" xmlns="http://www.w3.org/2000/svg" version="1.1" viewBox="0 0 60 58.2">
  <!-- Generator: Adobe Illustrator 29.1.0, SVG Export Plug-In . SVG Version: 2.1.0 Build 142)  -->
  <defs>
    <style>
      .st0 {
        fill: none;
      }

      .st1 {
        fill: #e6e7e8;
      }
    </style>
  </defs>
  <rect class="st0" y="0" width="58.2" height="58.2"/>
  <g>
    <path class="st1" d="M5.5,45.3c-2.4,0-4.6,0-5.5.1,0-2,0-5,0-13.3s0-11.3,0-13.2c.7.1,4.1,0,5.7,0l-.2.9c-1,0-2.3.1-2.7.2-.3,0-.5.2-.5.6-.2,1.1-.3,3.7-.3,11.5s0,10.7.2,11.7c0,.3.3.5.9.5h2.5c0,0-.2,1-.2,1h0Z"/>
    <path class="st1" d="M20,36.3c-.8,2.5-2.6,4.1-5.6,4.1s-3.7-.6-4.8-2c-.9-1.1-1.4-2.7-1.4-4.8,0-3.9,2.5-7.1,6.9-7.1s4.8,1.3,4.8,3.3-.8,1.6-1.6,1.6-.6,0-.8-.2c-.2-.1-.3-.4-.2-.6,0-.3.1-.6.1-.9,0-1.4-.7-2.2-2.4-2.2-2.5,0-3.7,2.6-3.7,5.9s.3,2.9.9,3.9c.7,1.2,1.8,1.8,3.2,1.8,2,0,3.1-1,3.9-3.1l.8.4h0Z"/>
    <path class="st1" d="M28.3,40.1c-.9,0-2.1,0-3.5,0s-2.4,0-3.3,0v-.8c1.8,0,2-.3,2.1-.8,0-.6.1-1.8.1-3.6v-3.4c0-1.6,0-2.6,0-3.1,0-.4-.3-.5-2-.4v-.8c1.5,0,3.4-.2,4.8-.5,0,.7,0,2.4,0,4.7v3.5c0,1.9,0,2.9,0,3.6,0,.7.4.8,1.9.8,0,0,0,.8,0,.8ZM26.4,22.4c0,.9-.8,1.6-1.7,1.6s-1.5-.6-1.5-1.5.7-1.7,1.7-1.7,1.5.7,1.6,1.7Z"/>
    <path class="st1" d="M38.5,27.1v.9c-.1,0-4.2.2-4.2.2,0,1,0,2.3,0,4.7s0,4.3.2,5.1c.1.8.6,1.2,1.4,1.2,1.4,0,2.1-1.1,2.5-2.6h.4l.3,1.1c-.8,1.8-2.3,2.7-4.3,2.7s-2.3-.4-2.7-1.1c-.3-.5-.5-1-.5-2,0-2.4,0-6.9.1-9.2l-2.1-.2v-.9h2.1v-3.4c1.1-.4,2.2-1,2.6-1.4h.3c0,.9-.2,3.1-.2,4.8h4.2Z"/>
    <path class="st1" d="M51.9,36.5c-.9,2.7-2.9,3.9-5.5,3.9s-3.8-.7-4.8-2.1c-.8-1.1-1.3-2.8-1.3-4.6,0-3.8,2.2-7.2,6.4-7.2s5.2,3.5,5.2,5.3c0,.6-.2,1-.6,1.2-.5.2-2,.4-4,.4-1.1,0-2.7,0-4,0,0,1.6.4,3.1.9,4,.7,1,1.7,1.6,3,1.6s3-.9,3.8-3l.8.4h0ZM43.4,32.5h2.5c1.4,0,2.2,0,2.7-.2.4,0,.6-.4.6-1.1,0-1.6-.7-3.8-2.7-3.8s-3.1,2.6-3.2,5.1h0Z"/>
    <path class="st1" d="M54.5,19c2.4,0,4.6,0,5.5-.1,0,2,0,5,0,13.3s0,11.3,0,13.2c-.7-.2-4.1-.1-5.7,0l.2-.9c1,0,2.3-.1,2.7-.2.3,0,.5-.2.5-.6.2-1.1.2-3.7.2-11.4s0-10.7-.2-11.8c0-.3-.3-.5-.9-.5h-2.5c0,0,.2-1,.2-1h0Z"/>
  </g>
</svg>