<?xml version="1.0" encoding="UTF-8"?>
<svg id="Layer_1" xmlns="http://www.w3.org/2000/svg" version="1.1" viewBox="0 0 64 64">
  <!-- Generator: Adobe Illustrator 29.1.0, SVG Export Plug-In . SVG Version: 2.1.0 Build 142)  -->
  <defs>
    <style>
      .st0 {
        fill: #fbb040;
      }

      .st1 {
        fill: #fff;
        stroke: #231f20;
        stroke-miterlimit: 10;
      }

      .st2 {
        fill: #e6e7e8;
      }

      .st3 {
        fill: #4d4d4f;
      }
    </style>
  </defs>
  <path class="st0" d="M4.9,57.6c-.5,1.6-.6,3.6.6,4.8.7.7,1.7,1,2.7.9s1.8-.9,2.2-1.8c.8-1.8-.4-3.9-1.2-5.7-.8-1.8-1.2-3.7-1.6-5.6.3,1.5-2.3,5.9-2.8,7.5Z"/>
  <g>
    <path class="st2" d="M10.5,54.3c-.4,0-.8-.2-1.1-.4l-2.9-2.9c-.3-.3-.5-.7-.4-1.1,0-.4.2-.8.5-1.1,2.7-2.3,3.7-6.7,4.2-9.1.8-3.3,17.1-19.2,22.1-24,.3-.3.7-.4,1-.4s.8.1,1.1.4l9.7,9.7c.6.6.6,1.5,0,2.1-4.8,5-20.7,21.3-24,22.1-2.4.5-6.8,1.6-9.1,4.2-.3.3-.7.5-1.1.5,0,0,0,0,0,0Z"/>
    <path class="st3" d="M33.9,16.7l9.7,9.7s-20.1,20.9-23.3,21.7c-3.2.7-7.4,1.8-9.9,4.7l-2.9-2.9c2.9-2.4,4-6.7,4.7-9.9.7-3.2,21.7-23.3,21.7-23.3M33.9,13.7c-.7,0-1.5.3-2.1.8,0,0-5.3,5.1-10.6,10.5-11.2,11.4-11.6,13.1-11.9,14.2-.5,2.2-1.5,6.3-3.7,8.3-.6.5-1,1.3-1,2.2,0,.8.3,1.6.9,2.2l2.9,2.9c.6.6,1.3.9,2.1.9s0,0,.1,0c.8,0,1.6-.4,2.2-1,2-2.3,6.1-3.2,8.3-3.7,1.1-.3,2.8-.6,14.2-11.9,5.4-5.3,10.5-10.6,10.5-10.6,1.1-1.2,1.1-3,0-4.2l-9.7-9.7c-.6-.6-1.4-.9-2.1-.9h0Z"/>
  </g>
  <path class="st0" d="M37.2,32.9c-6.2,6.2-14.9,14.7-16.9,15.1-3.2.7-7.4,1.8-9.9,4.7l-2.9-2.9c2.9-2.4,4-6.7,4.7-9.9s1.8-2.9,4.2-5.5l20.8-1.5Z"/>
  <path class="st1" d="M52.5,12.2"/>
  <path class="st3" d="M43.5,29.1c5.9,3.3,11.4-2.7,7.3-8.1s-.5-2.4,6.2-9c4.3-4.3,2-8.1.5-9.6l.3.3c-1.5-1.5-5.4-3.7-9.6.5-6.7,6.7-5.3,9-9,6.2-5.4-4.1-11.4,1.4-8.1,7.3l12.5,12.5Z"/>
</svg>