<?xml version="1.0" encoding="UTF-8"?>
<svg id="Layer_1" data-name="Layer 1" xmlns="http://www.w3.org/2000/svg" viewBox="0 0 64 64">
  <defs>
    <style>
      .cls-1 {
        fill: none;
      }

      .cls-2 {
        fill: #4d4d4f;
      }
    </style>
  </defs>
  <rect class="cls-1" width="64" height="64"/>
  <g>
    <path class="cls-2" d="M13.58,31.24c.68.44,1.23.89,1.67,1.34.44.46.79.96,1.07,1.52.27.56.46,1.19.56,1.9s.15,1.54.15,2.49v8.47c0,.68.04,1.23.13,1.67.08.44.25.78.48,1.02s.58.4,1.04.48c.46.08,1.07.13,1.85.13h1.07v6.6h-4.36c-1.35,0-2.5-.14-3.45-.43-.95-.29-1.73-.76-2.33-1.42-.61-.66-1.06-1.51-1.34-2.56-.29-1.05-.43-2.33-.43-3.86v-9.59c0-1.59-.24-2.75-.71-3.47-.47-.73-1.29-1.21-2.43-1.45v-6.24c2.1-.41,3.15-1.86,3.15-4.36v-9.59c0-2.98.58-5.1,1.75-6.37,1.17-1.27,3.15-1.9,5.96-1.9h4.21v6.6h-1.01c-.74,0-1.35.03-1.83.1-.47.07-.84.22-1.09.46-.25.24-.42.58-.51,1.01-.08.44-.13,1.01-.13,1.73v8.47c0,1.08-.05,1.97-.15,2.66-.1.69-.28,1.3-.53,1.83-.25.52-.61,1-1.07,1.42-.46.42-1.02.87-1.7,1.34Z"/>
    <path class="cls-2" d="M51.48,31.24c-.68-.44-1.24-.89-1.7-1.34s-.81-.96-1.07-1.52-.43-1.19-.53-1.9c-.1-.71-.15-1.54-.15-2.49v-8.52c0-.71-.05-1.28-.15-1.73-.1-.44-.28-.78-.53-1.01-.25-.24-.61-.39-1.07-.46-.46-.07-1.04-.1-1.75-.1h-1.07v-6.54h4.36c2.6,0,4.52.62,5.73,1.85,1.22,1.24,1.83,3.37,1.83,6.42v9.59c0,1.59.24,2.75.71,3.47.47.73,1.29,1.21,2.44,1.45v6.24c-2.1.47-3.15,1.93-3.15,4.36v9.59c0,2.97-.58,5.1-1.75,6.37-1.17,1.27-3.14,1.9-5.91,1.9h-4.26v-6.6h1.01c.74,0,1.35-.03,1.83-.1.47-.07.84-.22,1.09-.46.25-.24.42-.58.51-1.02s.13-1.01.13-1.72v-8.52c0-1.01.06-1.88.18-2.59.12-.71.3-1.34.56-1.88.25-.54.6-1.02,1.04-1.45s1-.85,1.67-1.29Z"/>
  </g>
</svg>