<?xml version="1.0" encoding="UTF-8"?>
<svg id="Layer_1" xmlns="http://www.w3.org/2000/svg" version="1.1" viewBox="0 0 64 64">
  <!-- Generator: Adobe Illustrator 29.1.0, SVG Export Plug-In . SVG Version: 2.1.0 Build 142)  -->
  <defs>
    <style>
      .st0 {
        fill: none;
      }

      .st1 {
        fill: #e6e7e8;
      }
    </style>
  </defs>
  <path class="st1" d="M53.6,59.2h-12.4l-.9-3.3c3.1,0,3.9-1.1,3.9-4.2v-18.5h-24.5v18.5c0,3,.9,4.2,3.9,4.2l-.9,3.3h-12.4l-.9-3.3c3.1,0,3.9-1.1,3.9-4.2V12.2c0-3.1-.8-4.2-3.9-4.2l.9-3.3h12.4l.9,3.3c-3,0-3.9,1.1-3.9,4.2v16h24.5v-16c0-3.1-.8-4.2-3.9-4.2l.9-3.3h12.4l.9,3.3c-3,0-3.9,1.1-3.9,4.2v39.6c0,3,.9,4.2,3.9,4.2l-.9,3.3Z"/>
  <rect class="st0" width="64" height="64"/>
</svg>