<?xml version="1.0" encoding="UTF-8"?>
<svg id="Layer_1" data-name="Layer 1" xmlns="http://www.w3.org/2000/svg" version="1.1" viewBox="0 0 64 64">
  <defs>
    <style>
      .cls-1 {
        fill: none;
        stroke: #e6e7e8;
        stroke-miterlimit: 10;
        stroke-width: 3px;
      }

      .cls-2 {
        fill: #e6e7e8;
        stroke-width: 0px;
      }
    </style>
  </defs>
  <rect class="cls-2" x="1" y="38.7" width="8" height="23"/>
  <rect class="cls-2" x="11" y="21.7" width="8" height="40"/>
  <rect class="cls-2" x="21" y="6.4" width="8" height="55.3"/>
  <path class="cls-1" d="M31,8.3c16.1,0,14.9,34.6,32,34.6"/>
  <g>
    <path class="cls-2" d="M31.5,56.1v-4.1c0-1.9,0-3.4-.1-4.7.4,0,.8-.1,1.1-.1.9,0,1.4.3,1.4.8s0,.3,0,.7,0,1,0,1.7c0,.7,0,1.5,0,2.3.9-.7,1.9-1.6,3-2.7s1.7-2,2.1-2.8c.4.1.7.3.9.4.2.1.3.4.3.7s-.1.5-.3.8c-.2.3-.6.7-1.1,1.3-.5.5-1,.9-1.3,1.3-.4.3-1,.9-1.8,1.6.2.3.4.8.8,1.3.3.6.6,1,.7,1.3.2.3.4.7.7,1.1.3.4.5.8.7,1,.2.2.4.5.6.7s.5.4.7.5c.2.1.4.2.6.2s.4,0,.5,0c.1.2.2.5.2.7,0,.3-.1.6-.4.7-.3.2-.7.3-1.1.3s-1.2-.3-1.8-.8c-.6-.5-1.1-1.1-1.5-1.8s-1.1-1.8-2-3.5c0,0,0,0,0-.1,0,0,0,0,0-.1,0,0,0,0,0-.1l-.2.2v2c0,1.8.1,3.1.4,4-.4.1-.8.2-1.3.2s-.8,0-1-.3c-.2-.2-.3-.5-.3-.9s0-.8,0-1.6c0-.9,0-1.5,0-2Z"/>
    <path class="cls-2" d="M42.1,59.8c.2-1.2.3-3.5.3-6.8,0-2.4,0-4.2-.3-5.5.9-.2,1.9-.2,3.3-.2s2.1.1,3,.3c.9.2,1.7.6,2.4,1.1.7.5,1.3,1.2,1.7,2.1s.6,2,.6,3.3c0,2-.6,3.7-1.7,5-1.1,1.3-2.7,2-4.8,2s-3.4-.4-4.5-1.3ZM44.4,48.8c0,.9,0,1.9,0,3.1,0,2.8,0,5.1-.3,6.8.7.5,1.5.7,2.4.7s1.4-.2,2-.5c.6-.3,1-.7,1.3-1.2s.5-1,.6-1.6.2-1.1.2-1.7c0-1.9-.4-3.3-1.3-4.3-.9-1-2.2-1.4-3.8-1.4s-.6,0-1.2,0Z"/>
    <path class="cls-2" d="M57.4,49c0,.5,0,1.8,0,3.8h1.5c1.1,0,1.9,0,2.3,0,0,.1,0,.3,0,.7s0,.6-.2.8-.4.2-.7.2c-.3,0-.8,0-1.4,0h-1.7c0,2.7,0,4.3.1,4.9.6,0,1,0,1.4,0,2.2,0,3.6-.1,4.2-.4.1.3.2.7.2,1.1s0,.5-.2.7c-.3.2-1.4.3-3.5.3s-3,0-3.4,0c-.4,0-.7-.1-.8-.3-.1-.2-.2-.5-.2-.9s0-.8,0-1.7c0-.9,0-1.5,0-2v-3.9c0-1.9,0-3.4-.3-4.6,1.5-.1,3-.2,4.5-.2s3.1.1,3.4.3c.1.1.2.3.2.7s0,.8-.2,1.1c-.7-.3-1.9-.4-3.5-.4s-1.3,0-2.1,0Z"/>
  </g>
</svg>