<?xml version="1.0" encoding="UTF-8"?>
<svg id="Layer_1" data-name="Layer 1" xmlns="http://www.w3.org/2000/svg" xmlns:xlink="http://www.w3.org/1999/xlink" version="1.1" viewBox="0 0 64 64">
  <defs>
    <style>
      .cls-1 {
        fill: #808285;
      }

      .cls-1, .cls-2, .cls-3 {
        stroke-width: 0px;
      }

      .cls-4 {
        clip-path: url(#clippath);
      }

      .cls-2, .cls-5 {
        fill: none;
      }

      .cls-6 {
        clip-path: url(#clippath-1);
      }

      .cls-3 {
        fill: #414042;
      }

      .cls-5 {
        stroke: #414042;
        stroke-miterlimit: 10;
        stroke-width: 3px;
      }
    </style>
    <clipPath id="clippath">
      <circle class="cls-2" cx="32" cy="32" r="31"/>
    </clipPath>
    <clipPath id="clippath-1">
      <circle class="cls-2" cx="32" cy="30.4" r="23.3"/>
    </clipPath>
  </defs>
  <path class="cls-1" d="M32,5c-14.9,0-27,12.1-27,27s12.1,27,27,27,27-12.1,27-27S46.9,5,32,5ZM32,49.7c-9.8,0-17.7-7.9-17.7-17.7s7.9-17.7,17.7-17.7,17.7,7.9,17.7,17.7-7.9,17.7-17.7,17.7Z"/>
  <g class="cls-4">
    <path class="cls-1" d="M14.4,18.5L1.2,14.2l-3.6,8.6,12.3,6.3v5.8s-12.3,6.3-12.3,6.3l3.6,8.6,13.2-4.3,4.1,4.1-4.3,13.2,8.6,3.6,6.3-12.3h5.8s6.3,12.3,6.3,12.3l8.6-3.6-4.3-13.2,4.1-4.1,13.2,4.3,3.6-8.6-12.3-6.3v-5.8s12.3-6.3,12.3-6.3l-3.6-8.6-13.2,4.3-4.1-4.1,4.3-13.2-8.6-3.6-6.3,12.3h-5.8s-6.3-12.3-6.3-12.3L14.2,1.2l4.3,13.2-4.1,4.1ZM36.5,48.8c-9.3,2.5-18.8-3-21.3-12.3s3-18.8,12.3-21.3,18.8,3,21.3,12.3c2.5,9.3-3,18.8-12.3,21.3Z"/>
  </g>
  <g class="cls-6">
    <path class="cls-1" d="M40.6,32l-4.3-7.4L32-.2l-4.3,24.8-4.3,7.4L4.1,48.1l23.6-8.7h8.6l23.6,8.7-19.3-16.1ZM32,37.2c-2.9,0-5.2-2.3-5.2-5.2s2.3-5.2,5.2-5.2,5.2,2.3,5.2,5.2-2.3,5.2-5.2,5.2Z"/>
  </g>
  <path class="cls-3" d="M32,7.9c-13.3,0-24.1,10.8-24.1,24.1s10.8,24.1,24.1,24.1,24.1-10.8,24.1-24.1S45.3,7.9,32,7.9ZM32,52.1c-11.1,0-20.1-9-20.1-20.1s9-20.1,20.1-20.1,20.1,9,20.1,20.1-9,20.1-20.1,20.1Z"/>
  <path class="cls-5" d="M32,11.9"/>
  <path class="cls-5" d="M32,24.3"/>
  <path class="cls-3" d="M32,23.2c-4.8,0-8.8,3.9-8.8,8.8s3.9,8.8,8.8,8.8,8.8-3.9,8.8-8.8-3.9-8.8-8.8-8.8ZM32,39.3c-4,0-7.3-3.3-7.3-7.3s3.3-7.3,7.3-7.3,7.3,3.3,7.3,7.3-3.3,7.3-7.3,7.3Z"/>
</svg>