<?xml version="1.0" encoding="UTF-8"?>
<svg id="Layer_1" data-name="Layer 1" xmlns="http://www.w3.org/2000/svg" version="1.1" viewBox="0 0 64 64">
  <defs>
    <style>
      .cls-1 {
        fill: #7d8e3f;
      }

      .cls-1, .cls-2, .cls-3 {
        stroke-width: 0px;
      }

      .cls-2 {
        fill: #ed1c24;
      }

      .cls-3 {
        fill: #a8b078;
      }
    </style>
  </defs>
  <g>
    <path class="cls-2" d="M32,45.4c9.5,0,20.2,3.5,20.2,8.5s-10.6,8.5-20.2,8.5-20.2-3.5-20.2-8.5,10.6-8.5,20.2-8.5M32,43.9c-12,0-21.7,4.5-21.7,10s9.7,10,21.7,10,21.7-4.5,21.7-10-9.7-10-21.7-10h0Z"/>
    <path class="cls-2" d="M32,49.3c9.5,0,14.4,3.1,14.4,4.7s-4.9,4.7-14.4,4.7-14.4-3.1-14.4-4.7,4.9-4.7,14.4-4.7M32,47.8c-8.8,0-15.9,2.8-15.9,6.2s7.1,6.2,15.9,6.2,15.9-2.8,15.9-6.2-7.1-6.2-15.9-6.2h0Z"/>
    <ellipse class="cls-2" cx="32" cy="54" rx="8.7" ry="2.4"/>
  </g>
  <g>
    <path class="cls-3" d="M32,45.5c-2.3-6.8-6.9-12-10.5-12h-4.3V5c0-3,.5-3.5,3.5-3.5h22.8c3,0,3.5.5,3.5,3.5v28.5h-4.3c-3.8,0-8.4,5.1-10.6,12Z"/>
    <path class="cls-1" d="M43.4,3c1.1,0,1.6.1,1.8.2,0,.2.2.6.2,1.8v27h-2.8c-3.1,0-6.5,2.6-9.2,6.8-.5.8-1,1.7-1.4,2.6-.5-.9-.9-1.7-1.3-2.3-1.3-2.1-4.9-7.1-9.2-7.1h-2.8s0-27,0-27c0-1.1.1-1.6.2-1.8.2,0,.6-.2,1.8-.2h22.8M43.4,0h-22.8C16.8,0,15.7,1.1,15.7,5v30h5.8c3.8,0,10.5,8.9,10.5,19h.2c0-10.8,6.6-19,10.5-19h5.8V5C48.3,1.1,47.2,0,43.4,0h0Z"/>
  </g>
</svg>