<?xml version="1.0" encoding="UTF-8"?>
<svg id="Layer_1" data-name="Layer 1" xmlns="http://www.w3.org/2000/svg" version="1.1" viewBox="0 0 64 64">
  <defs>
    <style>
      .cls-1 {
        fill: #7d8e3f;
      }

      .cls-1, .cls-2 {
        stroke-width: 0px;
      }

      .cls-2 {
        fill: #a8b078;
      }
    </style>
  </defs>
  <path class="cls-2" d="M31.9,54.6c-2.6-7.8-7.8-13.9-12-13.9h-5V5.7c0-3.5.6-4.1,4.1-4.1h26c3.5,0,4.1.6,4.1,4.1v35h-5c-4.4,0-9.6,5.9-12.1,13.9Z"/>
  <path class="cls-1" d="M45,3.3c1.5,0,2,.2,2.2.3,0,.1.3.7.3,2.2v33.4h-3.3c-3.4,0-7.3,2.9-10.4,7.7-.7,1.1-1.3,2.2-1.8,3.3-.6-1.2-1.1-2.2-1.6-3-1.5-2.4-5.5-8.1-10.4-8.1h-3.3s0-33.4,0-33.4c0-1.5.2-2,.3-2.2.1,0,.7-.3,2.2-.3h26M45,0h-26c-4.4,0-5.7,1.3-5.7,5.7v36.6h6.6c4.4,0,12,10.1,12,21.7h.3c0-12.4,7.6-21.7,12-21.7h6.6V5.7c0-4.4-1.3-5.7-5.7-5.7h0Z"/>
</svg>