<?xml version="1.0" encoding="UTF-8"?>
<svg id="MinEx_CRC_Logo_-_Reverse" xmlns="http://www.w3.org/2000/svg" xmlns:xlink="http://www.w3.org/1999/xlink" version="1.1" viewBox="0 0 150.4 37.9">
  <!-- Generator: Adobe Illustrator 29.1.0, SVG Export Plug-In . SVG Version: 2.1.0 Build 142)  -->
  <defs>
    <style>
      .st0 {
        fill: none;
      }

      .st1 {
        fill: #231f20;
      }

      .st2 {
        fill: #5d0d0d;
      }

      .st3 {
        fill: #951b1e;
      }

      .st4 {
        fill: #f47424;
      }

      .st5 {
        fill: #ffd600;
      }

      .st6 {
        fill: #dc2327;
      }

      .st7 {
        fill: #faa41f;
      }

      .st8 {
        clip-path: url(#clippath);
      }
    </style>
    <clipPath id="clippath">
      <rect class="st0" y="0" width="150.4" height="37.9"/>
    </clipPath>
  </defs>
  <g class="st8">
    <g id="Group_1816">
      <path id="Path_471" class="st1" d="M63.7,11.8h-3.7l-5.4,7.6-5.4-7.6h-3.7v16.4h4.9v-7.4l3,4.6h0c0,0,2.6,0,2.6,0h0s3-4.6,3-4.6v7.3h4.9V11.8ZM68.6,14.9c1.4,0,2.5-1.2,2.5-2.6s-1.2-2.5-2.6-2.5c-1.4,0-2.5,1.2-2.5,2.6,0,1.4,1.2,2.6,2.6,2.6,0,0,0,0,0,0M70.9,16.3h-4.7v11.9h4.7v-11.9ZM81,15.9c-1.1,0-2.2.4-3.1,1.1v-.7h-4.7v11.9h4.7v-7.3c.4-.5,1-.8,1.6-.8.9,0,1.7.5,1.7,2v6.1h4.7v-7.1c0-3.3-2-5.1-4.9-5.1M93.1,15.8h7.9v-4.1h-12.7v16.4h12.7v-4.1h-7.9v-2.1h6.7v-3.9h-6.8v-2.2ZM111.8,22.3h0s4-6,4-6h-5.1l-1.9,2.8-1.8-2.8h-5.1l3.9,6-3.9,5.9h4.8l2.1-3.1,2.1,3.1h4.8l-3.9-5.8Z"/>
      <path id="Path_472" class="st1" d="M128.8,28.2c.3,0,.4-.1.4-.4v-1c0-.2-.1-.4-.3-.4,0,0,0,0-.1,0h-3.8c-.3,0-.6-.1-.8-.4l-.7-.7c-.3-.2-.4-.6-.4-.9v-4.4c0-.3,0-.7.4-.9l.7-.7c.2-.2.5-.4.8-.4h3.8c.2,0,.4-.1.4-.3,0,0,0,0,0-.1v-1c0-.3-.1-.4-.4-.4h-4.2c-.7,0-1.3.2-1.8.7l-1,1c-.5.4-.7,1.1-.7,1.7v4.8c0,.7.2,1.3.7,1.7l1,1c.4.5,1.1.8,1.8.7h4.2ZM133.5,22.2c-.1,0-.2,0-.2-.2v-3.8c0-.1,0-.2.2-.2h3.5c.3,0,.6.1.8.3l.4.4c.2.2.3.5.3.8v.7c0,.3,0,.6-.3.8l-.8.8c-.2.2-.5.4-.8.3h-3.1ZM132.9,28.2c.3,0,.4-.1.4-.4v-3.6c0-.1,0-.2.2-.2h2.9c.3,0,.6.1.6.4l1.7,3.5c0,.2.3.3.5.3h1.4c.3,0,.4-.2.3-.4l-2-4.2c0-.2-.1-.3,0-.4l1-1c.5-.4.7-1,.7-1.6v-1.3c0-.6-.2-1.2-.7-1.6l-.7-.7c-.4-.5-1.1-.8-1.8-.7h-5.7c-.3,0-.4.1-.4.4v11c0,.3.1.4.4.4h1.2ZM150,28.2c.3,0,.4-.1.4-.4v-1c0-.2,0-.4-.3-.4,0,0,0,0-.1,0h-3.8c-.3,0-.6-.1-.8-.4l-.7-.7c-.3-.2-.4-.6-.4-.9v-4.4c0-.3,0-.7.4-.9l.7-.7c.2-.2.5-.4.8-.4h3.8c.2,0,.4-.1.4-.3,0,0,0,0,0-.1v-1c0-.3-.1-.4-.4-.4h-4.1c-.7,0-1.3.2-1.8.7l-1,1c-.5.4-.7,1.1-.7,1.7v4.8c0,.7.2,1.3.7,1.7l1,1c.4.5,1.1.8,1.8.7h4.1Z"/>
      <path id="Path_473" class="st5" d="M.1,20.9C-1.4,14.7,14.4,1.1,21.9,0c8.7-1.2,6.4,15.6,10.1,18.2,10,7.2,9.8,13-3,18.7C20.9,40.5,3.5,34.3.1,20.9"/>
      <path id="Path_474" class="st7" d="M3.2,23.4C1.9,18.1,15.6,6.5,22,5.6c7.5-1.1,5.6,13.2,8.7,15.5,8.4,6.3,8.1,11.3-2.6,16-6.9,3-21.9-2.2-24.8-13.7"/>
      <path id="Path_475" class="st4" d="M6.4,25.9c-1.1-4.4,10.3-14,15.7-14.8,6.3-.9,4.8,10.8,7.3,12.9,6.7,5.4,6.4,9.5-2.2,13.2-5.8,2.5-18.3-1.9-20.8-11.4"/>
      <path id="Path_476" class="st6" d="M9.5,28.3c-.9-3.5,8.3-11.1,12.6-11.7,5.1-.7,3.9,8.4,5.9,10.2,5,4.5,4.8,7.7-1.8,10.5-4.6,2-14.8-1.5-16.7-9"/>
      <path id="Path_477" class="st3" d="M12.7,30.8c-.7-2.6,6.3-8.2,9.6-8.7,3.8-.5,3.1,6,4.5,7.6,3.4,3.6,3.1,5.9-1.4,7.8-3.5,1.5-11.2-1.1-12.7-6.7"/>
      <path id="Path_478" class="st2" d="M15.8,33.3c-.5-1.7,4.3-5.4,6.6-5.7,2.6-.3,2.3,3.6,3.1,4.9,1.8,2.7,1.4,4.1-1,5.1s-7.7-.7-8.7-4.3"/>
    </g>
  </g>
</svg>