<?xml version="1.0" encoding="UTF-8"?>
<svg id="Layer_1" data-name="Layer 1" xmlns="http://www.w3.org/2000/svg" version="1.1" viewBox="0 0 64 64">
  <defs>
    <style>
      .cls-1 {
        fill: #759ad1;
      }

      .cls-1, .cls-2, .cls-3 {
        stroke-width: 0px;
      }

      .cls-2 {
        fill: #fff;
      }

      .cls-3 {
        fill: #506a90;
      }
    </style>
  </defs>
  <g>
    <path class="cls-1" d="M32,62c-16.5,0-30-13.5-30-30S15.5,2,32,2s30,13.5,30,30-13.5,30-30,30Z"/>
    <path class="cls-3" d="M32,4c15.4,0,28,12.6,28,28s-12.6,28-28,28S4,47.4,4,32,16.6,4,32,4M32,0C14.3,0,0,14.3,0,32s14.3,32,32,32,32-14.3,32-32S49.7,0,32,0h0Z"/>
  </g>
  <path class="cls-2" d="M34.8,36.4c-1.3.7-2.5,1-3.6,1s-2.5-.3-3.1-.9c-.7-.6-1-1.3-1-2.1,0-1.2.3-2.4,1-3.5.7-1.2,1.4-2.2,2.3-3,.8-.8,1.6-1.8,2.3-2.9.7-1.1,1-2.2,1-3.3s-.2-1.4-.7-1.8c-.5-.4-1.1-.6-2-.6s-1.6.3-2.3,1c-.7.7-1.2,1.5-1.4,2.6-3-.4-4.6-1.4-4.6-3.2s.8-2.5,2.5-3.3c1.7-.8,3.7-1.2,6-1.2s1.7,0,2.5.1c.8,0,1.7.3,2.6.6.9.3,1.7.7,2.4,1.1s1.2,1.1,1.7,1.8.7,1.7.7,2.7-.2,2.5-.7,3.6c-.5,1.1-1,1.9-1.7,2.6-.7.7-1.3,1.3-2,1.9-.7.6-1.2,1.3-1.7,2.1-.5.8-.7,1.6-.7,2.5s.1,1.4.3,2.2ZM31.3,48.9c-1.2,0-2.2-.4-3.1-1.2-.8-.8-1.2-1.8-1.2-3.1s.4-2.2,1.3-3c.9-.8,1.9-1.2,3.1-1.2s2.2.4,3,1.2c.8.8,1.3,1.8,1.3,3s-.4,2.2-1.3,3c-.9.8-1.9,1.2-3,1.2Z"/>
</svg>