<?xml version="1.0" encoding="UTF-8"?>
<svg id="Layer_1" xmlns="http://www.w3.org/2000/svg" version="1.1" viewBox="0 0 64 64">
  <!-- Generator: Adobe Illustrator 29.1.0, SVG Export Plug-In . SVG Version: 2.1.0 Build 142)  -->
  <defs>
    <style>
      .st0 {
        fill: #4d4d4f;
      }

      .st0, .st1, .st2, .st3 {
        stroke-miterlimit: 10;
        stroke-width: 3px;
      }

      .st0, .st2, .st3 {
        stroke: #e6e7e8;
      }

      .st1 {
        stroke: #a6505c;
      }

      .st1, .st2 {
        fill: none;
      }

      .st3 {
        fill: #d8adab;
      }
    </style>
  </defs>
  <polyline class="st2" points="9.7 54.4 18.7 22.6 50.8 8.9"/>
  <circle class="st0" cx="9.7" cy="54.4" r="6.3"/>
  <circle class="st0" cx="50.8" cy="8.9" r="6.3"/>
  <circle class="st3" cx="19" cy="22.6" r="6.3"/>
  <path class="st3" d="M51.9,51.5c4.7-4.7-2.4-10.1-8.9-14.3l3.5-3.5s10.2,6.9,12.5,11.2-1.7,9-3.2,10.4c-1.4,1.4-6.1,5.5-10.4,3.2s-11.2-12.5-11.2-12.5l3.5-3.5c4.1,6.5,9.6,13.6,14.3,8.9h0Z"/>
  <polyline class="st1" points="27.1 27.7 30.7 33.8 32.7 31 36.9 37.7"/>
</svg>