<?xml version="1.0" encoding="UTF-8"?>
<svg id="Layer_1" data-name="Layer 1" xmlns="http://www.w3.org/2000/svg" version="1.1" viewBox="0 0 64 64">
  <defs>
    <style>
      .cls-1 {
        fill: #8b5e3c;
      }

      .cls-1, .cls-2 {
        stroke: #e6e7e8;
        stroke-miterlimit: 10;
        stroke-width: 3px;
      }

      .cls-3 {
        fill: #6d6e71;
      }

      .cls-3, .cls-4 {
        stroke-width: 0px;
      }

      .cls-4 {
        fill: #e6e7e8;
      }

      .cls-2 {
        fill: #b6ccea;
      }
    </style>
  </defs>
  <g>
    <polygon class="cls-2" points="62.1 24.8 32 7.4 1.9 24.8 10.9 19.8 10.9 56.6 53.1 56.6 53.1 19.8 62.1 24.8"/>
    <polygon class="cls-4" points="49.1 17.3 42.6 13.6 42.6 7.4 49.1 7.4 49.1 17.3"/>
  </g>
  <rect class="cls-1" x="26.4" y="34.8" width="11.1" height="21.8"/>
  <g>
    <path class="cls-3" d="M32,30.3c-3.5,0-6.4-2.9-6.4-6.4s2.9-6.4,6.4-6.4,6.4,2.9,6.4,6.4-2.9,6.4-6.4,6.4Z"/>
    <path class="cls-4" d="M32,18.9c2.7,0,4.9,2.2,4.9,4.9s-2.2,4.9-4.9,4.9-4.9-2.2-4.9-4.9,2.2-4.9,4.9-4.9M32,15.9c-4.4,0-7.9,3.6-7.9,7.9s3.6,7.9,7.9,7.9,7.9-3.6,7.9-7.9-3.6-7.9-7.9-7.9h0Z"/>
  </g>
</svg>