<?xml version="1.0" encoding="UTF-8"?>
<svg id="Layer_1" data-name="Layer 1" xmlns="http://www.w3.org/2000/svg" version="1.1" viewBox="0 0 64 64">
  <defs>
    <style>
      .cls-1 {
        stroke-width: 2px;
      }

      .cls-1, .cls-2 {
        fill: none;
      }

      .cls-1, .cls-2, .cls-3, .cls-4 {
        stroke: #4d4d4f;
        stroke-miterlimit: 10;
      }

      .cls-2, .cls-3 {
        stroke-width: 2.1px;
      }

      .cls-3 {
        fill: #576f7e;
      }

      .cls-4 {
        fill: #bcbec0;
        stroke-width: 3.2px;
      }
    </style>
  </defs>
  <path class="cls-1" d="M12.7,43.9c-6.6-5.6-10.8-11.9-10.8-11.9,0,0,13.5-20.2,30.1-20.2s11.2,2.4,15.7,5.6"/>
  <path class="cls-1" d="M50.8,19.7c6.9,5.7,11.3,12.3,11.3,12.3,0,0-13.5,20.2-30.1,20.2s-11.2-2.4-15.7-5.6"/>
  <path class="cls-2" d="M21.6,42.4c-5.7-5.7-5.7-15,0-20.7s15-5.7,20.7,0"/>
  <path class="cls-3" d="M42.4,21.6c5.7,5.7,5.7,15,0,20.7-5.7,5.7-15,5.7-20.7,0"/>
  <line class="cls-4" x1="8.4" y1="55.6" x2="55.6" y2="8.4"/>
</svg>