<?xml version="1.0" encoding="UTF-8"?>
<svg id="Layer_1" data-name="Layer 1" xmlns="http://www.w3.org/2000/svg" xmlns:xlink="http://www.w3.org/1999/xlink" version="1.1" viewBox="0 0 64 64">
  <defs>
    <style>
      .cls-1, .cls-2 {
        stroke-width: 2px;
      }

      .cls-1, .cls-2, .cls-3 {
        stroke: #4d4d4f;
        stroke-miterlimit: 10;
      }

      .cls-1, .cls-3 {
        fill: none;
      }

      .cls-2 {
        fill: url(#radial-gradient);
      }

      .cls-4 {
        fill: url(#radial-gradient-2);
      }

      .cls-4, .cls-5, .cls-6 {
        stroke-width: 0px;
      }

      .cls-5 {
        fill: #fff;
      }

      .cls-6 {
        fill: #4d4d4f;
      }
    </style>
    <radialGradient id="radial-gradient" cx="32" cy="32" fx="32" fy="32" r="29.1" gradientTransform="translate(0 6.4) scale(1 .8)" gradientUnits="userSpaceOnUse">
      <stop offset="0" stop-color="#58595b"/>
      <stop offset="0" stop-color="#5e5f5d"/>
      <stop offset=".1" stop-color="#707063"/>
      <stop offset=".2" stop-color="#8e8c6c"/>
      <stop offset=".4" stop-color="#b8b47a"/>
      <stop offset=".5" stop-color="#ede68b"/>
      <stop offset=".5" stop-color="#faf290"/>
      <stop offset=".6" stop-color="#f7f09e"/>
      <stop offset=".7" stop-color="#efedc3"/>
      <stop offset=".8" stop-color="#ececd2"/>
      <stop offset="1" stop-color="#97999c"/>
    </radialGradient>
    <radialGradient id="radial-gradient-2" cx="32.7" cy="41.9" fx="32.7" fy="41.9" r="16.7" gradientUnits="userSpaceOnUse">
      <stop offset="0" stop-color="#fff"/>
      <stop offset=".2" stop-color="#f8f8f9"/>
      <stop offset=".4" stop-color="#e7e7e8"/>
      <stop offset=".6" stop-color="#cacbcc"/>
      <stop offset=".9" stop-color="#a1a3a6"/>
      <stop offset="1" stop-color="#97999c"/>
    </radialGradient>
  </defs>
  <path class="cls-2" d="M8,62.2c-.8.7-2.2.5-2.8-.4s-.2-2.2.7-2.7c.9-.5,2-.2,3-.3,1.2-.2,2.2-1,3.4-.9.6,0,1.1.4,1.7.2.8-.2,1-1.2,1.5-1.8,1-1,2.6-.6,4-.3,2.2.4,4.8,0,6.3-1.8.6-.7.9-1.7,1.2-2.5,1.2-3.5,2.3-7.1,2.4-10.8s.5-7.3-.2-10.9c-.2-.9-.4-1.9-1-2.6s-1.5-1.3-2.4-1.2l-1-.2c-2.1,3.4-6.9,4.7-10.4,2.8-1.2-.6-2.2-1.7-2.2-3.1-1.1.4-2.3.5-3.5.5-1.3,0-2.7-.5-3.5-1.5s-.8-2.7.3-3.5c0-.4-.1-.8-.2-1.2.5,0,1.1,0,1.5-.3s.8-.8.7-1.3c0-.3-.3-.5-.6-.8-.6-.6-1.1-1.3-1.5-2-.2-.3-.3-.6-.3-1,0-.8.7-1.4,1.4-1.6s1.5,0,2.2,0c-1.5-1.4-1.2-4,.3-5.4s3.8-1.6,5.7-.9c.9.3,1.8.9,2.7,1.1s2.1,0,2.6-.8c.5-.8.4-1.9,1.1-2.5.9-.8,2.4-1,3.3,0,.5-1.4,1.6-1.2,2.8-1.9.9-.5,1.9-1,2.9-1.1,1.4-.2,2.8.5,3.9,1.4s1.8,2.2,2.4,3.5c1.8-.3,3.7-.6,5.5-.9,1.7-.2,3.6-.4,4.8.9.4.4,1.7,4.9.6,5,1.7-.1,3.9-.7,5.4.2s2.8,2.6,3,4.5c.8-.2,1.9-.4,2.4.3.2.3.3.6.3.9.3,1.8,2.4,7-.6,7.2-.7,0-1.4-.2-2.1-.4.5.1.6.8.4,1.2-.5,1.4-3.5,1.8-4.7,1.6-1.6-.2-3-1.1-4.5-1.7s-3.4-.8-4.6.3c-.6.5-1.1,1.2-1.8,1.1l-1.5-.4c-.9-.1-1.9.4-2.4,1.2s-.8,1.7-1,2.6c-.7,3.6-.3,7.3-.2,10.9s1.1,7.4,2.4,10.8c.3.9.6,1.8,1.2,2.5,1.4,1.8,4,2.2,6.3,1.8,1.4-.3,3-.7,4,.3.6.6.8,1.6,1.5,1.8.5.2,1.1-.1,1.7-.2,1.2-.1,2.2.7,3.4.9,1,.2,2.1-.1,3,.3.9.5,1.3,1.8.7,2.7s-2,1.1-2.8.4"/>
  <g>
    <path class="cls-4" d="M38.3,49.7c-.2,0-.5,0-.7,0-.7,0-1.3-.4-1.9-.6-.5-.2-.9-.4-1.3-.4-.1,0-.2,0-.3,0-.8,0-1.7.3-2.6.5h-.3c-.2.2-.5.2-.7.2s-.6,0-.8-.2c-.3-.2-.5-.4-.6-.6,0,0-.2-.2-.4-.2s-.1,0-.2,0c-.2,0-.4,0-.6.1-.3,0-.6.2-1,.2-.1,0-.2,0-.3,0-.8,0-1.5-.2-2.1-.7-.1,0-.3-.2-.4-.3-.5-.4-.8-.6-1.1-.6s-.1,0-.2,0c-.4,0-.7.2-1,.3-.5.2-1,.4-1.7.4s-1.1-.2-1.7-.5c-.4-.2-.7-.4-1.1-.7-.3-.2-.7-.4-1-.6-.5-.2-1-.4-1.6-.6-.5-.2-1-.3-1.5-.5-2.2-.9-3.1-2.7-2.5-4.7.3-.9,1.5-3.2,3-3.7.6-.2,1-.2,1.4-.3.3,0,.6,0,1-.2.3,0,.6-.2.8-.3.7-.2,1.3-.4,1.7-.7l.2-.2c.4-.4,1-.9,1.7-1,.2,0,.5,0,.7,0,.9,0,1.9.3,2.7.6.4.1.8.2,1.1.3.7.1,1.5.7,1.9,1.3.6.8.5,1.9-.1,2.5-.4.3-.8.5-1.1.5l-3.3.8c-.5.1-1,.2-1.3.5,0,0-.2.2-.2.2.3,0,.5,0,.8,0,.6,0,1.2,0,1.7-.2.1,0,.3,0,.4-.1.5-.2,1-.3,1.6-.3s.2,0,.3,0c1.1.1,1.9.9,2.6,1.5.5.4,1,.9,1.3.9s0,0,.1,0c.1,0,.2,0,.4-.2h.3c.7-.5,1.5-.6,2.5-.6s1.7.1,2.5.3c.8.1,1.5.2,2.3.2s1,0,1.4-.2c.7-.2,1.5-.4,2.2-.5,1.2-.2,2.3-.4,3.3-1,0,0,0,0,0,0,0,0-.1,0-.2,0-.4,0-.7,0-1.1.1-.1,0-.2,0-.3,0-.3,0-.6.2-1,.2-.1,0-.2,0-.4,0-.4,0-.9,0-1.2-.1-.3,0-.6,0-.9-.1-1.4-.2-3.4-.4-4.1-2.2-.3-.8-.3-1.6,0-2.3.3-.7,1-1.3,1.8-1.6h.3c0-.1,3.7,1.2,3.7,1.2.5.2,1,.4,1.5.4s.3,0,.4,0c.2,0,.4-.2.7-.4.2-.1.3-.3.5-.4.8-.5,1.7-.8,2.7-.8s1.2,0,1.7.3c.9.3,5.5,2.3,6,4.7.2.8-.1,1.6-.8,2.2-.4.3-.8.5-1.1.7-.2,0-.6.3-.7.4-.1.4,0,.7,0,1.1.1.5.3,1.1-.1,1.7-.4.7-1.3.9-2.2,1-.9.1-1.8.2-2.7.2-2.1,0-3.8.2-5.5,1.7-1,.8-2.2,1.3-3.5,1.3Z"/>
    <path class="cls-6" d="M21.3,35.1c1.1,0,2.6.7,3.6.9.4,0,1.1.5,1.4.9.3.3.3.9,0,1.2-.2.2-.4.2-.6.3-1.1.3-2.2.6-3.3.8-.6.1-1.2.3-1.7.7-.2.2-.3.3-.6.5-.2.1-.4.1-.7.1s-.2,0-.2,0c-.1,0-.3,0-.4,0-.4,0-.9.6-.6.9,1.2.3,2.5.5,3.7.5s1.3,0,2-.3c.6-.2,1.2-.4,1.7-.4s.1,0,.2,0c1.6.2,2.5,2.4,4,2.4s.2,0,.3,0c.3,0,.6-.2.8-.4.7-.3,1.4-.4,2.1-.4,1.6,0,3.2.5,4.8.5s1.1,0,1.7-.2c1.9-.6,4-.5,5.7-1.7.6-.4,1.1-1,1-1.6-.5-.2-1.1-.3-1.7-.3-.4,0-.9,0-1.3.2-.4,0-.7.2-1.1.3,0,0-.2,0-.3,0-.3,0-.7,0-1-.1-1.4-.3-3.6-.1-4.3-1.7-.5-1.1,0-2.2,1.2-2.6,1.1.4,2.3.8,3.4,1.2.6.2,1.2.4,1.8.4s.5,0,.8-.1c.5-.2.9-.6,1.4-.9.6-.4,1.4-.6,2.1-.6s1,0,1.4.2c1.5.5,7,3.3,4.8,5.2-.7.6-1.9.7-2.1,1.5-.5,1.8,1.3,2.6-1.4,3-3.3.5-5.9-.2-8.7,2.1-.8.7-1.8,1-2.9,1s-.4,0-.6,0c-1.1-.2-2.1-.9-3.2-1-.1,0-.3,0-.4,0-1.1,0-2.2.4-3.2.7-.1,0-.3,0-.4,0s-.2,0-.3,0c-.2,0-.2-.3-.4-.4-.3-.3-.7-.5-1.1-.5-.1,0-.2,0-.3,0-.5,0-1,.3-1.6.3,0,0-.2,0-.2,0-.5,0-1.1-.2-1.5-.5-.7-.5-1.3-1-2.1-1-.1,0-.3,0-.5,0-1,.2-1.6.7-2.4.7s-.8,0-1.3-.4c-.7-.4-1.4-.9-2.1-1.3-1-.5-2.2-.7-3.2-1.1-1.6-.7-2.4-1.8-1.9-3.5.3-1,1.3-2.7,2.4-3,1-.3,1.4-.1,2.4-.5.9-.3,2.1-.5,2.9-1.2.5-.4,1-.9,1.6-1,.2,0,.3,0,.5,0M21.3,33.1c-.3,0-.7,0-.9.1-1,.2-1.7.8-2.2,1.2,0,0-.1.1-.2.2-.2.2-.8.4-1.4.5-.3,0-.6.2-.9.3-.3,0-.4.1-.8.1-.4,0-.9,0-1.6.3-2.1.7-3.4,3.4-3.7,4.3-.8,2.5.4,4.8,3.1,5.9.6.2,1.1.4,1.6.6.5.2,1,.3,1.5.5.3.1.6.3.9.5.3.2.7.5,1.2.7.8.4,1.5.6,2.2.6s1.5-.3,2.1-.5c.3-.1.5-.2.8-.3.1,0,.3.2.5.4.1.1.3.2.4.3.8.5,1.7.8,2.7.8s.3,0,.4,0c.5,0,.9-.1,1.2-.2.1,0,.3,0,.4,0,.2.2.4.4.7.6.4.2.8.4,1.3.4s.8,0,1-.2h.3c.8-.3,1.6-.6,2.3-.6,0,0,.1,0,.2,0,.3,0,.6.2,1.1.4.6.2,1.3.6,2.1.7.3,0,.6,0,.8,0,1.5,0,3-.5,4.2-1.5,1.5-1.3,2.9-1.3,4.9-1.4.8,0,1.8,0,2.8-.2,1-.2,2.2-.4,2.9-1.4.7-1,.4-2,.3-2.5,0-.1,0-.2,0-.3,0,0,0,0,.1,0,.4-.2.9-.4,1.4-.8,1-.8,1.4-2,1.2-3.2-.7-3.3-6.6-5.4-6.6-5.4-.7-.2-1.3-.3-2-.3-1.2,0-2.3.3-3.2.9-.2.1-.4.3-.6.4-.1.1-.3.3-.4.3,0,0,0,0,0,0,0,0,0,0,0,0-.3,0-.8-.2-1.1-.3l-3.4-1.2-.7-.2-.7.2c-1.1.4-2,1.2-2.4,2.2-.4,1-.4,2,0,3.1.6,1.4,1.7,2.1,2.9,2.4-.6,0-1.2-.1-1.8-.2-.9-.1-1.8-.3-2.7-.3s-2,.2-2.9.6c0,0-.2,0-.3.1,0,0,0,0,0,0-.2-.1-.5-.4-.6-.6-.5-.4-1-1-1.7-1.3,0,0,0,0,.1-.1,1-1,1.1-2.6.2-3.8-.6-.8-1.6-1.5-2.5-1.7-.3,0-.6-.2-1-.3-.9-.3-2-.6-3-.6h0Z"/>
  </g>
  <path class="cls-1" d="M24.8,25.4c-.7.2-1.5,0-2.1-.5s-3-1.1-3.3-1.8c-.8-1.6-1.5-4.1-1.3-5.9"/>
  <path class="cls-1" d="M42.5,24.6c.3-1.3,1-2.4,1.5-3.6s.8-2.6.3-3.8"/>
  <path class="cls-1" d="M28.5,27.9c0-2.9-2.3-6.8-1.4-9.6"/>
  <path class="cls-1" d="M36.1,6.2c1.6,1.4,2.7,3.3,3.1,5.3"/>
  <path class="cls-1" d="M26.5,3c-2,1.4-4.3,5.8-4.5,8.2"/>
  <path class="cls-3" d="M18.9,41.1c-.6,0-1.2.2-1.7.6s-.7,1.1-.5,1.6"/>
  <path class="cls-3" d="M45.7,40.3c.5-.2,1.1-.2,1.4.2s.3,1,0,1.4"/>
  <path class="cls-3" d="M23.8,44.1c-.9.3-1.4,1.6-.9,2.4"/>
  <path class="cls-5" d="M28.3,38.4c-.4.4-.9,1.1-1.9,1.3s-3.5.7-4.2,1.1c0,0,4.6-1.5,6-.1"/>
  <path class="cls-5" d="M36.2,40c.3.3,1.4.7,1.7.7.9.2,3.2.4,4.2.4,0,0-1.6.4-3,.4s-2.5-.4-3-.7"/>
</svg>