<?xml version="1.0" encoding="UTF-8"?>
<svg id="Layer_1" xmlns="http://www.w3.org/2000/svg" xmlns:xlink="http://www.w3.org/1999/xlink" version="1.1" viewBox="0 0 64 64">
  <!-- Generator: Adobe Illustrator 29.1.0, SVG Export Plug-In . SVG Version: 2.1.0 Build 142)  -->
  <defs>
    <style>
      .st0 {
        fill: #4d4d4f;
      }

      .st1 {
        stroke-linecap: round;
      }

      .st1, .st2, .st3 {
        stroke: #e6e7e8;
      }

      .st1, .st2, .st3, .st4 {
        stroke-miterlimit: 10;
      }

      .st1, .st4 {
        fill: none;
      }

      .st2 {
        stroke-width: .5px;
      }

      .st2, .st5 {
        fill: #e6e7e8;
      }

      .st3 {
        fill: url(#radial-gradient);
        stroke-width: .8px;
      }

      .st4 {
        stroke: #4d4d4f;
        stroke-width: 3px;
      }
    </style>
    <radialGradient id="radial-gradient" cx="34.9" cy="33" fx="34.9" fy="33" r="9" gradientTransform="translate(0 66) scale(1 -1)" gradientUnits="userSpaceOnUse">
      <stop offset="0" stop-color="#4d4d4f"/>
      <stop offset=".2" stop-color="#505052"/>
      <stop offset=".3" stop-color="#59595b"/>
      <stop offset=".5" stop-color="#6a6a6b"/>
      <stop offset=".6" stop-color="#818182"/>
      <stop offset=".7" stop-color="#9f9fa0"/>
      <stop offset=".9" stop-color="#c3c3c4"/>
      <stop offset="1" stop-color="#eee"/>
      <stop offset="1" stop-color="#fff"/>
    </radialGradient>
  </defs>
  <path class="st5" d="M46.3,19.9h-20.9l1-5c0-1.7,1.3-3,3-3h12.9c1.7,0,3,1.3,3,3l1,5Z"/>
  <rect class="st2" x="3.5" y="19.9" width="56.8" height="28.5" rx="4" ry="4"/>
  <line class="st4" x1="3.5" y1="25.9" x2="60.3" y2="25.9"/>
  <circle class="st0" cx="35.8" cy="34.2" r="10.6"/>
  <circle class="st3" cx="35.8" cy="34.1" r="9"/>
  <path class="st1" d="M28.9,34c0-3.8,3.1-6.8,6.8-6.8"/>
  <rect class="st0" x="30.6" y="13.3" width="10.4" height="5.9"/>
  <rect class="st5" x="9.8" y="17.2" width="7.5" height="1.7" rx=".8" ry=".8"/>
  <circle class="st0" cx="8.8" cy="22.6" r="1"/>
</svg>