<?xml version="1.0" encoding="UTF-8"?>
<svg id="Layer_1" data-name="Layer 1" xmlns="http://www.w3.org/2000/svg" version="1.1" viewBox="0 0 64 64">
  <defs>
    <style>
      .cls-1 {
        fill: #a8b078;
        stroke: #7d8e3f;
      }

      .cls-1, .cls-2, .cls-3, .cls-4 {
        stroke-miterlimit: 10;
      }

      .cls-2 {
        fill: none;
        stroke: #fff;
        stroke-width: 3px;
      }

      .cls-3 {
        fill: #fed7a8;
      }

      .cls-3, .cls-4 {
        stroke: #9e7e68;
      }

      .cls-4 {
        fill: #cca285;
      }
    </style>
  </defs>
  <path class="cls-4" d="M25.5,22H4.7c-1.6,0-3-1.3-3-3V4.6c0-1.6,1.4-3,3-3h18.8c1.6,0,2.1.9,3,3l2,4.4c0,1.6-1.4,13-3,13Z"/>
  <path class="cls-3" d="M4.7,10.1c-1.6,0-3,1.3-3,3v34.6c0,1.6,1.4,3,3,3h54.7c1.6,0,3-1.4,3-3V10.1c0-1.6-1.4-3-3-3h-23.2s-10.8,0-10.8,0c-1.6,0-1.8,1-2,1.7-.5,1.5-1.7,1.3-1.7,1.3H4.7Z"/>
  <g>
    <circle class="cls-1" cx="43.8" cy="49.8" r="12.6"/>
    <line class="cls-2" x1="43.8" y1="42.9" x2="43.8" y2="56.6"/>
    <line class="cls-2" x1="36.9" y1="49.8" x2="50.6" y2="49.8"/>
  </g>
</svg>