<?xml version="1.0" encoding="UTF-8"?>
<svg id="Layer_1" data-name="Layer 1" xmlns="http://www.w3.org/2000/svg" version="1.1" viewBox="0 0 64 64">
  <defs>
    <style>
      .cls-1 {
        fill: #f1f2f2;
      }

      .cls-1, .cls-2, .cls-3 {
        stroke-width: 0px;
      }

      .cls-2 {
        fill: #939598;
      }

      .cls-3 {
        fill: #d1d3d4;
      }
    </style>
  </defs>
  <circle class="cls-3" cx="32" cy="32" r="32"/>
  <path class="cls-1" d="M29.9,45.7c-1.7,1.3-3.8,1.7-5.5,0,0,0-.9-.4-1.3-.4-1.3,0-.4,2.6-1.7,3-.4-.9-1.3-1.7-2.1-2.6s-2.1-1.3-3-.9c.4,1.7,1.3,3,2.1,4.7-1.7,0-3.8.9-5.5,2.1,1.3,1.3,3,1.7,4.7,1.3l-3,1.7c1.7.9,3.8,1.3,6,.9h.9s.4,0,.9.4c1.7,2.1,4.7,3.4,7.3,3-1.3-.9-2.6-2.1-3-3.4,1.7-.4,3.4-.4,5.5-.4s3.8-.9,4.7-2.1c-2.6-1.7-6-.4-9-.9,2.6-.4,5.1-1.7,6.8-3.8v-.4c0-.4-.9-.4-1.3,0-.9.4-2.1.9-3,1.3.9-1.3,1.7-2.6,2.6-3.8s.4-3,0-3.8c-1.3,1.7-1.3,3.8-3,5.1v-.9Z"/>
  <path class="cls-2" d="M6.8,28.2v.4c.4,1.3.4,1.7,2.1,2.1,1.7,0,3.4.9,4.3,2.6,0,.4.4,2.1,0,2.6-.9.9-.9,0-1.7,0,0,0-.4.4-.9.9,0,.9-.9,1.7,0,2.6,0,0,.4,0,.9.4,0,0,0,.9.4.9s.4.9.9.9h.4c1.3-1.3,3.8-2.1,5.5-.9.9.4.9,1.7,1.3,2.1,1.7,2.1,5.5,1.3,6.8-.9.9-1.3,1.3-3,1.3-5.1s-.4-2.6-1.3-4.3c-.9-2.6,1.3-1.7,2.6-2.6s1.7-3,2.6-1.3,0,.9,0,1.7c0,0,1.7-.9,1.3-2.1s-2.1-1.7-1.7-3c0-.4.9-.9,1.3-.9,2.1,0,4.7,2.1,6.4,3.8,3,3,6.4,6.4,6,10.7,0,1.3-.9,3-.9,4.3s1.3,3,2.6,3c1.3-.9,1.7-2.6,1.3-4.3s-.9-3-.4-4.7,1.7-3.4,3.4-2.6c1.7.9,1.7,2.6,1.7,3.8s-.9,3-.9,4.7,1.7,2.6,3.4,1.3.9-1.3,1.7-2.1c.9-1.7,2.6-2.6,1.3-4.7s-1.3-.4-1.3-1.3c-.4-.9-.9-2.1-.9-3-1.3-3.4-3-6.8-5.1-9.8s-1.3-6-3.4-7.3c-.4,0-.9-.4-1.7-.9l-.9-.9c-2.6-1.7-3.4,1.3-5.5,2.1s-2.1,0-2.6-1.3,0-1.3.9-2.1,1.3-3,0-4.3c-.9-1.3-2.1-2.6-3.4-3-4.3-1.7-9,3-13.2,1.3-.9-.9,0-2.6,1.3-2.6s3,0,3.4-1.3-9,.9-9.8,1.3c-3,1.3-6,3-8.1,5.5-1.7,2.1-2.6,5.1-2.6,7.7v4.7c0,1.7-1.3,2.6-1.3,3.8s.9,1.7,1.3,2.6l1.3-.9Z"/>
  <path class="cls-2" d="M58.9,27.7c0,1.3,0,3,.4,4.3,0,.4.4.9.9,1.3s1.3,0,1.3,0v-.9c0-1.7,0-3.4-.9-4.7s-2.1-1.3-2.6.9l.9-.9Z"/>
  <path class="cls-3" d="M26,20.9h-2.1c-.9,0-1.3,1.3-.4,1.7h1.3c.4,0,1.3,0,1.7-.4v-1.3h-.4Z"/>
  <path class="cls-2" d="M24.7,49.9c-.4-.4-1.3-.4-1.7,0v2.1c1.3,1.7,3,0,2.1-1.7l-.4-.4Z"/>
  <path class="cls-1" d="M24.3,50.3h-1.3v1.7c.9,1.3,2.1,0,1.7-1.3h0l-.4-.4Z"/>
  <path class="cls-3" d="M18.3,17.9v.4c0,1.3,0,2.1-.9,3.4,0,.9-.9,1.7-1.7,1.7v-4.3h.4s1.7-1.7,2.1-1.3Z"/>
</svg>