<?xml version="1.0" encoding="UTF-8"?>
<svg id="Layer_1" data-name="Layer 1" xmlns="http://www.w3.org/2000/svg" version="1.1" viewBox="0 0 64 64">
  <defs>
    <style>
      .cls-1 {
        fill: #83c557;
      }

      .cls-1, .cls-2, .cls-3 {
        stroke-width: 0px;
      }

      .cls-2 {
        fill: #e6e7e8;
      }

      .cls-3 {
        fill: #2b788c;
      }
    </style>
  </defs>
  <polygon class="cls-1" points="26 39 22.1 34.1 18.1 27.9 14.1 32.5 10.2 15.7 6.2 14.4 6.2 20.6 10.2 22 14.1 42.2 18.1 34.2 22.1 40.5 26 46.8 30 42.5 34 41 38 48.9 41.9 43.9 45.9 44.4 49.9 44 53.8 46.1 57.8 49.6 57.8 40.6 53.8 38.4 49.9 36.9 45.9 37.1 41.9 36.5 38 38.9 34 33.9 30 36.1 26 39"/>
  <polygon class="cls-3" points="26 35.1 22.1 35 18.1 31.2 14.1 39 10.2 16.8 6.2 16.5 6.2 21.6 10.2 22.9 14.1 47.5 18.1 38.4 22.1 41.7 26 42.1 30 32.8 34 28.4 38 26.7 41.9 25.3 45.9 25 49.9 25.3 53.8 25.2 57.8 25.9 57.8 17.2 53.8 16.8 49.9 17.2 45.9 17.2 41.9 17.6 38 19.1 34 21.4 30 25.9 26 35.1"/>
  <path class="cls-2" d="M60.7,12.7v38.6H3.3V12.7h57.5M64,9.4H0v45.1h64V9.4h0Z"/>
</svg>