<?xml version="1.0" encoding="UTF-8"?>
<svg id="Layer_1" data-name="Layer 1" xmlns="http://www.w3.org/2000/svg" version="1.1" viewBox="0 0 64 64">
  <defs>
    <style>
      .cls-1 {
        stroke-width: 6px;
      }

      .cls-1, .cls-2 {
        fill: none;
        stroke: #e6e7e8;
        stroke-miterlimit: 10;
      }

      .cls-3 {
        fill: #e6e7e8;
        stroke-width: 0px;
      }

      .cls-2 {
        stroke-width: 4px;
      }
    </style>
  </defs>
  <g>
    <line class="cls-1" x1="4.6" y1="50" x2="60.1" y2="8.7"/>
    <polygon class="cls-3" points="19.9 53.9 20.2 50.9 5.5 49.3 8.2 34.8 5.3 34.2 2 51.9 19.9 53.9"/>
    <polygon class="cls-3" points="59.5 24.5 56.5 24 59.2 9.4 44.5 7.8 44.8 4.8 62.7 6.8 59.5 24.5"/>
  </g>
  <g>
    <line class="cls-2" x1="45.7" y1="47.3" x2="19" y2="11.4"/>
    <polygon class="cls-3" points="48.3 37.1 46.3 36.9 45.3 46.7 35.6 44.9 35.2 46.9 47 49.1 48.3 37.1"/>
    <polygon class="cls-3" points="29.5 11.8 29.2 13.8 19.5 12 18.4 21.8 16.4 21.6 17.7 9.6 29.5 11.8"/>
  </g>
</svg>