<?xml version="1.0" encoding="UTF-8"?>
<svg id="Layer_1" data-name="Layer 1" xmlns="http://www.w3.org/2000/svg" xmlns:xlink="http://www.w3.org/1999/xlink" version="1.1" viewBox="0 0 64 64">
  <defs>
    <style>
      .cls-1 {
        fill: #939598;
      }

      .cls-1, .cls-2, .cls-3, .cls-4, .cls-5 {
        stroke-width: 0px;
      }

      .cls-2 {
        fill: url(#linear-gradient);
      }

      .cls-3 {
        fill: #a7a9ac;
      }

      .cls-4 {
        fill: #d1d3d4;
      }

      .cls-5 {
        fill: #f1f2f2;
      }
    </style>
    <linearGradient id="linear-gradient" x1="32" y1="52" x2="32" y2="12" gradientUnits="userSpaceOnUse">
      <stop offset="0" stop-color="#231f20"/>
      <stop offset="1" stop-color="#0c044a"/>
    </linearGradient>
  </defs>
  <rect class="cls-2" x="2" y="12" width="60" height="40"/>
  <path class="cls-3" d="M4,50c1.1-.8,2.7-2.1,3.3-3.5s.5-2.9,1.7-4.2c.3-.3.5-.5.8-.8.2-.3.3-.6.4-1,.6-1.6,1.3-4.9,2.7-5.7.6-.3,1.7-.2,2.3.3s.4,1.5.9,2.1.8.8,1.1,1.3c.3.5.6,1.3,1.1,1.5.2.1.5,0,.7.2,1.4.3,1.9,2.4,3.1,3.2,1.2.8,2.3.4,3.1-.9,1.4-2.3,2.7-4.1,3.5-6.7s1.2-4.9,3.6-4.6c.5,0,1,.3,1.5.3,1.2,0,1.7-1.7,2.1-2.9.4-1.2,1.1-3.7,2-4.4s.8-.5,1.2-.9c.6-.5.8-1.4,1.3-2,1.7-2.4,3.9,2,4.6,3.7.4.9.7,2,1.5,2.4.4.2.8.2,1.3.3,2,.6,1.7,3.7,1.5,5.5,0,1,.3.7.9,1.5s1.4,1.2,2.2,1.6c.5.2,1.1.5,1.5.9,1,1.2.6,3.2,1.3,4.7.6,1.3,1.8,2,2.6,3.2.9,1.4,1.1,3.5,2.1,4.8"/>
  <circle class="cls-4" cx="18.5" cy="23.3" r="7.5"/>
  <path class="cls-5" d="M18,26.5c-.4.3-.9.4-1.3,0,0,0-.2-.1-.3-.1-.3,0-.1.6-.4.7-.1-.2-.3-.4-.5-.6s-.5-.3-.7-.2c.1.4.3.7.5,1.1-.4,0-.9.2-1.3.5.3.3.7.4,1.1.3l-.7.4c.4.2.9.3,1.4.2,0,0,.2,0,.2,0,0,0,.1,0,.2.1.4.5,1.1.8,1.7.7-.3-.2-.6-.5-.7-.8.4-.1.8-.1,1.3-.1s.9-.2,1.1-.5c-.6-.4-1.4-.1-2.1-.2.6-.1,1.2-.4,1.6-.9,0,0,0,0,0-.1,0-.1-.2-.1-.3,0-.2.1-.5.2-.7.3.2-.3.4-.6.6-.9s.1-.7,0-.9c-.3.4-.3.9-.7,1.2Z"/>
  <path class="cls-1" d="M12.6,22.4s0,0,0,.1c.1.3.1.4.5.5.4,0,.8.2,1,.6,0,.1.1.5,0,.6-.2.2-.2,0-.4,0,0,0-.1.1-.2.2,0,.2-.2.4,0,.6,0,0,.1,0,.2.1,0,0,0,.2.1.2s.1.2.2.2c0,0,0,0,.1,0,.3-.3.9-.5,1.3-.2.2.1.2.4.3.5.4.5,1.3.3,1.6-.2.2-.3.3-.7.3-1.2s-.1-.6-.3-1c-.2-.6.3-.4.6-.6s.4-.7.6-.3,0,.2,0,.4c0,0,.4-.2.3-.5s-.5-.4-.4-.7c0-.1.2-.2.3-.2.5,0,1.1.5,1.5.9.7.7,1.5,1.5,1.4,2.5,0,.3-.2.7-.2,1s.3.7.6.7c.3-.2.4-.6.3-1s-.2-.7-.1-1.1.4-.8.8-.6.4.6.4.9-.2.7-.2,1.1c0,.5.4.6.8.3s.2-.3.4-.5c.2-.4.6-.6.3-1.1s-.3-.1-.3-.3c-.1-.2-.2-.5-.2-.7-.3-.8-.7-1.6-1.2-2.3s-.3-1.4-.8-1.7c-.1,0-.2-.1-.4-.2,0,0-.1-.1-.2-.2-.6-.4-.8.3-1.3.5s-.5,0-.6-.3,0-.3.2-.5.3-.7,0-1c-.2-.3-.5-.6-.8-.7-1-.4-2.1.7-3.1.3-.2-.2,0-.6.3-.6s.7,0,.8-.3-2.1.2-2.3.3c-.7.3-1.4.7-1.9,1.3-.4.5-.6,1.2-.6,1.8s0,.7,0,1.1-.3.6-.3.9.2.4.3.6Z"/>
  <path class="cls-1" d="M24.8,22.3c0,.3,0,.7.1,1,0,.1.1.2.2.3s.3,0,.3,0c0,0,0-.2,0-.2,0-.4,0-.8-.2-1.1s-.5-.3-.6.2Z"/>
  <path class="cls-4" d="M17.1,20.7s0,0,0,0c0,0-.2,0-.2,0,0,0-.2,0-.3,0-.2,0-.3.3-.1.4,0,0,.2,0,.3,0,.1,0,.3,0,.4-.1,0,0,0-.2,0-.3,0,0,0,0,0,0Z"/>
  <path class="cls-1" d="M16.8,27.5c-.1-.1-.3-.1-.4,0,0,.1,0,.3,0,.5.3.4.7,0,.5-.4,0,0,0,0-.1-.1Z"/>
  <path class="cls-5" d="M16.7,27.6c0,0-.2,0-.3,0,0,.1,0,.3,0,.4.2.3.5,0,.4-.3,0,0,0,0,0,0Z"/>
  <path class="cls-4" d="M15.3,20s0,0,0,.1c0,.3,0,.5-.2.8,0,.2-.2.4-.4.4,0-.2,0-.5,0-.7,0,0,0-.2,0-.3,0,0,0,0,.1,0,0,0,.4-.4.5-.3Z"/>
  <path class="cls-4" d="M43,21c-.6-.6-1.7-.8-2.4-.2-.7.6-.6,1.9-1.4,2.5-.3.3-.7.4-1.1.5-1,.5-1.5,1.8-1.9,2.9-.4,1.3-.9,2.6-1.3,3.9,0,.2-.1.4-.3.6-.6.5-1.8.4-2.5.2-1.2-.4-1.9.2-2.4,1.3-.7,1.4-1.1,3-1.7,4.4s-1.7,2.7-1.6,4c.5-.3.8-.9,1.2-1.3,1.2-1.5,3.1-2,4.7-3,.2-.1.3-.2.5-.4.4-.5.3-1.2.7-1.7.3-.2.6-.3,1-.3.5,0,1-.1,1.5-.2.2,0,.3,0,.5-.1.2-.1.3-.4.4-.6.4-.9.8-1.9,1.2-2.8.2-.5.4-.9.8-1.3.6-.6,1.6-.6,2.5-.7s1.9-.5,2.1-1.3c.1-.5,0-1.1.2-1.5.3-.4.8-.5,1.3-.6.7-.1-1.7-3.9-1.9-4.1Z"/>
  <path class="cls-5" d="M15.2,34.9c-.7-.5-1.6-.6-2.3-.2-.9.4-1.4,1.4-1.7,2.4-.5,1.3-.8,2.6-1.2,3.8,0,.3-.2.6-.3.8-.2.2-.5.4-.7.6-1.3,1.2-.9,3.4-2,4.8.7-.3,1.4-.9,1.8-1.6.4-.6.5-1.3,1-1.8.3-.4.9-.8.9-1.4.3.5,1.1.5,1.3,0,0,0,.1-.2.2-.2,0,0,.1,0,.2,0,.4.3.7.5,1.1.8.3-.5.1-1.1,0-1.6-.2-.7-.4-1.4-.6-2.1-.1-.5-.1-1.1.3-1.2.3,0,.6.2.9.5s.7.4.9.2c.3-.3-.1-.8.2-1.1.5-.5,1,0,1-.9s-.4-1.4-.9-1.8Z"/>
  <path class="cls-4" d="M37.5,36.8c-.4.3-.8.4-1.1.7-.2.3-.2.6-.4.9-.1.2-.4.2-.6.3-.7.2-1.5.6-1.9,1.2-.5.7-.4,1.6-.7,2.4-.3.9-1,1.7-1.8,2.3-1.1,1-2.3,1.8-3.5,2.5-.4.2-.8.5-.7.9,0,.3.4.5.7.6s.6,0,.9-.2c1.1-.4,2.2-.9,3.2-1.4.7-.3,1.3-.7,2-1,.6-.3,1.3-.7,1.7-1.3.5-.9.2-1.9.5-2.8,0-.2.2-.4.4-.5.1-.1.3-.1.4-.3,0-.1.1-.3.2-.4.2-.2.6,0,.9,0,.6,0,1-.8,1.1-1.4s0-1.3.3-1.9c.8-.2,1.4,1.1,2.2.9,0-1.1.1-2.3.2-3.4,0,0,0-.2,0-.2,0-.2.3-.2.5-.2.6-.1,1-.7,1-1.3,0-.3-.9-1.1-1.1-1.5s-.1-.8-.5-.9-1.8,1.3-2.1,1.7c-1.2,1.2-.4,3.4-1.8,4.4Z"/>
  <path class="cls-5" d="M47.8,39.6c-.3.2-.5.6-.6,1,0,.3,0,.6-.1.9,0,.1-.2.2-.3.3-.2.2-.3.6-.4.9,0,.2,0,.5.2.6,0,0,.1,0,.2,0,.4-.2.9-.4,1.2-.8.2-.3.4-.5.6-.8s.6-.4.9-.3c.1-.3,0-.6-.2-.8,0,0-.2-.1-.2-.2,0,0,0-.2,0-.2.4-.8-1.1-.7-1.4-.5Z"/>
  <path class="cls-4" d="M13.5,46.6c0,.4-.3.7-.6.8s-.7.2-1,.3c-.5.1-1,.4-1.4.8,0,0-.1,0-.1.2,0,.1,0,.3.2.3s.3,0,.4,0c.4,0,.7,0,1.1-.1.3,0,.7,0,1-.3.3-.2.4-.6.7-.7.2,0,.3-.1.5-.2.2,0,.3-.2.5-.3.2-.2.5-.4.7-.6,0,0,0,0,.1-.1,0-.1,0-.3-.2-.4-.7-.6-1.1-1.5-1.2-2.4-1.1,0-.6,2.2-.6,2.8Z"/>
  <path class="cls-5" d="M22.2,44.2c-.1,0-.2.1-.3.2-.1,0-.3.2-.4.3-.2.2-.3.5-.6.7-.3.3-.8.2-1.2.3-.4,0-.7.3-.9.6,0,0,0,0,0,.2,0,.1.2.1.3.1.6,0,1.3,0,1.9.1-.5.4-1.2.7-1.9.9l.5.4c-.6.9-2.1,1-2.4,2,.8.2,1.7,0,2.6,0,.8,0,1.6.3,2.3,0,.2-.2-.2-.5-.5-.6-.4-.1-.8-.2-1.2-.2-.1,0-.3,0-.4-.1-.1-.2.1-.4.3-.5.7-.3,1.5-.4,2.2-.4,0-.4,0-.8,0-1.1s-.3-.7-.7-.9c0,0-.2,0-.2-.2,0,0,0,0,.1-.1.5-.3,1.2-.4,1.8-.7s1.2-.8,1-1.4c0-.3-2.1.4-2.2.5Z"/>
  <path class="cls-5" d="M41.9,20c-.1,0-.3-.2-.4-.2-.2,0-.4,0-.6.2-.9.7-.8,2.3-1.7,3-.2.2-.5.3-.8.5-.9.5-1.5,1.4-1.9,2.3s-.5,2-.7,3c.5-.2.8-.6,1-1s.3-.9.5-1.4c.6-1.2,1.9-1.9,3-2.4,0,.2,0,.4,0,.7.7-.1.7-1.1,1.1-1.6.4-.4,1-.5,1.2-1,.6.3,1,.2.8-.5s-1.1-1.2-1.5-1.5Z"/>
  <path class="cls-5" d="M30.2,31.8c.1-.2.3-.5.5-.7s.6-.2.8,0c0,0,0,0,.1,0,0,0,.2,0,.2-.1.2-.1.4-.1.6,0s.3.3.5.4c0,.1.2.2.2.4,0,0,0,.2-.1.3-.1.2-.3.4-.5.5s-.5.1-.7,0c0,0,0,0,0,0,0,0-.1,0-.2,0-.9.9-1.8,2-2.4,3.1-.9-.3.8-3.3,1.1-3.8Z"/>
</svg>