<?xml version="1.0" encoding="UTF-8"?>
<svg id="Layer_1" data-name="Layer 1" xmlns="http://www.w3.org/2000/svg" version="1.1" viewBox="0 0 64 64">
  <defs>
    <style>
      .cls-1 {
        fill: none;
        stroke: #e6e7e8;
        stroke-linejoin: round;
        stroke-width: 3.1px;
      }

      .cls-2 {
        fill: #e6e7e8;
        stroke-width: 0px;
      }
    </style>
  </defs>
  <g>
    <path class="cls-1" d="M7.5,31.4c1.8,18.9,11,22.6,29.7,23.3"/>
    <polygon class="cls-2" points="0 34 7.2 20.3 15.5 33.4 0 34"/>
    <polygon class="cls-2" points="34.8 62.4 48.3 54.9 35.1 46.9 34.8 62.4"/>
  </g>
  <path class="cls-2" d="M7.6,7.8c.6-.9,1.2-2.1,1.9-3.8s1-2.7,1.1-3.2c2.4.2,3.6.9,3.6,1.9s0,.4-.2.6c-.1.3-.3.6-.5,1-.2.4-.5.7-.7,1.1s-.5.7-.9,1.3c-.4.5-.7.9-.9,1.2-.2.3-.5.7-.9,1.2s-.7.9-.8,1v2.4c0,1.9.2,3.4.6,4.8-.6.2-1.4.3-2.3.3s-.6,0-.8,0-.4-.1-.7-.2-.4-.3-.5-.6c-.1-.3-.2-.7-.2-1.2s0-.9,0-1.8c0-.9,0-1.5,0-1.9v-1.6C3,5.6,1.2,3.1,0,2.6.8,1.4,1.7.9,2.7.9s1.7.5,2.3,1.6c.5.9,1.4,2.7,2.6,5.3Z"/>
  <path class="cls-2" d="M48.6,61.4c0-.3.1-.6.4-1.1s.6-1,1.1-1.5.9-1.1,1.4-1.5.9-1,1.5-1.6,1-1,1.2-1.2c-.9-1.5-1.9-2.8-2.9-3.9-1.1-1.1-2-1.9-2.7-2.4,1-1.3,2-1.9,3-1.9s1,.1,1.4.4.7.7,1.1,1.2c.8,1.5,1.6,3,2.2,4.6,1.6-2.7,2.5-4.8,2.7-6.2,2.4.3,3.6.9,3.6,1.9s0,.5-.3.9c-.2.4-.5.8-.9,1.3-.4.5-.7.9-1.1,1.3-.3.4-.7.9-1.3,1.5-.6.6-.9,1.1-1.2,1.3,1,1.7,2,3.1,3.2,4.4,1.1,1.3,2.1,2.2,2.9,2.6-1,1.2-2,1.8-3.2,1.8s-1.5-.4-2-1.2c-1.8-3.3-2.8-5.1-3-5.6-.8.9-1.6,2-2.3,3.4s-1.2,2.5-1.4,3.4c-1,0-1.8-.3-2.5-.6-.7-.3-1.1-.7-1.1-1.3Z"/>
</svg>