<?xml version="1.0" encoding="UTF-8"?>
<svg id="Layer_1" data-name="Layer 1" xmlns="http://www.w3.org/2000/svg" version="1.1" viewBox="0 0 64 64">
  <defs>
    <style>
      .cls-1 {
        fill: #4d4d4f;
        stroke-width: 0px;
      }
    </style>
  </defs>
  <path class="cls-1" d="M49.8,32.8c0,9.9-8,17.9-17.9,17.9s-17.9-8-17.9-17.9H0c0,2.9.4,5.6,1.1,8.3l6.5-1.7c1.2,4.3,3.4,8.2,6.5,11.3l-4.8,4.8c3.9,3.9,8.9,6.8,14.4,8.3l1.7-6.5c2.1.6,4.3.8,6.5.8s4.5-.3,6.5-.9l1.7,6.5c5.5-1.5,10.4-4.4,14.3-8.3l-4.8-4.8c3.1-3.1,5.4-7,6.5-11.3l6.5,1.8c.7-2.6,1.1-5.4,1.1-8.3h-14.2Z"/>
  <rect class="cls-1" x="7.4" y="21.5" width="6.7" height="9.3"/>
  <rect class="cls-1" x="49.9" y="21.5" width="6.7" height="9.3"/>
  <path class="cls-1" d="M22.6,45.9c-4.1-2.9-6.7-7.7-6.7-13.1V12.1s6.7,0,6.7,0v33.8Z"/>
  <path class="cls-1" d="M24.4.3h6.7v48.7c-2.4-.1-4.7-.8-6.7-1.9V.3Z"/>
  <path class="cls-1" d="M32.9,48.9c2.4-.1,4.7-.8,6.7-1.9V.3s-6.7,0-6.7,0v48.7Z"/>
  <path class="cls-1" d="M41.4,45.9c4.1-2.9,6.7-7.7,6.7-13.1V12.1h-6.7v33.8Z"/>
</svg>