<?xml version="1.0" encoding="UTF-8"?>
<svg id="Layer_1" data-name="Layer 1" xmlns="http://www.w3.org/2000/svg" version="1.1" viewBox="0 0 64 64">
  <defs>
    <style>
      .cls-1 {
        fill: #39b54a;
      }

      .cls-1, .cls-2, .cls-3, .cls-4 {
        stroke-width: 0px;
      }

      .cls-2 {
        fill: #ef4136;
      }

      .cls-3 {
        fill: #e6e7e8;
      }

      .cls-4 {
        fill: #1c75bc;
      }

      .cls-5 {
        fill: none;
        stroke: #e6e7e8;
        stroke-linecap: round;
        stroke-miterlimit: 10;
        stroke-width: 6px;
      }
    </style>
  </defs>
  <line class="cls-5" x1="3.2" y1="12.5" x2="60.8" y2="12.5"/>
  <g>
    <path class="cls-2" d="M46.7,21.3c-4.9,0-8.9-4-8.9-8.9s4-8.9,8.9-8.9,8.9,4,8.9,8.9-4,8.9-8.9,8.9Z"/>
    <path class="cls-3" d="M46.7,6c3.6,0,6.4,2.9,6.4,6.4s-2.9,6.4-6.4,6.4-6.4-2.9-6.4-6.4,2.9-6.4,6.4-6.4M46.7,1.1c-6.2,0-11.3,5.1-11.3,11.3s5.1,11.3,11.3,11.3,11.3-5.1,11.3-11.3S53,1.1,46.7,1.1h0Z"/>
  </g>
  <line class="cls-5" x1="3.2" y1="32" x2="60.8" y2="32"/>
  <g>
    <path class="cls-1" d="M19.9,40.9c-4.9,0-8.9-4-8.9-8.9s4-8.9,8.9-8.9,8.9,4,8.9,8.9-4,8.9-8.9,8.9Z"/>
    <path class="cls-3" d="M19.9,25.6c3.6,0,6.4,2.9,6.4,6.4s-2.9,6.4-6.4,6.4-6.4-2.9-6.4-6.4,2.9-6.4,6.4-6.4M19.9,20.7c-6.2,0-11.3,5.1-11.3,11.3s5.1,11.3,11.3,11.3,11.3-5.1,11.3-11.3-5.1-11.3-11.3-11.3h0Z"/>
  </g>
  <line class="cls-5" x1="3.2" y1="51.5" x2="60.8" y2="51.5"/>
  <g>
    <path class="cls-4" d="M41.9,60.4c-4.9,0-8.9-4-8.9-8.9s4-8.9,8.9-8.9,8.9,4,8.9,8.9-4,8.9-8.9,8.9Z"/>
    <path class="cls-3" d="M41.9,45.1c3.6,0,6.4,2.9,6.4,6.4s-2.9,6.4-6.4,6.4-6.4-2.9-6.4-6.4,2.9-6.4,6.4-6.4M41.9,40.2c-6.2,0-11.3,5.1-11.3,11.3s5.1,11.3,11.3,11.3,11.3-5.1,11.3-11.3-5.1-11.3-11.3-11.3h0Z"/>
  </g>
</svg>