<?xml version="1.0" encoding="UTF-8"?>
<svg id="Layer_1" data-name="Layer 1" xmlns="http://www.w3.org/2000/svg" xmlns:xlink="http://www.w3.org/1999/xlink" version="1.1" viewBox="0 0 64 64">
  <defs>
    <style>
      .cls-1 {
        fill: url(#linear-gradient);
      }

      .cls-1, .cls-2 {
        stroke-width: 2px;
      }

      .cls-1, .cls-2, .cls-3 {
        stroke: #e6e7e8;
        stroke-miterlimit: 10;
      }

      .cls-2 {
        fill: url(#linear-gradient-2);
      }

      .cls-4 {
        fill: #3a66b0;
        stroke-width: 0px;
      }

      .cls-3 {
        fill: none;
        stroke-linecap: round;
        stroke-width: 3px;
      }
    </style>
    <linearGradient id="linear-gradient" x1="28" y1="22.1" x2="41.3" y2="31.4" gradientUnits="userSpaceOnUse">
      <stop offset="0" stop-color="#fff"/>
      <stop offset="1" stop-color="#231f20"/>
    </linearGradient>
    <linearGradient id="linear-gradient-2" x1="6.5" y1="52.3" x2="13.4" y2="57.1" gradientUnits="userSpaceOnUse">
      <stop offset="0" stop-color="#fff"/>
      <stop offset=".2" stop-color="#d8d7d7"/>
      <stop offset=".6" stop-color="#767374"/>
      <stop offset="1" stop-color="#231f20"/>
    </linearGradient>
  </defs>
  <rect class="cls-4" x="13.1" y="42.2" width="5.7" height="9.7" transform="translate(-28.6 25.1) rotate(-45)"/>
  <path class="cls-1" d="M20.3,47.3l-4.5-4.5c-.9-.9-.6-2.6.6-3.8L49.1,6.2l5.2,5.2c.9.9-.2,1.8-1.4,3l-28.7,32.3c-1.2,1.2-2.9,1.5-3.8.6Z"/>
  <path class="cls-3" d="M49.8,6.2c4.8-4.8,9.8,1.1,8.5,4.6,2,2.1,3.1,5.1,1.2,7-3.9,3.9-10.7,8.6-14,12-3.3,3.3-3.9,6.7-3.9,6.7"/>
  <path class="cls-2" d="M16.9,52c-2.7,2.7-12.8,8-13.4,7.5s4.8-10.7,7.5-13.4l5.9,5.9Z"/>
</svg>