<?xml version="1.0" encoding="UTF-8"?>
<svg id="Layer_1" data-name="Layer 1" xmlns="http://www.w3.org/2000/svg" version="1.1" viewBox="0 0 64 64">
  <defs>
    <style>
      .cls-1 {
        fill: #759ad1;
      }

      .cls-1, .cls-2, .cls-3 {
        stroke-width: 0px;
      }

      .cls-2 {
        fill: #f1f2f2;
      }

      .cls-3 {
        fill: #506a90;
      }
    </style>
  </defs>
  <g>
    <path class="cls-1" d="M32,62c-16.5,0-30-13.5-30-30S15.5,2,32,2s30,13.5,30,30-13.5,30-30,30Z"/>
    <path class="cls-3" d="M32,4c15.4,0,28,12.6,28,28s-12.6,28-28,28S4,47.4,4,32,16.6,4,32,4M32,0C14.3,0,0,14.3,0,32s14.3,32,32,32,32-14.3,32-32S49.7,0,32,0h0Z"/>
  </g>
  <path class="cls-2" d="M37.1,52.5h-10.3l-.8-3.5c2.2,0,2.7-.8,2.7-2.8v-12.5c0-3.4-.4-4.4-2.5-4.4l.8-3,9.6-1.7.9,2.8c-1.6.4-2.1,1.2-2.1,3.5v15.2c0,2,.4,2.8,2.7,2.8l-.8,3.5ZM31.9,19.3c-2.1,0-3.9-1.7-3.9-3.8s1.8-3.9,3.9-3.9,3.9,1.8,3.9,3.9-1.8,3.8-3.9,3.8Z"/>
</svg>