<?xml version="1.0" encoding="UTF-8"?>
<svg id="Layer_1" data-name="Layer 1" xmlns="http://www.w3.org/2000/svg" version="1.1" viewBox="0 0 64 64">
  <defs>
    <style>
      .cls-1 {
        fill: #ca605e;
      }

      .cls-1, .cls-2, .cls-3 {
        stroke-width: 0px;
      }

      .cls-2 {
        fill: #e6e7e8;
      }

      .cls-3 {
        fill: #414042;
      }
    </style>
  </defs>
  <g>
    <g>
      <path class="cls-1" d="M8.7,63.5V.5h32.2c4.9,2.9,9.7,7.1,14.4,12.4v50.5H8.7Z"/>
      <path class="cls-3" d="M40.8,1.1c4.8,2.9,9.5,6.9,14,12.1v49.8H9.2V1.1h31.5M41.1,0H8.2v64h47.7V12.7c-4.3-4.9-9.2-9.4-14.8-12.7h0Z"/>
    </g>
    <polygon class="cls-3" points="41.1 0 41.1 12.7 55.8 12.7 49.2 6 41.1 0"/>
  </g>
  <g>
    <path class="cls-2" d="M18.7,33.2h-2.5v3c0,.8.2,1.1,1.1,1.1l-.3,1.3h-4.2l-.3-1.3c.9,0,1.1-.3,1.1-1.1v-9.2c0-.8-.2-1.1-1.1-1.1l.3-1.3h5.8c3.6,0,5.4,1.6,5.4,4.3s-1.9,4.3-5.3,4.3ZM18.4,26.4h-2.2v4.9h2.4c2,0,2.8-1,2.8-2.5s-.8-2.4-3-2.4Z"/>
    <path class="cls-2" d="M32.2,38.6h-6.2l-.3-1.3c.9,0,1.1-.3,1.1-1.1v-9.2c0-.8-.2-1.1-1.1-1.1l.3-1.3h6.2c4.9,0,7.2,2.4,7.2,7s-2.3,7-7.2,7ZM29.4,26.4v10.4h2.7c3.1,0,4.5-1.9,4.5-5.2s-1.4-5.2-4.5-5.2h-2.7Z"/>
    <path class="cls-2" d="M50.8,27.7c0-1.1-.3-1.4-2-1.4h-3.5v4.1h3.5c.8,0,1.1-.2,1.1-1l1.1.3v3.1l-1.1.3c0-.8-.3-1-1.1-1h-3.5v4c0,.8.2,1.1,1.1,1.1l-.3,1.3h-4.2l-.3-1.3c.8,0,1.1-.3,1.1-1.1v-9.2c0-.8-.2-1.1-1.1-1.1l.3-1.3h10v2.9l-1.1.3Z"/>
  </g>
</svg>