<?xml version="1.0" encoding="UTF-8"?>
<svg id="Layer_1" data-name="Layer 1" xmlns="http://www.w3.org/2000/svg" xmlns:xlink="http://www.w3.org/1999/xlink" version="1.1" viewBox="0 0 64 64">
  <defs>
    <style>
      .cls-1 {
        fill: #37404d;
      }

      .cls-1, .cls-2 {
        stroke: #37404d;
      }

      .cls-1, .cls-2, .cls-3 {
        stroke-miterlimit: 10;
        stroke-width: 1.5px;
      }

      .cls-4 {
        fill: url(#linear-gradient);
      }

      .cls-4, .cls-5, .cls-6 {
        stroke-width: 0px;
      }

      .cls-5 {
        fill: #ffeeaf;
      }

      .cls-2 {
        fill: none;
      }

      .cls-6 {
        fill: #ffd97b;
      }

      .cls-3 {
        fill: #677a8f;
        stroke: #677a8f;
      }
    </style>
    <linearGradient id="linear-gradient" x1="32" y1="26.9" x2="32" y2="63" gradientUnits="userSpaceOnUse">
      <stop offset="0" stop-color="#e6e7e8"/>
      <stop offset="1" stop-color="#414042"/>
    </linearGradient>
  </defs>
  <rect class="cls-4" x="1" y="26.9" width="62" height="36.1"/>
  <polygon class="cls-6" points="9 6.6 56.9 53.7 20.3 53.7 5.6 9.3 9 6.6"/>
  <g>
    <path class="cls-3" d="M4.8,12.9l-2.7-3.6c-.5-.7-.4-1.6.3-2.1l4.8-3.6c.7-.5,1.6-.4,2.1.3l2.7,3.6-7.1,5.5Z"/>
    <polyline class="cls-2" points="4.2 20.5 4.5 13.2 12.3 7.2 19.4 8.9"/>
    <rect class="cls-1" x="5.6" y="9.6" width="9" height="5.7" transform="translate(-5.5 8.7) rotate(-37.5)"/>
  </g>
  <path class="cls-5" d="M56.9,53.7c2.4,2-4.2,6.3-14.3,6.3s-21.1-3.2-22.3-6.3,8.7-4.9,14.3-4.9c10.7,0,18,1.2,22.3,4.9Z"/>
</svg>