<?xml version="1.0" encoding="UTF-8"?>
<svg id="Layer_1" data-name="Layer 1" xmlns="http://www.w3.org/2000/svg" version="1.1" viewBox="0 0 64 64">
  <defs>
    <style>
      .cls-1 {
        fill: #a7a9ac;
      }

      .cls-1, .cls-2, .cls-3 {
        stroke: #e6e7e8;
        stroke-miterlimit: 10;
      }

      .cls-2 {
        fill: none;
        stroke-width: 1px;
      }

      .cls-4 {
        fill: #e6e7e8;
        stroke-width: 0px;
      }

      .cls-3 {
        fill: #808285;
      }
    </style>
  </defs>
  <rect class="cls-2" x="1" y="1" width="62" height="62"/>
  <g>
    <path class="cls-4" d="M9.3,27.3c-.5,0-1,0-1.6,0-.8,2-1.3,3.2-1.5,3.8-.4,0-.7-.1-.9-.1s-.4,0-.7-.2c-.3,0-.4-.2-.5-.4,0-.1-.1-.3-.1-.5s.2-.9.6-1.8,1-2.3,1.7-4c.7-1.7,1.3-3.4,1.8-5,.6,0,1-.1,1.4-.1,1,0,1.7.4,1.9,1.3.9,2.7,1.5,4.6,1.9,5.6.9,2.4,1.6,4,1.9,4.6-.6.4-1.1.6-1.7.6s-1.2-.2-1.4-.7c-.1-.3-.3-.8-.5-1.3s-.4-1.1-.6-1.6c-.9,0-1.5,0-1.7,0ZM10.5,25.5c-.2-.7-.4-1.5-.7-2.5-.3-1-.4-1.6-.5-1.8-.7,2.6-1.2,4-1.3,4.4.6,0,1,0,1.4,0s.8,0,1,0Z"/>
    <path class="cls-4" d="M19.6,28.9c-.2,0-.5,0-.8,0-.1.3-.2.6-.2.7,0,.2.4.4,1.2.4h2.1c.7,0,1.4.2,1.9.5.5.4.8.9.8,1.7s-.5,1.6-1.5,2.2c-1,.6-2.3.8-3.7.8s-2.3-.2-3-.6c-.7-.4-1-.9-1-1.5s.4-1.1,1.1-1.8c-.3-.2-.4-.5-.4-.8s.1-.5.4-.9.6-.8.9-1.2c-.6-.3-1-.7-1.4-1.2-.3-.5-.5-1.1-.5-1.8s.4-1.8,1.2-2.4c.8-.6,1.8-1,3-1s2,.3,2.8.8c.6-.7,1.2-1.1,1.9-1.1s.6,0,.8.3c.2.2.3.5.3.8s0,.6-.2.9c-.2,0-.4,0-.5,0-.4,0-.8,0-1.2.3.2.4.3.9.3,1.4,0,1.1-.4,2-1.2,2.6-.8.6-1.8,1-2.9,1ZM20.6,31.8h-2.4c-.1.3-.2.6-.2.8,0,.6.5.9,1.6.9s1.4-.1,1.8-.3c.4-.2.6-.5.6-.8s-.5-.6-1.4-.6ZM21.1,25.5c0-.5-.1-1-.4-1.3-.3-.3-.6-.5-1.1-.5-.9,0-1.4.5-1.4,1.5s.1,1,.4,1.4.6.6,1,.6.9-.1,1.1-.4c.2-.3.3-.7.3-1.3Z"/>
    <path class="cls-4" d="M15.7,40.6c.2.2.3.4.3.7s-.1.6-.4,1c-1.6,2.2-3,4-4,5.4-1.1,1.4-1.7,2.2-1.9,2.5l-.4.4c.5,0,1,0,1.3,0,2,0,3.6-.3,4.9-.6.2.5.3,1,.3,1.3,0,.6-.5.9-1.4,1-.8,0-1.8.1-3.1.1-1.9,0-3.4,0-4.6-.2-.2-.3-.3-.5-.3-.8s.2-.7.5-1.2c3.4-4.7,5.4-7.4,6-8.1-.6,0-1.1,0-1.4,0-1.8,0-3.3.2-4.3.5-.3-.5-.4-1-.4-1.3s0-.4.2-.5.3-.3.5-.3c.5-.1,1.5-.2,2.8-.2,2.3,0,4.1.1,5.6.3Z"/>
    <path class="cls-4" d="M18.4,43.7c.5,0,.8,0,1.1.2.3.2.4.5.4.9v.2c.3-.4.7-.7,1.2-1,.4-.3.9-.5,1.3-.5s.6,0,.8.2c.2.2.3.4.3.6,0,.5-.2,1-.6,1.4-.4-.3-.8-.4-1.2-.4-.5,0-1.1.4-1.9,1.1,0,.7,0,1.4,0,2.1,0,1.7.1,2.9.3,3.5-.5.2-1,.2-1.5.2s-1,0-1.2-.3c-.2-.2-.3-.5-.3-.9s0-.6,0-1.3c0-.7,0-1.3,0-1.7,0-1.7,0-3.1-.1-4.2.5-.2.9-.2,1.5-.2Z"/>
  </g>
  <g>
    <path class="cls-4" d="M41.8,29c.8,0,1.4,0,1.8,0,.1.2.2.5.2.8,0,.7-.3,1-.9,1s-.6,0-1.4,0c-.8,0-1.5,0-2.2,0-1.1,0-1.9,0-2.4,0-.1-.3-.2-.6-.2-.9,0-.6.4-.9,1.2-.9h1c0-.2,0-.8,0-1.9,0-1,0-2,0-2.8,0-1.4,0-2.6,0-3.8-1.3.1-2,.2-2.2.3,0-.3,0-.5,0-.7,0-.7.3-1.2.9-1.2,1.4-.2,2.5-.3,3.2-.3s.5,0,.8.2c.2.1.3.4.3.7s0,.4,0,1c0,.6,0,1.3,0,2.1,0,.9,0,1.7,0,2.5v.9c0,1.3,0,2.3.1,3Z"/>
    <path class="cls-4" d="M52.1,29c.8,0,1.4,0,1.8,0,.1.2.2.5.2.8,0,.7-.3,1-.9,1s-.6,0-1.4,0c-.8,0-1.5,0-2.2,0-1.1,0-1.9,0-2.4,0-.1-.3-.2-.6-.2-.9,0-.6.4-.9,1.2-.9h1c0-.2,0-.8,0-1.9,0-1,0-2,0-2.8,0-1.4,0-2.6,0-3.8-1.3.1-2,.2-2.2.3,0-.3,0-.5,0-.7,0-.7.3-1.2.9-1.2,1.4-.2,2.5-.3,3.2-.3s.5,0,.8.2c.2.1.3.4.3.7s0,.4,0,1c0,.6,0,1.3,0,2.1,0,.9,0,1.7,0,2.5v.9c0,1.3,0,2.3.1,3Z"/>
    <path class="cls-4" d="M32.3,43.6c-.9-.3-1.3-.7-1.3-1.4s.5-.9,1.4-1.4c.9-.4,1.9-.6,2.9-.6s2,.3,2.7.9c.7.6,1.1,1.4,1.1,2.5s0,.8-.2,1.2c-.1.4-.3.8-.4,1.1-.2.3-.4.7-.8,1.1-.3.4-.6.7-.8.9s-.5.5-1,.9c-.5.4-.8.7-.9.8s-.5.4-.9.7c0,0,.2,0,.4,0,1.5,0,2.5,0,3.1,0s1.3-.2,1.9-.4c.2.4.2.8.2,1.1,0,.5-.2.9-.5,1.1-.4.2-1.5.3-3.4.3s-1.3,0-2.2,0c-.9,0-1.6,0-2,0-.6,0-1-.4-1-1.1s0-.5.1-.8c2.3-2,3.8-3.4,4.5-4.2.7-.8,1-1.6,1-2.4s-.1-1.1-.4-1.4c-.3-.3-.6-.5-1-.5s-.9.2-1.4.5c-.5.3-.9.7-1.2,1.2Z"/>
    <path class="cls-4" d="M46.9,45.7c1,.4,1.6.8,2,1.3.3.5.5,1.1.5,1.8s-.4,1.8-1.3,2.5-2.1,1.1-3.6,1.1-.6,0-.9,0c-.3,0-.6,0-1-.2-.4,0-.7-.2-.9-.4-.2-.2-.4-.4-.4-.7s.1-.5.3-.8.5-.4.8-.5c.1.3.4.5.8.6.4.2.8.2,1.2.2s1-.2,1.4-.5c.4-.3.6-.8.6-1.3s-.2-1.2-.6-1.6c-.4-.4-1-.6-1.7-.6s-.4,0-.5,0c-.1,0-.2,0-.4-.1-.1,0-.2-.2-.3-.3,0-.1,0-.3,0-.6s0-.4,0-.6c1.1,0,1.9-.2,2.4-.6.5-.4.8-.9.8-1.4s-.1-.7-.3-.9c-.2-.2-.5-.3-.9-.3s-.8.1-1.2.4c-.4.3-.7.6-.8,1-.4,0-.8-.2-1-.4-.2-.2-.4-.5-.4-.8,0-.5.4-.9,1.1-1.4s1.6-.6,2.7-.6,2.1.3,2.7.8c.6.5,1,1.2,1,2,0,1.3-.7,2.2-2.1,2.8Z"/>
    <path class="cls-4" d="M59,51.5c-.7.6-1.8,1-3.2,1s-2.4-.3-3.2-1c-.7-.6-1.1-1.4-1.1-2.3s.2-1.6.7-2.1c.5-.5,1.1-.9,2-1.3-.7-.3-1.3-.8-1.6-1.3s-.6-1.1-.6-1.8.4-1.4,1.1-1.8c.7-.5,1.6-.7,2.7-.7s2.1.3,2.8.8,1,1.1,1,1.9-.2,1.1-.6,1.5c-.4.5-.9.9-1.6,1.2.9.4,1.6.9,2,1.4s.7,1.3.7,2.2-.4,1.6-1.1,2.3ZM55.8,50.7c.5,0,.8-.2,1.1-.5.3-.3.4-.7.4-1.1s-.1-.9-.4-1.4c-.3-.5-.7-.8-1.3-1.1-.3.2-.6.6-.9,1-.2.5-.4,1-.4,1.5s.1.8.4,1.1c.2.3.6.4,1.1.4ZM55.8,42c-.7,0-1,.3-1,.8s.1.7.4,1.2c.3.4.6.7.9.8.5-.4.8-.9.8-1.7s-.4-1-1.1-1.1Z"/>
  </g>
  <rect class="cls-3" x="1" y="1" width="62" height="8"/>
  <line class="cls-1" x1="27.8" y1="9" x2="27.8" y2="63"/>
</svg>