<?xml version="1.0" encoding="UTF-8"?>
<svg id="Layer_1" data-name="Layer 1" xmlns="http://www.w3.org/2000/svg" version="1.1" viewBox="0 0 64 64">
  <defs>
    <style>
      .cls-1 {
        fill: #d8adab;
      }

      .cls-1, .cls-2 {
        stroke-width: 0px;
      }

      .cls-2 {
        fill: #a6505c;
      }

      .cls-3 {
        fill: none;
        stroke: #fff;
        stroke-miterlimit: 10;
        stroke-width: 7.6px;
      }
    </style>
  </defs>
  <g>
    <path class="cls-1" d="M32,62c-8,0-15.5-3.1-21.2-8.8-5.7-5.7-8.8-13.2-8.8-21.2s3.1-15.5,8.8-21.2c5.7-5.7,13.2-8.8,21.2-8.8s15.5,3.1,21.2,8.8c5.7,5.7,8.8,13.2,8.8,21.2s-3.1,15.5-8.8,21.2-13.2,8.8-21.2,8.8Z"/>
    <path class="cls-2" d="M32,4c7.5,0,14.5,2.9,19.8,8.2,10.9,10.9,10.9,28.7,0,39.6-5.3,5.3-12.3,8.2-19.8,8.2s-14.5-2.9-19.8-8.2C1.3,40.9,1.3,23.1,12.2,12.2,17.5,6.9,24.5,4,32,4M32,0C23.8,0,15.6,3.1,9.4,9.4c-12.5,12.5-12.5,32.8,0,45.3,6.2,6.2,14.4,9.4,22.6,9.4s16.4-3.1,22.6-9.4c12.5-12.5,12.5-32.8,0-45.3C48.4,3.1,40.2,0,32,0h0Z"/>
  </g>
  <line class="cls-3" x1="44.3" y1="19.7" x2="19.7" y2="44.3"/>
  <line class="cls-3" x1="19.7" y1="19.7" x2="44.3" y2="44.3"/>
</svg>