<?xml version="1.0" encoding="UTF-8"?>
<svg id="Layer_1" data-name="Layer 1" xmlns="http://www.w3.org/2000/svg" version="1.1" viewBox="0 0 64 64">
  <defs>
    <style>
      .cls-1 {
        fill: #2b3990;
        stroke-width: 3px;
      }

      .cls-1, .cls-2 {
        stroke: #e6e7e8;
        stroke-miterlimit: 10;
      }

      .cls-2 {
        fill: #414042;
        stroke-width: 2px;
      }

      .cls-3 {
        fill: #3f92cf;
        stroke-width: 0px;
      }
    </style>
  </defs>
  <polygon class="cls-1" points="45.2 4.8 36.2 6.8 5.5 36.7 4.7 46.1 8 55.9 8.1 56 17.9 59.3 26.3 58.5 57.2 27.8 59.3 18.8 55.7 8.2 45.2 4.8"/>
  <polygon class="cls-3" points="39.9 15.7 34.5 16.9 16.1 34.8 15.6 40.5 17.6 46.4 17.7 46.4 23.5 48.4 28.6 47.9 47.1 29.5 48.4 24.1 46.2 17.7 39.9 15.7"/>
  <circle class="cls-2" cx="36.3" cy="7" r="3.4"/>
  <circle class="cls-2" cx="45.5" cy="4.8" r="3.4"/>
  <circle class="cls-2" cx="55" cy="7.8" r="3.4"/>
  <circle class="cls-2" cx="59.3" cy="19" r="3.4"/>
  <circle class="cls-2" cx="56.5" cy="27.9" r="3.4"/>
  <circle class="cls-2" cx="26.5" cy="58.2" r="3.4"/>
  <circle class="cls-2" cx="17.3" cy="59.3" r="3.4"/>
  <circle class="cls-2" cx="8.2" cy="55.9" r="3.4"/>
  <circle class="cls-2" cx="4.7" cy="45.9" r="3.4"/>
  <circle class="cls-2" cx="6" cy="36.5" r="3.4"/>
</svg>